<?xml version="1.0" encoding="UTF-8"?><svg id="Layer_2" xmlns="http://www.w3.org/2000/svg" viewBox="0 0 284.82 185.31"><defs><style>.cls-1{fill:#ffc60b;}</style></defs><g id="Layer_1-2"><path class="cls-1" d="M17.89,185.31c-5.73,0-10.32-2.29-13.3-7.11-2.98-4.82-4.59-10.78-4.59-17.89s1.61-15.14,5.05-23.62c3.44-8.49,8.49-16.28,15.37-23.62,2.52-2.06,4.82-3.21,7.11-3.21,2.06,0,3.67.69,5.05,1.83s2.06,2.75,2.06,4.82-1.15,4.59-3.21,7.11c-3.9,3.67-7.34,9.86-10.78,18.58s-5.27,15.82-5.27,21.56v.69c0,3.67,1.15,5.5,3.44,5.5l1.61-.23c11.7-4.13,21.56-13.3,29.81-27.29,8.26-13.99,14.68-29.81,19.26-47.47,4.36-17.66,6.65-33.25,6.65-46.79,0-8.94-.92-16.51-2.98-22.25-2.06-5.73-5.5-8.49-9.86-8.49l-2.75.46c-5.96,1.83-11.24,4.82-15.82,9.17-7.34,5.27-13.07,12.15-17.43,20.41-1.61,3.44-3.44,5.96-5.04,7.34-1.83,1.61-3.67,2.29-5.28,2.29-2.06,0-3.9-.92-5.27-2.98-1.38-2.06-2.06-4.36-2.06-6.88,0-2.06.46-4.36,1.61-6.65,7.8-13.76,16.05-24.08,24.54-30.73C44.26,3.21,52.52,0,60.09,0c8.94,0,16.51,4.36,22.71,13.3,6.19,8.94,9.17,21.56,9.17,38.07,0,14.68-2.98,32.11-8.94,52.29-2.98,9.4-7.34,20.41-13.07,32.8-5.96,12.61-13.3,23.62-21.79,33.03-8.71,9.63-18.58,14.91-29.81,15.82h-.46Z"/><path class="cls-1" d="M97.92,129.81c-2.52-1.15-4.13-2.75-4.82-4.82-.92-2.06-1.38-4.13-1.38-6.42v-1.61c.69-11.24,3.44-21.79,8.26-31.88.92-1.83,1.83-3.21,2.52-3.9s1.61-.92,2.52-.92c.69,0,1.38.23,2.06.46.92.23,1.83.23,2.98.23.69,0,1.38,0,2.06-.23,1.6-.46,2.98-.69,4.59-.69,5.05,0,8.71,2.75,11.24,8.49.46,2.06.69,3.9.69,5.96,0,5.27-1.38,10.78-4.13,16.28-2.75,5.5-5.96,10.32-9.4,14.45-3.44,4.13-7.34,6.19-11.24,6.19-2.06,0-3.9-.46-5.96-1.61ZM115.81,98.85l.46-1.38c0-.46-.23-.92-.92-1.15l-4.36-1.83-.46-.23q-.23,0-.23.23-.23.23-.46.46c-2.98,6.65-4.59,13.3-4.59,20.41v1.38c4.36-5.5,8.03-11.47,10.55-17.89Z"/><path class="cls-1" d="M141.49,129.81c-2.52-1.15-4.13-2.75-4.82-4.82-.92-2.06-1.38-4.13-1.38-6.42v-1.61c.69-11.24,3.44-21.79,8.26-31.88.92-1.83,1.83-3.21,2.52-3.9s1.61-.92,2.52-.92c.69,0,1.38.23,2.06.46.92.23,1.83.23,2.98.23.69,0,1.38,0,2.06-.23,1.6-.46,2.98-.69,4.59-.69,5.05,0,8.71,2.75,11.24,8.49.46,2.06.69,3.9.69,5.96,0,5.27-1.38,10.78-4.13,16.28-2.75,5.5-5.96,10.32-9.4,14.45-3.44,4.13-7.34,6.19-11.24,6.19-2.06,0-3.9-.46-5.96-1.61ZM159.38,98.85l.46-1.38c0-.46-.23-.92-.92-1.15l-4.36-1.83-.46-.23q-.23,0-.23.23-.23.23-.46.46c-2.98,6.65-4.59,13.3-4.59,20.41v1.38c4.36-5.5,8.03-11.47,10.55-17.89Z"/><path class="cls-1" d="M185.52,148.84c-1.15-1.15-1.61-2.29-1.61-3.9-.23-3.44-.46-6.65-.46-9.86v-8.26c.69-25.92,2.29-50.68,4.13-74.54.46-6.19,1.38-12.84,2.29-20.18.92-7.11,2.52-13.53,4.36-19.26,1.38-3.44,3.44-5.04,6.19-5.04,2.06,0,4.36,1.15,6.42,3.44,2.06,2.29,3.21,5.28,3.21,8.94v.92c-.46,6.42-1.15,11.7-2.06,16.05-.23,2.75-.69,5.5-1.15,8.49-2.06,14.91-3.67,29.58-4.82,44.49-1.83,16.51-3.21,33.25-4.36,50v3.44c0,2.52-.92,4.59-3.21,5.73-1.38.69-2.75,1.15-4.36,1.15-1.38,0-2.98-.46-4.59-1.61Z"/><path class="cls-1" d="M213.5,139.9c-1.15-1.83-1.83-3.44-1.83-4.82,0-2.06,1.15-4.13,3.67-5.73,11.47-9.17,21.56-19.72,30.27-31.42.23-.23.46-.69.69-1.15.23-.23.46-.69.92-1.38-2.06.23-3.9.69-5.5.92-3.9.69-7.57,1.15-11.01,1.61l-1.61.23c-2.52,0-5.05-.92-7.34-2.98-2.52-1.83-3.9-4.13-4.59-6.88l-.23-1.61c0-2.52,1.15-4.36,3.67-5.5,4.13-2.06,8.49-3.21,12.84-3.44,4.82-.69,9.4-.92,14.22-.92,4.36,0,8.49.46,12.84,1.15,2.98.69,5.5,1.83,7.57,3.67,3.44,2.98,5.05,6.19,5.05,9.86,0,2.06-.46,4.36-1.61,6.42-2.52,4.82-5.96,8.71-10.09,12.16-3.67,3.44-7.34,7.34-10.78,11.47-1.15,1.15-2.06,2.29-3.21,3.44,5.73,0,11.24.23,16.05.46,4.82.46,9.4,1.6,13.76,3.21,2.98,1.38,5.27,3.44,6.88,6.42.46.92.69,1.83.69,2.52-.23,2.29-1.61,3.44-4.13,3.44h-1.61c-3.21-.69-6.65-.92-10.32-.92-13.07,0-25.92,2.06-38.53,5.96-1.38.46-2.75.69-4.13.69-5.05,0-9.17-2.29-12.61-6.88Z"/></g></svg>