<svg xmlns="http://www.w3.org/2000/svg" viewBox="0 0 128 128"><defs><style>.cls-1{fill:#4e9a29;}.cls-2{fill:#fff;}</style></defs><g id="bg"><rect class="cls-1" width="128" height="128"/></g><g id="Logo"><path class="cls-2" d="M80.4,23H47.5A24.69,24.69,0,0,0,22.8,47.7V80.6a24.69,24.69,0,0,0,24.7,24.7H80.4a24.69,24.69,0,0,0,24.7-24.7V47.7A24.75,24.75,0,0,0,80.4,23ZM50.3,28.7H77.7v18a32.27,32.27,0,0,0-7.1,5.7V35.6H57.3V52.4a35.53,35.53,0,0,0-7.1-5.7v-18Zm4,58.4V99.4H51.1V93.2a2.62,2.62,0,0,0-2.9-3H31.8V87.3H50.4a.6.6,0,0,0,0-1.2H31.8V83.3H51.4C54.7,83.3,54.3,84.7,54.3,87.1ZM58.8,79V99.4H55.6V85.1a2.62,2.62,0,0,0-2.9-3H31.8V79.2H54.9a.6.6,0,1,0,0-1.2H31.8V75.1H55.9C59.2,75.1,58.8,76.5,58.8,79Zm4.6,20.4H60.2V76.9a2.62,2.62,0,0,0-2.9-3H31.9V71.1H59.6a.6.6,0,1,0,0-1.2H31.9V67.1H60.1a4.34,4.34,0,0,1,3.2,4.4l.1,27.9ZM96.1,86.1H77.5a.6.6,0,0,0,0,1.2H96.1v2.9H79.7a2.62,2.62,0,0,0-2.9,3v6.2H73.6V87.1c0-2.5-.4-3.9,2.8-3.9H96v2.9Zm0-8.1H73a.6.6,0,0,0,0,1.2H96.1v2.9H75.2a2.62,2.62,0,0,0-2.9,3V99.4H69.1V78.9c0-2.5-.4-3.9,2.8-3.9H96v3Zm0-8.2H68.4a.6.6,0,1,0,0,1.2H96.1v2.8H70.7a2.62,2.62,0,0,0-2.9,3V99.3H64.6v-28a4.26,4.26,0,0,1,3.2-4.4H96v2.9Zm0-4.1H88.8V51c-3.1.4-9.4,3.7-12.6,7.6H86.9v7.2H31.8V51.7H39v6.9H51.6c-4-4.7-12.6-8.7-19.8-8.5V37.5H49.3v7.2H43.5A32.45,32.45,0,0,1,64,65.6,32.58,32.58,0,0,1,84.5,44.7H78.6V37.5H88.8V35.4h7.3V65.7Z"/><path class="cls-2" d="M63.9,65.7H64c0-.1,0-.1-.1-.1Z"/></g></svg>