<svg xmlns="http://www.w3.org/2000/svg" viewBox="0 0 128 128"><defs><style>.cls-1{fill:#fdc34a;}.cls-2{fill:#fff;}</style></defs><g id="bg"><rect class="cls-1" width="128" height="128"/></g><g id="Logo"><path class="cls-2" d="M48.2,54.6a34.09,34.09,0,0,0,5.7,9.1,52.73,52.73,0,0,0,2.2-4.9,106.86,106.86,0,0,0,5.4-23A152,152,0,0,0,62.7,18,47,47,0,0,0,43,22.9c-.1.1-.4.2-.5.4-.1,1.2,0,2.4-.1,3.6A71.62,71.62,0,0,0,48.2,54.6Z"/><path class="cls-2" d="M70.2,54.2A51.37,51.37,0,0,0,74,63.6,42.68,42.68,0,0,0,78.5,57a63.64,63.64,0,0,0,6.7-23.4,88.68,88.68,0,0,0,.4-10.3A43.73,43.73,0,0,0,80.7,21a44.86,44.86,0,0,0-15.4-3,81.43,81.43,0,0,0,.3,8.6A123.45,123.45,0,0,0,70.2,54.2Z"/><path class="cls-2" d="M31.2,58.8a50.25,50.25,0,0,0,7-17.1,81.26,81.26,0,0,0,1.9-17,3.33,3.33,0,0,0-1,.6A46.49,46.49,0,0,0,18,70,32,32,0,0,0,31.2,58.8Z"/><path class="cls-2" d="M105,42.6A46.79,46.79,0,0,0,91.2,26.7a37,37,0,0,0-3.3-2.1,80.4,80.4,0,0,0,1.2,13.8c1.2,6.9,3.4,13.8,7.2,19.6A30.24,30.24,0,0,0,110,69.8,46,46,0,0,0,105,42.6Z"/><path class="cls-2" d="M50.1,72.1a9.34,9.34,0,0,0-1.3-1.5,32.79,32.79,0,0,1-4.9-7.4,40.06,40.06,0,0,1-2.6-6.5,9.49,9.49,0,0,0-.9,2.1,38.8,38.8,0,0,1-5.6,10.4A32.43,32.43,0,0,1,20.4,80.1a4.23,4.23,0,0,0,.4,1.2,41,41,0,0,0,5.7,10.2A24.51,24.51,0,0,0,29.4,95a18.65,18.65,0,0,0,2-1c7-4.5,12.5-11,16.7-18A28.68,28.68,0,0,0,50.1,72.1Z"/><path class="cls-2" d="M64.6,59c-.2-.8-.1-1.7-.7-2.3-.5.7-.4,1.6-.7,2.3a108.2,108.2,0,0,1-7,22.9c-3.6,8.3-8.2,16.2-14.7,22.5-.3.4.4.5.6.7a47.7,47.7,0,0,0,21.3,5.4,45.52,45.52,0,0,0,22.8-5.8A70.74,70.74,0,0,1,71.3,81.8,133.16,133.16,0,0,1,64.6,59Z"/><path class="cls-2" d="M87.6,58.7a7,7,0,0,0-.8-2,9.89,9.89,0,0,0-.9,2.4,36.79,36.79,0,0,1-7.8,12.8c-.4.3-.1.7.1.9a76.73,76.73,0,0,0,5.1,8.3,51.78,51.78,0,0,0,13.4,13,5.07,5.07,0,0,0,1.8.9,5.26,5.26,0,0,0,1.2-1.4,47,47,0,0,0,6.2-9.7,17.68,17.68,0,0,0,1.5-3.8,31.36,31.36,0,0,1-8.5-4.9A37.09,37.09,0,0,1,87.6,58.7Z"/></g></svg>