<svg xmlns="http://www.w3.org/2000/svg" viewBox="0 0 128 128"><defs><style>.cls-1{fill:#214796;}.cls-2{fill:#fff;}</style></defs><g id="bg"><rect class="cls-1" width="128" height="128"/></g><g id="Logo"><path class="cls-2" d="M80.3,39.6,64,18.3,47.7,39.6C35.4,55.7,30.5,62.9,30.5,73.7c0,9.2,2.4,13.6,10.9,19.8l22.5,16.3L86.4,93.5C95,87.3,97.3,82.8,97.3,73.7,97.5,62.9,92.6,55.7,80.3,39.6ZM59,92.5l-.1,4.4c0,.6-.4.6-.7.4-5.9-4.2-12.7-9.2-12.7-9.2-7.2-5.1-7.6-10.7-7.6-14.5a20.6,20.6,0,0,1,1.6-8.2c.1-.2.2-.6.4-.6s.2.1.3.2c2.5,3.6,6.5,9.6,10.5,14.4C58.4,88.7,59.1,88,59,92.5Zm5-8.3c-.1,0-.1-.1-.2-.1L48,65.4a10.7,10.7,0,0,1-2.8-6.9,8,8,0,0,1,1.7-4.7L63.8,30.6c.1-.1.1-.1.2-.1s.1.1.2.1L81.1,53.8a8,8,0,0,1,1.7,4.7A10.39,10.39,0,0,1,80,65.4L64.2,84.1C64.1,84.2,64.1,84.2,64,84.2Zm18.6,3.9L69.9,97.3c-.4.3-.6.2-.7-.4l-.1-4.4c-.1-4.6.6-3.8,8.4-13.1,4-4.9,8-10.7,10.5-14.4.1-.1.2-.2.3-.2s.4.4.4.6a22.91,22.91,0,0,1,1.6,8.2C90.2,77.4,89.7,83,82.6,88.1Z"/></g></svg>