<svg xmlns="http://www.w3.org/2000/svg" viewBox="0 0 128 128"><defs><style>.cls-1{fill:#1f915f;}.cls-2{fill:#fff;}</style></defs><g id="bg"><rect class="cls-1" y="-0.6" width="128" height="128.5"/></g><g id="Logo"><path class="cls-2" d="M38.8,98.9c-3.6-2.7-5.7-8.1-5.7-8.1a42.27,42.27,0,0,1-7.3-4.1,18.89,18.89,0,0,1,5.3-2c-.9-5.2.3-12.2.3-12.2a31.6,31.6,0,0,0,3.9,11.3,69.5,69.5,0,0,1,7-1.1,29.75,29.75,0,0,0-3.1,6,30.47,30.47,0,0,0,8.4,5.4,39.67,39.67,0,0,1-9.3-1.5A29.22,29.22,0,0,0,38.8,98.9Zm9.7-30.2A61.69,61.69,0,0,1,45,58.5s-5.1,3.2-12.9,10.8A64.49,64.49,0,0,1,42,54.7s-2-2-9.3-2.7a38.49,38.49,0,0,1,14.8-1.7,28.31,28.31,0,0,1,9.2-4.6,20.6,20.6,0,0,0-2.6,5.2c8.2.9,15.8,5.7,15.8,5.7s-12.6-2-18-.3A53.35,53.35,0,0,0,48.5,68.7ZM66.8,94.2a13.83,13.83,0,0,0,.6,2.9s-1.1.1-4.2.2a32.77,32.77,0,0,1-9.9,3.5,37.46,37.46,0,0,0,5.2-4.1A18.9,18.9,0,0,1,53.3,95a59.76,59.76,0,0,0,8.1-1.1A63.76,63.76,0,0,0,66,88s.2,2.4.5,3.9a49.17,49.17,0,0,0,7.2-4.4A41.5,41.5,0,0,1,66.8,94.2ZM97.9,37.9A54.15,54.15,0,0,1,94.4,59c0-4.2-.4-11.8-2.9-17-2,1.4-7,3.9-14.2,7.5a78.19,78.19,0,0,0,7.2-9.1,113.35,113.35,0,0,0-20.6,2.3c4.7-2.6,14-5.7,21.5-7-3.3-2.8-9.4-6.2-14.2-8.5,3.8.1,18.4,2.9,23.4,6.7a42.89,42.89,0,0,1,7.6-.9A12,12,0,0,1,97.9,37.9Zm-59.1,61c-3.6-2.7-5.7-8.1-5.7-8.1a42.27,42.27,0,0,1-7.3-4.1,18.89,18.89,0,0,1,5.3-2c-.9-5.2.3-12.2.3-12.2a31.6,31.6,0,0,0,3.9,11.3,69.5,69.5,0,0,1,7-1.1,29.75,29.75,0,0,0-3.1,6,30.47,30.47,0,0,0,8.4,5.4,39.67,39.67,0,0,1-9.3-1.5A29.22,29.22,0,0,0,38.8,98.9Zm9.7-30.2A61.69,61.69,0,0,1,45,58.5s-5.1,3.2-12.9,10.8A64.49,64.49,0,0,1,42,54.7s-2-2-9.3-2.7a38.49,38.49,0,0,1,14.8-1.7,28.31,28.31,0,0,1,9.2-4.6,20.6,20.6,0,0,0-2.6,5.2c8.2.9,15.8,5.7,15.8,5.7s-12.6-2-18-.3A53.35,53.35,0,0,0,48.5,68.7ZM66.8,94.2a13.83,13.83,0,0,0,.6,2.9s-1.1.1-4.2.2a32.77,32.77,0,0,1-9.9,3.5,37.46,37.46,0,0,0,5.2-4.1A18.9,18.9,0,0,1,53.3,95a59.76,59.76,0,0,0,8.1-1.1A63.76,63.76,0,0,0,66,88s.2,2.4.5,3.9a49.17,49.17,0,0,0,7.2-4.4A41.5,41.5,0,0,1,66.8,94.2ZM97.9,37.9A54.15,54.15,0,0,1,94.4,59c0-4.2-.4-11.8-2.9-17-2,1.4-7,3.9-14.2,7.5a78.19,78.19,0,0,0,7.2-9.1,113.35,113.35,0,0,0-20.6,2.3c4.7-2.6,14-5.7,21.5-7-3.3-2.8-9.4-6.2-14.2-8.5,3.8.1,18.4,2.9,23.4,6.7a42.89,42.89,0,0,1,7.6-.9A12,12,0,0,1,97.9,37.9Z"/></g></svg>