<svg xmlns="http://www.w3.org/2000/svg" viewBox="0 0 128 128.3"><defs><style>.cls-1{fill:#de2341;}.cls-2,.cls-3{fill:#fff;}.cls-2{opacity:0.7;isolation:isolate;}</style></defs><g id="bg"><rect class="cls-1" width="128" height="128.3"/></g><g id="Logo"><path class="cls-2" d="M51.2,52.3C48,53.7,34,59.9,28.7,63c-2.3-.9-4.2-1.6-6.8-2.6,10.9-6.3,22.8-9.9,23-10.2C47.1,50.9,48.9,51.8,51.2,52.3Z"/><path class="cls-2" d="M61.8,56.8C58.6,58.2,44.4,65,39.2,68.1a68.86,68.86,0,0,0-7.3-3.4c10.9-6.4,22.2-10.6,22.4-10.9C56.4,54.5,59.5,55.8,61.8,56.8Z"/><path class="cls-3" d="M95.7,54.3c-3.2,1.4-25.4,8.6-46.4,22.5a57.33,57.33,0,0,0-9.5-4.9C50.7,65.5,65.1,56,87.2,50.3,90.5,51.8,92.8,53,95.7,54.3Z"/><path class="cls-3" d="M106.1,60.1C102.9,61.5,76,74.3,62.9,85.7c-2.4-1.4-7.6-5.3-10-6.6C63.4,72.3,76.7,62.6,98.4,56A77,77,0,0,1,106.1,60.1Z"/><path class="cls-3" d="M51.4,45.6A146.81,146.81,0,0,1,71,53.2a62,62,0,0,1-6.2,2.4C50.9,49.7,45.2,48,44.9,47.8,46.2,47.3,50.3,46,51.4,45.6Z"/><path class="cls-3" d="M61.6,43c5.7,1.8,14.5,4.3,20,7.2a58.53,58.53,0,0,0-6.7,1.9C61,46.2,55.8,44.7,55.6,44.5,56.8,44,60.5,43.3,61.6,43Z"/></g></svg>