<svg xmlns="http://www.w3.org/2000/svg" viewBox="0 0 128 128.3"><defs><style>.cls-1{fill:#17755b;}.cls-2{fill:#fff;}</style></defs><g id="bg"><rect class="cls-1" width="128" height="128.3"/></g><g id="Logo"><polygon class="cls-2" points="85.8 51.6 85.6 51.7 85.2 51.8 84.7 51.9 84.4 51.9 84 51.9 83.7 51.8 83.4 51.6 83.3 51.6 83.4 52.1 83.7 53 84.1 54 84.6 55 85.2 55.9 85.8 56.6 86.4 57.1 87 57.4 87.5 57.6 88 57.6 88.5 57.5 88.8 57.4 89.1 57.3 89.2 57.1 104.5 48.8 104.5 41.4 85.8 51.6"/><polygon class="cls-2" points="92.3 59.3 86.8 62.4 85.9 62.8 78.2 46.3 66.8 46.3 50.7 76 51.3 75.9 51.9 75.8 53.3 75.6 54.8 75.3 56.4 75 57.9 74.5 59.6 74 61.2 73.4 62.4 73.1 62.9 72.8 63.4 72.6 63.7 72.2 64.2 71.7 64.4 71.2 72.2 55.1 77.2 67.5 77.1 67.6 73 69.6 69.2 71.5 65.9 73 62.8 74.3 59.8 75.4 56.8 76.4 53.9 77.2 51 77.9 48.3 78.5 45.6 78.9 43.1 79.3 40.9 79.5 38.9 79.6 37.3 79.8 35.8 79.7 33.6 79.4 32.1 79.1 31 78.6 30.1 78.1 29.4 77.4 28.8 76.5 28.5 75.7 28.4 74.6 28.5 73.4 28.9 72 29.7 70.4 30.6 68.8 31.8 67.3 33.1 65.8 34.5 64.4 35.9 63.1 37.4 62 39.1 60.7 40.9 59.5 42.5 58.5 44.3 57.5 46.1 56.6 47.9 55.8 49.7 55 51.5 54.5 53.1 54 54.6 53.7 55.9 53.4 57.2 53.3 58.6 53.5 59.4 53.6 59 52.2 58.3 49.9 57.8 48.3 57.4 47.3 57 46.8 56.7 46.4 56.3 46.2 55.8 46 54.9 45.9 53.6 45.9 52 46.1 50.2 46.5 48.3 47.1 46.4 47.8 44.5 48.6 42.7 49.4 40.9 50.4 39.2 51.3 37.4 52.4 35.7 53.7 33.8 54.9 32.3 56.2 30.9 57.3 29.7 58.5 28.4 59.8 27.3 61.1 26.3 62.6 25.4 64 24.6 65.6 24 67.2 23.7 68.8 23.5 70.3 23.7 72 24 73.7 24.4 75.5 25.1 77.1 25.7 78.6 26.6 80 27.6 81.3 28.7 82.5 29.9 83.5 31.2 84.4 32.7 85.1 34.4 85.7 36.4 86.3 38.6 86.7 40.9 86.9 43.1 87 45.3 86.8 47.2 86.7 49 86.5 50.8 86.2 52.7 85.8 54.5 85.3 56.1 84.9 57.9 84.4 59.8 83.9 61.6 83.3 63.4 82.6 65.3 81.9 67.2 81.2 69.1 80.4 71 79.4 73 78.5 74.1 77.9 75.6 77 77.7 76 80 74.7 84.5 85.8 84.6 86.2 84.8 86.5 85.1 86.7 85.4 87 85.8 87.2 86.1 87.3 86.5 87.4 86.9 87.4 97.3 87.4 89.1 69.7 90.5 69 97.1 65.2 104.5 61.2 104.5 52.4 98.3 55.9 92.3 59.3"/></g></svg>