<svg xmlns="http://www.w3.org/2000/svg" viewBox="0 0 128 128.5"><defs><style>.cls-1{fill:#2084c5;}.cls-2{fill:#fff;}</style></defs><g id="bg"><rect class="cls-1" width="128" height="128.5"/></g><g id="Logo"><path class="cls-2" d="M46.6,80.9a10.29,10.29,0,0,1-8.3,4,10.5,10.5,0,1,1,7.9-17.4l3.9-5a16.8,16.8,0,1,0,0,23.8Z"/><rect class="cls-2" x="53.5" y="58.2" width="7.1" height="32.7"/><rect class="cls-2" x="92.4" y="58.4" width="7.1" height="32.7"/><path class="cls-2" d="M80.2,91.2c-6.1,0-7.6-5.2-7.7-8.2h-.1V64.4H66.1v-6h6.3V52.1l6.3-3.9-.2,4.9v5.3h6.4v6H78.5V81a2.5,2.5,0,0,0,0,1.4v.4A4.18,4.18,0,0,0,81,86a4.67,4.67,0,0,0,1.7.3A4.46,4.46,0,0,0,86,84.8c.2-.2.3-.5.5-.7h0C86.6,84,86.7,91.2,80.2,91.2Z"/><path class="cls-2" d="M78.6,80.9v1.4a2.5,2.5,0,0,1,0-1.4Z"/><path class="cls-2" d="M77.6,37.9a34.91,34.91,0,0,0-29,15.4H58.7a27.14,27.14,0,0,1,18.8-7.7,26.53,26.53,0,0,1,18.8,7.7h10.2A34.82,34.82,0,0,0,77.6,37.9Z"/></g></svg>