<svg xmlns="http://www.w3.org/2000/svg" viewBox="0 0 128 128"><defs><style>.cls-1{fill:#f37d32;}.cls-2{fill:#fff;}</style></defs><g id="bg"><rect class="cls-1" width="128" height="128"/></g><g id="Logo"><path class="cls-2" d="M21.9,84.9c0-4.5.1-8.9,0-13.3,0-1.5.5-1.8,1.8-1.8,2.5.1,5,0,7.5.1,1.5.1,1.8-.5,1.8-1.9q-.15-4.2,0-8.4c0-1.2-.4-1.8-1.7-1.8-2.6.1-5.2,0-7.8.1-1.2,0-1.5-.4-1.5-1.5.1-5.2.1-10.4,0-15.7a2.58,2.58,0,0,1,1.5-2.3c10.8-6.3,21.6-12.5,32.4-18.9a2.09,2.09,0,0,0,.6-.4c3.2-2.9,5.9-2.1,9.3.1,12.7,8.3,25.7,16.3,38.5,24.3a3.39,3.39,0,0,1,1.8,3.2c-.1,7.9-.1,15.9,0,23.8,0,1.5-.4,2-1.9,1.9-2.6-.1-5.2,0-7.8-.1-1.2,0-1.8.3-1.7,1.6q.15,4.35,0,8.7c0,1.2.4,1.7,1.7,1.7,2.6-.1,5.2,0,7.8,0,1.1,0,1.6.3,1.5,1.5q-.15,6.15,0,12.3c0,1.4-.6,1.8-1.8,2.2-10.7,3.4-21.4,6.7-32.1,10.3a8.84,8.84,0,0,1-6.4-.3c-8.2-3.3-16.4-6.5-24.6-9.7a6.63,6.63,0,0,0-2.8-.5c-4.8-.1-9.5-.1-14.2,0-1.7.1-2.1-.6-2.1-2.1C21.9,93.6,21.9,89.2,21.9,84.9ZM28.5,47q1.2-.3,2.1-.6C38.7,43.7,46.9,41,55,38.2a5,5,0,0,1,5,.7c4.7,3.4,9.5,6.6,14.4,9.8a2.92,2.92,0,0,1,1,4.3c-1.2,2.1-2.5,2.5-4.4,1.4s-3.9-2.5-5.9-3.7c-2.2-1.4-3.7-1-5.4,1.4-1.5,2.1-1.2,3.7.9,5.1,5,3.5,10,7,15.1,10.3a5.2,5.2,0,0,0,2.5.7c6.5.1,13.1,0,19.6.1,1.4,0,2-.3,2-1.8-.1-5.7-.1-11.5,0-17.2A2.56,2.56,0,0,0,98.6,47C86.4,39.7,74,32.4,61.8,25.1a2.7,2.7,0,0,0-3.2,0C49.4,30.5,40.1,36,30.9,41.4,27.8,42.8,27.6,43.4,28.5,47ZM78.4,89.1H58.6c-2.1,0-3.2-1.3-3.2-3.6.1-2.1.9-2.9,3.1-2.9,3.2,0,6.3.1,9.5-.1,2.3-.1,3.4-1.4,3.4-3.8a3.71,3.71,0,0,0-3.7-3.8H29.8c-1.2,0-1.7.4-1.7,1.6.1,5.5.1,11.1,0,16.6,0,1.3.4,1.8,1.8,1.8q6.3-.15,12.6,0a6.63,6.63,0,0,1,2.8.5c7.2,2.8,14.4,5.6,21.5,8.4a5.3,5.3,0,0,0,4.1.1c8.9-3,18-5.9,27-8.9,1.6-.5,2.4-1.2,2.1-3a2.05,2.05,0,0,1,0-1.1c.1-1.4-.4-1.8-1.8-1.8Z"/></g></svg>