<svg xmlns="http://www.w3.org/2000/svg" viewBox="0 0 128 127.9"><defs><style>.cls-1{fill:#e8248d;}.cls-2,.cls-3{fill:#fff;}.cls-3{fill-rule:evenodd;}</style></defs><g id="bg"><rect class="cls-1" width="128" height="127.9"/></g><g id="Logo"><path class="cls-2" d="M64,110.6A46.43,46.43,0,1,1,97,97,46.69,46.69,0,0,1,64,110.6ZM64,18A46.09,46.09,0,1,0,96.5,31.5,45.61,45.61,0,0,0,64,18Z"/><path class="cls-3" d="M45.4,29.5h0c.4-.5.4-1.3,1-1.5a6.07,6.07,0,0,1,.7,1l.3.3c-.1.7.4.9.5,1.5-.1-.1-.1.3,0,.2v.1c.1.1.1.2.2.2a2,2,0,0,0,.2,1.4c-.1-.1-.1.3,0,.2v.4c-.2.1.1.4.2.4.1.3-.1.7,0,.7s.1.2.2.2c-.1,1.4.4,1.7.2,3-.1-.1-.1.3,0,.2v.8c.1.1.1.2.2.2v2.3c-.1-.1-.1.3,0,.2v.1c0,.1.4.1.3-.1a.1.1,0,0,1,.1-.1c.2-.1.1-.6.3-.6v-.1c.1-.1.3-.1.2-.2.1,0,0-.4.1-.4h.1c.1,0,.1-.2.1-.4a.1.1,0,0,1,.1-.1c.2-.1.1-.6.3-.6v-.1c.1-.1,0-.5.1-.7a.1.1,0,0,1,.1-.1,12.65,12.65,0,0,0,.1-3.4c-.1-.1-.3-.1-.2-.4,0-.9-.8-1.2-.7-2h.1c.3-.1.2.3.5.2h.2c.1.1.1.2.2.2h.1c0,.1,0,.1.1.1v.1c.1.1.2.3.4.4a.1.1,0,0,1,.1.1,9.43,9.43,0,0,0,1,1v.2c0,.2.1.1.2.2v.1c.1.1.1.2.2.2-.1.4.4.4.2,1,.1.1.1.2.2.2v.2c.1.1.1.2.2.2v.2c.1.2-.1.2,0,.3s.1.2.2.2v.7c.1.1.1.2.2.2v2.6c-.1.1-.2.1-.2.2v.7c-.1.1-.2.1-.2.2v.5a1.21,1.21,0,0,0-.5.5V43a1.21,1.21,0,0,0-.5.5v.2c-.7.2-.9.7-1.6.9-.1,0-.1,0-.1.1-.3.1-.8,0-1.2.1l-.4.4v.7c-.1-.1-.1.3,0,.2v2.4c-.1.1-.2.1-.2.2v.2c-.1.1-.2.1-.2.2v.2c-.1.1-.1.2-.2.3v1.2c-.1.1-.2.1-.2.2.1.5-.3.5-.2.9-.1.4-1.1.7-.5,1.2v.1c-.1.1.1.3.2.4v.5c-.1.1-.2.1-.2.2v2c-.1.1-.2.1-.2.2s-.1.2,0,.5c-.1.1-.2.1-.2.2v.1c-.1,0-.1.4,0,.4a6.53,6.53,0,0,0,0,1.4c.1.1.2.1.2.2.1.4-.1.7.1.9a.1.1,0,0,1,.1.1c0,.4-.1.5,0,.8-.1-.1-.1.3,0,.2v.4c-.1.1-.2.1-.2.2v2.3c.1.1.2.1.2.2s0,.1-.1.2c.4.2.3.5.3,1h-.1c0,.1-.1.1-.2.2a.1.1,0,0,1-.1.1h-.1c-.1.1-.3.2-.4.4v.2c-.1.1-.2.1-.2.2v.2c-.1.1-.2.1-.2.2s.1.4,0,.7c-.1.1-.2.1-.2.2s.1.3,0,.5l-.3.3c-.1.1-.2.1-.2.4-.1.1-.2.1-.2.2s0,.1-.1.1c-.3-.3-1.2-.9-1.4-1.4-.2-.7,0-1.3-.2-1.7-.4-.7-1.2-.9-1-2,0-.1,0-.1.1-.1h.1c.1-.1.1-.5.3-.7,0-.1,0-.2-.1-.2-.1-1.2,0-2.7-.1-4h.1c.4-.5.2-2.9.1-3.6h-.1c-.2-.5.1-1.4-.1-1.9,0-.1,0-.1-.1-.1-.2-.7.1-1.8-.1-2.4-.1-.1-.2-.3-.4-.4s.1-.5-.1-.7c0-.1,0-.1-.1-.1-.3-.6.3-2-.3-2.3v-.1c0-.1,0-.2-.1-.2s0-.1-.1-.1a3.47,3.47,0,0,1,.2-2.3c.1,0,.1,0,.1-.1s0-.2.1-.3.1-.1.2-.1c.1-.2-.1-.2-.2-.3s0-.2-.1-.2-.2-.3-.4-.4-.7.1-.9-.1v-.1c0-.2-.4-.1-.5-.2s0-.1-.1-.1-.4,0-.4-.1,0-.1-.1-.1-.4-.1-.4-.2h-.1a1.21,1.21,0,0,0-.5-.5c-.2-.1.1-.5-.3-.6,0-.1.1-.3-.1-.3v-.1a4.33,4.33,0,0,1-.5-1.2v-.1c-.1-.1-.2-.1-.2-.2v-.1c.1.1.1-.3,0-.2v-.1a2.43,2.43,0,0,0,0-1.2c0-.1,0-.1-.1-.1a2.36,2.36,0,0,0,.1-1.7v-.1c.1-.1.1-.2.2-.3V36c.1-.2,0-.6.2-.7v-.1c.1-.1.1-.4.2-.4v-.1a7.81,7.81,0,0,0,1.1-2,12.09,12.09,0,0,0,1.6-1.6h.1c.5.1.6-.8,1-.4-.1,0-.1.1-.2.2-.1.4-.5.8-.5,1.2-.1.1-.2.1-.2.2v.1c-.1,0-.1.4,0,.3v.1c-.1.1-.2.1-.2.2v.1a15,15,0,0,0,0,3v.1c.1.1.1.2.2.3v.1a.64.64,0,0,0,0,.6v.1c.1.1.1.2.2.3v.2h-.1c0,.4.3.4.3.7v.1c.1.1.1.3.2.4v.1c.1.2.4.4.5.7v.1a.1.1,0,0,0,.1.1c.4-.4.2-1.2.2-1.8a6.38,6.38,0,0,0-.1-2v-.1H43c.1-.1.1-.2.2-.2,0-.7-.1-1.5.2-1.9v-.9c.1-.1.3-.1.2-.4,0-1,.5-1.6.5-2.6.1-.1.3-.1.2-.4.6.9.9.4,1.1-.2Zm-1.7,16a.1.1,0,0,0-.1-.1.1.1,0,0,0-.1-.1c0-.1,0-.4-.1-.4h-.1c-.1-.1-.9-.1-.6.2h.1c0,.1.2,0,.3.1-.1.4.1.4.3.6v.1C43.6,46,43.9,45.5,43.7,45.5Zm2.4-15.4c-.1-.1-.3.1-.2.4.1,0,.1.1.3.1,0-.1.1-.1.1-.2v-.1A.22.22,0,0,0,46.1,30.1Zm.8.6c0-.1-.3-.1-.2.1v.1c0,.1.5-.1.2-.2Zm1.3,13.4c.1-1,.1-2.3.1-3.5a20.37,20.37,0,0,0,0-3.5c-.1-.4-.4-.7-.2-1.2-.4-.7-.4-1.8-1-2.3a.1.1,0,0,1-.1.1v.1a.85.85,0,0,0,0,.7v.3c-.1.1-.2.1-.2.2s.1.2,0,.4c-.1,0-.1.4,0,.3v1.2c-.1,0-.1.4,0,.4v3.9a1.1,1.1,0,0,0,0,.8,7.52,7.52,0,0,0,0,1.5.53.53,0,0,0,.2.7c.1.2-.1.7.1.7s.3,0,.4-.1v-.1c.1-.1.5,0,.5-.2s.1-.2.2-.4Zm-2.5-9.9c0-.2-.3-.1-.2.1-.1.1,0,.4-.1.6-.1,0-.1.1-.2.1v.2c-.1.1-.2.1-.2.2v.1c-.1,0-.1.4,0,.3v.1c-.1.1-.2.1-.2.2v.1c-.1,0-.1.5,0,.5.1.3-.2.2-.2.5a25.38,25.38,0,0,0,0,3.9v.1a1.1,1.1,0,0,0,0,.8v.2c-.1,0-.1.4,0,.4v.1c.1.1.1.2.2.3v.2c-.3.5.2,1.2.6,1.1h.3c-.1.1.3.1.2,0,.1,0,.1,0,.1-.1a11.29,11.29,0,0,0,0-2.6v-.1c-.4-.1-.2-1.1-.2-1.8C45.8,38,45.8,35.8,45.7,34.2Zm-5.8,2.9c.1-.1,0-.5-.2-.4a6.72,6.72,0,0,1-.6,1.2V38a1.1,1.1,0,0,0,0,.8c0,.3-.2.2-.2.4-.1.5-.1,1.4.2,1.6v.1c-.1.4-.1,1.2.2,1.4v.1c-.2.2.1.6.2.7v.1c.2.4.7,1.5,1.2,1.5h.1c.2-.3.9-.6.6-1h-.1c-.1-.1-.1-.3-.2-.2-.1-.1-.1-.3-.2-.2-.1-.1,0-.4-.1-.4v-.1a9,9,0,0,1-.5-.9c.1-.2-.1-.1-.2-.2s0-.2-.1-.2c0-.2-.2-.1-.2-.4.1,0,.1-.4,0-.4v-.1c0-.1-.1-.1-.2-.1.2-1.2-.2-2.7.3-3.4Zm13.9.5a.15.15,0,0,0-.3,0c-.1,0-.1.4,0,.4a24.77,24.77,0,0,1-.2,2.9c-.1.1-.2.1-.2.2v.4c-.1.1-.3.1-.2.3V42c-.1.1-.3.2-.4.4a.1.1,0,0,0-.1.1c.1.3-.1.4-.2.5a6,6,0,0,0-.8.8c-.1.1,0,.1,0,.2l.7.7c.1,0,.1.1.2.1a.1.1,0,0,1,.1-.1c.1,0,.1-.1.2-.2s.1,0,.1-.1c.2-.1.3-.3.4-.4s.1-.6.3-.6v-.1c.1,0,.1-.1.1-.2a.1.1,0,0,1,.1-.1c.2,0,.1-.4.2-.5h.1c.2-.1.1-.6.1-.9v-.1c.1.1.1-.1.2-.1-.3-1.2.1-2.9-.4-3.8Zm-1,.3c0-.2-.1-.1-.3-.1-.1.2,0,.2,0,.5-.1-.1-.1.3,0,.2.1.2-.1.4-.1.5s-.1,0-.1.1a1.48,1.48,0,0,1-.1.7c-.1,0-.1,0-.1.1s-.3.1-.3.3v.2c-.1.1-.3.1-.2.2a7.93,7.93,0,0,1-.4.9h-.1l-.4.4h-.1a.1.1,0,0,0-.1.1c0,.4.3.4.5.7v.2c-.1.2.4.1.3,0v-.1c.1-.1.2,0,.2-.2.1,0,.1-.1.1-.2s.2-.1.2-.2.2-.1.3-.2,0-.4.1-.4h.1c.1-.6.5-1,.4-1.9a.1.1,0,0,1,.1-.1c.3-.4,0-1.2,0-1.7Zm-11.9.6c-.2-.1-.1-.4-.3-.7-.4-.1-.3.7-.2.9v.2a.73.73,0,0,0,.2.9v.1a4,4,0,0,0,1,2.4v.1c-.1,0,0,.3.1.2h.2c.3-.1.7-.8.2-1.1l-.3-.3c0-.1,0-.2-.1-.2v-.1c-.1-.1-.1-.3-.2-.4.1-.2-.1-.1-.2-.2s0-.2-.1-.2c.1-.2-.1-.1-.2-.2s.1-.4-.1-.5v-.1c-.1,0-.1-.1-.2-.1a.66.66,0,0,0,.2-.7Zm2.3,4.4c-.1-.1-.1-.2-.2-.2a.1.1,0,0,1-.1.1v.1a.1.1,0,0,0-.1.1c-.1,0-.1,0-.1.1s-.1.7.1.7H43c.1.1.2.1.3.2h.1c0,.1.2,0,.2-.1v-.1c.1,0,0-.4.1-.4s.1-.1.1-.2-.3-.1-.4-.1c.1-.1,0-.1-.2-.2Zm6.7-.1c-.1,0-.2,0-.2.1a1.21,1.21,0,0,0-.5.5c-.1.1.1.3,0,.5s.2.3.2.1h.1c.2,0,.2-.2.3-.2H50C50.5,43.5,50.2,42.8,49.9,42.8Zm0,2h0a4.62,4.62,0,0,0-.7.7c.1.3-.2.6.1.7a3.59,3.59,0,0,1,.7-1c.1,0,.1,0,.1-.1C50.4,44.9,49.9,44.6,49.9,44.8ZM45.8,46a.1.1,0,0,0,.1-.1,1.21,1.21,0,0,0-.5-.5.1.1,0,0,1-.1.1v.1c.1.1.3.1.2.3Zm1.6-.4a.1.1,0,0,0-.1-.1.22.22,0,0,0-.2.2c-.1.1-.2.1-.2.2v.2h.2C47.2,45.9,47.6,45.7,47.4,45.6Zm-2.8,1.5c.3-.1-.2-.5-.4-.6a.1.1,0,0,1-.1.1c0,.1,0,.2.1.2a.1.1,0,0,0,.1.1C44.4,47.1,44.5,47.1,44.6,47.1Zm3.6,0a.37.37,0,0,0,.3-.1C48.5,46.7,48.1,46.7,48.2,47.1Zm-2.4.5c-.1,0-.1.1-.1.2s0,.4.1.3h.1c.1.1.8.1.8-.1v-.1l-.3-.3h-.1C46.3,47.5,45.8,47.5,45.8,47.6Zm-1.9.5A.1.1,0,0,0,44,48a.22.22,0,0,0-.2-.2.1.1,0,0,1-.1.1v.2Zm5.1,0a.37.37,0,0,0,.3-.1C49.3,47.7,48.8,47.6,49,48.1Zm-2.3,1.3c-.1-.2-.7-.2-.7,0s0,.1.1.2.1.1.2.1c-.1.2.1.1.2.1C46.4,49.6,46.7,49.7,46.7,49.4Zm-1.8,1.5a.1.1,0,0,0-.1-.1.22.22,0,0,0-.2.2C44.7,51.4,45.1,51,44.9,50.9Zm1.2.2c0,.1.1-.1.2-.1a.22.22,0,0,0-.2-.2.1.1,0,0,1-.1.1C45.9,51,45.9,51.1,46.1,51.1Zm1.7,0c0,.1.1-.1.2-.1a.22.22,0,0,0-.2-.2.1.1,0,0,1-.1.1C47.7,51,47.7,51.1,47.8,51.1Zm-1.9,5.6a.37.37,0,0,0,.1.3.22.22,0,0,0,.2-.2C46.1,56.7,46.1,56.6,45.9,56.7Zm1,1.3h0c-.1,0-.1.4,0,.3v.1c.1.2.4.1.3-.2v-.1C47.3,57.9,47,57.9,46.9,58Zm-2,.7h0a2.85,2.85,0,0,0,0,1.3c0,.1,0,.1.1.1.3.1.2-1.2.1-1.5C45,58.7,45,58.7,44.9,58.7Zm.8.5h0c-.1.1,0,.4.1.4h.1c.1.2-.1.9.2,1.1.4-.1.4-1.3,0-1.4v-.1C46,59.2,45.7,59.1,45.7,59.2Zm-1.3,3.3v.1c-.1.1,0,.4.1.3,0,.1.4.1.4-.1s0-.2-.1-.2a.1.1,0,0,0-.1-.1C44.7,62.4,44.5,62.4,44.4,62.5Zm1.5.2h-.1c-.2-.1-.1.1-.1.2s.7.1.7-.1v-.2h-.2C46.3,62.6,45.9,62.6,45.9,62.7Zm1.5,0a.37.37,0,0,0,.1.3.22.22,0,0,0,.2-.2C47.7,62.7,47.6,62.7,47.4,62.7ZM45.3,64h0c-.3-.1-.2.4,0,.3h.8c.1,0,.1.2.2.2.4.3.9-.2.9-.4-.2-.3-.9-.1-1.4-.1C45.8,63.9,45.3,63.9,45.3,64Zm2,1.2c-.1-.1-.3,0-.4,0v.2c.1,0,.1.1.2.1h.1c.1,0,.3-.1.2-.2A.1.1,0,0,0,47.3,65.2Zm-2.6.1v.2c.1.1.4,0,.3-.2C45,65.3,44.7,65.1,44.7,65.3Zm1,1.7c.4.3.8-.1.5-.5A.47.47,0,0,0,45.7,67Zm-.3.8a.37.37,0,0,0,.1.3.22.22,0,0,0,.2-.2C45.7,67.8,45.6,67.8,45.4,67.8Zm1.3.3c-.1-.1-.7-.1-.7,0s0,.3.2.2h.6c-.2-.1,0-.1-.1-.2ZM46,69.2c0-.1-.3-.1-.3,0v.1c-.1,0-.1.4,0,.4v.1c.2.9,1.4,0,.6-.4C46.1,69.3,46.1,69.2,46,69.2Z"/><path class="cls-3" d="M36.4,40.3h.2c.1.3,0,.8.1,1.2h-.1c-.3,0-.7-.1-.7.2,0,.1,0,.1-.1.1s-.4,0-.4.2,0,.1-.1.1-.3-.1-.4-.2.1-.3-.1-.2c-.2-.2.2-.3.2-.5h.2c.1-.1.2-.1.3-.2h.2Z"/><path class="cls-3" d="M56.1,40.3h.2c.1.1.1.2.2.2a3.13,3.13,0,0,0,1,.5c.1.1.2.3.4.4v.4a.1.1,0,0,0-.1.1,2.1,2.1,0,0,1-1.9-1.1v-.1c.1.1.1-.1.2-.1C56.3,40.4,56.1,40.5,56.1,40.3Z"/><path class="cls-3" d="M36.9,42c.1,0,.1-.2.3-.2s.4.2.2.4c-.1,0-.1,0-.1.1s-.5.3-.2.4c.1,0,.2,0,.2-.1s.5.2.4.4a2.18,2.18,0,0,0-.5.4c-.1.1-.4-.1-.5.1-.2-.1-.1.1-.2.2s-.4,0-.4.1v.1c-.1.1-.5-.1-.7.1-.2-.1-.1.1-.2.2h-.8c0-.2.3-.2.3-.4.1,0,.1-.1.1-.2s-.4-.2-.4-.1h-.1a.1.1,0,0,0-.1-.1c0-.1,0-.1.1-.2h.2a1.21,1.21,0,0,0,.5-.5h.2c.1-.1.2-.1.2-.2h.2c.1-.1.2-.1.2-.2h.5c.1-.1.2-.1.2-.2A1.58,1.58,0,0,1,36.9,42Z"/><path class="cls-3" d="M55.8,41.9c.1,0,.1-.1.2-.1a1.27,1.27,0,0,0,.9.4c.1.1.1.2.2.2h.2c.1.1.1.2.2.2h.2c.1.1.1.2.2.2h.2c.1.1.1.2.2.2h.1v.2c-.1.1-.5-.1-.6.1h-.1c-.1,0-.1,0-.1.1s.2.4.2.2c.1.1.3.1.2.3V44c-.4.3-.6-.1-.9-.2-.1-.1-.3,0-.4,0a.52.52,0,0,0-.4-.2c-.1,0-.3.1-.4,0a.52.52,0,0,0-.4-.2c-.4-.1-.7.1-.7-.2-.1,0-.1,0-.1-.1v-.6c.3-.1.3.4.6.2h.1a.1.1,0,0,0,.1-.1c0-.3-.4-.2-.5-.3v-.2C55.5,42,55.8,42.1,55.8,41.9Z"/><path class="cls-3" d="M38,46.5h.2c.1.1,0,.2-.1.3s-.1,0-.1.1-.1.1-.1.2a2.18,2.18,0,0,0-.4.5c-.1.1-.3.1-.2.2a9.43,9.43,0,0,0-1,1,1.7,1.7,0,0,0-.6.6c-.1,0-.3-.1-.3.1-.1,0-.1,0-.1.1s-.2.1-.2.2-.1.1-.2,0v-.2c.3-.4.9-.7,1-1.2v-.1c.2-.3.5-.4.7-.7.1,0,.1,0,.1-.1s.1-.1.4-.1S37.7,46.8,38,46.5Z"/><path class="cls-3" d="M55.1,47.2c-.1-.2-.4-.2-.2-.6.2,0,.1.1.3.2h.2L58,49.4v.3c0,.1,0,.2-.1.2h-.1c-.1-.2-.4-.4-.6-.6l-.4-.4c-.1,0-.1,0-.1-.1l-.9-.9a.1.1,0,0,1-.1-.1l-.4-.4Z"/><path class="cls-3" d="M38.5,47.1c.1,0,.2.1.3.1s0,.1.1.1a.1.1,0,0,0,.1.1c.1.1-.1.1-.1.2s-.1,0-.1.1l-.4.4c-.1,0-.1,0-.1.1a9.43,9.43,0,0,0-1,1c-.1.1-.3.1-.2.2-.1.1-.3.1-.2.2-.1.1-.1.4-.2.4v.1a1.21,1.21,0,0,0-.5.5c-.1,0,0,.4-.1.4s-.3.2-.4.4c-.1,0-.1.1-.2.1h-.1a.1.1,0,0,0-.1-.1c0-.1,0-.1-.1-.1v-.1c.1-.2.4-.4.5-.6s.1-.1,0-.2c.2-.3.5-.5.7-.8,0-.2.1-.3.2-.5l.4-.4c.1,0,.1,0,.1-.1a13.58,13.58,0,0,0,1.2-1.2v-.1C38.5,47.4,38.4,47.1,38.5,47.1Z"/><path class="cls-3" d="M54.1,47.2a.1.1,0,0,1,.1-.1h.2c.7.7,1.4,1.5,2.1,2.1v.2a4.62,4.62,0,0,0,.7.7v.2a4.62,4.62,0,0,0,.7.7v.2c-.1.3-.4.2-.6.3-.1-.1,0-.5-.2-.5l-.3-.3c-.2-.1-.2-.4-.4-.7h-.1a.1.1,0,0,0-.1-.1l-.4-.4c-.1-.2-.4-.4-.6-.6,0-.1,0-.4-.1-.4H55a.1.1,0,0,0-.1-.1c-.2-.2-.4-.6-.7-.7v-.1C54.2,47.5,54,47.5,54.1,47.2Z"/><path class="cls-3" d="M39.1,48.1a1.08,1.08,0,0,1,.6.1c0,.1,0,.1.1.1a.1.1,0,0,0,.1.1c0,.1.4.1.3,0h.1l.2.2v.1c-.1,0-.1.5,0,.5v.1l-.4.4c-.1,0-.1,0-.1.1s0,.4-.1.4-.1,0-.1.1,0,.4-.1.4-.1.2-.3.2-.2.2-.1.2v.1l-.2.2c-.1,0-.1,0-.1.1-.3.1-.3.4-.4.7-.1,0-.1,0-.1.1s0,.4-.1.4-.1,0-.1.1c-.3.1-.3.4-.4.7-.1,0-.1,0-.1.1s0,.4-.1.4-.1,0-.1.1-.2.1-.2.2v.1c-.1.5-.6.7-.7,1.2h-.1l-.4-.4v-.1c.1,0,.1-.2.1-.2s.1,0,.1-.1c.3-.1.3-.4.4-.7a.22.22,0,0,0,.2-.2.1.1,0,0,0,.1-.1c.1-.1.1-.4.2-.5a.22.22,0,0,0,.2-.2c.3,0,.2-.4.3-.6.1,0,.1,0,.1-.1s.2-.1.2-.2v-.1c.1-.1.1-.4.2-.4s.1-.1.2-.2.1-.4.2-.5.1,0,.1-.1,0-.4.1-.4H39c.2,0,.1-.4.2-.5h.1a4.35,4.35,0,0,1,.4-.7h.1c.2,0,.2-.5,0-.5h-.1c-.2.1-.1.5-.3.6,0,.1-.1.1-.2.2s-.1.4-.2.5h-.1c-.2,0-.1.4-.2.5h-.1c-.2,0-.1.4-.2.5s-.1,0-.1.1c-.1.3-.3.4-.4.7-.1,0-.1,0-.1.1s-.1.4-.2.4c0,.2-.4.1-.3.4-.1.1-.2,0-.2.2-.1,0,0,.4-.1.4s-.2.2-.3.3-.1.4-.2.4-.1,0-.1.1-.2.1-.2.2v.1c-.1,0,0,.4-.1.4H36c-.1,0-.1.1-.2.2h-.2l-.2-.2a7.93,7.93,0,0,1,.4-.9c.1,0,.1,0,.1-.1s.2-.1.2-.2v-.1c.1,0,0-.4.1-.4.5-.3.6-.9.8-1.3a.84.84,0,0,0,.4-.7c.1,0,.1,0,.1-.1.4-.2.4-.7.7-1.2.1,0,.1,0,.1-.1.1-.5.6-.6.7-1.2h.1C39,48.5,38.8,48.2,39.1,48.1Z"/><path class="cls-3" d="M53.3,48.2c.1-.3.4.1.5-.1l.4.4v.2c.1.1.1.2.2.2v.2a1.21,1.21,0,0,0,.5.5v.2c.1.1.1.2.2.2v.2a1.21,1.21,0,0,0,.5.5v.2a1.21,1.21,0,0,0,.5.5v.2a1.21,1.21,0,0,0,.5.5v.2a1.21,1.21,0,0,0,.5.5V53c0,.2.1.2.2.3v.2c.1.1.1.2.2.2v.2c0,.2.3.2.1.4h-.2c0-.1-.4,0-.4-.1.1-.4-.1-.4-.2-.5s-.1-.2-.2-.2c.1-.4-.1-.4-.2-.6s-.1-.2-.2-.2a.22.22,0,0,0-.2-.2c-.1-.1-.2.4,0,.3.1.1.1.2.2.2a.52.52,0,0,1,.2.4l.2.2c0,.1.1.1.2.2,0,.3.1.7-.1.9h-.2c-.1-.1-.1-.2-.2-.2a.1.1,0,0,1-.1-.1c-.1-.1-.1-.2-.2-.2v-.1c0-.1,0-.4-.1-.4h-.1a.1.1,0,0,0-.1-.1c-.2-.1-.2-.4-.4-.7h-.1c-.1-.1.1-.5-.2-.5a.1.1,0,0,1-.1-.1c-.1-.1-.1-.2-.2-.2V52c0-.3,0-.4-.2-.4v-.1c0-.1,0-.4-.1-.4h-.1a.1.1,0,0,0-.1-.1A9.63,9.63,0,0,0,53,49v-.1c0-.2,0-.4-.2-.4s-.1,0-.1-.1-.4-.4-.2-.7c.2,0,.1-.3.4-.2a.22.22,0,0,1,.2.2c.1.2.2.1.3,0C53.6,48.3,53.4,48.3,53.3,48.2Zm.2.8c.1.2.4.1.3-.2-.1-.1-.3-.1-.3.1Zm.3.6c.1.1.3,0,.3-.2C53.9,49.2,53.7,49.2,53.8,49.6Zm.4.2c-.1-.2-.2.1-.2.2s.1.1.2,0h.1c.1.1.1-.2-.1-.2Zm.5.8c-.1-.1-.1-.2-.2-.2a.1.1,0,0,1-.1.1c0,.3.2.4.4.5,0,.2.1-.1.2-.1C54.8,50.6,54.7,50.6,54.7,50.6Zm0,.5a.37.37,0,0,0,.1.3.22.22,0,0,0,.2-.2C55,51.1,55,51.1,54.7,51.1Zm.6.7a.22.22,0,0,0-.2-.2c-.1.1-.1.1-.1.3.2,0,.2.2.3.3s.1-.1.2-.1S55.5,51.8,55.3,51.8Zm.5.7c0-.1-.1-.3-.2-.2-.1-.1-.1.3,0,.2h.1c.1.1.1.4.3.2.1,0,.1,0,.1-.1C56.2,52.7,56,52.5,55.8,52.5Z"/><path class="cls-3" d="M40.6,51.1c.1-.3.4-.7.7-.4,0,.1,0,.1.1.1s.4.4.4.1c.2-.2.3.2.5.2v.2c-.1.1-.2.1-.3.2s-.1.3.1.3c0,.1-.1.3-.2.3s-.2.6-.1.7v.1c-.1.1-.4.3-.2.4v.1a4.62,4.62,0,0,1-.7.7h-.2a2.75,2.75,0,0,0-1.2,2.6c.2.3.5.5.7.8,0,.2-.1.2,0,.4-.4.1-.1,1.1-.5,1.3v.1a.64.64,0,0,0,0,.6V60c-.1.1-.4.3-.2.5v.1c.1.1.2.1.2.2v.1c-.1,0-.1.4,0,.4v.1c.1.1.2.1.2.2v.1c-.1,0-.1.4,0,.4-.1.1-.1.3-.4.2a12.15,12.15,0,0,0-.9-2v-.1c.1,0,.1-.5,0-.5v-.1c.1-.1.2-.1.2-.2v-.1c.1-.2,0-.6.2-.7v-.1c.1-.3.2-1.2-.1-1.4h-.2l-.4-.4v-.1c.1,0,.1-.1.1-.2s.1,0,.1-.1,0-.7.2-.7v-.1c.1,0,0-.4.1-.4s.1,0,.1-.1.1-.4,0-.3c0-.3.2-.2.2-.4.1,0,0-.4.1-.4s.1,0,.1-.1.3-.1.2-.2c.1,0,.1-.1.2-.1.4.1.6-.4.8-.7.1-.1.1-.7-.1-.7s-.2,0-.2.1-.2.1-.2.2-.1.1-.4.1a13.58,13.58,0,0,0-1.2,1.2v.1a4.36,4.36,0,0,0-.7,1.7v.1c-.1.2,0,.7-.1,1,0,.1-.2.1-.2.2-.1.4.3.8.5,1.1v.2A5.46,5.46,0,0,1,36.2,62H36c-.1-.1,0-.4-.1-.4v-.1c.1-.1.2-.1.2-.2s.1-.1,0-.2c.1-.1.2-.1.2-.2s.1-.1.1-.2c.2.1.1-.2.1-.3s.2-.1.2-.2v-.1c.5-.6.4-2-.2-2.3v-.1c.2-.3-.1-1.2.2-1.3v-.1c.1,0,.1-.4,0-.3,0-.3.2-.2.2-.4.1,0,.1-.4,0-.3,0-.3.2-.2.2-.4s.1-.4.2-.4c0-.3.3-.6.4-.9.2-.1.2-.2.4-.4s.2-.1.2-.2a4.35,4.35,0,0,1,.7-.4c.1,0,.1,0,.1-.1s.2-.1.2-.2v-.1c.1,0,0-.4.1-.4s.1,0,.1-.1C40.7,51.7,40.7,51.1,40.6,51.1Zm.7,1h-.2c0,.1-.1.3.1.2,0,.1.2-.1.2-.2C41.4,52.2,41.4,52.2,41.3,52.1Z"/><path class="cls-3" d="M51.5,50.7c0-.1.2-.1.2-.1l.4.4v.5c.1.1.1.2.2.3V52c.2.2.5.7.7.7h.1c.4.3.6.7.9.9v.2c.1.1.1.2.2.2v.2c.1.1.1.2.2.2v.2c.1.1.1.2.2.2V55c.1.1.1.2.2.2v.5c.1.1.1.2.2.2a.86.86,0,0,0,.2.8c.1.3-.2.3-.2.4v.5c-.1.1-.2.1-.2.2a7.05,7.05,0,0,0,.2,2.6,9.43,9.43,0,0,0,1,1c0,.2.1.4-.1.6s-.6.1-.7-.1,0-.4-.1-.4a.1.1,0,0,1-.1-.1c-.1-.3-.4-.4-.5-.6s0-.4-.2-.4v-.1c0-.1,0-.2-.1-.2s0-.1-.1-.1a17.7,17.7,0,0,1-.1-2.3c0-.1.2-.2.2-.4a4.58,4.58,0,0,0-.1-1.7H54c-.1-.1.1-.7-.2-.7a.1.1,0,0,1-.1-.1c0-.1,0-.4-.1-.4a.1.1,0,0,1-.1-.1c0-.1,0-.4-.1-.4a.1.1,0,0,1-.1-.1c0-.1,0-.4-.1-.4a.1.1,0,0,1-.1-.1c0-.2-.2-.2-.3-.3s0-.1-.1-.1-.1-.3-.2-.2a2.19,2.19,0,0,1-.5-.3c-.1,0-.1-.2-.2-.2s-.1-.3-.3-.2-.1,0-.1.1v.1c-.2.1.1.4.2.4v.5c.4.5,1.1.7,1.5,1.2v.5c.1.1.1.2.2.2-.1.9.6.9.5,1.8a4.62,4.62,0,0,0-.7.7c-.1,1.5.8,1.8.5,3.3-.1.1-.2.1-.2.2v.2c-.1.1-.2.1-.2.2v.2c-.1.1-.2.1-.2.2s0,.1-.1.1-.2-.2-.4-.2v-.1c.1-.1.3-.2.2-.5,0-.1,0-.1.1-.1.3-.1.3-1.3.1-1.6a.1.1,0,0,1-.1-.1c-.1-.2.1-.7-.1-.7.1-.2-.2-.1-.2-.2-.1-.9-.1-1.8.5-2,0-.1,0-.1.1-.1s.3-.4.1-.4c.1-.2-.1-.1-.2-.2s.1-.6-.1-.7a.1.1,0,0,1-.1-.1c0-.1,0-.2-.1-.2v-.1c-.2-.1-.1-.8-.5-.6-.2,0-.1-.3-.4-.2-.1-.1-.1-.2-.2-.2h-.2c0-.1-.1-.1-.2-.1,0-.3.1-.7-.2-.7v-.1c0-.1,0-.4-.1-.4h-.1c0-.7-.4-.9-.3-1.7,0-.1,0-.1.1-.1s.2-.1.2-.2a.1.1,0,0,1,.1.1c0,.1.1.1.2.1C51.6,51.1,51.5,50.9,51.5,50.7Zm.2,1.4c.1,0,.1-.3.1-.4s-.4-.1-.3.1c-.2.1.1.2,0,.3Z"/><path class="cls-3" d="M57.7,83.5h.1c.2,0,.1.3.4.2.1,0,.3,0,.3.1s.1.2.2.2,0,.4.1.4a.1.1,0,0,1,.1.1c0,.3.4.1.5.2-.1.3.4.1.5.2V85c.1.1.1.2.2.2,0,.2,0,.4.2.4a2.77,2.77,0,0,1,.1.9c0,.1,0,.3.1.3s.1.4.1.6V90a5,5,0,0,1-2.6.3c-.2-.4-1.2-.1-1.4-.5-1.8-.1-4.2.3-5.5-.2-.1-.1,0-.5-.2-.5s-.1,0-.1-.1a2.84,2.84,0,0,0-1.7-.9H49c-.1,0-.1.2-.2.2s-.2.3-.1.3.3-.1.6,0c.1.1.1.4.1.7v.1c-.1,0-.2,0-.2-.1v-.1a17.82,17.82,0,0,0-2.6-.4c-.1,0-.1,0-.1-.1-.4-.4-1.5-.1-2.2-.2-.1,0-.1-.2-.2-.2s-.1-.1,0-.2c.3.1.6-.1,1,0,.1-.1.2-.1.2-.2.2-.1.5.1.7-.1v-.1c.1-.3.8,0,1-.2v-.1c.2-.2.7-.1,1.2-.1.1.1.1.2.2.2a13.33,13.33,0,0,0,2,0c.1.1.1.2.2.2h.2c.1.1.1.2.2.2h.2a1.21,1.21,0,0,0,.5.5h.1c0,.1,0,.1.1.1v.1c.1.1.2.3.4.4h.1c0,.1.4.1.3,0H53c0,.1.4.1.3,0h.2c.2,0,.2-.2.3-.2s.3.1.3-.1.1-.1.2-.2.1,0,.1-.1.1-.1.4-.1a4.62,4.62,0,0,0,.7.7c.8.2,1.2-.3,2-.2.1.1.1.2.2.2H58c0,.1.4.1.4,0,.3-.1.9.1,1-.2a.1.1,0,0,0,.1-.1c.1,0,.1-.2.1-.4a.1.1,0,0,1,.1-.1c.2-.1.1-.5.4-.6,0-.1,0-.1-.1-.1s0-.1-.1-.1c-.2-.9-.1-2.2-.7-2.6-.7,0-1.1-.4-1.7-.2-.4.1-.6.6-.9.8-.1,0-.1,0-.1.1l-.3.3V86c-.1.1-.5-.1-.7.1-.1,0-.1,0-.1.1a7,7,0,0,1-3,.3.22.22,0,0,1,.2-.2c.5.1.4-.3.8-.2.2,0,.1-.1.2-.2s.2-.2.3-.2h.7c.3-.1.4-.4.7-.7.3-.1.3-.4.7-.4.2,0,.2-.1.3-.2s.3.1.3-.1v-.1c.1-.1.2-.1.2-.2v-.1C57.7,84.2,57.4,83.6,57.7,83.5Z"/><path class="cls-3" d="M41.1,88.9c.1-.1.1-.1.4-.1.1.1.1.2.2.2h.2c.1.1.1.1,0,.2a.1.1,0,0,0-.1.1c-.2.1-.6,0-.9.1-.1,0-.1,0-.1-.1a1.38,1.38,0,0,0,.3-.4C41.1,89,41.2,89,41.1,88.9Z"/><path class="cls-3" d="M40.1,89.1h.2l.3.3c0,.1,0,.1-.1.2a.1.1,0,0,0-.1.1c-.1.1-.1.1-.2,0s0-.1-.1-.1-.1-.1-.1-.2v-.1C39.9,89.2,39.9,89.1,40.1,89.1Z"/><path class="cls-3" d="M42,90.8c.2,0,.1-.4.5-.2.1.2.4.3.2.5a1990328647664.33,1990328647664.33,0,0,1-.2.2h-.1c-.1.1-.1.2-.4.2-.1,0-.1,0-.1-.1S41.9,91,42,90.8Z"/><path class="cls-3" d="M61.7,74.1c.1,0,.1-.1.2-.2h2a.1.1,0,0,1,.1.1c-.1.4.2.3.2.6a2,2,0,0,1-.7-.1v-.1c0-.2-.7-.1-.7-.1v.1c-.1.1-.4.1-.7.1-.1.1-.5-.1-.6.1v.1c-.1.1-.1.1-.4.1h-.6c-.1-.1-.1-.1-.1-.3a.1.1,0,0,1,.1-.1c.1,0,.2,0,.2-.1.2.1.1-.2.2-.2C61.4,74.1,61.7,74.3,61.7,74.1Z"/><path class="cls-3" d="M60.1,76.7v-.2c.2-.1.8-.1.7.2a.1.1,0,0,0-.1.1h-.5C60.2,76.9,60.1,76.8,60.1,76.7Z"/><path class="cls-3" d="M63.6,89.6h.2c.1.1.1.4.2.5h.2a.1.1,0,0,0,.1.1v5.5c.1.3.3.4.5.6v1.1a1.5,1.5,0,0,1-.2,1v1a.22.22,0,0,0-.2.2v.2a.22.22,0,0,0,.2.2c.1,0,.1,0,.1.1.1.4.9.1,1.2.2v.2a.1.1,0,0,1-.1.1h-.1c-.1.2-.4.1-.7.3,0,.7,1,.4,1.4.7h.1a6.3,6.3,0,0,0,1.8.6c.1.1.1.4.2.5h1.8c.1.1.1.6-.1.7h-.1c-.1-.1-.5-.1-.5.1s-.3,0-.6.1c-.1-.1-.1-.2-.2-.2h-.1c-.2-.1-.8-.1-.9.1s.4.2.2.6v.1a.22.22,0,0,0-.2.2c-.2.2-.4.1-.8.1-.1-.1-.1-.2-.2-.2h-.2c-.1-.1-.1-.2-.2-.2h-.2c-.1-.1-.1-.2-.2-.2h-.2c-.1-.1-.1-.2-.2-.2h-.1c-.1-.1-.4-.1-.4-.2H65c-.1-.1-.7-.1-.7,0h-.1c-.1-.1-.2-.1-.3-.2-.4.1-.3-.2-.6-.2,0-.1-.4-.1-.4,0-.2,0-.1.3-.4.2-.1-.1-.3.1-.4.2h-.2c.1-.1-.3-.1-.2,0h-.1c-.1.1-.2.1-.2.2h-.2c0-.1-.4-.1-.4,0h-.1c-.1-.2-.4-.2-.4-.7.1-.1.3,0,.3-.1h.1c.2-.1.4-.4.7-.5.2.1.1-.1.2-.2.2-.3.7-.2.8-.6h.2a.85.85,0,0,0,.7,0h.1c0,.1.4,0,.4.1v.2c.2.5,1.1.4,1.6.7,0,.1,0,.1.1.1a4.69,4.69,0,0,1,2.1,1.1c.1-.1.4.1.5-.1h.1c.1-.2-.2-.4-.3-.5s-.1,0-.3-.1-.1-.2-.1-.4-.2-.1-.4-.1-.1-.2-.2-.2h-.1c-.3-.1-.8,0-1.2-.1s-.4-.6-.7-.4h-.1c-.1-.1-.1-.2-.2-.2s-.1,0-.2,0,0-.6-.4-.6V99.7c0-.7-.1-1.4.2-1.7V96.1c0-.2-.1-.2-.2-.3V93.3c0-.2-.1-.2-.2-.3v-.2c0-.2-.1-.2-.2-.3v-.9c-.1-.3-.4-.4-.2-.8a.1.1,0,0,1,.1-.1c.2,0,.1-.4.2-.4s.1-.1.3-.1C63.4,89.7,63.5,89.6,63.6,89.6Z"/><path class="cls-3" d="M84.8,89.8h.5c.1.1.1.4,0,.4h-.2a.1.1,0,0,1-.1-.1c0-.1,0-.1-.1-.1S84.7,89.9,84.8,89.8Z"/><path class="cls-3" d="M62.1,93.4c.1.1.4-.1.5.1v1.4c.5.7.1,2.4.2,3.5v.8a.57.57,0,0,0-.2.7c-.2.1-.4,0-.6.3-.4.3-.7.7-1.2,1.1-.1,0-.1-.1-.2,0s-.2.1-.2.2h-.2a1.21,1.21,0,0,0-.5.5h-.2c-.1.1-.2.1-.2.2h-.1c0-.1-.4-.1-.3,0h-.1c-.1.1-.2.1-.2.2h-.2a8.85,8.85,0,0,0-2.3,0c-.1,0-.3,0-.3-.1,0-1,1.8-.3,2.6-.7.2.1.1-.1.2-.2l.4-.4c.1-.1.1-.1.2-.1s.2-.1.2-.1.1-.1.2-.1c.1.2.4-.1.4-.2h.1c.1.1.5.1.5-.1v-.1a.22.22,0,0,0,.2-.2c0-.1,0-.1.1-.1.2-.2.6-.4.7-.7v-.1c-.1-.4.2-.4.2-.7v-.1c-.1-1.3.1-2.9-.1-4h-.1c-.1-.1-.1-.2.1-.2s.1-.1.1-.2S61.8,93.4,62.1,93.4Z"/><path class="cls-3" d="M64.7,85.4c.1.1.1.2.2.2v.2c0,.1.3.1.3,0a.6.6,0,0,1,.1-.4h.1c.1-.1.1-.1.1-.3V83.7c0-.1.3-.1.2-.3.2,0,.2-.2.4-.3s.1-.4.1-.6c-.1,0-.1.1-.2.1s-.5.6-.8.2c0-.1,0-.1-.1-.1s-.1-.1-.2-.1-.1-.1-.1-.2c-.1-.4-.6-.4-.5-.9v-.9c.1-.4-.6-.2-.9-.2-.1,0-.1-.2-.2-.2a.1.1,0,0,0-.1-.1V80c0-.1-.1-.1-.2-.1s-.1.1-.1.2v2c-.1.1-.2.1-.2.3v.9c0,.1,0,.4.1.4s.1.1.1.3v.5c0,.3.4.2.2.7v.1c0,.2.2.2.2.4v.2c.1,0,.1.1.2.1-.1.2.2.1.2.3v.3c0,.1,0,.3.1.3a.1.1,0,0,1,.1.1v.5a1.38,1.38,0,0,1-.4.3l-.7-.7a.1.1,0,0,0-.1-.1c-.1.1-.1.1-.1.4v2.1c-.1.1-.4.1-.4,0V88.2c-.1-.2-.3-.2-.2-.5v-.8a.1.1,0,0,1,.1-.1c.2-.1.1-.4.2-.5h.2c.1,0,.1-.3,0-.3a.1.1,0,0,1-.1-.1c0-.4,0-.7-.2-.7v-.1c.1-.4-.4-.3-.2-.7v-.1c-.7-1.8-3.1-2-4.5-3.1H57c-.1-.1-.1-.3-.4-.2h-.5c-.1-.1-.1-.3-.4-.2h-.1v-.1c-.1,0-.1-.1-.2-.2a10.57,10.57,0,0,1-2.6-.2c0-.6-.6-.7-.7-1.2-.1-.1-.4,0-.4-.2s-.1-.4.1-.6h.1c.3.1.4-.1.4-.2s.1.1.2.1v.1c0,.1.2,0,.3.1a.1.1,0,0,1,.1.1,1.58,1.58,0,0,0,.7.7.22.22,0,0,0,.2.2h1.5a.1.1,0,0,1,.1.1c0,.1.1.1.2.1s.4.1.5-.1.2-.1.2-.3h.1c0-.1.1-.1.1-.2s.1,0,.1-.1c.1-.4,0-1.3.6-1,.2.2.1.7.4.7,0,.2.4.1.6.1s.5.1.7-.1c.1,0,.1,0,.1-.1.2-.1.2-.4.5-.3v.1c0,.3-.5.6,0,.7v.3c0,.1.3.1.3,0v-.1a.1.1,0,0,1,.1-.1h.3V79c.1-.1.4-.2.3-.6h.2v.7a.1.1,0,0,1-.1.1c-.3.1,0,.4.1.4v.2c-.2.1-.9-.1-1.2.1l-.1.4c-.1.1-.4.2-.3.5-.1.2.1.2.4.2a.1.1,0,0,1,.1.1c.1.2.2.4.4.4h.2c.2,0,.2-.3.4-.3v-.9h.2v.5c0,.1,0,.1.1.1s.1.4.4.4h.2c.2-.1.4-.2.4-.4v-.2a.53.53,0,0,1-.2-.7v-.1c-.1-.1-.1-.2-.2-.2v-.3c.1-.1.3-.1.2-.2v-.9c0-.2-.4-.3-.1-.5a4.62,4.62,0,0,0,.7-.7h2.9c.1,0,.2,0,.2-.1s.4-.4.5-.6c.1,0,.2-.1.3-.2s.3,0,.3-.1c.3-.1.3-.4.7-.4a.1.1,0,0,1,.1.1c0,.3.1.7-.1.8h-.1c-.5.1-.7.5-1,.8-.1,0-.1.1-.1.2-.1.4.4.2.7.2h.6c.1-.1.1-.2.2-.2s.4.1.4-.2v-.1c-.1-.2.1-.2.2-.3s-.1-.7.1-.7c.5-.1,1.5-.2,1.6-.4v-.4c0-.2-.1-.1-.2-.2-.2-.4-.5-.5-.7-.8s-.7,0-.7.2c-.1,0-.1.1-.2.2h-.8c-.2,0-.2.1-.3.2s-.1-.1-.2-.1v-.1c0-.1-.2,0-.3-.1a.1.1,0,0,1-.1-.1c-.1-.1.1-.1.1-.3h.1c.1-.1.1-.2.2-.3.2.1.1-.2.2-.2h.6c.1-.1.1-.2.2-.2s.1-.3,0-.3-.1-.6-.4-.7c0-.1-.2-.1-.4-.1s-.3-.2-.7-.1h-.5a.1.1,0,0,1-.1-.1c0-.1-.1-.1-.2-.1h-.6c0-.1-.1-.1-.1-.2H62.5c-.1,0-.4,0-.4.1a.1.1,0,0,1-.1.1h-.2c-.2,0-.6-.1-.7.1a.1.1,0,0,1-.1.1c-.1,0-.4,0-.4.1a.1.1,0,0,1-.1.1h-.3c-.1.1-.1.2-.2.3-.2-.1-.1.2-.1.4s-.3.1-.2.2v.2a.1.1,0,0,1-.1.1c-.3-.1-.4.1-.4.2h-.1c-.4.1-.9-.1-1.2.1a.1.1,0,0,1-.1.1c-.1,0-.4,0-.4.1v.1c-.1.1-.3.1-.2.2v.2c-.1.1-.3.1-.2.2-.1.3.1.7-.1.8s-.4,0-.4.1a.1.1,0,0,1-.1.1h-.2V76a2.48,2.48,0,0,0-1.9-.1.1.1,0,0,1-.1.1c-.2,0-.6-.1-.7.1a.1.1,0,0,1-.1.1c-.6-.1-.8.2-1.2.4v.1c-.1.1-.2.1-.2.2a.1.1,0,0,1-.1.1c-.1,0-.4,0-.4.1v.1c-.1.1-.2.1-.2.2.1.4-.2.3-.2.6a.1.1,0,0,0-.1.1c-.1,0-.4,0-.4.1a.1.1,0,0,1-.1.1c-.2,0-.6-.1-.7.1v.1c-.1.1-.3.1-.2.2a.1.1,0,0,0-.1.1,4.35,4.35,0,0,0-.4.7c-.1,0-.1.4,0,.3v.1c.2.2.4.6.7.7.1-.1.4.1.4-.1.1,0,.1,0,.1-.1s.1-.1.4-.1c.6-.3-.2-.9,0-1.2h.5c.1.1.2.3.4.4v.2a1.21,1.21,0,0,0,.5.5v.2c.1.1.3.2.1.4-.1,0-.1.1-.2.1s-.1.1-.2.1h-.2c-.2-.1-.2.3-.1.3a2.55,2.55,0,0,0,1.2-.1c.1-.1.1-.2.4-.2h1.6c.4,0,.3.4.7.2a.1.1,0,0,1,.1.1c0,.1.1.1.2.1h.4c.1.1.1.2.3.2h.2c.2.2.3.6.7.5.1,0,.1.2.2.2v.1c.1,0,.1.1,0,.2-.9-.3-1.6-.9-2.8-.7-.1,0-.1,0-.1.1-.6.3-1.9-.2-2.3.2v.2c-.1.1-.7-.1-.7.2a.1.1,0,0,1-.1.1c-.1.1-.4-.1-.5.1h-.1l-.2.2c-.1,0-.1,0-.1.1s-.4,0-.4.1c-.2-.1-.1.2-.2.2s-.6-.1-.7.1v.1c-.1.1-.3.1-.2.2a1.21,1.21,0,0,0-.5.5v.2c-.1.1-.2.1-.2.2v.1c-.5,0-.6.4-1.2.3-.1-.1,0-.4-.1-.4-.4,0-.7-.6-1-.2.1.2-.1.2-.1.4h-.1c-.4.1-1.2-.1-1.4.1v.1c-.1.1-.6,0-.6.3h-.1c-.3.1-.8-.1-.9.1a.1.1,0,0,1-.1.1c-.1.1-.4-.1-.5.1a.22.22,0,0,0-.2.2H42c-.1.1-.4-.1-.5.1-.2-.1-.1.2-.2.2s-.7-.1-.7.1c-.2-.1-.1.1-.2.2s-.2,0-.2.1c-.2-.1-.1.1-.2.2s-.2,0-.2.1-.1,0-.1.1a.1.1,0,0,0-.1.1c-.2-.1-.1.1-.2.2h-.5c-.1,0-.1,0-.1-.1s-.1-.1-.1-.2a.22.22,0,0,0-.2.2c0,.1,0,.1-.1.1-.4.1-.9-.1-1.2.1v.1c-.1.1-.3.1-.3.2s0,.1-.1.1c-.4.3-.1,1,.2,1.1a4.74,4.74,0,0,0,1.2,0c.1.1.1.1,0,.2s-.1.1-.2.2-.1,0-.1.1c-.1.4-.1.9.2,1-.1.2.2.1.4.1s.1.3.2.2h.6c0,.1.4.1.3,0h.1c.1-.1.2-.1.2-.2h.5a1.21,1.21,0,0,0,.5-.5h.2c.3.1.2.6.5.7h.2c.1.1,0,.5.2.5h.2c.1.1.2.1.3.2h.1c0,.1.4.1.4,0h.2a1.7,1.7,0,0,0,1,0h.1c.3,0,.1-.4.2-.5s.1,0,.1-.1.1-.4.2-.4.1,0,.1-.1.4-.1.5-.2V90c.1-.1.4-.1.5-.2v-.1c.1-.1,0-.5.1-.7h.2c.1.1.1.2.2.2a3.33,3.33,0,0,0,1,0c.1.1.1.2.2.2h.3c0,.1.4.1.3,0h.5c0,.1.5.1.5,0h.1c.1-.1.2-.3.4-.1,0,.2-.1.2-.1.4-.1,0-.1,0-.1.1h-.1c-.1.4-.7.2-1.1.4-.1,0-.1,0-.1.1a.1.1,0,0,0-.1.1h-.8c-.1.1-.1.3,0,.3h.1a1.7,1.7,0,0,0,1,0h.2c.1.1.1.2.2.2H49c0,.1.4.1.4,0h.4c.2,0,.1-.4.2-.5h.1c.1-.1.1-.2.2-.2s.3.1.3-.1V90c.1-.1.3-.1.2-.2.1-.1.3-.2.4-.4a2.29,2.29,0,0,1,1.5-.2c.1.1.1.2.2.2h.7c.1.1.1.2.2.2h.7c0,.1.4.1.4,0h.2c0,.1.4.1.4,0h.7c.1.1.1.2.2.2.4-.1.7.1.9,0,.1.1.2.1.3.2h.2a1.21,1.21,0,0,0,.5.5.1.1,0,0,1,.1.1l.7.7c.1.1.2.3.4.4s.2.1.2.3v.1c.1.3.4.3.2.7V94c.1,0,.1.1.2.1v2.1c-.1.1-.2.1-.2.3v.4c-.1.1-.2.1-.2.2v.2c-.2.3-.7.3-.9.7h-.1c-.1-.1-.3.2-.4.2h-.2c-.1.1-.2.1-.2.2h-.1a32.3,32.3,0,0,0-4.4,0h-.1c-.1.1-.4.1-.5.2h-.1c-.1-.1-.1.3,0,.2h.1c.7.1,1.8-.1,2.2.3.5-.1,1.2.1,1.6-.1.2.1.1-.1.2-.2.4,0,.9-.1,1.2.1V99c.1.2-.1.2-.1.3s-.1,0-.1.1-.3,0-.3.1h-.1c-.4.4-1.8,0-2.5.2h-.1c.1-.1-.3-.1-.2,0-.3.1-.2-.3-.4-.2a2.43,2.43,0,0,0-1.2,0h-.1c-.1.1-.2.1-.2.2h-.2c-.1.1-.2.1-.2.2h-.4c-.1-.1-.1-.2-.2-.2a.1.1,0,0,1-.1-.1c.1-.1.2-.1.2-.3a1.13,1.13,0,0,0-.8-.1c-.2,0-.1-.3-.4-.2,0-.1-.4-.1-.3,0h-.1c-.1-.1-.2-.1-.2-.4.2-.1.9.1,1.1-.1h.1c.1-.1.2-.1.3-.2a1.49,1.49,0,0,0,.9-.4h.3c.1-.1.1-.2.2-.3H53c0,.1.4.1.3,0h.1c.1-.1.2-.1.2-.2h.1a1.39,1.39,0,0,0,.9,0h.1c.5.6,2.2.3,3.1.2.2.1.1-.1.2-.2.4-.1-.1-1.1.4-1.2a.78.78,0,0,0-.4-.4c-.1-.1-.1-.2,0-.2s.2-.1.2-.2c.4,0,.7.1.6.7.1.1.2.3.4.4a.22.22,0,0,0,.2-.2c.3-.2.4-1.5,0-1.7v-.8c0-.2-.1-.2-.2-.3v-.2c.1-.2-.4-.2-.3,0v.2c-.1.1-.2.1-.2.2v.2c-.1.1-.2.1-.2.2-.2.2-.1-.2-.4-.1-.1.1-.1.2-.3.2a3.88,3.88,0,0,1-.6-1.1c-.2,0-.4,0-.4.2v1.5c-.2.1-.2.3-.4.3v-.2c-.1,0-.1-.1-.2-.1v-.4c.1-.3-.1-.4-.3-.3-.1.3.1.5,0,.9-.1.1-.3.2-.4.4h-.1c-.4-.3-.1-1.2-.2-1.8v-.1c-.2-.1-.2-.6-.4-.7s-.1,0-.1-.1v-.1c-.1,0-.1-.1-.2-.1a.22.22,0,0,0-.2-.2c.1-.1-.3-.1-.2,0-.3.1-.1.6-.1.9l-.4.4h-.1c-.3-.2-.2-.7-.6-.7-.1,0-.2,0-.2.1-.2.1-.7.1-.8-.1-.1,0-.2,0-.2.1s-.2.1-.2.2a4.8,4.8,0,0,0,0,1.2c-.2.1-.3.4-.5.2,0-.1,0-.1-.1-.1.1-.1-.3-.1-.2,0-.3.1-.1.6-.1.8s-.2.3-.4.4c-.1-.1-.1-.2-.3-.3-.1-.4.1-1.2-.1-1.4h-.1c-.1-.1.1-.7-.2-.7h-.1c-.2-.2-.4.1-.5.2s-.1.5-.3.6-.2.1-.2.2h-.1a2.44,2.44,0,0,0-1.2,0c.1.1-.2.3,0,.3v.1c-.1,0-.1.4,0,.4v.3a.1.1,0,1,1-.2,0c-.1-.2-.2-.4-.4-.4,0-.2-.1-.2-.3-.2V95c-.1,0-.1.1-.1.2-.4.1-.4-.2-.7-.3-.1-.3.1-.8-.1-.9h-.1c-.1-.1-.7.1-.8-.1s.1-.6-.1-.7h-.1a2.44,2.44,0,0,1,0-1.2c.1-.1.3-.2.4-.4.1,0,.1-.4-.1-.4h-.1c0-.1-.5-.1-.5,0s-.1,0-.1.1a.1.1,0,0,0-.1.1c-.3.1-.1.3-.1.6-.1,0-.1.4,0,.4v.3c-.1,0-.1.4,0,.4.1.3-.2.2-.2.4-.1,0-.1.1-.2.1H43c-.1-.1-.1-.2-.2-.2h-.2c0,.1-.1.3.1.2.1.1,0,.2-.1.3s-.2.1-.2.2c-.1-.1-.2,0-.2-.1s0-.2-.1-.2,0-.1-.1-.1.1-.7-.1-.9c0-.2-.2-.2-.2-.4l.2-.2v-.1c.1-.1.1-.7,0-.7v-.1l-.3-.3h-.1c-.1-.1-.4-.1-.4-.2H41c0-.1-.1-.1-.2-.1a.1.1,0,0,1-.1-.1c0-.1,0-.1-.1-.1s0-.4-.1-.4,0-.1-.1-.1-.8-.1-.9.1-.1.1-.2.2l-.3.3v.1a2.05,2.05,0,0,0,0,1.1c0,.3-.4.4-.2.7l-.2.2h-.1c-.4-.1,0-1.2-.2-1.6V91c.1.1.1-.3,0-.2,0-.1,0-.1-.1-.1a.1.1,0,0,0-.1-.1c0-.1,0-.1-.1-.1s-.4,0-.4-.1,0-.1-.1-.1-.4,0-.4-.1,0-.1-.1-.1-.1-.1-.1-.4c0-.1,0-.1-.1-.1s-.1-.1-.1-.3c.1,0,.1-.4,0-.3,0-.1,0-.1-.1-.1a.1.1,0,0,0-.1-.1c0-.1,0-.1-.1-.1s-.5,0-.7-.1c0-.1,0-.1-.1-.1s-.4,0-.4-.1,0-.1-.1-.1-.1-.1-.1-.3a.85.85,0,0,0,0-.7c0-.3.3-.2.5-.3v-.2l.4-.4h.2c.1-.1.2-.1.2-.2H37c.1-.1.2-.1.2-.2H39c.1-.1.2-.1.2-.2h.2c.1-.1.2-.1.2-.2h.2c.1,0,.1-.1.2-.2h.5c.1-.1.2-.1.2-.2h.5c.1-.1.2-.1.2-.2h.5c.1-.1.2-.1.2-.2h.5c.1-.1.2-.1.2-.2H43c.1,0,.1-.1.2-.2h.5c.2-.2.5-.3.4-.7-.1-.1-.2-.1-.4-.1l-.3-.3c-.4-.3-.4-1.7.1-1.9h.2c.1.1.2.3.4.4V82c-.1,0-.1.4,0,.4v.1l.9.9h.2c.1.1.1.2.2.2h1c.1-.1.2-.1.2-.2h.2c.1-.1.2-.1.2-.2.2-.1.7.1.8-.1.1,0,.1,0,.1-.1s.4-.1.7-.1v-.1c.2-.5-.3-.9-.4-1.4-.1-.1,0-.3,0-.4s-.2-.1-.2-.3c-.1-.7-.9-1.2-1.3-.7a4.62,4.62,0,0,1-.7.7c-.2.1-.1.4-.4.7a.1.1,0,0,0-.1.1c-.1,0-.4,0-.4.1a.1.1,0,0,1-.1.1h-.5c-.1,0-.1,0-.1-.1-.1-.4.3-.5.3-.9h.2c.1-.1.2-.1.2-.2h.2c.4,0,.1-.7.3-.8s.1,0,.1-.1,0-.4.1-.4H46c.1-.1.2-.1.2-.2h.7c.6-.4.8-1.1,1.3-1.5h.1c.5-.1.7-.5.9-.7h.1a2,2,0,0,0,1.2-1.2c0-.1.1-.1.2-.1.4,0,.8.1.9-.2h.1c.6-.2.9-.7,1.5-.8.1,0,.1-.1.2-.2h1.7c.1,0,.1,0,.1.1v.1c.1.1.4.2.4,0v-.1h.1c.4-1,.9-2,2.6-1.8.1-.2.4-.2.4-.7,0-.1.2-.1.2-.2s.1-.4.2-.4l.3-.3c.4-.3,1.5,0,2-.2.1,0,.1,0,.1-.1.1-.4.9-.2,1.2-.7h.1c.1.3.6.2.9.2.1,0,.1.2.2.2s.8-.1.9.2c0,.1,0,.1.1.1s.5,0,.7.1.1.1.2.2a2.93,2.93,0,0,1,1,.3h.1c.1.3.5.5.9.7,0,.1,0,.1.1.1.2.4.3.9,1,.8a.1.1,0,0,1,.1.1c0,.1,0,.2.1.2l.3.3c.1.6.7.8.9,1.2a.64.64,0,0,0,.5.8h.7c.2.2.3.5.7.5.1,0,.1.1.2.2a6.28,6.28,0,0,0,1.2,1.1h1.5c.2,0,.1.1.4,0h.6c.1.1.1.3.4.2h.1c.5.3.5,1.2,1.2,1.2h.1c.1.1.1.2.3.2h.4c.1.1.1.2.2.2h1c.1.1.1.3.4.2h.1c.1.2.4.2.3.7.1.1.1.1.4.1h.1c.1.1.1.3.4.2h.1a1.67,1.67,0,0,1,.1,1.8c.1.4.7.6.4,1.2a4.12,4.12,0,0,0-3.1.9v.1c-.1-.1-.1.3,0,.2,0,.1,0,.1.1.1h1.2c.1.1.1.2.2.2h.2c.1.1.1.2.2.2h.2a1.21,1.21,0,0,0,.5-.5h3.3a1.54,1.54,0,0,1,.4.6c.1.4,1.4.1,1.9.2.5.4.7,1.2,1.2,1.5h.2a4.62,4.62,0,0,0,.7.7h.1c0,.1.4.1.3,0h.7a1.21,1.21,0,0,0,.5.5h.2c.2,0,0,.5.2.6v.2c-.1,0-.1.5,0,.5v.1c-.1.3-.7,0-.9.2-.2-.1-.1.1-.2.2s-.2,0-.2.1-.1,0-.1.1-.5-.1-.7.1h-.1a1.51,1.51,0,0,1-1.8-.1c0,.1-.1.1-.1.2s-.2.1-.2.2c-.1.5-.2,1.6.2,1.8v.1c-.2.3.1,1.1-.2,1.2h-.1c0-.1-.1-.1-.2-.1s0-.1-.1-.1-.4,0-.4-.1,0-.1-.1-.1-.1-.1-.2-.1-.1-.2-.2-.2a.1.1,0,0,0-.1-.1c0-.1,0-.1-.1-.1s-.1-.1-.2-.1-.1-.2-.2-.2-.4,0-.4-.1,0-.1-.1-.1c.1-.1-.3-.1-.2,0-.1,0-.1,0-.1.1,0,.8-.3,2.4.2,2.8v.1c-.1.1.1.7-.2.7s-.3-.6-.5-.8a2.85,2.85,0,0,0,0-1.3c0-.1,0-.1-.1-.1s-.1-.2-.2-.2h-.1c-.1-.1-.7-.1-.7,0-.2-.1-.1.1-.2.2s-.2,0-.2.1a.22.22,0,0,0-.2.2c-.4.1-1-.1-1.3.1h-.1a2.51,2.51,0,0,1-.4.7c0,.4.1,1-.1,1.3h-.1c-.3.1,0,.7-.3.7h-.1l-.2-.2a1.29,1.29,0,0,1-.2-.8c.1.1.1-.3,0-.2v-.3c.1,0,.1-.5,0-.5v-.1c0-.1-.2-.3-.2-.1H79l-.2-.2c-.1-.1-.1-.2-.3-.2a1.32,1.32,0,0,0-.9-.7c0-.1,0-.1-.1-.1a1.7,1.7,0,0,0-1,0h-.1c-.2.1-.2,1.1,0,1.2h.1c.1.5,0,1.3.1,1.9,0,.1,0,.1-.1.1s-.2,0-.2.1-.1,0-.1.1a3.22,3.22,0,0,0,.1,1.7h.1c.1.1.1.2.2.2h.1a16,16,0,0,0,3.1,0h.1c.1.1.1.2.2.2a.87.87,0,0,1,.7.4c-.1,0-.1.1-.2.1a11.3,11.3,0,0,0-2.6,0c-.1,0-.1,0-.1.1s0,.4-.1.4h-.1c-.1.1-.1.2-.2.2h-.2c-.1-.1-.7-.1-.7,0-.2,0-.1.2-.3.2s0,.5-.2.5H76a2.43,2.43,0,0,0-1.2,0h-.2a4.62,4.62,0,0,0-.7-.7c-.2.1-.4.3-.6.2-.1.1-.1.2-.2.2h-.2a.85.85,0,0,0-.7,0h-.1c-.2.3.6.6,1.1.6.1,0,.1.2.2.2s.4,0,.5.1.1.1.1.3a1,1,0,0,1-.8.4c-.1-.1-.1-.2-.2-.2h-.2c-.1-.1-.2-.1-.3-.2h-.2c-.1-.1-.4-.5-.7-.2h-.2c-.1-.1-.1-.2-.2-.2s-.1,0-.3,0a2.05,2.05,0,0,0-1.1,0h-.1v-.1c-.1-.1-.2-.1-.2-.2a3,3,0,0,1-1.6-.2h-.1l-.3-.3c-.1-.1-.2-.4-.4-.2a4.62,4.62,0,0,1-.7-.7v-.2c-.1-.2-.4-.2-.2-.6v-.2c-.2-.1-.3-.4-.2-.8V93.5c-.1-.1-.1-.2-.2-.2V91.5c-.1-.1-.1-.2-.2-.2v-2c-.1-.3.3-.2.2-.5V87.3c-.1-.1-.1-.2-.2-.2v-.3c-.1-.1-.4-.1-.6-.2,0-.1-.1-.1-.2-.2,0-.6-.7-.4-.5-1.2,0-.1.2-.1.2-.2a.19.19,0,0,1,.3,0C64.4,85.3,64.6,85.3,64.7,85.4Zm10.8-7.1c-.6,0-.9.4-1.7.2h-.1c-.4-.1-.7.1-1.1.2s-.7-.1-.8.2c0,.1,0,.1-.1.1a2.68,2.68,0,0,1-1.5,1,.1.1,0,0,1-.1-.1c-.4-.4-.6.4-1.2.1-.1.9-1.3.9-1.1,2-.1.2.2.1.2.2.1.3.4,0,.4-.1h.3c0-.1.1-.1.1-.2h.1c.1-.1.2-.1.2-.2h1.2c.1,0,.1.1.2.2s.2.6.1.7c-.7-.1-.9.4-1.4.5H67.3a7.46,7.46,0,0,1-1.5.9c.1.7-.4.9-.2,1.7v.2c.1.1.2.1.2.2s.3.1.3,0v-.3c.1,0,.1-.1.3-.1l.4.4c.1.2-.1.7.2.7s.5.3.7.5h.4c.1-.1.2-.1.2-.2.2,0,.4.1.4-.2.1,0,.1-.1.2-.1.4-.1.4.2.7.2.1.1.1.3.2.2h.5c.1-.1.2-.1.2-.2H71a1.21,1.21,0,0,0,.5-.5,1.48,1.48,0,0,1,.7.1c0,.1,0,.1.1.1h1.5c.1.1.1.3.2.2h1.2c.1-.1.3-.2.4-.4s.1-.4.4-.4c.1-.1.2-.1.2-.2h.2c.1-.1.2-.1.2-.2h.5a3.82,3.82,0,0,0,.9-.9c0-.1,0-.1.1-.1a1.21,1.21,0,0,0,.5-.5h.2c.1-.1.2-.1.2-.2h.1c.1,0,.3,0,.3-.1v-.2c.1-.1.3-.2.4-.4h.4c.2,0,.2-.1.3-.2.4.1.4-.1.5-.2s.3-.3.1-.4v-.1c.1,0,.1-.4,0-.3V82c0-.2-.4-.1-.7-.1-.1,0-.1,0-.1-.1s-.2-.2-.3-.2v-.1c-.1-.1-.5-.1-.7-.4-.1,0-.1,0-.1-.1-.1-.4-.9-.1-1.5-.2a.1.1,0,0,1-.1-.1c-.1-.2-.6-.1-.9-.1-.4.6-1.4.7-1.8,1.2-.1-.1-.4.1-.5-.1s.1-.1.2-.2v-.1c.1,0,.1,0,.1-.1h.1c.1-.1.2-.1.2-.2h.4c.3,0,.4-.2.5-.4a.1.1,0,0,1,.1-.1c.1-.1.3-.2.4-.4s-.1-.4-.2-.6-.1-.2-.2-.2V79c0-.3-.4-.1-.7-.2-.1,0-.1-.2-.2-.2s-.1-.1-.2-.1C75.6,78.3,75.6,78.3,75.5,78.3ZM58.6,79.9c.1-.3-.6-.4-.6-.1a.37.37,0,0,1-.1.3h-.1c-.1,0-.1.3,0,.3h.4c.1-.1.1-.2.2-.2s.2-.1.2-.3Zm26.8,6.2c-.4-.4-1.1.5-2,.3-.1,0-.1,0-.1-.1v-.1c-.1-.1-.9-.2-.9.1,0,.1,0,.1-.1.1-.3.1-.7.6-1.2.4,0-.1,0-.1-.1-.1s-.4,0-.4-.1,0-.1-.1-.1-.9-.1-.9.1,0,.1-.1.1h-2a7.46,7.46,0,0,1-1.5.9v.3c0,.1,0,.1-.1.1a4.73,4.73,0,0,1-.7,1.2c.1.4,0,.8-.2.9s-.4.3-.5.6a.22.22,0,0,0-.2.2V91a1.91,1.91,0,0,1-.8.3c-.2-.1-.1.1-.2.2-.4,0-.6.3-.9.4,0,.1-.1.4.1.4s.1.3.4.3c-.1.2.2.1.4.2,0,.1.4.1.3,0,.3.1.4.3.6.5h.3a1.7,1.7,0,0,0,1,0h.1c.1-.1.2-.1.2-.2H76c.1-.1.2-.1.2-.2h.4c0,.1.4.1.4,0h.4c.1.1.1.3.4.3a.22.22,0,0,0,.2.2c0,.1.2,0,.3.1s.1.1.1.2.1,0,.2,0,.1.3.2.4,0,.1.1.1a.6.6,0,0,1,.1.4c.1.1.2.1.3.2s.3.2.4.1c.3-.2.5-.5.8-.7a.37.37,0,0,0,.3-.1V94c.1.1.1-.3,0-.2-.1-.4.4-.4.5-.2s0,.1.1.1.2,0,.4,0,.3.4.4.2v-.1c.1-.1.1-.1.4-.1.1.1.3-.2.1-.2v-.1c.3-.1.3-.6.5-.8v-.1a2.09,2.09,0,0,1,.4-.6h.5c.1.1.1.3.2.2.3.1.4,0,.8,0,0,.1.4.1.4,0h.1c.4-.1.4-.6.7-.9v-.1c.1-.1.1-.4.2-.4v-.1c.1-.1.1-.1.4-.1.1-.1.2-.1.2-.2h.4c0,.1.4.1.3,0h.5c0,.1.5.1.5,0,.4-.1.7.1.8,0s.1-.1.2-.2A2.46,2.46,0,0,0,91,90v-.1c.1,0,.1-.5,0-.5s0-.1-.1-.1c-.5-.2-1.4.1-1.9-.1,0-.2-.2-.1-.2-.3s-.2-.1-.2-.2.1-.4-.1-.5v-.1c.3-.4-.2-.1-.4-.2H88c-.1-.2.1-.7-.1-.8V87c-.1-.2-1-.2-1.1.1,0,.1,0,.1-.1.1s-.2,0-.2.1h-.1c-.1.3-.9.2-1.2.1v-.1c0-.1,0-.1.1-.1a.7.7,0,0,0,.4-.9v-.1A.37.37,0,0,1,85.4,86.1ZM72.6,87.3c-.7-.4-.9.6-1.4.7s-.8-.1-1.4,0c-.6-.6-1.7-.1-2.3,0-.1.2-.4.3-.4.7,0,.1,0,.3.1.3a.1.1,0,0,1,.1.1c0,.1,0,.4.1.4s.2.1.4.1c0,.1,0,.1.1.2H68c.3,0,.2.1.5,0,.1-.1.2-.1.2-.2h.2c-.1.1.3.1.2,0,.6-.1.7.3,1.2.3,0,.1,0,.1.1.2h.1a14.64,14.64,0,0,0,2.1,0c-.1.1.3.1.2,0h.7a1.21,1.21,0,0,0,.5-.5h.2c.1-.1.3-.2.4-.4V89c.1-.1.2-.1.2-.2v-.4c.1,0,.1-.4,0-.3,0-.1,0-.2-.1-.2-.4-.2-1.5.1-1.7-.2h-.1c0-.1-.4,0-.4-.1C72.8,87.3,72.7,87.3,72.6,87.3Zm-2.5,2.8c-.5-.3-1.1.1-1.3.2-.4.1-.9-.1-1.2.2-.4,0-.9-.1-1.2.1-.1.2-.1.9.1,1h.2c.1.1.1.2.2.2.5-.1,1.3.1,1.5-.2l.3-.3h.2c.1-.1.2-.1.2-.2h.7c0,.1.4.1.3,0,.4,0,.5.1.7,0s.4-.2.4-.5a5.36,5.36,0,0,0-1.1-.5ZM51.9,91.5c-.1,0-.1.1,0,0a6.79,6.79,0,0,0-1.2,1.2c-.3,0,0,.6-.2.7a.1.1,0,0,1,.1.1,1.21,1.21,0,0,0,.5.5c-.1.2.4.1.3-.1.1,0,.2-.1.4-.1s.1-.2.2-.2h.3c.1-.4.6-.1.7-.5h.1c.2,0,.1-.4.2-.5a.22.22,0,0,0,.2-.2.1.1,0,0,0,.1-.1c.2-.1.2-.8-.1-.8-.1,0-.1,0-.1-.1C53.1,91.4,52.2,91.5,51.9,91.5Zm19.8.7c-.4-1.2-2.3-.7-2.8,0,0,.1,0,.1-.1.1s-.4.2-.4.5c0,.1,0,.3.1.3h.1c.3.7-.3,2.4.3,2.8V96c.1.5-.2,1.4.2,1.5v.1a3.29,3.29,0,0,0,.4,1.7h.1c.4,0,.3.4.4.5h.1c.2.2.4-.1.6-.2s.2.3.4.2a4.3,4.3,0,0,0,1.6,0,.35.35,0,0,1,.2.1c.4.3,2.2.4,2.5-.1h.2c.1-.1.3-.2.4-.4V95.9c0-.1-.1-.1-.2-.2-.1-.4.1-1-.1-1.2a2.43,2.43,0,0,0-1.2,0c-.1.1-.1.4-.1.7,0,.1,0,.1-.1.1-.3.1-.1.6-.2.9,0,.1-.2.1-.2.2s0,.6-.2.7v.1c-.1.1-.1.4-.2.2v-.8c.1-.1.2-.1.2-.2v-.2c.1-.1.2-.1.2-.2V94.5a7.64,7.64,0,0,0-.9-.9c-.2.1-.7-.1-.7.1h-.1c-.2.2-.1,1.1-.1,1.4s.2.1.2.2c-.1.6.1,1.3-.1,1.8-.1,0-.1-.1-.1-.3v-.5c-.1-.1-.1-.2-.2-.2v-.9c0-.2-.1-.2-.2-.3A23.85,23.85,0,0,0,71.7,92.2Zm-14,.1h0a3,3,0,0,0-2.6-.1v.2c-.1.1-.2.1-.2.2v.5c.4.3.7,1,1.2.9.7-.3,1.2-.4,1.8-.7,0-.1,0-.9-.2-1Zm-9.5.7c0-.2-.3-.4-.3-.1-.3.2-1.1-.1-1.2.2v.1c-.1.1-.5-.1-.7.1-.1,0-.1,0-.1.1s-.4,0-.4.1h-.1l-.2.2c-.4,0,.1.5-.4.5v.4c-.1.2.2.4.4.6h.1a2.85,2.85,0,0,0,1.3,0c.1,0,.2,0,.2-.1s.1-.1.2-.2.1,0,.1-.1.1-.1.2-.1,0-.5.2-.5h.2c.2,0,.1-.1.2-.2s.1,0,.1-.1.1-.1.2-.1h.3v-.1c.1-.1,0-.5-.2-.4C48.5,93.1,48.3,93.1,48.2,93Zm19,1.4c.1-.2.1-.1,0-.3s-.3.1-.4.2-.2.4-.2.7v.2a.78.78,0,0,0,.4.4c.2.1.2-.2.2-.4s.4-.2.2-.3c0-.1,0-.1-.1-.1s-.1-.1-.1-.2Zm-24.3.9a.1.1,0,0,0,.1-.1.22.22,0,0,0-.2-.2.1.1,0,0,1-.1.1v.2Zm25.9,4.8c-.1-.2-.5-.4-.7-.2a2.51,2.51,0,0,0,.4.7h.1c.4.1.4.4,1,.3.1,0,.1,0,.1.1s.5.2.6,0v-.6c-.2-.1-.4-.1-.6-.2,0-.1-.1-.1-.2-.1s-.1.1-.1.2C69.1,100.4,69.2,100.1,68.8,100.1Zm2.7,1.3c.1.1.3,0,.2-.2-.1,0-.1-.1-.2,0C71.4,101.1,71.4,101.5,71.5,101.4Z"/><path class="cls-2" d="M84.2,47.9c.1-.1.2-.3.4-.4v-.1c.1-.1.3-.2.2-.5-.1.1-.1-.1-.3-.1,0,.1-.4.1-.4,0h-.3c0,.1-.4.1-.4,0h-.1c-.1.1-.1.1,0,.2s.1.2.3.2a4.35,4.35,0,0,1,.6.7Z"/><path class="cls-2" d="M74.8,62.7c.3,0,.3-.2.5-.3v-.1c0-.1.3,0,.4-.1a.78.78,0,0,1,.4-.4c.1-.1.2-.1.2-.3s.3,0,.4-.1c.3-1.2-1.8-1.1-2.6-.8.1.3,0,.3,0,.7.1,0,.1.4,0,.4v.2a2.85,2.85,0,0,1,.7.8Z"/><path class="cls-2" d="M79.5,62.2h.2a1.21,1.21,0,0,1,.5.5h.2a4.62,4.62,0,0,1,.7.7h.5a1.21,1.21,0,0,1,.5-.5h.2a1.21,1.21,0,0,1,.5-.5H83c.1-.1.1-.2.2-.2v-.1c-.1-.1-.1-.1-.1-.2H83c-.1-.1-.3-.1-.4-.2a1.58,1.58,0,0,1-.7-.7c-.2,0-.4,0-.4-.2l-.3-.3c-.5.1-1.2-.1-1.7.1a.1.1,0,0,1-.1.1c0,.1-.1.1-.1.2s-.5.1-.6.2,0,.1-.1.1C78.7,61.6,79.2,61.9,79.5,62.2Z"/><path class="cls-2" d="M82.7,61h.2a3.82,3.82,0,0,1,.9.9c.2,0,.1-.1.3-.2h.2a9.43,9.43,0,0,1,1-1h.2a.1.1,0,0,1,.1-.1c-1-.1-2.3,0-3.4-.1C82.4,60.8,82.7,60.8,82.7,61Z"/><path class="cls-2" d="M85.7,61.6c0,.3-.4.1-.6.2a.1.1,0,0,1-.1.1c-.1.1-.1.1-.1.2H85a4.62,4.62,0,0,1,.7.7h.2a2.34,2.34,0,0,1,.7.7c.3-.1.4-.4.6-.4h.2a4.62,4.62,0,0,1,.7-.7h.2a4.62,4.62,0,0,1,.7-.7h.2c.1-.1.1-.1,0-.2-.2.1-.1-.1-.2-.2s-.4,0-.4-.1-.3-.1-.2-.3c-.3-.4-1.2-.4-1.8-.2v.1c0,.1-.2.1-.4.1s-.1.3-.4.3c0,.1-.1.1-.2.2C85.9,61.6,85.7,61.5,85.7,61.6Z"/><path class="cls-2" d="M76.5,62.7h0c-.3.1-.7.1-.7.5h.1a1.21,1.21,0,0,1,.5.5h.2a4.62,4.62,0,0,1,.7.7h.2c.1.1.2.1.2.2h.2c.1.1.3.2.4.4s0,.1.1.1.1-.1.3-.2c.2.1.3-.1.4-.1s0-.1.1-.1l.3-.3c.2.1.3-.1.4-.1s.2-.4.6-.4a.1.1,0,0,0,.1-.1,6.07,6.07,0,0,0-1-.7c0-.1,0-.1-.1-.1-.1-.2-.6-.2-.7-.4s0-.1-.1-.1c-.3-.4-.9-.5-1.2-.9a.1.1,0,0,0-.1-.1c-.2.1-.3.3-.4.4s-.4.4-.6.6C76.6,62.5,76.5,62.7,76.5,62.7Z"/><path class="cls-2" d="M84.1,54.6h.1c.1-.1.1-.1.2-.1v-.1c.2-.1.3-.3.5-.4,0-.1,0-.1.1-.1s.1-.1.1-.2a12.79,12.79,0,0,0-2.1.1c.1,0,.1,0,.1.1h.2A5.72,5.72,0,0,0,84.1,54.6Z"/><path class="cls-2" d="M84.7,54.7c.3.6.9.9,1.2,1.4.5-.3.7-.7,1.2-1.1,0-.1,0-.1.1-.1.1-.3.4-.3.7-.4,0-.1,0-.1.1-.1s.1-.1.1-.2-.4.1-.4-.1-.3-.2-.4-.4H86.1a.1.1,0,0,0-.1.1c-.1.1-.1.2-.2.2s-.1.1-.2.2-.2.2-.3.1A5.92,5.92,0,0,0,84.7,54.7Z"/><path class="cls-2" d="M81.1,67.8c.6,0,2.1-.3,2,.4-.1.1-.2.1-.2.2v.1c.2.2-.2.4-.2.5v.1c.1,0,.1.4,0,.4v.2a13.58,13.58,0,0,1,1.2,1.2h.8c.3-.6.9-.9.9-1.8,0-.2-.3-.1-.2-.4-.1-.2-.1-.9.1-.9h9.6a.75.75,0,0,0,.1-.5c-.1.1-.1-.3,0-.2a5.58,5.58,0,0,1,0-1.3c-.1.1-.1-.3,0-.2V64.4c-.1,0-.1-.4,0-.4-.1-.9,0-2.1,0-3.2-.1,0-.1-.4,0-.4v-.5a18.43,18.43,0,0,0-4.1-.1H91c-1.8-.1-3.8.1-5.4-.1,0-.1,0-.2.1-.2s.4-.1.4,0h.1a36.85,36.85,0,0,1,4.7,0h.2c0-.1.5-.1.5,0s.1-.1.2,0c.1-.1.2-.1.2-.2v-.2c-.1,0-.1-.5,0-.5v-.2c-.1,0-.1-.4,0-.4v-.1c-.1,0-.1-.4,0-.4v-.1a1.38,1.38,0,0,1,0-.9v-.2a2.43,2.43,0,0,1,0-1.2v-.2a1.1,1.1,0,0,1,0-.8v-.2c-.1,0-.1-.4,0-.4v-.2c-1.9-.4-4.4.1-6.4-.2a.1.1,0,0,1-.1-.1c-.1.1-.1-.3,0-.2a.1.1,0,0,1,.1-.1c-.1-.1.3-.1.2,0H86a2.43,2.43,0,0,1,1.2,0h.2c.6-.1,1.5,0,2.2-.1.2,0-.1-.5.1-.5-.1-.3,0-.4,0-.7a9.63,9.63,0,0,1,0-2.4v-.1a7.39,7.39,0,0,1,0-2.1v-.1l-.2-.2h-.2a.85.85,0,0,1-.7,0h-.4c0,.1-.4.1-.4,0h-.3c-.1.1-.7.1-.7,0h-.4c0,.1-.4.1-.4,0s-.2.1-.3,0a.1.1,0,0,1-.1-.1c-.1,0-.1-.5,0-.5a.1.1,0,0,1,.1-.1c.8-.1,1.9,0,2.8-.1h.1c.1-.1-.1-.4.1-.4,0-.3-.1-.4,0-.7-.2-1.2.1-2.9-.1-4.1h-.8c0,.1-.4.1-.4,0h-.7c0,.1-.4.1-.3,0h-.2c0,.1-.4.1-.4,0s-.1-.1-.1-.2c.4-.3,1.3-.1,1.9-.1h.1c0-.1.1-.1.1-.2s-.1-.4,0-.4v-.2c-.3.1-.3-.1-.2-.1v-.2a21.63,21.63,0,0,1,0-3.6v-.1c-.1-.1,0-.4-.1-.5H85.7a.7.7,0,0,1-.4-.9v-.1c0-.2.4-.1.4-.2a2.43,2.43,0,0,0-.4-1.8v-.1c.7-.9-.4-1.7-.9-2-.1,0-.1,0-.1.1a1.21,1.21,0,0,1-.5.5c0,.1.1.1,0,.2s-.1.2-.2.2V31c.1,0,.1.4,0,.4v.3c.1,0,.1.4,0,.3.1.2-.1.1-.2.2l-.3.3v.6c.1-.1.1.3,0,.2.1.3.3.4.5.6V34c.1.1.1.7-.2.7H81.6c-.2-.1-.2.1-.3.1V35a2.43,2.43,0,0,1,0,1.2v.1c.1,0,.1.5,0,.5v.3c.1,0,.1.4,0,.4v.1c.1,0,.1.4,0,.3v.7c.1,0,.1.4,0,.4.1.6,0,.9.1,1.4h.1c.6.1,2-.3,1.8.3h-.1c0,.1-.5.1-.5,0h-.1c0,.1-.5.1-.5,0h-.3c0,.1-.4.1-.4,0H80.3l-.2.2v.5c.1,0,.1.4,0,.3a7.52,7.52,0,0,1,0,1.5c.1-.1.1.3,0,.2v2.4c.8.4,2.3-.1,3.1.2h.1c.1.1.2.7-.1.7h-.3c0,.1-.4.1-.4,0h-.1c0,.1-.4.1-.3,0h-.7a2.05,2.05,0,0,1-1.1,0h-.4c.1.1-.3.1-.2,0h-.3l-.2.2v.6c.1,0,.1.4,0,.4v.7c.1-.1.1.3,0,.2v.7c.1,0,.1.4,0,.4a28,28,0,0,1,0,2.9c.3.1,1-.1,1.3.1h.1a9.31,9.31,0,0,1,2.9.1v.1c.1.1,0,.4-.1.4h-.1c-2.1.2-4.6-.1-6.7.1a20.85,20.85,0,0,1,0,2.5c.1,0,.1.4,0,.4v3.4c.1.1.5,0,.6.1h.1a1.39,1.39,0,0,1,.9,0h.1a41.69,41.69,0,0,1,5,0h.1a.1.1,0,0,1,.1.1c-.1.4-.7.2-1,.2H78.7a40.44,40.44,0,0,0-5,.1v6.5a8.55,8.55,0,0,1,0,1.6l.4.1C75.7,67.7,78.6,67.8,81.1,67.8Zm3.5,1.9h0c0,.2-.1.2-.3.2h-.1c-.2.6-1.2,0-.9-.4v-.1c.3-.2.3.4.7.2h.2c.1-.1.1-.4,0-.4-.3-.1-.8.1-.9-.1s.1-.1.1-.2.1-.2.2-.2H84c.1,0,.1-.1.2-.1s.1-.1.2-.1.1.1.1.2C84.7,68.7,84.7,69.4,84.6,69.7ZM84,67.3h.4c0,.1,0,.4-.2.3s-.6.1-.6-.2a.1.1,0,0,1,.1-.1C83.7,67.2,84.1,67.2,84,67.3Zm2.9-.8c-.1.1-.2.1-.2.2s-.7.1-.8,0v-.1c0-.1,0-.1-.1-.1h-.5c-.1,0-.1,0-.1.1,0,.3-.5.2-.7.1v-.1c0-.1,0-.1-.1-.1h-.3c-.4.4-1,.2-1.5,0a.1.1,0,0,0-.1.1c-.1.3-.8.1-.9-.1v-.1h-.5a.1.1,0,0,0-.1.1c-.4.4-.8-.1-1.2-.1a.1.1,0,0,0-.1.1.67.67,0,0,1-1-.2c0-.1,0-.2.1-.2s.2-.3.4-.4c0-.1,0-.1.1-.1s.4.3.6.4h.2c.1-.2.3-.3.4-.5.2,0,.3.1.3.2s0,.1.1.1.2.1.2.2h.5c.1-.2.3-.3.4-.5.3.1.4.3.6.5h.2c.1-.1.2-.3.4-.4,0-.1,0-.1.1-.1s.4.3.6.4h.2c.1-.1.2-.3.4-.4,0-.1.1-.1.2-.1v.1c.1,0,.1.1.2.1.3-.1.4.1.4.2h.2c.1-.1.2-.3.4-.4v-.1c-.1-.1.3-.1.2,0v.1a1.21,1.21,0,0,1,.5.5Zm7.8-.7h0a1.38,1.38,0,0,1,0,.9c-.1.1-.5.1-.5-.1a.1.1,0,0,0-.1-.1c-.6-.1-1,.6-1.5.1,0-.1,0-.1-.1-.1-.4,0-.8.5-1.2.1a.1.1,0,0,0-.1-.1h-.6c.1.3-.5.4-.6.1a.1.1,0,0,0-.1-.1h-.4c0,.3-.7.4-.9.1,0-.1-.3-.1-.4-.1s-.2,0-.2.1-.5.3-.6.1a.1.1,0,0,0-.1-.1c-.4-.2.2-.5.4-.7,0-.1.2-.1.2,0s.3.2.4.4h.2c.1-.1.2-.3.4-.4,0-.1.2-.1.2,0l.4.4h.2c.1-.1.1-.2.2-.2s.3,0,.3-.1h.1c-.1-.1.3-.1.2,0,.1.1.3.2.4.4h.2c.1-.1.4-.6.6-.4.1,0,.1,0,.1.1l.4.4h.1c.2-.1.6-.8.8-.3v.1h.2c.1,0,.1.1.2.2h.2C94.3,66.1,94.5,65.7,94.7,65.8Zm-8-29V37c-.2.1-.4-.1-.2-.2C86.4,36.6,86.7,36.7,86.7,36.8Zm-.5-.8c-.1,0,.1-.3.2-.1a.1.1,0,0,1,.1.1C86.5,36.2,86.1,36.3,86.2,36Zm-.3,1.4c.2-.1.4.3.2.4,0,.1-.3.2-.2,0C85.7,37.7,85.9,37.5,85.9,37.4Zm-.5-2.6h0c.1-.3.9-.3,1-.1v.1c.2.3-.3.4-.2.7v.1c.1.1-.3.1-.2,0v-.1C85.7,35.4,85.2,35.2,85.4,34.8Zm.3,1.1c0,.1.1.1.1.2s-.1.1-.3.1c0-.1,0-.1-.1-.1S85.4,35.8,85.7,35.9Zm-.6,2h0c-.2-.1-.5-.5-.2-.7.1,0,.3,0,.2.2.1.1.2,0,.2.2.1-.1.1.3,0,.2v.1C85.4,38,85.1,38,85.1,37.9Zm.3-1.4c.1.2-.2.3-.2.4s-.3,0-.3,0C84.9,36.7,85.1,36.3,85.4,36.5Zm-.3-4.6v.2c-.2.1-.4-.1-.2-.2C84.9,31.8,85.1,31.8,85.1,31.9Zm-1.3-.4a1.38,1.38,0,0,0,.3-.4.78.78,0,0,1,.4.4v.2c-.2-.1-.7.1-.7-.1Zm.8,1.4h-.5C84,32.5,84.8,32.5,84.6,32.9Zm-.8,1.3c.1-.1.7-.2.8,0s0,.1,0,.3.2.1.2.2v.2c-.3.1-.3-.1-.4-.2h-.5C83.8,34.7,83.8,34.5,83.8,34.2Zm.9,3.7a.1.1,0,0,0-.1.1c-.1,0-.2,0-.2-.1C84.2,37.7,84.7,37.6,84.7,37.9Zm-.1-2.4c-.2.1-.4-.1-.2-.2,0-.1.3-.1.2.1Zm-.6.6c.1,0,.1-.2.2-.2s.3.1.2.2c.1,0,.1.1.2.1v.2c-.1,0-.3.1-.2-.1-.2-.2-.3.2-.5.2v.1c.1.1-.3.1-.2,0v-.1C83.7,36.3,83.8,36.3,84,36.1Zm-.6,1.4h0c-.1.1-.4.6-.6.4v-.1c-.1,0,0-.2-.1-.3.1-.1.2-.1.3-.2v-.1c0-.2.5-.2.5,0v.1a1990328647664.47,1990328647664.47,0,0,0,.2.2c.1-.1.1.3,0,.2v.1c-.2.2-.4-.1-.3-.4C83.5,37.5,83.5,37.5,83.4,37.5Zm-.8-1.7c0-.1.1-.1.2-.1a.1.1,0,0,0,.1.1V36C82.7,36,82.5,36,82.6,35.8Zm0,2.1c0,.2-.4.1-.3-.1h.1C82.4,37.6,82.7,37.7,82.6,37.9Zm.8-5.8c-.1-.1,0-.1,0-.2s.3-.1.2,0v.2C83.7,32.2,83.3,32.2,83.4,32.1Zm0,2.6c0-.2.4.1.2.1v.1c-.2.1-.2-.1-.3-.1S83.3,34.7,83.4,34.7Zm-.2,1.7h.1c.1.1.1.1.1.3-.3,0-.4-.2-.6-.4a.1.1,0,0,0,.1-.1C83,36,83.2,36.3,83.2,36.4Zm-1.6.2c-.1-.6.6-1,.5-1.8v-.1c.1-.2.7-.2.7,0v.1c.2.4-.4.5-.5.8v.2c-.1.1-.1.3-.2.4v.1c-.1.1-.1.1-.2.1s.1.1.1.2a.1.1,0,0,1,.1.1c.1,0,0,.2.1.3s.1.1.2.1v.2c0,.1-.4.1-.2-.1-.1,0-.1-.1-.2-.1V37c-.1,0-.1,0-.1-.1-.2.1-.1-.2-.3-.3Zm.1,2.4c-.1-.1-.2-.1-.2-.2h-.1c-.1,0-.1-.1-.1-.2s.5-.6.7-.2.2-.1.4-.1c0-.1.4-.1.4.1s.1.1.2.1v-.1c0-.1.4-.2.4-.1v.1c.1.1.2.2.3.1v-.1c0-.1.4-.2.4-.1a.1.1,0,0,1,.1.1c.1.1.1.1.2,0v-.1c.1-.2.6-.1.6.1v.1c.1,0,.1-.1.2-.1a.1.1,0,0,1,.1-.1.22.22,0,0,1,.2.2c.2.1.1-.3.4-.2,0-.1.4-.1.3.1v.1c.1.1.1.1.2,0a.1.1,0,0,1,.1-.1c0-.1.4-.1.4.1v.1c.1,0,.1.4,0,.4s-.1.1-.1.2A40.2,40.2,0,0,0,81.7,39Zm2.8,1.8h-.7c-.1.1-.1.1-.1.2v.1c.1.1.1.2.2.3v.2h-.2c-.1-.1-.1-.2-.3-.3,0-.1-.1-.1-.1-.2a.1.1,0,0,1-.1-.1c-.1-.1.2-.2.4-.2.1-.4-.1-1.2.1-1.5h.1c.1-.1.7-.1.7,0,.2,0,.1.2.1.4a.64.64,0,0,1,0,.6v.2C84.8,40.5,84.6,40.7,84.5,40.8Zm-1.6,1.5c0,.1.3.1.2.3.1.1.1.1.2,0v-.1c0-.1.1-.1.2-.1s-.1-.3.1-.3a1990328647664.19,1990328647664.19,0,0,0,.2-.2c.1-.3.4-.4.7-.7a1.7,1.7,0,0,1,.6-.6c0,.1.2.1.1.2s-.2.3-.4.4,0,.3-.1.3c.1.2-.1.1-.2.2s.1.1.1.2a5970985942993.35,5970985942993.35,0,0,0,.3.3c0,.4.5.4.5,0-.1-.2.2-.1.2-.2l.4-.4h.1a.22.22,0,0,1,.2-.2c0-.2-.3-.2-.3-.4-.1,0-.1-.1-.1-.2s1.1-.2,1.2,0,0,.2-.1.2-.1.1-.1.3c.1,0,0,.3.1.4h.1c.1.1.2.1.2.2h.1c0,.1.1.1.1.2a.1.1,0,0,1,.1.1.1.1,0,0,0,.1-.1c.3-.6.5.9.1.7-.1,0-.1,0-.1-.1-.2-.2-.1.2-.2.2V43l-.2.2a.1.1,0,0,1-.1.1c-.1.2,0,.6-.4.6v-.1h-.2c0-.3.1-.4.4-.5.1-.1,0-.4.1-.4a.1.1,0,0,1,.1-.1c0-.1,0-.1.1-.1s0-.2.2-.2-.1-.2-.1-.3-.3-.1-.2-.3a1.38,1.38,0,0,0-.4-.3,1.38,1.38,0,0,1-.4.3.1.1,0,0,1-.1.1c-.1.3-.1.5-.4.7,0,.1,0,.1-.1.1s-.1.2-.2.2v.1c.1.1.4.3.5.5v.1c0,.1-.1.1-.2.1v-.1c0-.1-.3-.1-.2-.3-.1-.1-.2.1-.4.1h-.2c-.1.1-.1.2-.2.2h-.1a.1.1,0,0,1-.1-.1c0-.2.2-.2.3-.3s.3-.1.2-.4-.6-.4-.6-.9c-.2,0-.2.3-.4.3,0,.1,0,.1-.1.1s-.1.1-.2.2-.2.1-.2.2V43c.1.1.2.1.2.2v.1c.1.1.2.1.2.2v.2h-.2c-.1,0-.1-.1-.2-.2a.1.1,0,0,1-.1-.1c-.4-.2-.5.6-.7.4h-.1c-.3-.1.1-.6.2-.7h.1a.45.45,0,0,0,0-.5c-.2-.2-.7-.4-.7-.7,0-.1.3-.1.2.1v.1C82.6,42,82.7,42.2,82.9,42.3Zm-1,1.5h-.2c-.2,0-.3-.4-.1-.5h.2c.1.1.1.1.1.2C82.2,43.5,82.2,43.8,81.9,43.8Zm-1.1-1.6h0c.1-.2.2-.4.4-.4v-.3h.1a.1.1,0,0,1,.1-.1c.1-.1-.1-.2-.1-.3V41c.1-.2.9-.2,1,0s0,.1-.1.2h-.1c-.3.4-.7.6-.9,1.1v.2h-.4c-.1.1-.1.1,0,.2a.1.1,0,0,1,.1.1c.1.1.2.1.2.2v.2h-.2c-.1,0-.1-.1-.2-.2s-.1-.2-.3-.2a.1.1,0,0,1-.1-.1C80.5,42.2,80.7,42.2,80.8,42.2Zm2.3,2.5h0c0,.1-.1.1-.2.1s0-.2-.2-.2v-.1c-.2-.1-.2.1-.3.1v.1c.1.1-.3.1-.2,0v-.1c-.2-.2-.3.3-.5.1v-.1c-.1-.1-.2.1-.4.1s-.1-.1-.2-.2-.1.3-.4.2a.85.85,0,0,1,0-.7.1.1,0,0,1,.1-.1c.5-.1,1.8-.3,2,.2.1,0,.1-.1.2-.1s.2-.1.2,0a.1.1,0,0,0,.1.1c.1-.1.2-.3.2-.2.2-.1.1.2.2.2.1-.2.4-.3.4,0,.1-.1.4-.4.5,0,.2,0,.1-.3.4-.2,0,.1.1.1.1.2s.1-.1.2-.1c.1-.3.3,0,.4.1a.28.28,0,0,1,.5,0c.1-.2.4-.3.4,0,.1,0,.1-.1.2-.1s.1-.1.2-.1a2487910809611.28,2487910809611.28,0,0,0,.2.2c.1,0,.1-.2.2-.2s.2.1.2.2c.2.1.1-.3.4-.2s.1.5.1.7v.1c-.2.3-.3-.3-.5-.1v.1c.1.1-.3.1-.2,0v-.1c-.1-.1-.1-.1-.2,0v.1c.1.1-.3.1-.2,0v-.1c-.1-.1-.1-.1-.2,0v.1c.1.1-.3.1-.2,0v-.1c-.1-.1-.1-.1-.2,0v.1c.1.1-.3.1-.2,0v-.1c-.1-.1-.1-.1-.2,0v.1c.1.1-.3.1-.2,0v-.1c-.2-.2-.2.2-.5.1v-.2c-.1-.3-.4.4-.5,0-.1-.1-.1-.1-.2,0a.1.1,0,0,1-.1.1l-.1-.1c-.2-.2-.2.2-.5.1a.1.1,0,0,0-.1-.1C83.3,44.6,83.2,44.7,83.1,44.7Zm.7,3.6c.3-.4-.4-.7-.6-1-.1,0-.1-.1-.2-.2h-.1c-.1,0-.2-.4-.1-.4a.1.1,0,0,1,.1-.1c.1-.1.4,0,.5-.1s.1,0,.1-.1c.1-.4-.1-.9.1-1.2v-.1c0-.2.7-.1.7-.1h.2v.2a1.39,1.39,0,0,1,0,.9c-.1.1.1.1.1.3h.1c.3.1.8-.1.9.1s0,.2-.1.2a.1.1,0,0,1-.1.1c0,.1,0,.1-.1.1s-.1.1-.1.2h-.1c-.2.4-.7.5-.7.9.1.1.2.1.2.2v.1c.1.1.2.1.2.2s.1.1.2.2.1.3.1.4.1-.1.2-.1a3,3,0,0,1,.8-.8.78.78,0,0,1,.4-.4v-.1c0-.1.1-.1.2-.1.1-.7-.6-.5-.5-1.2a4.73,4.73,0,0,1,1.7-.1.1.1,0,0,1,.1.1c.1.4-.4.6-.5.7s.1.2.1.4a4.51,4.51,0,0,1,.7.7c.1.1.1.1.2.1s.4-.1.3.1c.1.1.1.7-.1.7s-.2,0-.2-.1c-.3-.2-.4.2-.6.3s-.1.2-.2.2-.1.4-.2.4-.1.1-.2.1-.4.1-.4,0c-.2.1-.1-.4.1-.3a.1.1,0,0,1,.1-.1c.1-.1.1-.2.2-.2s0-.1.1-.1.3-.4.5-.5c0-.1.1-.1.1-.3s-.3-.3-.4-.5c-.1,0-.1,0-.1-.1-.4,0-.2-.7-.5-.5,0,.1,0,.1-.1.1-.1.2-.4.4-.6.6s0,.3-.1.3v.1c-.1.2-.4.4-.5.6s.2.2.2.4,0,.4.2.4V50c0,.1,0,.2-.1.2.1.1-.3.1-.2,0a2487910809550.08,2487910809550.08,0,0,0-.2-.2c-.1,0-.1,0-.1-.1-.2-.3-.4.1-.6.2v.1a.82.82,0,0,1-.7.1c-.1,0-.1-.1-.1-.2s.2-.1.4-.1h.1c.1-.1,0-.2.2-.2,0-.1.1-.1.1-.3s-.1-.1-.1-.2h-.1c-.2,0-.1-.4-.2-.5h-.1c-.1,0-.1-.1-.2-.2a.1.1,0,0,1-.1-.1c-.5,0-.7.7-1.2.9.1.4.4.4.6.7.2-.1.2.4,0,.2.1.1-.3.1-.2,0a.1.1,0,0,1-.1-.1c-.1,0-.1-.1-.2-.2s-.3-.1-.4.1c-.3-.1-.3.2-.5.2s-.7.1-.7-.1.2-.3.4-.4.1-.2.2-.2h.1c0-.1.4,0,.4-.1s.1-.1.2-.2a1.21,1.21,0,0,1,.5-.5c0-.1,0-.1.1-.1s.1-.1.2-.2S83.7,48.4,83.8,48.3Zm-4.4-.2h.1c.1.1.1.2.2.2s.2,0,.2-.1,0-.4.1-.4h.1c.1-.1.1-.3.2-.2a.45.45,0,0,0,0-.5.1.1,0,0,1-.1-.1c-.1-.1-.7.1-.9-.1a.1.1,0,0,1-.1-.1c.3-.3,2.2-.2,2.8-.1,0,.1,0,.2-.1.2l-.7.7v.2c.1.1.2.1.2.2a10,10,0,0,0,1.1,1c-.1.1,0,.2-.2.2s-.2-.1-.2-.2H82c-.1-.1-.4-.3-.4-.5h-.1c-.1-.1-.4-.3-.4-.5a.1.1,0,0,1-.1-.1c-.1-.1-.1-.1-.2,0V48c0,.4-.6.6-.7.9v.2a13.58,13.58,0,0,1,1.2,1.2c.1,0,.1,0,.1.1s.1.1.1.2-.4.1-.4,0a.1.1,0,0,1-.1-.1c0-.1,0-.2-.1-.2v-.1c-.1,0-.1,0-.1-.1a4.62,4.62,0,0,1-.7-.7c-.1-.1-.1,0-.2.1.1.1.1.1,0,.2s-.1.1-.2.1A1.63,1.63,0,0,1,79.4,48.1Zm3.5,3.3a.52.52,0,0,0-.4.2c-.3.1-.2-.3-.5-.2-.1.1-.1.2-.2.2h-.2c0-.1-.1-.1-.1-.2s-.1.1-.2.1v.1h-.2c0-.1-.1-.1-.1-.2s-.1-.1-.2-.1-.2.2-.3.2c-.3.1-.2-.2-.4-.2a.52.52,0,0,0-.4.2c-.2.1-.2-.1-.3-.2s-.1-.1-.2-.1a.22.22,0,0,1,.2-.2c.1,0,.1-.2.2-.2.3-.3.4.4.7.1,0-.1,0-.1.1-.1a.1.1,0,0,1,.1-.1.64.64,0,0,1,.6,0h.1c.1,0,.1.1.2.2a.1.1,0,0,0,.1-.1c0-.1.1-.1.2-.1.4-.1,1.5-.2,1.7.2.1-.1.3-.4.5-.2s.2.3.4.1c0-.3.4-.1.4.1h.2c.1-.2.4-.3.4,0,.1,0,.1-.1.2-.1s.3-.2.3-.1c.2,0,.1.1.3.2s.1-.2.2-.2c.3-.1.1.2.4.2.1-.4.5-.2.7,0,.1,0,.1-.2.2-.2h.1c.2-.2.4.1.5.2a.88.88,0,0,1,1-.2c.1,0,.1.1.1.2s.1.4,0,.4v.1c-.1,0-.3.1-.2-.1-.2-.3-.4.1-.7.1-.1.1-.1-.1-.2-.2-.3.1-.2.3-.4.3s-.2-.2-.4-.2-.2.2-.4.2c-.3.3-.4-.4-.7-.1,0,.3-.4.1-.3-.1-.2,0-.1.1-.3.2.1.1-.3.1-.2,0-.1.1-.1-.1-.2-.2s-.1.3-.4.2c-.1,0-.1-.1-.1-.2-.4-.1-.4.4-.7.1v-.1c-.1-.1-.2.1-.4.1s-.4-.1-.5-.2-.1.2-.2.2C83,51.7,83,51.4,82.9,51.4ZM77,56.2c.1-.4-.1-1.1.1-1.2h.1c.2.1.3.4.5.4s-.1-.4.2-.4.4-.5.7-.7c0-.1,0-.1.1-.1s.2-.2.1-.3c-.2.1-.1-.1-.2-.2-.4,0-1.8.1-1.3-.3h.1a24.1,24.1,0,0,1,3.8,0h.1c.2.1-.1.4-.3.3h-.1c-.1.2-.4.4-.5.6.1.2.4.4.6.7h.1c.2-.1.4.4.7.5h.1l.2.2h.2c.1,0,.1.1.2.2s.1-.1.3-.2H83c.1-.1.1-.1.2-.1.1-.2.4-.4.5-.5s0-.1.1-.1.1-.1.1-.2-.1-.1-.1-.2-.1,0-.1-.1a.1.1,0,0,1-.1-.1c-.1-.1-.4-.1-.4-.4-.1-.1-.1-.1-.2-.1s-.1.1-.2.1-.4-.2-.4-.5c0-.1.5-.1.6-.1h.1c.1-.1.5,0,.7-.1s.1,0,.1-.1c.1-.4-.1-.9.1-1.2v-.1h.5c-.1-.1.3-.1.2,0h.1c.3.1.2.9.1,1.2,0,.1.1.1.1.2h.1c1.4.1,2.9-.1,4.2.1h.2a1.38,1.38,0,0,1,.9,0h.1c0,.4-.3.4-.5.7,0,.1,0,.1-.1.1-.3.4.4.6.5.9.1,0,.1,0,.1.1.2.1.4.4.7.6a.1.1,0,0,0,.1-.1v-.1c-.2-.2.3-.3.2-.5.1,0,.2,0,.2.1v.1a2.43,2.43,0,0,1,0,1.2v.1c0,.1-.4.2-.4.1a1990328647664.47,1990328647664.47,0,0,0-.2-.2c-.1,0-.1,0-.1-.1s-.2-.2-.3-.1a1990328647664.47,1990328647664.47,0,0,0-.2.2.1.1,0,0,1-.1.1c0,.1-.1.1-.2.1s-.1.2-.2.2c-.3.1-.3.3-.4.3.1.1.1.1,0,.2s-.9.2-1,0,0-.2.1-.2.3-.4.5-.5h.2c.1-.1.4-.6.6-.5h.2c.2-.2-.2-.3-.2-.5a.1.1,0,0,1-.1-.1c-.1-.1-.4,0-.4-.1-.3-.1-.4-.4-.7-.5-.1.1-.1.1-.2.1,0,.2-.2.1-.2.3s-.2.3-.4.3a4.62,4.62,0,0,0-.7.7c-.1.1-.4,0-.4.2v.2l.7.7c.1,0,.1.1.1.2s-.4.1-.7.1v-.1a.1.1,0,0,1-.1-.1c-.1-.1-.3-.1-.2-.2-.1,0-.1-.1-.3-.1s-.1.1-.2.1v.1c0,.2-.4.1-.5.2a.1.1,0,0,1-.1.1c-.1.1-.8.1-.9-.1s0-.2.1-.2.1-.1.2-.1.1-.1.1-.2h.4a1.38,1.38,0,0,0,.3-.4c0-.1-.1-.1-.1-.2s-.1-.1-.2-.1-.2,0-.2-.1h-.1c-.1,0-.1-.1-.2-.2s-.3-.2-.4-.4c-.3-.1-.4.2-.6.4h-.1c0,.1-.4,0-.4.1a.1.1,0,0,1-.1.1c-.1.1-.1.2-.2.2s-.1.1-.2,0a.1.1,0,0,1-.1.1c0,.2.3.2.3.4h.2c.1.1.4.1.4.5a.85.85,0,0,1-.7,0c-.2.1-.1-.1-.2-.2s-.2,0-.2-.1a.1.1,0,0,1-.1-.1c-.2-.1-.4.3-.7.2a.1.1,0,0,1-.1.1c-.1.1-1.1.1-.9-.1a.1.1,0,0,1,.1-.1c0-.1.1-.1.1-.2s.4,0,.5-.2,0-.1.1-.1.2-.3.4-.4c0-.1-.2-.1-.2-.3s-.4,0-.4-.1a2487910809551.78,2487910809551.78,0,0,0-.2-.2h-.1c-.1-.1-.3-.1-.4-.2a.22.22,0,0,1-.2-.2c-.1,0-.1,0-.1-.1-.2-.2-.5-.1-.7-.4-.1-.1-.2-.1-.2.1h-.1c0,.1,0,.1-.1.1-.3.4-1,.7-1,1.2h.2c.1-.1.2.1.3.2h.2a1.21,1.21,0,0,1,.5.5h.2c.1.1.2.1.2.2s.1,0,.1.1c.3.4-.9.4-.9.1v-.1a.1.1,0,0,1-.1-.1,2.18,2.18,0,0,1-.5-.4c-.1,0-.2,0-.2-.1a.1.1,0,0,1-.1-.1c-.1-.1-.3-.1-.2-.2-.8-.7-.8-.2-1.1-.2C77.3,56.6,76.9,56.5,77,56.2Zm6,2.2c-.1.1-.7.1-.7-.1v-.1a.1.1,0,0,1-.1-.1c-.3-.1-.3.1-.4.2h-.1c.1.1-.3.1-.2,0h-.1c-.1-.1-.1-.1-.1-.2h-.2a.1.1,0,0,0-.1.1.1.1,0,0,1-.1.1c0,.1-.4.1-.4-.1v-.1c-.1,0-.1,0-.1-.1-.2,0-.1.1-.3.2-.4.3-.4-.3-.7-.2-.1,0-.1.2-.2.2-.4.3-.4-.3-.7-.2-.1,0-.1.2-.2.2s-.4,0-.4-.1,0-.1-.1-.1-.2-.1-.2-.2a.1.1,0,0,0,.1-.1h.1c0-.1.1-.1.1-.2s.3,0,.4-.1c.1.1.2.1.3.2h.1c0-.1.2-.1.2-.2s.2-.1.4-.1.2.1.3.2h.1c0-.1.2-.1.2-.2s.3,0,.4-.1c.1.1.2.1.3.2s.2,0,.2-.1.3-.2.3-.1v.1c.1.1.1.1.2.1s.4.1.5-.1.3-.2.3-.1v.1c.1.1.4,0,.4.1h.2c0-.1.2-.4.4-.2v.1c.1,0,.1.1.2.1-.1-.1.3-.1.2,0,.1-.1.1-.1.2-.1s.3-.2.3-.1v.1a.85.85,0,0,0,.7,0v-.1c-.1-.1.3-.1.2,0v.1c.1,0,.1.1.3.1s.2-.1.3-.2.1,0,.2,0,.1.2.3.2v.1h.1c0-.1.2-.1.2-.2s.3,0,.4-.1c.1.1.2.1.3.2h.1c.1-.1.1-.2.3-.2s.4-.1.4.1.1.1.2.1v.1h.1c.1-.1.2-.1.3-.2h.2c.1,0,.1.2.3.2v.1H89c.1-.1.2-.1.3-.2.1.1.4-.1.4.1s.2.1.2.2H90c.1-.1.2-.1.3-.2.1.1.4-.1.4.1s.1.1.1.2.1.1.1.2-.4.5-.7.3a1421663319769.3,1421663319769.3,0,0,1-.2-.2h-.2a.1.1,0,0,0-.1.1.1.1,0,0,1-.1.1c.1.1-.3.1-.2,0a1421663319769.26,1421663319769.26,0,0,1-.2-.2H89c-.1,0-.1,0-.1.1v.1c0,.1-.4.2-.4.1a1421663319751.42,1421663319751.42,0,0,0-.2-.2h-.2a.1.1,0,0,0-.1.1.1.1,0,0,1-.1.1c.1.1-.3.1-.2,0h-.1c-.1-.1-.1-.1-.1-.2h-.2c-.1,0-.1,0-.1.1v.1c0,.1-.4.2-.4.1a2487910809550,2487910809550,0,0,0-.2-.2h-.2a.1.1,0,0,0-.1.1.1.1,0,0,1-.1.1c0,.1-.2,0-.3.1,0-.1-.1-.1-.1-.2s-.1.1-.2.1h-.1c-.1.3-.7.1-.7-.1v-.1c-.2,0-.1.1-.3.2-.9.2-1.5.2-1.5-.1C83.3,58.1,83.1,58.4,83,58.4Zm-8.8,8.2H74c-.1-.1-.1-.3.1-.3h.1C74.3,66.2,74.3,66.5,74.2,66.6ZM74,64.7v.1c.1-.1.1.3,0,.2.1.1,0,.7-.2.4v-.1c-.1,0-.1-.1-.1-.2V61.6c.1-.6-.1-1.2.1-1.7v-.1c.8-.1,1.9,0,2.8-.1-.1-.1.3-.1.2,0a7.5,7.5,0,0,1,1.5,0c-.1-.1.3-.1.2,0h.8c0-.1.4-.1.3,0,1.2-.1,2,0,3.3,0,0-.1.4-.1.4,0h.1c.3-.1,0-.9.2-1.2,0-.1,0-.1.1-.1s.3,0,.4-.1c-.1-.1.3-.1.2,0a.37.37,0,0,1,.3.1v.4c.1,0,.1.5,0,.5s.1.1.1.2.4.1.7.1c-.1-.1.3-.1.2,0h.6c-.1-.1.3-.1.2,0h4.7c-.1-.1.3-.1.2,0,1,.1,2.2-.1,3.1.1v.1c.1.1,0,.4-.1.4H92.5c-.1,0-.1.2-.2.2a.1.1,0,0,1-.1.1v.1c0,.1-.2.1-.4.1s-.7.7,0,.7a4.62,4.62,0,0,1,.7.7h.2c.3.1.3.4.7.4v-.1l.7-.7c.1.1.4-.1.4.1,0,.5.4,2.5-.3,2.1v-.1c0-.1,0-.1-.1-.1a.6.6,0,0,1-.4-.1v-.1c-.1-.1-.3-.2-.4-.4s-.3-.4-.4-.1c-.1.1-.2.3-.4.4a.1.1,0,0,0-.1.1v.1c-.1.1-.5.1-.7.4l-.3.3v.3c.1,0,.1,0,.1.1.2-.1.1-.1.3,0v.1c.1.1-.1.2-.3.2h-.2c-.6-.1-1.4.1-1.8-.1v-.1l.7-.7h.2a9.43,9.43,0,0,1,1-1h.2c.1-.2.4-.4.6-.7-.1-.1-.4,0-.4-.1v-.2c-.1-.1-.3-.1-.2-.2a.1.1,0,0,1-.1-.1s-.2,0-.2-.1a.1.1,0,0,1-.1-.1c-.2-.1-.3-.3-.4-.4s-.2-.2-.3-.1a.1.1,0,0,1-.1.1c0,.1-.1.1-.2.1-.1.2-.4.4-.6.6a.52.52,0,0,1-.4.2c-.1,0-.1.2-.2.2a.1.1,0,0,1-.1.1v.1c0,.1-.2.1-.4.1s-.1,0-.1.1-.2.2-.3.2V63c0,.1-.3.1-.4.1a19.2,19.2,0,0,0,1.4,1.5h.3v.2c-.2.2-1.1.1-1.4.1a.78.78,0,0,1-.4-.4c-.1-.1-.4-.1-.3-.4h.1V64c-.1,0-.1,0-.1-.1s-.1.1-.2.1a.1.1,0,0,1-.1.1c0,.1-.1.1-.2.1s-.1.2-.2.2-.1.1-.1.2-.1.1-.2.2v.1c-.2.3-1,.1-1.5.1h-.1c-.1,0-.2,0-.2-.1v-.1c-.1-.2.2-.1.4-.1a1,1,0,0,1,.6-.5c.2,0,.3-.1.3-.2h.4c.1-.1.1-.2.2-.2s.1,0,.1-.1-.1-.1-.1-.2h-.1c-.1-.2-.4-.1-.6-.3s-.5-.4-.7-.7c-.2-.1-.4-.2-.4-.4-.1,0-.1.1-.2.1a.1.1,0,0,1-.1.1c-.1.1-.1.3-.2.2,0,.1-.1.1-.2.1s-.1.2-.2.2a1990328647664.47,1990328647664.47,0,0,0-.2.2c0,.1-.1.1-.2.1s-.1,0-.1.1-.2.2-.3.2a.1.1,0,0,1-.1.1c-.1.1-.1.1-.1.2h.1c.1.1.2.1.2.2h.2l.9.9v.1c-.2.2-1.2.2-1.3-.1a4.62,4.62,0,0,1-.7-.7A.1.1,0,0,1,82,64c-.2.1-.3.4-.5.4,0,.1-.1.1-.2.1s-.1.2-.2.2-.1.3-.2.2c-.4.1-1,0-1.5.1h-.1c-.6-.1-1.8.1-1.8-.2,0-.1.2-.1.2-.3-.6-.4-.9-.9-1.5-1.2,0-.1,0-.1-.1-.1s-.2-.1-.2-.2h-.1c-.2.1-.3.3-.4.4l-.3.3C74.3,64.4,74.1,64.6,74,64.7Zm1.7,1.9a.1.1,0,0,0-.1.1c-.4.4-.7-.2-1-.2v-.1c0-.1,0-.2.1-.2a1.38,1.38,0,0,0,.3-.4.1.1,0,0,1,.1-.1c.2,0,.3.1.3.2l.2.2C75.7,66.2,75.9,66.5,75.7,66.6Zm.3-.1h0c0-.1.1-.1.1-.2l.3-.3v-.1c.2-.4.5.2.7.4h.2l.3-.3v-.1a.1.1,0,0,1,.1-.1c.4.1.8.4.7.8h-.1a.1.1,0,0,0-.1.1c-.4.4-.6-.3-1.2-.1h-.1c0,.1-.1.1-.1.2A.83.83,0,0,1,76,66.5Z"/><path class="cls-2" d="M100.9,84.5l-36-20.2V21.7h.2A42.36,42.36,0,0,1,106.2,64a41.28,41.28,0,0,1-5.3,20.3ZM65.4,64.1l35.3,19.8a41.68,41.68,0,0,0,5-19.9A41.25,41.25,0,0,0,93.8,34.9,40.81,40.81,0,0,0,65.4,22.3V64.1Z"/><path class="cls-2" d="M27.2,84.7l-.1-.2A43.15,43.15,0,0,1,21.8,64,42.18,42.18,0,0,1,63,21.8h.2V64.4l-.1.1ZM62.8,22.3A41.67,41.67,0,0,0,22.2,64a42.85,42.85,0,0,0,5.1,20.1l35.4-20C62.8,64.1,62.8,22.3,62.8,22.3Z"/><path class="cls-2" d="M64,106.2a42,42,0,0,1-20.8-5.5,43.11,43.11,0,0,1-15-14.4l-.1-.2.2-.1L64.2,65.8l.1.1L100.2,86l-.1.2A41.45,41.45,0,0,1,85,100.8,43.75,43.75,0,0,1,64,106.2Zm-35.3-20a43.14,43.14,0,0,0,14.7,14.1A41.77,41.77,0,0,0,99.3,86.1L64,66.3Z"/><path class="cls-2" d="M64,108.5A43.7,43.7,0,0,1,32.6,95.4,44.5,44.5,0,0,1,64,19.5,43.7,43.7,0,0,1,95.4,32.6,44.5,44.5,0,0,1,64,108.5Zm0-88.3A43.7,43.7,0,1,0,95,33,43.48,43.48,0,0,0,64,20.2Z"/></g></svg>