<svg xmlns="http://www.w3.org/2000/svg" viewBox="0 0 128 127.9"><defs><style>.cls-1{fill:#1a4518;}.cls-2{fill:#fff;}</style></defs><g id="bg"><rect class="cls-1" width="128" height="127.9"/></g><g id="Logo"><path class="cls-2" d="M97.4,33.9A44.78,44.78,0,0,0,76,20.7a43.69,43.69,0,0,0-16.5-1.3A43.91,43.91,0,0,0,34.3,30.3,46,46,0,0,0,21.4,49.5a45.2,45.2,0,0,0,11.3,47,43.69,43.69,0,0,0,20.7,11.4,45,45,0,0,0,44-74ZM64.9,96.6c-4.4,1.7-9.6,2-13.9-.1a12.47,12.47,0,0,1-6.4-8.3c-1.3-5-.4-10.3,1.3-15,.8-2.2,1.8-4.2,2.8-6.3-3.8,3.8-7.5,7.7-11.2,11.5A198.23,198.23,0,0,1,55.6,56.7c3.5-3.4,7-6.7,10.7-9.8a37.85,37.85,0,0,1,3.9-3.1,68.73,68.73,0,0,0-6.5,10.3,72.89,72.89,0,0,0-6,14.1c-1.4,5-2.2,10.5-.4,15.5,1.1,2.7,3.1,5.4,6.1,6.1a19.16,19.16,0,0,0,15.7-3.4A39.44,39.44,0,0,1,64.9,96.6ZM79.8,43.8c-1.1-.6-2.2-1.1-3.3-1.6-1.1.6-2.2,1.2-3.2,1.8.2-1.2.4-2.4.6-3.7-.9-.8-1.8-1.7-2.7-2.5,1.2-.2,2.4-.4,3.7-.6a34.93,34.93,0,0,0,1.5-3.4c.6,1.1,1.1,2.2,1.7,3.3,1.2.1,2.5.4,3.7.5-.9.8-1.7,1.8-2.6,2.7C79.4,41.4,79.6,42.5,79.8,43.8Z"/></g></svg>