<svg xmlns="http://www.w3.org/2000/svg" viewBox="0 0 128 128"><defs><style>.cls-1{fill:#c31424;}.cls-2{fill:#fff;}</style></defs><g id="bg"><rect class="cls-1" width="128" height="128"/></g><g id="Logo"><path class="cls-2" d="M62.1,22.7H66a41.49,41.49,0,0,1,39.1,36.9,41.34,41.34,0,0,1-5.6,25.7,41.36,41.36,0,0,1-49.7,17.8A41.24,41.24,0,0,1,27.9,84.5,41.33,41.33,0,0,1,38,31.8a42.36,42.36,0,0,1,24.1-9.1Zm-2.8,6.7A35,35,0,0,0,33,47.8,35,35,0,0,0,45.8,94,35.11,35.11,0,0,0,93.7,82.6,35.58,35.58,0,0,0,98.6,59,35.33,35.33,0,0,0,59.3,29.4ZM41.8,60.9H54.5v6.3H41.8V86.3H62.5V79.9H48.2V73.5H60.9V54.4H48.2V48.1H62.5V41.7H41.8V60.9ZM65.7,41.8v6.3H80v6.4H67.3V73.6H80v6.3H65.7v6.4H86.3V67.2H73.6V60.8H86.3V41.7c-6.8.1-13.8.1-20.6.1Z"/></g></svg>