<svg xmlns="http://www.w3.org/2000/svg" viewBox="0 0 128 127.9"><defs><style>.cls-1{fill:#321c11;}.cls-2{fill:#fff;}</style></defs><g id="bg"><rect class="cls-1" width="128" height="127.9"/></g><g id="Logo"><polygon class="cls-2" points="77.2 49.7 78.5 49.7 98.9 49.7 98.9 49.6 78.4 29.1 51.2 29.1 51.2 49.7 77.2 49.7"/><polygon class="cls-2" points="50.4 78.5 49.7 78.5 29.2 78.5 49.6 98.9 77 98.9 77 78.5 50.4 78.5"/><polygon class="cls-2" points="49.7 52.6 49.7 49.7 49.7 29.1 49.6 29.1 29.1 49.6 29.1 77 49.7 77 49.7 52.6"/><polygon class="cls-2" points="78.5 77.6 78.6 77.6 78.6 98.7 98.9 78.4 98.9 51.2 78.5 51.2 78.5 77.6"/></g></svg>