<svg xmlns="http://www.w3.org/2000/svg" viewBox="0 0 128 128"><defs><style>.cls-1{fill:#1d8e33;}.cls-2{fill:#fff;}</style></defs><g id="bg"><rect class="cls-1" width="128" height="128"/></g><g id="Logo"><path class="cls-2" d="M85.9,86.5a14.94,14.94,0,0,0-7.2-2,15.93,15.93,0,0,0-7.1,2,17.84,17.84,0,0,1-7.7,2.1,14,14,0,0,1-6.9-2,17.84,17.84,0,0,0-7.7-2.1,16.75,16.75,0,0,0-7.2,2,17.84,17.84,0,0,1-7.7,2.1h-.5a9.38,9.38,0,0,1,.9,1.2,19.86,19.86,0,0,0,7.7-2.2c2.2-.9,4.1-1.9,6.7-1.9a16.36,16.36,0,0,1,7.2,2,17.34,17.34,0,0,0,7.5,2.1c3.3,0,5.8-1.2,8.2-2.2,2.1-.9,4.1-1.9,6.7-1.9a12.92,12.92,0,0,1,6.7,2,15.54,15.54,0,0,0,8,2.2,10.59,10.59,0,0,0,1-1.2c-.3,0-.7.1-.9.1a19,19,0,0,1-7.7-2.3"/><path class="cls-2" d="M78.7,86.7a15.93,15.93,0,0,0-7.1,2,17.84,17.84,0,0,1-7.7,2.1,14,14,0,0,1-6.9-2,17.84,17.84,0,0,0-7.7-2.1,16.75,16.75,0,0,0-7.2,2,20.25,20.25,0,0,1-6.3,2l1,1a23.25,23.25,0,0,0,5.8-2c2.2-.9,4.1-1.9,6.7-1.9a16.36,16.36,0,0,1,7.2,2A17.34,17.34,0,0,0,64,91.9c3.3,0,5.8-1.2,8.2-2.2a14.92,14.92,0,0,1,6.7-1.9,12.92,12.92,0,0,1,6.7,2,18.35,18.35,0,0,0,6,2.1,10,10,0,0,0,1-1.1c-2.8-.1-4.7-1.2-6.5-2-2.3-1.1-4.3-2.1-7.4-2.1"/><path class="cls-2" d="M78.7,88.8a15.93,15.93,0,0,0-7.1,2,17.84,17.84,0,0,1-7.7,2.1,14,14,0,0,1-6.9-2,17.84,17.84,0,0,0-7.7-2.1,16.75,16.75,0,0,0-7.2,2,20,20,0,0,1-4.5,1.7c.4.3.7.7,1,.9a35.25,35.25,0,0,0,3.9-1.5c2.2-.9,4.1-1.9,6.7-1.9a16.36,16.36,0,0,1,7.2,2,17.34,17.34,0,0,0,7.5,2.1c3.3,0,5.8-1.2,8.2-2.2,2.1-.9,4.1-1.9,6.7-1.9a13.88,13.88,0,0,1,6.7,1.9,19.45,19.45,0,0,0,4.1,1.7,8.7,8.7,0,0,1,1.1-.9,19.18,19.18,0,0,1-4.6-1.8c-2.3-1-4.3-2.1-7.4-2.1"/><path class="cls-2" d="M78.7,91.1a15.93,15.93,0,0,0-7.1,2,17.84,17.84,0,0,1-7.7,2.1,14,14,0,0,1-6.9-2,17.84,17.84,0,0,0-7.7-2.1,16.75,16.75,0,0,0-7.2,2c-.9.4-1.7.8-2.6,1.1.4.3.7.6,1.1.9.7-.3,1.4-.6,2-.9,2.2-.9,4.1-1.9,6.7-1.9a16.36,16.36,0,0,1,7.2,2A17.34,17.34,0,0,0,64,96.4c3.3,0,5.8-1.2,8.2-2.2a14.92,14.92,0,0,1,6.7-1.9,12.92,12.92,0,0,1,6.7,2,20,20,0,0,0,2.1,1c.4-.3.7-.6,1.1-.9l-2.7-1.2c-2.3-1.1-4.3-2.1-7.4-2.1"/><path class="cls-2" d="M78.7,93.2a15.93,15.93,0,0,0-7.1,2,17.84,17.84,0,0,1-7.7,2.1,14,14,0,0,1-6.9-2,16.55,16.55,0,0,0-7.7-2.1,16.75,16.75,0,0,0-7.2,2,2.51,2.51,0,0,0-.7.4l1.1.8c.1,0,.1,0,.1-.1,2.2-.9,4.1-1.9,6.7-1.9a16.36,16.36,0,0,1,7.2,2A17.34,17.34,0,0,0,64,98.5c3.3,0,5.8-1.2,8.2-2.2a14.92,14.92,0,0,1,6.7-1.9,12.92,12.92,0,0,1,6.7,2c.1.1.1.1.3.1.4-.2.7-.5,1.1-.7a5.94,5.94,0,0,1-.8-.4c-2.4-1.1-4.4-2.2-7.5-2.2"/><path class="cls-2" d="M71.5,97.4a17.84,17.84,0,0,1-7.7,2.1,14,14,0,0,1-6.9-2,17.84,17.84,0,0,0-7.7-2.1,16,16,0,0,0-5.9,1.4,7.46,7.46,0,0,0,1.2.7,12,12,0,0,1,4.7-1,16.36,16.36,0,0,1,7.2,2,17.34,17.34,0,0,0,7.5,2.1c3.3,0,5.8-1.2,8.2-2.2,2.1-.9,4.1-1.9,6.7-1.9a10.43,10.43,0,0,1,4.9,1.1c.4-.2.8-.5,1.2-.7a13.36,13.36,0,0,0-6.1-1.5,19.55,19.55,0,0,0-7.3,2"/><path class="cls-2" d="M64,17.8a46.3,46.3,0,1,0,46.3,46.3A46.39,46.39,0,0,0,64,17.8ZM64,103a38.9,38.9,0,1,1,38.9-38.9A38.88,38.88,0,0,1,64,103"/><path class="cls-2" d="M85.6,52.6a7.52,7.52,0,0,1-2.5,3.6C81.3,57.6,69.3,65,67.9,66.6s-1.6,4.2-1.6,6.1V86.8h1.9V83.2a7.4,7.4,0,0,1,2.2-4.7c2.5-2.6,8.2-5.8,12-8.5,3.1-2.3,3.3-5.4,3.3-8.1V52.3Z"/><path class="cls-2" d="M66.4,65.8c1.3-1.7,13.8-9.2,15.5-10.6s3.8-3.6,3.8-6.4V33c0,2.2-1.2,3.9-2.8,6-1.8,2.4-10.1,6.9-14.3,9.8s-5.5,5.7-5.5,9.3V86.9h1.8V71.8C64.9,69.9,65,67.5,66.4,65.8Z"/><path class="cls-2" d="M57,49.5c-3.8-2.9-11.4-9-12.4-10.3s-2.9-3.4-2.9-6.1V47.8a10.92,10.92,0,0,0,4.6,8.5c3.6,2.7,8.8,6.5,10.3,8.1a11.65,11.65,0,0,1,3,8.3V86.9h1.8V58.7C61.6,54.2,60.7,52.4,57,49.5Z"/></g></svg>