<svg xmlns="http://www.w3.org/2000/svg" viewBox="0 0 128 128"><defs><style>.cls-1{fill:#259dc3;}.cls-2{fill:#fff;}</style></defs><g id="bg"><rect class="cls-1" width="128" height="128"/></g><g id="Logo"><path class="cls-2" d="M64,19a45.1,45.1,0,1,0,45.1,45.1A45.11,45.11,0,0,0,64,19ZM53.8,45.2A3.23,3.23,0,0,1,55.4,43c7.5-3.6,15.2-7,22.8-10.6a7.11,7.11,0,0,1,8.2,1.2c2.7,2.6,5.4,5.3,8,8.1.6.6.6,1.7.9,2.5-.8.2-1.5.4-2.4.6A22.16,22.16,0,0,0,88.3,46C77.9,50.9,67.4,56.1,56.9,61.1c-.9.4-1.8.8-3.2,1.5C53.7,56.4,53.6,50.8,53.8,45.2ZM89.8,79q-5.25.15-10.5,0A3.41,3.41,0,0,1,77,77.4c-3.2-6.2-6.3-12.5-9.7-19.1,5.2-2.5,10.1-4.9,15.2-7.4,3.8,7.3,7.7,14.4,11.2,21.6C95.3,75.6,93.2,78.8,89.8,79ZM39.1,35.7c3.9-3.2,8-6.1,13-7.3V78.8H35.6V75.7c0-10.9.1-21.6,0-32.5A9,9,0,0,1,39.1,35.7Zm37.6,61H64.1c-4.1,0-8.2-.3-12.3.1-6,.5-10.7-2-14.6-6.6-2-2.4-3.9-4.9-5.7-7.4a3,3,0,0,1-.2-2.3c.1-.3,1.2-.4,1.8-.3,1.8.1,3.5.6,5.4.6,16.9.1,33.9.1,50.8,0a59,59,0,0,0,5.9-.6c.6-.1,1.5,0,1.6.3a2.79,2.79,0,0,1,.1,2C93.9,90.1,84.5,96.7,76.7,96.7Z"/></g></svg>