<svg xmlns="http://www.w3.org/2000/svg" viewBox="0 0 128 128"><defs><style>.cls-1{fill:#28a6df;}.cls-2{fill:#fff;}</style></defs><g id="bg"><rect class="cls-1" width="128" height="128"/></g><g id="Logo"><g id="g6429"><path id="path6431" class="cls-2" d="M81.33,89.93s.5-.88.75.37c0,0,.5,7.13-3.62,11.5-2.88,2.88-9.38,7-16.63,5.25,0,0,11.75-.75,14.75-12.37L77,93.3a10.31,10.31,0,0,0,4.37-3.37m26.75-36a1,1,0,0,0-.12-.5,11.16,11.16,0,0,0-.63-2,.79.79,0,0,1-.12-.5h0a.13.13,0,0,0-.13-.13,20.45,20.45,0,0,0-4.87-7s2.75-.12-.25-3.5a46.53,46.53,0,0,0-14.5-10.37c-5.13-2.38-11-1.38-10.38,4.37.38,4-3.37,5.5-6.25,5.25-3.5-.5-5.5-3.25-5-5.5a10.51,10.51,0,0,1,3.75-5.87,10,10,0,0,1,4.63-2.25c1.37-.25,3.37-.75,3.87.87,1-.5,2.75-3.87-3-3.87a2.69,2.69,0,0,0-2.87-1.5S66.46,15.8,60.08,22.8c0,0-2.5,1-2.62,0,.5.5,1.5-.87.25-1.37-.63-.25-1.38.5-1.38,1a1.38,1.38,0,0,0,1.38,1.62,2.4,2.4,0,0,0,1,0l-.5.5c-2,.75-3.75.13-4-1.12a.68.68,0,0,0,1-.5,1.13,1.13,0,0,0-1-1.38c-1-.12-1.5,1-1.38,2.13a3.38,3.38,0,0,0,4,2.5l-.37.5a41.19,41.19,0,0,0-3.75,5.62c-1.75,3-8.88,6.38-7.63-.87.38-2.25-3.5-5-10.25-.5A35.62,35.62,0,0,0,23.58,43.05s-1.37,2.25,1,2.38c0,0-4.87,2.25-5.12,13.37h0v2.13c0,1.25.12,2.62.12,3.5,0,0,.5,6.62,1.63,7.75h.12c.38.25.75.37,1.38-.25h0a65,65,0,0,0,4.5,13.75c2.5,5,7,12.12,5.25,13.87s-4.25-1.75-3.88-.37a3.55,3.55,0,0,0,5.5,2.12c4.25-3.37-2-11.37-3.87-21.5,4-1.75,3.87-8.12,3.87-8.12s5.75-.13,7.5-7c0,0,7,2,10.38-4v-.13l.12-.12A13,13,0,0,0,56,66.05a5.28,5.28,0,0,1-3.63,4,12.62,12.62,0,0,0-8.37,0c-4,1.63-2.38,5.88.5,4.75a1.18,1.18,0,0,1,.25-2.25,2.23,2.23,0,0,0,1.12.5h0a13,13,0,0,0,6-.37c.13-.13.38-.13.5-.25h.13a2.85,2.85,0,0,0,.62-.5,1,1,0,0,1,.25,2,2.15,2.15,0,0,0,2.25-3.38s.5-.37,1.25-.87a14.86,14.86,0,0,0,1.38-1.63A18.11,18.11,0,0,0,65,70.93s-2.25,3.75-5.63,4.5c0,0-4.75-1.63-8,.5a3.06,3.06,0,0,0-1.5,2.87A2.6,2.6,0,0,0,53,81.05c-.75-.37-2.25-2.12-.25-2.87a2.23,2.23,0,0,0,1.37,1h0a11.4,11.4,0,0,0,6.75-.88c.13-.12.25-.12.5-.12a.13.13,0,0,0,.13-.13h0c.25-.12.5-.37.5-.5,1-.12,2.25.25,1.75,2.13,1.12-.13,3-2.25.25-3.88a11.37,11.37,0,0,0,2.87-2l2-2c3.75.5,6.63,4.13,6.63,8.5,0,3.63-3.13,7.88-6.38,8.75.13,0,.25-.12.38-.12l-.5.12h.12a6.88,6.88,0,0,1-1.75.13c-3.37-.13-1.37-4-1.37-4a1.6,1.6,0,0,0-1.5.62,3.77,3.77,0,0,0-.5,3,.79.79,0,0,0-.5-.12c-2.88-1.25-2.75-3.5-2.75-3.5-.75.37-1.38,1.37-1,3,.5,2.25,3.25,3.12,5.5,3.5,1.37,1.37,3.5,2.62,8.25,1.87,0,0-2.13,11.25-16.38,10.75,0,0-4.37-1.62-4.12-5.25.12-4.87,3.5-6.5,3.5-6.5-1.25-.12-4.25.13-5.5,4.13a7.54,7.54,0,0,0,1.12,6.75c-5.37-1.38-9.5-5.5-7.75-11.13a5.86,5.86,0,0,1,1.5-2.5c4-3.75,10-1.5,10-1.5-.25-1.37-2-3.12-5-3.25a9,9,0,0,0-9.5,8.88c-.5,6.5,3.75,11.25,14,12.75l.13.12a19.11,19.11,0,0,0,15.12,2s17.88-3.62,14-24c0,0,4.13-13.62-4.62-21.25,5.37,4.38,12,1.88,12,1.88-.5,12.37,4.75,13.87,4.75,13.87l.12-.12s-9.75,21.12-4,23.87a3.81,3.81,0,0,0,5.38-2c1-2-2.13,2-3.88.25-2.12-2.12.5-7.12,3.13-12.5,3.62-7.25,6-12.62,6.5-16.25a1.2,1.2,0,0,0,1.12.13l.13.12c1.37-.37,2.25-6.12,2.5-7.12a27.15,27.15,0,0,0,.37-11.75"/></g></g></svg>