<svg xmlns="http://www.w3.org/2000/svg" viewBox="0 0 128 128"><defs><style>.cls-1{fill:#161376;}.cls-2{fill:#fff;}</style></defs><g id="bg"><rect class="cls-1" width="128" height="128"/></g><g id="Logo"><path class="cls-2" d="M20.2,76S64,61.7,115.7,79.6C115.7,79.6,73.8,71,20.2,76Z"/><path class="cls-2" d="M12.3,66.4h2.3L15.9,53l6,13.6h.5l6.1-13.8,1.2,13.7H35L33.1,48.7H27.7l-3.9,9.4-4.2-9.5H12.5v.6s1.7-.2,1.5,2Z"/><path class="cls-2" d="M36.6,50.3v.6s1.5-.2,1.5,2V66.6h4.7V50.3Z"/><path class="cls-2" d="M45.4,50.2v3.4h.5s-.2-1.4,1.7-1.4H53L44.9,65.9v.6H60V64.4H51.3l8.2-13.6v-.6Z"/><path class="cls-2" d="M60.2,50.2h6.2V61.8s-.4,3.1,3.1,3.1h2.8V52.8A1.47,1.47,0,0,0,70.8,51v-.7h6.3v6.9h6V52.3a1.33,1.33,0,0,0-1.5-1.5v-.6h6.2V66.3H83a24,24,0,0,0,.2-2.5V59.1H76.8v5.2a6.46,6.46,0,0,0,.2,2.1s-4.6.4-7.5.4-8.1.1-8.1-6.2V53.3S61.6,51,60,51l.2-.8Z"/><path class="cls-2" d="M99,49.9c-5.2,0-9.5,3.7-9.5,8.3s4.3,8.3,9.5,8.3,9.5-3.7,9.5-8.3S104.3,49.9,99,49.9Zm0,15c-2.7,0-4.8-2.9-4.8-6.5s2.2-6.5,4.8-6.5,4.8,2.9,4.8,6.5S101.7,64.9,99,64.9Z"/></g></svg>