<svg xmlns="http://www.w3.org/2000/svg" xmlns:xlink="http://www.w3.org/1999/xlink" viewBox="0 0 128 127.9"><defs><style>.cls-1{fill:#805e3e;}.cls-2{fill:url(#linear-gradient);}.cls-3{fill:url(#linear-gradient-2);}.cls-4{fill:url(#linear-gradient-3);}.cls-5{fill:url(#linear-gradient-4);}</style><linearGradient id="linear-gradient" x1="56.43" y1="1500.52" x2="32.92" y2="1450.17" gradientTransform="translate(0 -1410.44)" gradientUnits="userSpaceOnUse"><stop offset="0" stop-color="#fff" stop-opacity="0.33"/><stop offset="1" stop-color="#fff"/></linearGradient><linearGradient id="linear-gradient-2" x1="89.09" y1="1495.49" x2="32.31" y2="1495.49" xlink:href="#linear-gradient"/><linearGradient id="linear-gradient-3" x1="41.97" y1="1444.91" x2="98.42" y2="1456.51" xlink:href="#linear-gradient"/><linearGradient id="linear-gradient-4" x1="68.16" y1="1449" x2="97.62" y2="1494.85" xlink:href="#linear-gradient"/></defs><g id="bg"><rect class="cls-1" width="128" height="127.9"/></g><g id="Logo"><path class="cls-2" d="M37.3,46.4a17.13,17.13,0,0,1,4.3-12A37.2,37.2,0,0,0,27.2,58.8a45.5,45.5,0,0,0-.4,5.2,45.33,45.33,0,0,0,.3,5.2C30.7,80.5,45.9,89.1,64,89.1V64C46.7,64,37.9,55.4,37.3,46.4Z"/><path class="cls-3" d="M91.4,81.2C84.6,86,74.9,89,64.1,89,46,89,30.8,80.5,27.2,69.1A37.17,37.17,0,0,0,63.9,101H64a36.54,36.54,0,0,0,24.8-9.6A14.59,14.59,0,0,0,91.4,81.2Z"/><path class="cls-4" d="M64,26.9h0a36.52,36.52,0,0,0-22.3,7.5,17.13,17.13,0,0,0-4.3,12C44.2,41.9,53.7,39,64.1,39c17.6,0,32.6,8.1,36.6,19.1A37.21,37.21,0,0,0,64,26.9Z"/><path class="cls-5" d="M100.6,58C96.6,47,81.7,38.9,64,38.9V64h.1c16.7,0,26.2,8.2,27.3,17.2a15.71,15.71,0,0,1-2.5,10.3A36.7,36.7,0,0,0,100.6,70a38.33,38.33,0,0,0,.5-6A30.39,30.39,0,0,0,100.6,58Z"/></g></svg>