<svg xmlns="http://www.w3.org/2000/svg" viewBox="0 0 128 128"><defs><style>.cls-1{fill:#6d6e71;}.cls-2{fill:#fff;}</style></defs><g id="bg"><rect class="cls-1" width="128" height="128"/></g><g id="Logo"><path class="cls-2" d="M64,50.5A13.6,13.6,0,1,0,77.6,64.1,13.61,13.61,0,0,0,64,50.5Z"/><path class="cls-2" d="M77.3,31.4A31.17,31.17,0,0,0,64,34.3a31.17,31.17,0,0,0-13.3-2.9,32.7,32.7,0,0,0,0,65.4A31.17,31.17,0,0,0,64,93.9a31.17,31.17,0,0,0,13.3,2.9,32.7,32.7,0,1,0,0-65.4ZM64,93.5A29.5,29.5,0,1,1,93.5,64,29.49,29.49,0,0,1,64,93.5Z"/></g></svg>