<svg xmlns="http://www.w3.org/2000/svg" viewBox="0 0 128 127.9"><defs><style>.cls-1{fill:#052a51;}.cls-2{fill:#fff;}</style></defs><g id="bg"><rect class="cls-1" width="128" height="127.9"/></g><g id="Logo"><path class="cls-2" d="M68.9,51.2a14.24,14.24,0,0,1,7.9,8.1,5.68,5.68,0,0,0,5.3,3.6H93.4A5.66,5.66,0,0,0,99,57.3a5.72,5.72,0,0,0-5.6-5.6H84.5L97.3,38.9a5.66,5.66,0,0,0-8-8l-13,12.8.1-9a5.47,5.47,0,0,0-5.6-5.6,5.59,5.59,0,0,0-5.6,5.6V46A5.9,5.9,0,0,0,68.9,51.2Z"/><path class="cls-2" d="M29,57.2a5.74,5.74,0,0,0,5.6,5.7H45.9a5.77,5.77,0,0,0,5.3-3.7,13.89,13.89,0,0,1,8-7.9A5.68,5.68,0,0,0,62.8,46V34.7a5.6,5.6,0,1,0-11.2,0v8.9l-13-12.9a5.5,5.5,0,0,0-8,0,5.67,5.67,0,0,0,0,8l13,13-9-.1A5.3,5.3,0,0,0,29,57.2Z"/><path class="cls-2" d="M70.8,98.9a5.47,5.47,0,0,0,5.6-5.6V84.5L89.2,97.3a5.66,5.66,0,0,0,8-8l-13-13,9,.1a5.41,5.41,0,0,0,5.6-5.6,5.72,5.72,0,0,0-5.6-5.6H82a5.77,5.77,0,0,0-5.3,3.7,13.89,13.89,0,0,1-8,7.9,5.68,5.68,0,0,0-3.6,5.3V93.4A5.73,5.73,0,0,0,70.8,98.9Z"/><path class="cls-2" d="M59.1,76.8a13.58,13.58,0,0,1-7.8-8A5.79,5.79,0,0,0,46,65.2H34.8a5.59,5.59,0,0,0-5.6,5.6,5.66,5.66,0,0,0,5.6,5.6h8.7L30.7,89.3a5.66,5.66,0,0,0,8,8l13-13-.1,9A5.15,5.15,0,0,0,57,98.9a5.53,5.53,0,0,0,5.6-5.6V82.1A5,5,0,0,0,59.1,76.8Z"/></g></svg>