<svg xmlns="http://www.w3.org/2000/svg" viewBox="0 0 128 127.9"><defs><style>.cls-1{fill:#186f9f;}.cls-2,.cls-3{fill:#fff;}.cls-2{opacity:0.7;isolation:isolate;}</style></defs><g id="bg"><rect class="cls-1" width="128" height="127.9"/></g><g id="Logo"><path class="cls-2" d="M53.4,102.5a12.1,12.1,0,0,1-6.2,2.1A10.25,10.25,0,0,1,37.1,95l10.4-6.2L63.6,96l-10.2,6.5Z"/><path class="cls-2" d="M59.6,75.9l-7.7-3.4c-3.4-1.5-6.7-2.8-6.7-6.6a5.26,5.26,0,0,1,1.5-4L63,69.1l-4.1,2.3c-1.1.7-1.9,1.3-1.9,2.1.1,1,1.2,1.8,2.6,2.4Z"/><path class="cls-2" d="M67.2,40.3l-7.9,4.8c-.7.5-1.6,1.1-1.6,2.2s1.8,2.1,3.4,2.9l-9.9-4.4c-2.9-1.3-5.8-2.7-5.8-6.3a7.32,7.32,0,0,1,1.1-3.7L67.9,22.7a9.66,9.66,0,0,1,5,8.3c.1,4.3-2.1,7.1-5.7,9.3Z"/><path class="cls-2" d="M84.1,55.8l-1.9,1.1L65.8,49.7l19-11.4a9.74,9.74,0,0,1,5.1,8.3c0,4.1-2.2,7-5.8,9.2Z"/><path class="cls-2" d="M70.3,69.6,80,73.9c3.6,1.6,4.7,3.5,4.7,5.9a5.18,5.18,0,0,1-1.9,3.7L66.5,76.3l2.8-1.5c2.3-1.3,3.1-2.1,3.1-2.9,0-1-.5-1.6-2.1-2.3Z"/><path class="cls-3" d="M87.5,105.3c-4.1-3.2-8.5-5.3-13.8-7.7L49.1,86.7c-6.2-2.8-10.3-6.5-10.3-12.6s2.9-8.9,6.7-11.4l1.4-.8a5.06,5.06,0,0,0-1.5,4c0,3.8,3.2,5.1,6.7,6.6L80.8,85.1c5,2.1,9.5,5.8,9.5,12.1a13.16,13.16,0,0,1-2.8,8.1Z"/><path class="cls-3" d="M84.6,82.3l-1.8,1.2a5.18,5.18,0,0,0,1.9-3.7c0-2.4-1.1-4.3-4.7-5.9L49.4,60.4c-6.2-2.7-10.1-6.3-10.1-12.5,0-5.7,2.8-9.4,7.3-12.1a6.24,6.24,0,0,0-1.1,3.7c0,3.5,2.9,5,5.8,6.3L81.1,59c5.4,2.4,9.8,6,9.8,12.6a11.82,11.82,0,0,1-6.3,10.7Z"/></g></svg>