<svg xmlns="http://www.w3.org/2000/svg" viewBox="0 0 128 128"><defs><style>.cls-1{fill:#4e317d;}.cls-2{fill:#fff;}</style></defs><g id="bg"><rect class="cls-1" width="128" height="128"/></g><g id="Logo"><path class="cls-2" d="M23.8,95.5c6.6,3.1,13.3,6.3,19.9,9.4a2.34,2.34,0,0,0,1.2.2H60c.9,0,1-.3,1-1.1-.1-4.5,0-8.9,0-13.4,0-.3-.1-.4-.1-.9a6.89,6.89,0,0,1-1,.4c-4.6,2-9.4,3.7-14.6,3A8.93,8.93,0,0,1,40,90.7c-2.7-2.5-3.4-5.8-3.5-9.3a49.08,49.08,0,0,1,.6-8.6,29.85,29.85,0,0,1,2.7-9.7,71,71,0,0,1,16.1-22c2.2-2.1,4.8-3.7,7.2-5.6a1.5,1.5,0,0,1,1.8,0c1.9,1.4,4,2.7,5.8,4.3A72.78,72.78,0,0,1,82.8,53.7c3.5,5.1,6.5,10.6,7.6,16.8A37.67,37.67,0,0,1,91,84.3c-1.2,6.2-4.8,8.9-10.4,9a22.12,22.12,0,0,1-8-1.4c-1.9-.6-3.7-1.4-5.6-2.2v13.9c0,.9.3,1.2,1.2,1.2,4.9-.1,9.7,0,14.6-.1a6.46,6.46,0,0,0,1.9-.4c6.4-3,12.8-6.1,19.2-9.2,1.3-.6,1.3-.6.9-2C101.2,79,97.7,64.9,94.1,50.8a4.1,4.1,0,0,0-.8-1.4c-1.4-1.4-3-2.8-4.4-4.2-2.8-2.6-5.6-5.2-8.5-7.8C76.6,33.9,72.8,30.6,69,27c-1.4-1.4-3-2.7-4.5-4.2a.9.9,0,0,0-1.4.1c-.6.6-1.4,1.2-2,1.8-3,2.7-5.9,5.5-8.9,8.1-3.2,2.9-6.3,5.8-9.5,8.6l-6.9,6.3c-.9.9-1.9,1.6-2.3,3C30,64.8,26.4,78.9,22.8,92.9,22.8,94.6,22.9,95.1,23.8,95.5Z"/></g></svg>