<svg xmlns="http://www.w3.org/2000/svg" viewBox="0 0 128 127.9"><defs><style>.cls-1{fill:#f9502d;}.cls-2,.cls-3{fill:#fff;}.cls-3{opacity:0.7;isolation:isolate;}</style></defs><g id="bg"><rect class="cls-1" width="128" height="127.9"/></g><g id="Logo"><path class="cls-2" d="M86.3,59.2a24.69,24.69,0,0,0-4.6-2.3c-5.5-1.9-7-1.5-9.9,3.7-2.1,3.8-4,7.7-6.2,11.5a16.83,16.83,0,0,1-3.3,4.6c-7.2,7.1-16.3,8.4-25.9,7.8a18.2,18.2,0,0,0,6.5-7c2.1-3.7,4.3-7.6,6.3-11.4a20.33,20.33,0,0,1,9.7-9.5c.8-.3,1.5-.6,2.2-.9-.1-.1-.1-.1-.1-.2h-.6C49.9,57,40.1,60.2,31.2,66.1a28.73,28.73,0,0,0-9.7,9.6c-3.4,5.7-1.9,11.4,4,14.4a35.1,35.1,0,0,0,6.4,2.4c7,1.7,14.1,1.2,21.1,0A68.33,68.33,0,0,0,80.1,81.9a27.38,27.38,0,0,0,9.6-10.1C92,67,90.9,62.3,86.3,59.2Z"/><path class="cls-3" d="M106.2,34.4c-14.6,0-29.3-.1-44,.1a72.05,72.05,0,0,0-12.3,1c-6.6,1-12.8,3.3-17.8,7.8a19,19,0,0,0-5.8,8.3,12.13,12.13,0,0,0,1.8.1c15.9,0,31.8.1,47.7-.1,7.3-.1,14.4-1.4,20.9-4.8a24.45,24.45,0,0,0,11.8-12.5A22,22,0,0,1,106.2,34.4Z"/></g></svg>