<svg xmlns="http://www.w3.org/2000/svg" viewBox="0 0 128 128"><defs><style>.cls-1{fill:#124db0;}.cls-2,.cls-3{fill:#fff;}.cls-3{opacity:0.7;isolation:isolate;}</style></defs><g id="bg"><rect class="cls-1" width="128" height="128"/></g><g id="Logo"><path class="cls-2" d="M63.4,21.6c25-.4,43.4,20.2,43.4,42.6a43,43,0,0,1-40.9,42.6c-25.4.9-44.8-20.1-44.2-42.5C21.1,42.1,39.4,22,63.4,21.6ZM52.2,101.3c15,5.9,31.3.2,40.9-14,10.7-16,8.7-38.5-4.9-52.3-6.7-6.7-14.8-10.6-24.4-10.3C51,25,41.3,31.3,34.5,42.1a39.63,39.63,0,0,0-6.2,19.5C28.4,80.8,38.1,95.9,52.2,101.3Z"/><path class="cls-3" d="M62,66.1a40.69,40.69,0,0,0,3,3.6c2.6,2.6,2.7,2.6.2,5.3s-5.2,5.5-7.9,8.3c-2.3-2.5-4.2-4.5-6.3-6.9C54.4,73.2,57.9,69.9,62,66.1Z"/><path class="cls-3" d="M47.3,56.8a2.12,2.12,0,0,1,0-1.9c3.1-3.3,6.2-6.5,9.7-10.1,2.1,2.3,3.9,4.1,5.6,6.1a1.68,1.68,0,0,1-.1,1.8c-2.9,3.3-6,6.5-9.7,10.4C50.7,60.7,49,58.9,47.3,56.8Z"/><path class="cls-3" d="M65.4,53.6,75.9,64.4c-2.2,1.9-4.5,3.8-7.1,5.9-3.1-3.1-6.5-6.5-9.9-9.8C61.3,58,63.3,55.9,65.4,53.6Z"/><path class="cls-3" d="M72.5,85.7c.9,1.1,1.7,3.1,1.3,4.1-.7,1.8-2.3,3.3-3.7,4.7-.2.3-1.2.1-1.5-.2-3.3-3.1-6.5-6.2-9.6-9.2l6.5-6.8C67.9,81,70.4,83.2,72.5,85.7Z"/><path class="cls-3" d="M48.5,74.7c-2.5-2.5-4.8-4.9-7.2-7.2a4.1,4.1,0,0,1-1.1-4.9c1-1.8,2.8-3.2,4.3-4.8,3.6,3.7,6.9,7.1,10,10.2C52.6,70.1,50.6,72.4,48.5,74.7Z"/><path class="cls-3" d="M85.7,49.1c1.2,1.6,1.5,3.5.1,4.9-2.6,2.8-5.5,5.3-8.1,7.7-1.9-1.9-4.1-3.9-6.3-6C74.9,52.2,78.2,48.8,82,45,83.4,46.6,84.5,47.8,85.7,49.1Z"/><path class="cls-3" d="M59,43.6,69.4,33.2c1.1,1.1,2.1,2,3.1,3,2.1,2.1,2.1,4.5,0,6.7-2.3,2.4-4.7,4.7-6.9,6.9C63.3,47.6,61.2,45.6,59,43.6Z"/><path class="cls-3" d="M77.7,66.3c2.5,2.4,5.1,4.7,7.5,7.1a4.09,4.09,0,0,1,.3,6c-1.1,1.3-2.4,2.3-3.4,3.3C78.4,79.2,75,76,71.7,72.8,73.9,70.5,75.9,68.3,77.7,66.3Z"/></g></svg>