<svg xmlns="http://www.w3.org/2000/svg" viewBox="0 0 128 128.5"><defs><style>.cls-1{fill:#18569d;}.cls-2{fill:#fff;fill-rule:evenodd;}</style></defs><g id="bg"><rect class="cls-1" width="128" height="128.5"/></g><g id="Logo"><path class="cls-2" d="M21.2,45.2c5.2,0,10.4-.1,15.5.1v9H33.8V83.7c-3.2,0-6.6.1-9.7-.1V54.2H21.2Z"/><path class="cls-2" d="M38.8,45.3h9.6V83.6H38.7V45.4Z"/><path class="cls-2" d="M66,46.3v8c-.2.1-.3-.3-.5-.4a2.53,2.53,0,0,0-3.9,1.7,12.22,12.22,0,0,0,.3,2.6,64.58,64.58,0,0,0,1.9,7c.9,2.9,2.3,6.1,2,9.8-.3,3.5-1.9,6.1-4.4,7.5a9,9,0,0,1-4.8,1,13.06,13.06,0,0,1-4.8-1.2V73.5c.1-.1.4.1.6.3a1.49,1.49,0,0,0,.7.3c1.5.5,3.4-.2,3.5-1.8a12.51,12.51,0,0,0-.7-4.3c-1.2-3.8-2.9-7.1-3.6-11.5-.5-3.3-.1-6,1.5-8.1a10,10,0,0,1,2.7-2.3,9,9,0,0,1,3.8-1.2A25,25,0,0,1,66,46.3Z"/><path class="cls-2" d="M81.5,45.3v8.2c-2.5-.3-4.1.3-4.6,2.1a20.1,20.1,0,0,0-.1,4.3v8.8a20.1,20.1,0,0,0,.1,4.3c.5,1.9,2.2,2.5,4.7,2.3v8.2c-5.3.3-8.7-1.6-10.8-4.6a10.79,10.79,0,0,1-2.1-5.6c-.1-1.1-.1-2.5-.1-3.8V57.9a22.34,22.34,0,0,1,.2-3.7,11.51,11.51,0,0,1,4.5-7A12.53,12.53,0,0,1,81.5,45.3Z"/><path class="cls-2" d="M95,45.3a10.88,10.88,0,0,1,10,5.2,11.05,11.05,0,0,1,1.8,5.8c.1,2.7,0,5,0,7.6v7.6a12.67,12.67,0,0,1-1.3,6.2,11.22,11.22,0,0,1-9.2,6,10.63,10.63,0,0,1-6.1-1.4,11.33,11.33,0,0,1-5.7-9.5c-.1-5,0-10.2,0-15.1a12.67,12.67,0,0,1,1.3-6.2,11.39,11.39,0,0,1,6-5.4A8.39,8.39,0,0,1,95,45.3ZM93,55.4c-.5,1.1-.3,3-.3,4.3v9.2a20.65,20.65,0,0,0,.1,4.4,2.94,2.94,0,0,0,3.9,1.9,3.43,3.43,0,0,0,1.6-1.9,20.28,20.28,0,0,0,.1-4.3V60.1a19.71,19.71,0,0,0-.1-4.3,2.8,2.8,0,0,0-3.1-2.1A2.37,2.37,0,0,0,93,55.4Z"/></g></svg>