<svg xmlns="http://www.w3.org/2000/svg" viewBox="0 0 128 128"><defs><style>.cls-1{fill:#1c7abc;}.cls-2{fill:#fff;}</style></defs><g id="bg"><rect class="cls-1" width="128" height="128"/></g><g id="Logo"><g id="g2831"><path id="path3186" class="cls-2" d="M51.9,41.6a4.9,4.9,0,1,0,4.9,4.9A5,5,0,0,0,51.9,41.6Zm24.1,0a4.91,4.91,0,0,0-4.9,4.9A4.9,4.9,0,1,0,76,41.6ZM47.1,55.5V86.4h6.8V64.7H54l7.3,21.7h5.3L74,64.7V86.4h6.8V55.5H71L64.2,76.7h-.1L56.9,55.5Z"/><path id="path3194" class="cls-2" d="M17,61.2V55.5H42.6v5.7H33.2V86.3H26.4V61.2Z"/><path id="path3198" class="cls-2" d="M100.1,55.5a17.52,17.52,0,0,1,4,.4,10.43,10.43,0,0,1,3,1.2,5.66,5.66,0,0,1,1.9,2.4,9.75,9.75,0,0,1,.7,3.7,7.76,7.76,0,0,1-1,3.9,7.47,7.47,0,0,1-3,2.5,6.93,6.93,0,0,1,4.1,2.9,8.66,8.66,0,0,1,1.3,5,8.37,8.37,0,0,1-3.2,6.9,11.86,11.86,0,0,1-3.4,1.6,13.31,13.31,0,0,1-4,.5H86V55.6h14.1ZM99.2,68a4.56,4.56,0,0,0,2.9-.9,3.47,3.47,0,0,0,1.1-2.8,3.42,3.42,0,0,0-.4-1.8,3.46,3.46,0,0,0-1-1.1,3.33,3.33,0,0,0-1.5-.5,9.15,9.15,0,0,0-1.7-.1H92.4V68Zm.4,13.1a9.91,9.91,0,0,0,1.8-.2,3.48,3.48,0,0,0,1.5-.7A4.26,4.26,0,0,0,104,79a4,4,0,0,0,.4-2,4.11,4.11,0,0,0-1.3-3.4,5.29,5.29,0,0,0-3.4-1H92.5v8.5h7.1"/></g></g></svg>