<svg xmlns="http://www.w3.org/2000/svg" viewBox="0 0 128 127.9"><defs><style>.cls-1{fill:#0f3b77;}.cls-2{fill:#fff;}</style></defs><g id="bg"><rect class="cls-1" width="128" height="127.9"/></g><g id="Logo"><path class="cls-2" d="M60.4,27.5V60.1h7V27.5a4.08,4.08,0,0,1,3.9-4.1,4,4,0,0,1,3.9,4.1V60.1h7V27.5a4.08,4.08,0,0,1,3.9-4.1A4,4,0,0,1,90,27.5V60.1h10.2a4,4,0,0,1,4.1,3.9,4,4,0,0,1-4.1,3.9H90v32.6a4.08,4.08,0,0,1-3.9,4.1,4,4,0,0,1-3.9-4.1V67.9h-7v32.6a4.08,4.08,0,0,1-3.9,4.1,4,4,0,0,1-3.9-4.1V67.9h-7v32.6a4.08,4.08,0,0,1-3.9,4.1,4,4,0,0,1-3.9-4.1V67.9h-7v32.6a4.08,4.08,0,0,1-3.9,4.1,4,4,0,0,1-3.9-4.1V67.9H27.6a3.9,3.9,0,1,1,0-7.8H37.8V27.5a4.08,4.08,0,0,1,3.9-4.1,4,4,0,0,1,3.9,4.1V60.1h7.1V27.5a4.08,4.08,0,0,1,3.9-4.1,4,4,0,0,1,3.8,4.1"/></g></svg>