<svg width="66" height="66" viewBox="0 0 66 66" fill="none" xmlns="http://www.w3.org/2000/svg">
<g clip-path="url(#clip0_554_3286)">
<rect width="66" height="66" fill="#1677FF"/>
<path d="M17.8338 50.7544C7.56595 50.7544 4.5303 42.6667 9.60467 38.2417C11.298 36.7463 14.3922 36.0162 16.0419 35.8524C22.1413 35.2497 27.7874 37.5765 34.4503 40.8288C29.7669 46.9383 23.8016 50.7544 17.8338 50.7544ZM54.34 41.442C51.699 40.5574 48.1553 39.2048 44.2081 37.7768C46.5785 33.656 48.472 28.9633 49.7164 23.8633H36.7066V19.1775H52.6436V16.5619H36.7066V8.75052H30.2027C29.0617 8.75052 29.0617 9.87685 29.0617 9.87685V16.5619H12.9433V19.1775H29.0617V23.8633H15.7539V26.4782H41.564C40.6195 29.7324 39.3514 32.7874 37.8463 35.5631C29.4713 32.7998 20.5346 30.5601 14.9203 31.9387C11.3298 32.8233 9.01737 34.4021 7.65884 36.0564C1.42359 43.6428 5.89569 55.1658 19.0639 55.1658C26.8497 55.1658 34.3499 50.8249 40.1631 43.6712C48.8336 47.839 66 54.9952 66 54.9952V44.7963C66 44.7963 63.8441 44.6245 54.34 41.442Z" fill="white"/>
</g>
<defs>
<clipPath id="clip0_554_3286">
<rect width="66" height="66" rx="8" fill="white"/>
</clipPath>
</defs>
</svg>
