<svg width="66" height="66" viewBox="0 0 66 66" fill="none" xmlns="http://www.w3.org/2000/svg">
<rect width="66" height="66" rx="8" fill="#006FCF"/>
<g clip-path="url(#clip0_554_10353)">
<path d="M32.2437 17.2402L31.3757 19.5019L29.5803 24.0458H34.9071L33.0921 19.5019L32.2437 17.2402Z" fill="white"/>
<path d="M65.9803 48.7598L61.1072 43.5785L65.8027 38.6439L65.9803 38.4589V31.4066H61.561V17.343L60.7324 19.6869L56.5104 31.4271H52.3081L48.0861 19.6869L47.2377 17.3225V31.4271H37.7481L36.4065 27.9729H28.0217L26.6802 31.4271H21.669L29.3633 13.3954H35.2623L42.8579 31.4271V13.3954H50.1774L53.5313 22.5449L54.4388 25.0327L55.3266 22.5449L58.6608 13.3954H65.9803V9.90002H56.4906L54.4191 15.7804L52.2884 9.90002H39.6224V15.5131L37.1562 9.90002H26.9564L16.5 34.6346H24.8848V56.1H50.2957L53.7286 52.0701L57.043 56.1H66V48.7598H65.9803ZM58.937 52.6047L53.7088 46.7449L48.4609 52.6047H42.8776H28.436V34.6346H48.6188L53.8075 40.4533L59.0159 34.6346H64.6782L56.5893 43.5785L64.6782 52.5841H58.9568L58.937 52.6047Z" fill="white"/>
<path d="M42.8776 34.6552V38.5617H32.8356V41.7075H42.6803V45.5935H32.8356V48.7187H42.8776V52.6047L50.927 43.6608L42.8776 34.6552Z" fill="white"/>
<path d="M32.8356 48.7187V45.5935H42.6804V41.7075H32.8356V38.5617H42.8776V34.6552H28.436V52.6047H42.8776V48.7187H32.8356Z" fill="#006FCF"/>
<path d="M29.3633 13.3954L21.7085 31.4272H26.7197L28.0612 27.973H36.446L37.7876 31.4272H42.858L35.2623 13.3954H29.3633ZM29.6001 24.0459L31.3954 19.5019L32.2635 17.2608L33.1118 19.5019L34.9072 24.0459H29.5804H29.6001Z" fill="#006FCF"/>
<path d="M58.6608 13.3953L55.3464 22.5448L54.4585 25.0121L53.551 22.5448L50.1971 13.3953H42.8579V31.4271H47.2772V17.3224L48.1058 19.6869L52.3278 31.4271H56.5301L60.7521 19.6869L61.5807 17.343V31.4065H66V13.3748H58.6608V13.3953Z" fill="#006FCF"/>
<path d="M64.6585 34.6552H59.016L53.8075 40.4738L48.6188 34.6552H42.8777L50.9271 43.6608L42.8777 52.6047H48.461L53.7089 46.7243L58.9371 52.6047H64.6585L56.5696 43.5991L64.6585 34.6552Z" fill="#006FCF"/>
</g>
<defs>
<clipPath id="clip0_554_10353">
<rect width="49.5" height="46.2" fill="white" transform="translate(16.5 9.90002)"/>
</clipPath>
</defs>
</svg>
