<svg width="66" height="66" viewBox="0 0 66 66" fill="none" xmlns="http://www.w3.org/2000/svg">
<rect width="66" height="66" rx="8" fill="#0066FF"/>
<g clip-path="url(#clip0_554_1916)">
<path d="M46.9887 30.2915C44.8034 26.8839 42.3887 23.6294 39.9559 20.3898C38.824 18.881 37.689 17.3722 36.539 15.8784C35.5732 14.6216 34.5982 13.3678 33.5991 12.1349C33.0317 11.433 33.08 11.283 32.3888 12.1349C31.0878 13.7397 29.8262 15.3805 28.5735 17.0213C27.1066 18.941 25.6578 20.8727 24.2331 22.8255C22.5669 25.1052 20.9038 27.3879 19.3524 29.7486C18.3835 31.2214 17.5594 32.7661 17.0403 34.4519C16.6207 35.8017 16.503 37.1995 16.5 38.8343C16.4909 39.2243 16.5181 39.8332 16.5815 40.4421C16.6901 41.483 16.823 42.5148 17.327 43.4597C18.2174 45.1275 19.5486 46.4083 21.0004 47.5751C22.8205 49.039 24.6738 50.4548 26.5965 51.7866C28.5765 53.1574 30.5204 54.5792 32.5216 55.92C32.8476 56.139 33.1283 56.178 33.4392 55.929C33.5327 55.854 33.6414 55.8 33.741 55.731C37.3812 53.2264 41.0395 50.7427 44.4895 47.9801C45.4282 47.2272 46.3578 46.4593 47.1607 45.5594C47.9908 44.6295 48.7665 43.6457 49.0714 42.4158C49.5815 40.3551 49.5875 38.2644 49.3249 36.1617C49.0533 33.999 48.1387 32.0822 46.9857 30.2885L46.9887 30.2915ZM30.4872 49.7889C30.4781 49.9388 30.5234 50.1188 30.3453 50.2058C30.1793 50.2868 30.0435 50.1788 29.9167 50.0888C28.8995 49.3599 27.8793 48.631 26.8651 47.8961C25.5491 46.9422 24.2029 46.0244 22.9322 45.0135C21.3203 43.7297 20.4148 42.0019 20.113 39.9802C19.8383 38.1504 20.1764 36.3717 20.6986 34.6199C20.7499 34.4489 20.8042 34.2479 21.0185 34.2209C21.2207 34.197 21.2932 34.3889 21.3868 34.5209C22.8809 36.6566 24.3146 38.8373 26.0139 40.8261C27.2394 42.2599 28.486 43.6787 29.7386 45.0915C30.2759 45.7004 30.5023 46.4143 30.5536 47.1972C30.5687 47.4372 30.5536 47.6771 30.5536 47.9171H30.5717C30.5445 48.541 30.5174 49.1619 30.4842 49.7859L30.4872 49.7889ZM33.3607 43.4087C33.0498 43.7627 32.9291 43.7627 32.6182 43.3967C31.8304 42.4728 31.0456 41.546 30.2608 40.6191C28.4739 38.5104 26.6689 36.4137 24.9062 34.2839C23.9735 33.1591 23.4906 31.8663 23.72 30.3755C23.8377 29.6106 24.2482 28.9957 24.6858 28.3867C27.0915 25.0392 29.5153 21.7036 32.0145 18.4251C32.2409 18.1281 32.4793 17.8432 32.7027 17.5432C32.8928 17.2912 33.0619 17.2582 33.2671 17.5282C33.9221 18.3891 34.5922 19.238 35.2411 20.1049C37.3872 22.9725 39.5031 25.8611 41.5737 28.7857C42.0717 29.4876 42.3555 30.2405 42.2981 31.0804C42.3555 32.4152 41.7608 33.483 40.964 34.4369C38.7274 37.1126 36.4606 39.7612 34.2058 42.4188C33.9251 42.7488 33.6474 43.0788 33.3607 43.4027V43.4087ZM43.6322 44.5336C43.2368 44.9745 42.7237 45.2835 42.2468 45.6284C40.2426 47.0892 38.2293 48.535 36.2161 49.9838C36.1195 50.0528 36.0199 50.1278 35.9112 50.1788C35.6667 50.2928 35.4917 50.2238 35.4886 49.9448C35.4796 48.928 35.3196 47.9141 35.4464 46.8912C35.54 46.1503 35.8478 45.5294 36.3428 44.9715C38.2625 42.8028 40.2275 40.6701 41.9208 38.3124C42.8263 37.0526 43.6956 35.7717 44.5861 34.5029C44.6766 34.3709 44.746 34.173 44.9573 34.2179C45.1414 34.2569 45.2169 34.4219 45.2652 34.5869C45.6606 35.9277 45.9383 37.2865 45.9443 38.6843C45.9926 40.955 45.1203 42.8688 43.6262 44.5306L43.6322 44.5336Z" fill="white"/>
</g>
<defs>
<clipPath id="clip0_554_1916">
<rect width="33" height="44.55" fill="white" transform="translate(16.5 11.55)"/>
</clipPath>
</defs>
</svg>
