<svg width="72" height="20" viewBox="0 0 72 20" fill="none" xmlns="http://www.w3.org/2000/svg">
<path d="M13.5583 8.92749C14.8914 7.85499 15.6298 6.14099 15.3926 4.35349C15.0618 1.84096 12.8567 0 10.3241 0H1.40327C0.628132 0 0 0.628132 0 1.40327V18.2426C0 19.0177 0.628132 19.6458 1.40327 19.6458H11.1293C14.1731 19.6458 16.7391 17.2603 16.8393 14.2198C16.9161 11.8777 15.5463 9.84296 13.5616 8.93083L13.5583 8.92749ZM2.80655 2.98363C2.80655 2.88673 2.88673 2.80655 2.98363 2.80655H10.3608C11.45 2.80655 12.419 3.57167 12.5994 4.64417C12.7698 5.65987 12.2285 6.63548 11.3164 7.03976L2.80655 10.8219V2.98363ZM11.156 16.8393H2.98029C2.88339 16.8393 2.80321 16.7591 2.80321 16.6622V14.006C2.80321 13.9358 2.8433 13.8724 2.90678 13.8456L8.80053 11.2262H11.2228C12.8065 11.2262 14.0862 12.5459 14.0261 14.1397C13.9693 15.6599 12.6729 16.8393 11.1527 16.8393H11.156Z" fill="#101010"/>
<path d="M33.2576 13.4044L30.0601 14.8244C30.0033 14.8511 29.9532 14.8912 29.9165 14.9447C28.9642 16.3012 27.3872 17.1899 25.6064 17.1899C24.1563 17.1899 22.8433 16.6019 21.8877 15.6496C21.8009 15.5628 21.8276 15.4124 21.9378 15.3623L30.8386 11.4064L33.2242 10.3473C33.3812 10.2771 33.4647 10.1034 33.4213 9.93631C32.5092 6.36131 29.2081 3.73518 25.3291 3.86548C21.156 4.00581 17.7414 7.37367 17.5443 11.5434C17.3271 16.1675 21.0257 19.9998 25.6031 19.9998C29.4754 19.9998 32.7197 17.2534 33.4948 13.6082C33.5249 13.4679 33.3845 13.3509 33.2509 13.4077L33.2576 13.4044ZM20.3475 11.9276C20.3475 9.02753 22.7096 6.66535 25.6097 6.66535C27.2536 6.66535 28.7203 7.42044 29.6859 8.60654C29.7594 8.69676 29.7294 8.83374 29.6224 8.88052L20.4477 12.9567C20.3809 12.6226 20.3475 12.2818 20.3475 11.9276Z" fill="#101010"/>
<path d="M41.1828 3.85889C38.0121 3.90232 35.3893 6.25113 34.9149 9.30158C34.8948 9.43857 35.0318 9.54883 35.1588 9.49203L38.3629 8.06871C38.413 8.04866 38.4531 8.01525 38.4866 7.97182C39.1548 7.17663 40.1538 6.66878 41.2697 6.66878C42.5961 6.66878 43.7622 7.38378 44.3937 8.4496L40.2039 10.3106V10.3173L36.6422 11.901C35.112 12.6628 34.1899 14.3133 34.4037 16.0607C34.6576 18.1255 36.4652 19.6491 38.5467 19.6491H46.3015C47.0766 19.6491 47.7047 19.0209 47.7047 18.2458V10.4075C47.7047 6.79908 44.7846 3.81211 41.1762 3.86223L41.1828 3.85889ZM44.9049 16.6654C44.9049 16.7623 44.8247 16.8425 44.7278 16.8425H38.5066C37.9119 16.8425 37.3673 16.4516 37.2236 15.8736C37.0699 15.2521 37.3907 14.6374 37.9453 14.3901L44.6543 11.4065C44.7712 11.3564 44.9015 11.4399 44.9015 11.5669V16.6654H44.9049Z" fill="#101010"/>
<path d="M65.523 3.86568C64.7679 3.89909 64.0295 4.08954 63.3413 4.39692L60.2474 5.77012C59.0613 4.4604 57.2838 3.69194 55.3426 3.89241C54.7178 3.95589 54.1097 4.13297 53.5351 4.39024L49.5324 6.16772C49.2785 6.28132 49.1147 6.5319 49.1147 6.80921V19.4721C49.1147 19.569 49.1949 19.6492 49.2918 19.6492H51.7476C51.8444 19.6492 51.9246 19.569 51.9246 19.4721V8.28933C51.9246 8.21917 51.9647 8.15569 52.0282 8.12896L54.7212 6.93284C54.9484 6.8326 55.1856 6.75241 55.4295 6.71232C57.3072 6.38823 58.941 7.83494 58.941 9.65251V19.4721C58.941 19.569 59.0212 19.6492 59.1181 19.6492H61.5738C61.6707 19.6492 61.7509 19.569 61.7509 19.4721V8.28933C61.7509 8.21917 61.791 8.15569 61.8545 8.12896L64.5474 6.93284C64.7746 6.8326 65.0118 6.75241 65.2557 6.71232C67.1334 6.38823 68.7673 7.83494 68.7673 9.65251V19.4721C68.7673 19.569 68.8475 19.6492 68.9443 19.6492H71.4001C71.497 19.6492 71.5771 19.569 71.5771 19.4721V9.65251C71.5771 6.37487 68.8408 3.72535 65.533 3.86568H65.523Z" fill="#101010"/>
</svg>
