<svg width="66" height="66" viewBox="0 0 66 66" fill="none" xmlns="http://www.w3.org/2000/svg">
<rect x="0.5" y="0.5" width="65" height="65" rx="7.5" fill="white"/>
<rect x="0.5" y="0.5" width="65" height="65" rx="7.5" stroke="#E2E4ED"/>
<g clip-path="url(#clip0_554_14274)">
<path d="M36.0525 35.1285C41.5965 35.1615 46.6455 30.6075 46.6455 25.08C46.6455 19.0245 41.58 14.85 36.0525 14.85H31.284C25.674 14.85 21.054 19.0245 21.054 25.08C21.054 30.6075 25.674 35.1615 31.284 35.1285H36.0525Z" fill="#034C99"/>
<path d="M31.3005 15.6915C26.169 15.6915 22.0275 19.8495 22.0275 24.9645C22.0275 30.096 26.1855 34.2375 31.3005 34.2375C36.432 34.2375 40.5735 30.0795 40.5735 24.9645C40.5735 19.833 36.4155 15.6915 31.3005 15.6915ZM25.4265 24.9645C25.4265 22.4565 26.994 20.328 29.205 19.47V30.4425C26.994 29.601 25.4265 27.456 25.4265 24.948V24.9645ZM33.4125 30.459V19.4865C35.6235 20.328 37.191 22.473 37.191 24.981C37.191 27.489 35.6235 29.6175 33.4125 30.4755V30.459Z" fill="white"/>
<path d="M31.3005 15.6915C26.169 15.6915 22.0275 19.8495 22.0275 24.9645C22.0275 30.096 26.1855 34.2375 31.3005 34.2375C36.432 34.2375 40.5735 30.0795 40.5735 24.9645C40.5735 19.833 36.4155 15.6915 31.3005 15.6915ZM25.4265 24.9645C25.4265 22.4565 26.994 20.328 29.205 19.47V30.4425C26.994 29.601 25.4265 27.456 25.4265 24.948V24.9645ZM33.4125 30.459V19.4865C35.6235 20.328 37.191 22.473 37.191 24.981C37.191 27.489 35.6235 29.6175 33.4125 30.4755V30.459Z" fill="white"/>
<path d="M9.27296 38.478C9.27296 37.521 8.77796 37.587 8.29946 37.5705V37.29C8.71196 37.3065 9.14096 37.3065 9.55346 37.3065C9.99896 37.3065 10.6095 37.29 11.4015 37.29C14.157 37.29 15.6585 39.138 15.6585 41.019C15.6585 42.075 15.048 44.7315 11.2695 44.7315C10.725 44.7315 10.23 44.715 9.71846 44.715C9.20696 44.715 8.77796 44.715 8.28296 44.7315V44.451C8.92646 44.385 9.22346 44.3685 9.25646 43.6425V38.478H9.27296ZM10.3125 43.4775C10.3125 44.3025 10.9065 44.4015 11.418 44.4015C13.728 44.4015 14.4705 42.669 14.4705 41.0685C14.4705 39.072 13.1835 37.6365 11.1375 37.6365C10.692 37.6365 10.494 37.6695 10.3125 37.686V43.4775Z" fill="#211E1F"/>
<path d="M16.0215 44.4509H16.2195C16.5165 44.4509 16.731 44.4509 16.731 44.1044V41.2169C16.731 40.7549 16.566 40.6889 16.17 40.4744V40.3094C16.665 40.1609 17.2755 39.9629 17.3085 39.9299C17.391 39.8804 17.4405 39.8804 17.5065 39.8804C17.5725 39.8804 17.589 39.9464 17.589 40.0289V44.1209C17.589 44.4674 17.82 44.4674 18.117 44.4674H18.2985V44.7479C17.9355 44.7479 17.556 44.7314 17.1765 44.7314C16.797 44.7314 16.401 44.7314 16.0215 44.7479V44.4674V44.4509ZM17.16 38.2139C16.8795 38.2139 16.632 37.9664 16.632 37.6859C16.632 37.4054 16.8795 37.1744 17.16 37.1744C17.4405 37.1744 17.688 37.4054 17.688 37.6859C17.688 37.9664 17.457 38.2139 17.16 38.2139Z" fill="#211E1F"/>
<path d="M19.3215 41.283C19.3215 40.887 19.206 40.788 18.711 40.5735V40.3755C19.173 40.227 19.602 40.095 20.1135 39.864C20.1465 39.864 20.1795 39.8805 20.1795 39.963V40.656C20.79 40.227 21.318 39.864 22.0275 39.864C22.935 39.864 23.2485 40.524 23.2485 41.349V44.1045C23.2485 44.451 23.4795 44.451 23.7765 44.451H23.9745V44.7315C23.595 44.7315 23.232 44.715 22.8525 44.715C22.473 44.715 22.077 44.715 21.6975 44.7315V44.451H21.8955C22.1925 44.451 22.407 44.451 22.407 44.1045V41.349C22.407 40.7385 22.044 40.4415 21.4335 40.4415C21.087 40.4415 20.5425 40.722 20.196 40.953V44.1045C20.196 44.451 20.427 44.451 20.724 44.451H20.922V44.7315C20.5425 44.7315 20.1795 44.715 19.8 44.715C19.4205 44.715 19.0245 44.715 18.645 44.7315V44.451H18.843C19.14 44.451 19.3545 44.451 19.3545 44.1045V41.283H19.3215Z" fill="#211E1F"/>
<path d="M24.7665 41.7945C24.75 41.8935 24.75 42.042 24.7665 42.405C24.8325 43.4115 25.476 44.253 26.334 44.253C26.928 44.253 27.3735 43.9395 27.7695 43.5435L27.918 43.692C27.423 44.3355 26.8125 44.8965 25.9545 44.8965C24.255 44.8965 23.925 43.263 23.925 42.57C23.925 40.4745 25.3275 39.864 26.07 39.864C26.928 39.864 27.8686 40.4085 27.8686 41.5305C27.8686 41.5965 27.8686 41.6625 27.8686 41.7285L27.7695 41.7945H24.783H24.7665ZM26.6475 41.448C26.9115 41.448 26.9445 41.316 26.9445 41.184C26.9445 40.6395 26.6146 40.2105 26.0206 40.2105C25.377 40.2105 24.9315 40.689 24.7995 41.4645H26.6475V41.448Z" fill="#211E1F"/>
<path d="M28.116 44.451H28.3965C28.6935 44.451 28.908 44.451 28.908 44.1045V41.118C28.908 40.788 28.512 40.722 28.347 40.6395V40.4745C29.1225 40.1445 29.5515 39.864 29.6505 39.864C29.7165 39.864 29.7495 39.897 29.7495 39.996V40.953H29.766C30.03 40.5405 30.4755 39.8475 31.1355 39.8475C31.3995 39.8475 31.746 40.029 31.746 40.4085C31.746 40.689 31.548 40.953 31.251 40.953C30.921 40.953 30.921 40.689 30.5415 40.689C30.36 40.689 29.766 40.9365 29.766 41.58V44.088C29.766 44.4345 29.9805 44.4345 30.2775 44.4345H30.8715V44.715C30.2775 44.715 29.832 44.6985 29.3865 44.6985C28.941 44.6985 28.4955 44.6985 28.116 44.715V44.4345V44.451Z" fill="#211E1F"/>
<path d="M32.2245 43.2465C32.3565 43.956 32.7855 44.55 33.561 44.55C34.188 44.55 34.419 44.1705 34.419 43.791C34.419 42.537 32.0925 42.933 32.0925 41.217C32.0925 40.623 32.571 39.8475 33.7425 39.8475C34.089 39.8475 34.5345 39.9465 34.9635 40.161L35.046 41.25H34.7985C34.6995 40.5735 34.32 40.194 33.6435 40.194C33.2145 40.194 32.8185 40.4415 32.8185 40.9035C32.8185 42.1575 35.2935 41.7615 35.2935 43.4445C35.2935 44.154 34.7325 44.8965 33.462 44.8965C33.033 44.8965 32.538 44.748 32.1585 44.5335L32.043 43.3125L32.241 43.263L32.2245 43.2465Z" fill="#211E1F"/>
<path d="M44.8965 39.2205H44.6325C44.4345 37.9665 43.5435 37.4715 42.3555 37.4715C41.1675 37.4715 39.3525 38.2965 39.3525 40.854C39.3525 43.0155 40.887 44.55 42.5205 44.55C43.5765 44.55 44.451 43.824 44.6655 42.702L44.913 42.768L44.6655 44.319C44.22 44.5995 43.0155 44.88 42.306 44.88C39.8145 44.88 38.2305 43.263 38.2305 40.8705C38.2305 38.6925 40.1775 37.125 42.273 37.125C43.131 37.125 43.9725 37.4055 44.781 37.686L44.88 39.204L44.8965 39.2205Z" fill="#211E1F"/>
<path d="M45.2925 44.4509H45.4905C45.7875 44.4509 46.002 44.4509 46.002 44.1044V38.1644C46.002 37.4714 45.837 37.4549 45.441 37.3394V37.1744C45.87 37.0424 46.3155 36.8444 46.5465 36.7124C46.662 36.6464 46.7445 36.5969 46.7775 36.5969C46.8435 36.5969 46.86 36.6629 46.86 36.7454V44.1044C46.86 44.4509 47.091 44.4509 47.388 44.4509H47.5695V44.7314C47.2065 44.7314 46.8435 44.7149 46.4475 44.7149C46.0515 44.7149 45.6885 44.7149 45.2925 44.7314V44.4509Z" fill="#211E1F"/>
<path d="M52.1235 44.154C52.1235 44.352 52.239 44.352 52.4205 44.352C52.5525 44.352 52.701 44.352 52.8495 44.352V44.583C52.3875 44.6325 51.513 44.847 51.315 44.913L51.2655 44.88V44.022C50.622 44.55 50.1435 44.913 49.3845 44.913C48.807 44.913 48.213 44.5335 48.213 43.6425V40.92C48.213 40.6395 48.1635 40.3755 47.5695 40.326V40.128C47.949 40.128 48.807 40.0455 48.939 40.0455C49.0545 40.0455 49.0545 40.128 49.0545 40.359V43.1145C49.0545 43.428 49.0545 44.352 49.9785 44.352C50.3415 44.352 50.82 44.0715 51.2655 43.7085V40.8375C51.2655 40.623 50.754 40.5075 50.3745 40.4085V40.2105C51.3315 40.1445 51.9255 40.062 52.041 40.062C52.1235 40.062 52.1235 40.1445 52.1235 40.26V44.187V44.154Z" fill="#211E1F"/>
<path d="M54.252 40.6394C54.681 40.2764 55.2585 39.8639 55.836 39.8639C57.0735 39.8639 57.816 40.9364 57.816 42.1079C57.816 43.5104 56.793 44.8964 55.275 44.8964C54.483 44.8964 54.0705 44.6324 53.79 44.5169L53.4765 44.7644L53.2455 44.6489C53.3445 44.0219 53.394 43.3949 53.394 42.7514V38.1644C53.394 37.4714 53.229 37.4549 52.833 37.3394V37.1744C53.262 37.0424 53.7075 36.8444 53.9385 36.7124C54.054 36.6464 54.1365 36.5969 54.1695 36.5969C54.2355 36.5969 54.252 36.6629 54.252 36.7454V40.6394ZM54.252 43.5434C54.252 43.9559 54.6315 44.6324 55.341 44.6324C56.4795 44.6324 56.958 43.5104 56.958 42.5699C56.958 41.4149 56.0835 40.4579 55.2585 40.4579C54.8625 40.4579 54.5325 40.7219 54.252 40.9529V43.5434Z" fill="#211E1F"/>
<path d="M8.2665 50.9355H8.349C8.5635 50.9355 8.778 50.9025 8.778 50.6055V47.5695C8.778 47.2725 8.5635 47.2395 8.349 47.2395H8.2665V47.058C8.4975 47.058 8.844 47.0745 9.1245 47.0745C9.405 47.0745 9.768 47.058 10.032 47.058V47.2395H9.9495C9.735 47.2395 9.5205 47.2725 9.5205 47.5695V50.6055C9.5205 50.9025 9.735 50.9355 9.9495 50.9355H10.032V51.117C9.7515 51.117 9.405 51.1005 9.108 51.1005C8.811 51.1005 8.481 51.117 8.25 51.117V50.9355H8.2665Z" fill="#211E1F"/>
<path d="M10.0485 51.1335C9.76802 51.1335 9.42152 51.117 9.12452 51.117C8.82752 51.117 8.49752 51.1335 8.26652 51.1335H8.23352V50.9025H8.33252C8.54702 50.9025 8.72852 50.886 8.72852 50.6055V47.5695C8.72852 47.289 8.53052 47.2725 8.33252 47.256H8.23352V47.025H8.26652C8.49752 47.025 8.84402 47.0415 9.12452 47.0415C9.40502 47.0415 9.76802 47.025 10.032 47.025H10.065V47.256H9.96602C9.75152 47.256 9.57002 47.2725 9.57002 47.5695V50.6055C9.57002 50.886 9.76802 50.9025 9.96602 50.9025H10.065V51.1335H10.032H10.0485ZM10.0155 51.084V50.952H9.96602C9.75152 50.952 9.52052 50.919 9.50402 50.589V47.553C9.50402 47.2395 9.75152 47.19 9.96602 47.19H10.0155V47.0745C9.75152 47.0745 9.40502 47.091 9.12452 47.091C8.84402 47.091 8.51402 47.0745 8.29952 47.0745V47.19H8.34902C8.56352 47.19 8.81102 47.223 8.81102 47.553V50.589C8.81102 50.9025 8.56352 50.952 8.34902 50.952H8.29952V51.084C8.53052 51.084 8.84402 51.0675 9.12452 51.0675C9.40502 51.0675 9.73502 51.084 10.0155 51.084Z" fill="#211E1F"/>
<path d="M14.025 49.962V47.784C14.025 47.3055 13.695 47.2395 13.5135 47.2395H13.3815V47.058C13.662 47.058 13.926 47.0745 14.19 47.0745C14.421 47.0745 14.6685 47.058 14.8995 47.058V47.2395H14.817C14.5695 47.2395 14.3055 47.289 14.3055 47.982V50.622C14.3055 50.82 14.3055 51.0345 14.3385 51.1995H14.124L11.1375 47.8665V50.259C11.1375 50.7705 11.2365 50.9355 11.682 50.9355H11.781V51.117C11.5335 51.117 11.286 51.1005 11.0385 51.1005C10.791 51.1005 10.5105 51.117 10.2465 51.117V50.9355H10.329C10.725 50.9355 10.857 50.6715 10.857 50.193V47.751C10.857 47.421 10.593 47.223 10.329 47.223H10.2465V47.0415C10.461 47.0415 10.692 47.058 10.9065 47.058C11.088 47.058 11.253 47.0415 11.418 47.0415L13.992 49.9455L14.025 49.962Z" fill="#211E1F"/>
<path d="M14.355 51.216H14.124L11.187 47.9325V50.259C11.187 50.7705 11.2695 50.9025 11.715 50.919H11.847V51.15H11.814C11.5665 51.15 11.319 51.1335 11.0715 51.1335C10.8075 51.1335 10.5435 51.15 10.2795 51.15H10.2465V50.919H10.3455C10.725 50.919 10.8405 50.6715 10.8405 50.2095V47.7675C10.8405 47.454 10.593 47.2725 10.3455 47.2725H10.2465V47.0415H10.2795C10.494 47.0415 10.725 47.058 10.9395 47.058C11.1045 47.058 11.286 47.0415 11.4675 47.058L14.0085 49.929V47.8005C14.0085 47.3385 13.695 47.289 13.53 47.2725H13.3815V47.0415H13.4145C13.695 47.0415 13.959 47.058 14.223 47.058C14.454 47.058 14.7015 47.0415 14.9325 47.0415H14.9655V47.2725H14.85C14.619 47.2725 14.3715 47.3055 14.355 47.982V50.622C14.355 50.82 14.355 51.0345 14.388 51.1995V51.2325H14.3715L14.355 51.216ZM14.1405 51.1665H14.3385C14.3055 50.985 14.3055 50.8035 14.3055 50.6055V47.9655C14.3055 47.2725 14.6025 47.2065 14.85 47.2065H14.916V47.091C14.685 47.091 14.454 47.1075 14.223 47.1075C13.959 47.1075 13.695 47.091 13.431 47.091V47.2065H13.53C13.7115 47.2065 14.058 47.289 14.058 47.784V49.9785H14.0415H14.025L11.451 47.0745C11.286 47.0745 11.1045 47.091 10.9395 47.091C10.725 47.091 10.5105 47.0745 10.296 47.0745V47.19H10.3455C10.6095 47.19 10.89 47.4045 10.89 47.7345V50.1765C10.89 50.6385 10.758 50.9355 10.3455 50.9355H10.296V51.051C10.5435 51.051 10.8075 51.0345 11.055 51.0345C11.3025 51.0345 11.5335 51.051 11.781 51.051V50.9355H11.715C11.253 50.9355 11.1375 50.7375 11.1375 50.226V47.7675L14.1405 51.1335V51.1665Z" fill="#211E1F"/>
<path d="M15.8071 47.355C15.3781 47.355 15.3616 47.454 15.2626 47.883H15.0811C15.0976 47.718 15.1306 47.553 15.1471 47.388C15.1636 47.223 15.1801 47.058 15.1801 46.893H15.3121C15.3616 47.0745 15.5101 47.058 15.6586 47.058H18.6451C18.8101 47.058 18.9421 47.058 18.9586 46.8765H19.0906C19.0741 47.058 19.0411 47.2065 19.0246 47.3715C19.0246 47.52 19.0246 47.685 19.0246 47.8335L18.8431 47.8995C18.8431 47.685 18.8101 47.3385 18.4141 47.3385H17.4571V50.424C17.4571 50.8695 17.6551 50.919 17.9356 50.919H18.0511V51.1005C17.8201 51.1005 17.4241 51.084 17.1106 51.084C16.7641 51.084 16.3516 51.1005 16.1371 51.1005V50.919H16.2526C16.5661 50.919 16.7311 50.886 16.7311 50.4405V47.3385H15.7741L15.8071 47.355Z" fill="#211E1F"/>
<path d="M18.084 51.1334C17.853 51.1334 17.457 51.1169 17.1435 51.1169C16.797 51.1169 16.3845 51.1334 16.17 51.1334H16.1535V50.9024H16.2855C16.599 50.9024 16.731 50.9024 16.7475 50.4404V47.3714H15.8235V47.3219H16.797V50.4404C16.797 50.9024 16.6155 50.9519 16.2855 50.9519H16.203V51.0674C16.434 51.0674 16.83 51.0509 17.16 51.0509C17.457 51.0509 17.853 51.0674 18.084 51.0674V50.9519H18.0015C17.721 50.9519 17.49 50.8859 17.49 50.4239V47.3054H18.4635C18.8595 47.3054 18.909 47.6354 18.909 47.8499L19.041 47.8004C19.041 47.6519 19.041 47.5034 19.041 47.3384C19.0575 47.1899 19.074 47.0414 19.107 46.8929H19.0245C18.9915 47.0414 18.8265 47.0579 18.6945 47.0579H15.675C15.543 47.0579 15.3945 47.0579 15.345 46.8929H15.246C15.246 47.0579 15.246 47.2064 15.213 47.3714C15.1965 47.5364 15.1635 47.6849 15.147 47.8334H15.279C15.3615 47.4374 15.411 47.3054 15.84 47.3054V47.3549C15.411 47.3549 15.4275 47.4374 15.3285 47.8664L15.312 47.8829H15.114V47.8499C15.147 47.6849 15.1635 47.5199 15.18 47.3549C15.1965 47.1899 15.213 47.0414 15.213 46.8599V46.8269H15.3945C15.4275 46.9919 15.543 46.9919 15.6915 46.9919H18.711C18.876 46.9919 18.9915 46.9919 19.008 46.8434V46.8104H19.041L19.206 46.8434V46.8764C19.173 47.0249 19.1565 47.1899 19.14 47.3384C19.14 47.4869 19.14 47.6519 19.14 47.8004V47.8169L18.942 47.8994V47.8664C18.9255 47.6519 18.909 47.3384 18.5295 47.3384H17.6055V50.3909C17.6055 50.8364 17.787 50.8529 18.0675 50.8694H18.1995V51.1004H18.183L18.084 51.1334Z" fill="#211E1F"/>
<path d="M19.305 50.9355H19.3875C19.602 50.9355 19.8165 50.9025 19.8165 50.6055V47.5695C19.8165 47.2725 19.602 47.2395 19.3875 47.2395H19.305V47.058C19.6515 47.058 20.262 47.0745 20.7405 47.0745C21.219 47.0745 21.8295 47.058 22.2255 47.058C22.2255 47.3055 22.2255 47.685 22.2255 47.949L22.044 47.9985C22.011 47.619 21.945 47.322 21.3345 47.322H20.526V48.84H21.219C21.5655 48.84 21.648 48.642 21.681 48.3285H21.8625C21.8625 48.5595 21.846 48.774 21.846 49.005C21.846 49.236 21.846 49.4505 21.8625 49.665L21.681 49.698C21.648 49.3515 21.6315 49.1205 21.2355 49.1205H20.5425V50.4735C20.5425 50.853 20.8725 50.853 21.252 50.853C21.945 50.853 22.2585 50.8035 22.4235 50.1435L22.5885 50.1765C22.506 50.49 22.44 50.787 22.3905 51.1005C22.011 51.1005 21.351 51.084 20.823 51.084C20.295 51.084 19.6185 51.1005 19.272 51.1005V50.919L19.305 50.9355Z" fill="#211E1F"/>
<path d="M22.407 51.1335C22.0275 51.1335 21.3675 51.117 20.8395 51.117C20.3115 51.117 19.635 51.1335 19.305 51.1335H19.2885V50.9025H19.3875C19.602 50.9025 19.7835 50.886 19.7835 50.6055V47.5695C19.7835 47.289 19.5855 47.2725 19.3875 47.256H19.2885V47.025H19.305C19.6515 47.025 20.262 47.0415 20.7405 47.0415C21.219 47.0415 21.8295 47.025 22.2255 47.025H22.2585V47.058C22.2585 47.1405 22.2585 47.256 22.2585 47.355C22.2585 47.553 22.2585 47.7675 22.275 47.9325L22.2585 47.9655L22.0605 48.015V47.982C22.0275 47.6025 21.978 47.3385 21.384 47.322H20.6085V48.7905H21.2685C21.5985 48.7905 21.6645 48.609 21.6975 48.312L21.714 48.2955H21.912V48.3285C21.912 48.5595 21.8955 48.774 21.8955 49.005C21.8955 49.236 21.8955 49.4505 21.912 49.665L21.8955 49.698L21.6975 49.731V49.698C21.648 49.3515 21.648 49.1535 21.2685 49.1535H20.592V50.4735C20.592 50.82 20.889 50.82 21.2685 50.82C21.9615 50.82 22.242 50.787 22.4235 50.127L22.44 50.1105L22.6215 50.16C22.539 50.49 22.473 50.8035 22.4235 51.1005L22.407 51.117V51.1335ZM22.3905 51.084C22.44 50.787 22.506 50.49 22.572 50.2095L22.4565 50.1765C22.275 50.82 21.945 50.886 21.2685 50.886C20.9055 50.886 20.5425 50.886 20.5425 50.49V49.1205H21.2685C21.681 49.1205 21.714 49.368 21.747 49.698L21.879 49.665C21.879 49.4505 21.879 49.236 21.879 49.0215C21.879 48.807 21.879 48.5925 21.879 48.3615H21.747C21.714 48.6585 21.615 48.873 21.2685 48.873H20.559V47.3055H21.384C21.9945 47.3055 22.0935 47.619 22.11 47.982L22.242 47.949C22.242 47.784 22.2255 47.5695 22.2255 47.388C22.2255 47.289 22.2255 47.19 22.2255 47.1075C21.8295 47.1075 21.252 47.124 20.7735 47.124C20.295 47.124 19.7175 47.1075 19.3545 47.1075V47.223H19.404C19.6185 47.223 19.8495 47.256 19.866 47.586V50.622C19.866 50.9355 19.6185 50.985 19.404 50.985H19.3545V51.1005C19.6845 51.1005 20.361 51.084 20.8725 51.084C21.384 51.084 22.044 51.1005 22.407 51.1005L22.3905 51.084Z" fill="#211E1F"/>
<path d="M23.397 47.6685C23.397 47.2395 23.166 47.223 22.9845 47.223H22.8855V47.0415C23.067 47.0415 23.43 47.058 23.7765 47.058C24.123 47.058 24.4035 47.0415 24.717 47.0415C25.443 47.0415 26.103 47.2395 26.103 48.0645C26.103 48.5925 25.7565 48.906 25.2945 49.0875L26.2845 50.5725C26.4495 50.82 26.565 50.886 26.8455 50.919V51.1005C26.6475 51.1005 26.466 51.084 26.2845 51.084C26.103 51.084 25.9215 51.1005 25.74 51.1005C25.2945 50.5065 24.915 49.896 24.5355 49.2195H24.156V50.457C24.156 50.9025 24.3705 50.919 24.6345 50.919H24.7335V51.1005C24.4035 51.1005 24.0735 51.084 23.7435 51.084C23.463 51.084 23.199 51.1005 22.902 51.1005V50.919H23.001C23.2155 50.919 23.4135 50.82 23.4135 50.6055V47.652L23.397 47.6685ZM24.1395 49.0215H24.42C24.9975 49.0215 25.311 48.807 25.311 48.114C25.311 47.6025 24.981 47.2725 24.4695 47.2725C24.288 47.2725 24.222 47.289 24.1395 47.289V49.0215Z" fill="#211E1F"/>
<path d="M26.829 51.1335C26.631 51.1335 26.4495 51.117 26.2515 51.117C26.07 51.117 25.8885 51.1335 25.6905 51.117C25.245 50.5395 24.8655 49.9125 24.486 49.2525H24.1395V50.4735C24.1395 50.9025 24.321 50.9025 24.585 50.919H24.717V51.15H24.684C24.354 51.15 24.024 51.1335 23.694 51.1335C23.4135 51.1335 23.1495 51.15 22.8525 51.15H22.8195V50.919H22.9515C23.166 50.919 23.331 50.82 23.331 50.6385V47.685C23.331 47.2725 23.133 47.2725 22.9515 47.2725H22.8195V47.0415H22.8525C23.034 47.0415 23.397 47.058 23.7435 47.058C24.09 47.058 24.3705 47.0415 24.684 47.0415C25.41 47.0415 26.0865 47.2395 26.0865 48.081C26.0865 48.609 25.74 48.939 25.2945 49.1205L26.268 50.5725C26.433 50.82 26.532 50.8695 26.8125 50.9025H26.829V51.1335ZM24.123 49.203H24.519C24.8985 49.8795 25.278 50.5065 25.707 51.084C25.8885 51.084 26.07 51.0675 26.2515 51.0675C26.433 51.0675 26.6145 51.084 26.796 51.084V50.952C26.532 50.919 26.4 50.8365 26.235 50.589L25.2285 49.071H25.2615C25.707 48.873 26.0535 48.576 26.0535 48.0645C26.0535 47.256 25.4265 47.0745 24.7005 47.0745C24.387 47.0745 24.123 47.091 23.76 47.091C23.397 47.091 23.0835 47.0745 22.8855 47.0745V47.19H22.968C23.1495 47.19 23.397 47.223 23.397 47.652V50.6055C23.397 50.8365 23.1825 50.952 22.968 50.952H22.8855V51.0675C23.166 51.0675 23.43 51.051 23.694 51.051C24.024 51.051 24.3375 51.0675 24.6675 51.0675V50.952H24.585C24.321 50.952 24.09 50.919 24.09 50.457V49.1865H24.123V49.203ZM24.123 49.038H24.09V47.256H24.1065C24.1065 47.256 24.2715 47.2395 24.4365 47.2395C24.9645 47.2395 25.311 47.586 25.311 48.114C25.311 48.807 24.981 49.038 24.387 49.038H24.1065H24.123ZM24.4035 48.9885C24.981 48.9885 25.2615 48.7905 25.278 48.114C25.278 47.6025 24.9645 47.289 24.453 47.289C24.288 47.289 24.222 47.289 24.156 47.3055V48.9885H24.42H24.4035Z" fill="#211E1F"/>
<path d="M30.7725 49.962V47.784C30.7725 47.3055 30.4425 47.2395 30.261 47.2395H30.129V47.058C30.393 47.058 30.6735 47.0745 30.9375 47.0745C31.1685 47.0745 31.416 47.058 31.647 47.058V47.2395H31.5645C31.317 47.2395 31.053 47.289 31.053 47.982V50.622C31.053 50.82 31.053 51.0345 31.086 51.1995H30.8715L27.885 47.8665V50.259C27.885 50.7705 27.984 50.9355 28.4295 50.9355H28.5285V51.117C28.281 51.117 28.0335 51.1005 27.786 51.1005C27.522 51.1005 27.258 51.117 26.994 51.117V50.9355H27.0765C27.4725 50.9355 27.6045 50.6715 27.6045 50.193V47.751C27.6045 47.421 27.3405 47.223 27.0765 47.223H26.994V47.0415C27.2085 47.0415 27.4395 47.058 27.654 47.058C27.819 47.058 28.0005 47.0415 28.1655 47.0415L30.7395 49.9455L30.7725 49.962Z" fill="#211E1F"/>
<path d="M31.1025 51.216H30.8715L27.9345 47.9325V50.259C27.9345 50.7705 28.017 50.9025 28.4625 50.919H28.578V51.15H28.545C28.2975 51.15 28.05 51.1335 27.8025 51.1335C27.555 51.1335 27.2745 51.15 27.0105 51.15H26.9775V50.919H27.0765C27.456 50.919 27.5715 50.6715 27.5715 50.2095V47.7675C27.5715 47.454 27.324 47.2725 27.0765 47.2725H26.9775V47.0415H27.0105C27.225 47.0415 27.456 47.058 27.6705 47.058C27.8355 47.058 28.017 47.0415 28.1985 47.058L30.7395 49.929V47.8005C30.7395 47.3385 30.426 47.289 30.261 47.2725H30.1125V47.0415H30.1455C30.426 47.0415 30.69 47.058 30.954 47.058C31.185 47.058 31.4325 47.0415 31.6635 47.0415H31.6965V47.2725H31.581C31.35 47.2725 31.1025 47.3055 31.086 47.982V50.622C31.086 50.82 31.086 51.018 31.119 51.1995V51.2325H31.1025V51.216ZM30.888 51.1665H31.086C31.053 50.985 31.053 50.8035 31.053 50.6055V47.9655C31.053 47.2725 31.35 47.2065 31.5975 47.2065H31.6635V47.091C31.4325 47.091 31.2015 47.1075 30.9705 47.1075C30.7065 47.1075 30.4425 47.091 30.1785 47.091V47.2065H30.2775C30.459 47.2065 30.8055 47.289 30.8055 47.784V49.9785H30.789H30.7725L28.1985 47.0745C28.0335 47.0745 27.852 47.091 27.687 47.091C27.4725 47.091 27.258 47.0745 27.0435 47.0745V47.19H27.093C27.357 47.19 27.6375 47.4045 27.6375 47.7345V50.1765C27.6375 50.6385 27.5055 50.9355 27.093 50.9355H27.0435V51.051C27.291 51.051 27.555 51.0345 27.8025 51.0345C28.05 51.0345 28.281 51.051 28.5285 51.051V50.9355H28.4625C28.0005 50.9355 27.885 50.7375 27.885 50.226V47.7675L30.9045 51.1335L30.888 51.1665Z" fill="#211E1F"/>
<path d="M32.604 50.2754C32.538 50.4734 32.472 50.6219 32.472 50.7209C32.472 50.9024 32.7195 50.9189 32.901 50.9189H32.967V51.1004C32.736 51.1004 32.505 51.0839 32.2575 51.0839C32.043 51.0839 31.845 51.0839 31.6305 51.1004V50.9189H31.6635C31.8945 50.9189 32.076 50.7869 32.175 50.5394L33.099 47.8829C33.1815 47.6684 33.2805 47.3714 33.3135 47.1569C33.495 47.0909 33.726 46.9754 33.8415 46.9094C33.858 46.9094 33.8745 46.9094 33.891 46.9094C33.9075 46.9094 33.924 46.9094 33.9405 46.9259C33.957 46.9754 33.9735 47.0249 33.99 47.0744L35.0625 50.1104C35.1285 50.3084 35.1945 50.5229 35.277 50.7044C35.343 50.8694 35.475 50.9354 35.6565 50.9354H35.6895V51.1169C35.4255 51.1169 35.1615 51.1004 34.8975 51.1004C34.6335 51.1004 34.32 51.1004 34.023 51.1169V50.9354H34.089C34.221 50.9354 34.452 50.9189 34.452 50.7704C34.452 50.6879 34.4025 50.5394 34.3365 50.3579L34.1055 49.6814H32.7855L32.604 50.2919V50.2754ZM33.4455 47.7014L32.901 49.3349H33.99L33.462 47.7014H33.4455Z" fill="#211E1F"/>
<path d="M35.6896 51.1334C35.4256 51.1334 35.1616 51.1169 34.8976 51.1169C34.6336 51.1169 34.3201 51.1169 34.0231 51.1334H33.9901V51.1169V50.9189H34.0726C34.2046 50.9189 34.4026 50.8859 34.4026 50.7704C34.4026 50.7044 34.3531 50.5394 34.2871 50.3579L34.0726 49.6979H32.7856L32.6041 50.2919C32.5381 50.4899 32.4721 50.6384 32.4721 50.7374C32.4721 50.8859 32.6866 50.9189 32.8846 50.9189H32.9671V51.1499H32.9341C32.7031 51.1499 32.4721 51.1169 32.2411 51.1169C32.0266 51.1169 31.8286 51.1169 31.6141 51.1334H31.5811V51.1169V50.9189H31.6471C31.8616 50.9189 32.0431 50.8034 32.1256 50.5559L33.0496 47.8994C33.1321 47.6849 33.2311 47.3879 33.2806 47.1569C33.4621 47.0909 33.6931 46.9754 33.8086 46.9094C33.8086 46.9094 33.8416 46.9094 33.8581 46.9094C33.8581 46.9094 33.9076 46.9094 33.9241 46.9424C33.9241 46.9919 33.9571 47.0414 33.9736 47.0909L35.0461 50.1269C35.1121 50.3249 35.1781 50.5394 35.2606 50.7209C35.3266 50.8694 35.4421 50.9354 35.6236 50.9354H35.6896V51.1664H35.6566L35.6896 51.1334ZM34.0396 51.0839C34.3201 51.0839 34.6006 51.0674 34.8811 51.0674C35.1616 51.0674 35.4091 51.0674 35.6566 51.0839V50.9684C35.4586 50.9684 35.3266 50.8859 35.2441 50.7209C35.1616 50.5394 35.0956 50.3249 35.0296 50.1269L33.9571 47.0909C33.9571 47.0909 33.9241 46.9919 33.9076 46.9589C33.9076 46.9589 33.8911 46.9589 33.8746 46.9589C33.7591 47.0249 33.5281 47.1404 33.3631 47.1899C33.3301 47.4044 33.2311 47.7014 33.1486 47.9159L32.2246 50.5724C32.1421 50.8199 31.9276 50.9684 31.6966 50.9684V51.0839C31.8946 51.0839 32.0926 51.0674 32.2906 51.0674C32.5216 51.0674 32.7361 51.0674 32.9671 51.0839V50.9684H32.9341C32.7526 50.9684 32.4886 50.9519 32.4721 50.7374C32.4721 50.6219 32.5381 50.4734 32.6041 50.2754L32.8021 49.6484H34.1551L34.3861 50.3414C34.4521 50.5229 34.5016 50.6879 34.5016 50.7704C34.5016 50.9519 34.2541 50.9684 34.1221 50.9684H34.0891V51.0839H34.0396ZM32.8516 49.3844L33.4126 47.6849H33.4456H33.4621L34.0066 49.3844H32.8516ZM32.9176 49.3349H33.9406L33.4291 47.7839L32.9176 49.3349Z" fill="#211E1F"/>
<path d="M35.9535 47.355C35.5245 47.355 35.508 47.454 35.409 47.883H35.2275C35.244 47.718 35.277 47.553 35.2935 47.388C35.31 47.223 35.3265 47.058 35.3265 46.893H35.4585C35.508 47.0745 35.6565 47.058 35.805 47.058H38.7915C38.94 47.058 39.0885 47.058 39.105 46.8765H39.237C39.2205 47.058 39.1875 47.2065 39.171 47.3715C39.171 47.52 39.171 47.685 39.171 47.8335L38.9895 47.8995C38.9895 47.685 38.9565 47.3385 38.5605 47.3385H37.6035V50.424C37.6035 50.8695 37.8015 50.919 38.082 50.919H38.1975V51.1005C37.9665 51.1005 37.5705 51.084 37.257 51.084C36.9105 51.084 36.498 51.1005 36.2835 51.1005V50.919H36.399C36.7125 50.919 36.8775 50.886 36.8775 50.4405V47.3385H35.9205L35.9535 47.355Z" fill="#211E1F"/>
<path d="M38.2305 51.1334C37.9995 51.1334 37.6035 51.1169 37.29 51.1169C36.9435 51.1169 36.531 51.1334 36.3165 51.1334H36.2835V50.9024H36.4155C36.729 50.9024 36.861 50.9024 36.8775 50.4404V47.3714H35.9535V47.3219H36.927V50.4404C36.927 50.9024 36.7455 50.9519 36.4155 50.9519H36.333V51.0839C36.564 51.0839 36.96 51.0674 37.29 51.0674C37.587 51.0674 37.983 51.0839 38.214 51.0839V50.9519H38.1315C37.851 50.9519 37.62 50.8859 37.62 50.4239V47.3054H38.5935C38.9895 47.3054 39.039 47.6354 39.039 47.8499L39.171 47.8004C39.171 47.6519 39.171 47.5034 39.171 47.3384C39.171 47.1899 39.204 47.0414 39.237 46.8929H39.1545C39.1215 47.0414 38.9565 47.0579 38.8245 47.0579H35.805C35.673 47.0579 35.5245 47.0579 35.475 46.8929H35.376C35.376 47.0579 35.376 47.2064 35.343 47.3714C35.343 47.5364 35.2935 47.6849 35.277 47.8334H35.409C35.4915 47.4374 35.541 47.3054 35.97 47.3054V47.3549C35.541 47.3549 35.5575 47.4374 35.4585 47.8664L35.442 47.8829H35.244V47.8499C35.277 47.6849 35.2935 47.5199 35.31 47.3549C35.3265 47.1899 35.343 47.0249 35.343 46.8599V46.8269H35.5245C35.5575 46.9919 35.673 46.9919 35.8215 46.9919H35.8545H38.841C39.006 46.9919 39.1215 46.9919 39.1215 46.8269V46.7939H39.1545L39.3195 46.8269V46.8599C39.2865 47.0084 39.27 47.1734 39.2535 47.3219C39.2535 47.4704 39.2535 47.6354 39.2535 47.7839V47.8004L39.0555 47.8829V47.8499C39.0555 47.6354 39.0225 47.3219 38.643 47.3219H37.719V50.3744C37.719 50.8199 37.9005 50.8364 38.181 50.8529H38.313V51.0839H38.28L38.2305 51.1334Z" fill="#211E1F"/>
<path d="M39.4845 50.9355H39.567C39.7815 50.9355 39.996 50.9025 39.996 50.6055V47.5695C39.996 47.2725 39.7815 47.2395 39.567 47.2395H39.4845V47.058C39.7155 47.058 40.062 47.0745 40.3425 47.0745C40.623 47.0745 40.986 47.058 41.25 47.058V47.2395H41.1675C40.953 47.2395 40.7385 47.2725 40.7385 47.5695V50.6055C40.7385 50.9025 40.953 50.9355 41.1675 50.9355H41.25V51.117C40.9695 51.117 40.623 51.1005 40.326 51.1005C40.029 51.1005 39.699 51.117 39.468 51.117V50.9355H39.4845Z" fill="#211E1F"/>
<path d="M41.2501 51.1335C40.9696 51.1335 40.6231 51.117 40.3261 51.117C40.0291 51.117 39.6991 51.1335 39.4681 51.1335H39.4351V50.9025H39.5341C39.7486 50.9025 39.9301 50.886 39.9301 50.6055V47.5695C39.9301 47.289 39.7321 47.2725 39.5341 47.256H39.4351V47.025H39.4681C39.6991 47.025 40.0456 47.0415 40.3261 47.0415C40.6066 47.0415 40.9696 47.025 41.2336 47.025H41.2501V47.256H41.1511C40.9366 47.256 40.7551 47.2725 40.7386 47.5695V50.6055C40.7386 50.886 40.9366 50.9025 41.1511 50.9025H41.2501V51.1335ZM41.2171 51.084V50.9685H41.1676C40.9531 50.9685 40.7056 50.9355 40.7056 50.6055V47.5695C40.7056 47.256 40.9531 47.2065 41.1676 47.2065H41.2171V47.091C40.9531 47.091 40.6066 47.1075 40.3261 47.1075C40.0456 47.1075 39.7156 47.091 39.5011 47.091V47.2065H39.5506C39.7486 47.2065 39.9961 47.2395 40.0126 47.5695V50.6055C40.0126 50.919 39.7651 50.9685 39.5506 50.9685H39.5011V51.084C39.7321 51.084 40.0456 51.0675 40.3261 51.0675C40.6066 51.0675 40.9366 51.084 41.2171 51.084Z" fill="#211E1F"/>
<path d="M43.5765 46.9755C44.814 46.9755 45.804 47.7345 45.804 48.972C45.804 50.3085 44.847 51.1995 43.6095 51.1995C42.372 51.1995 41.448 50.358 41.448 49.1205C41.448 47.883 42.3885 46.9755 43.593 46.9755H43.5765ZM43.659 50.9355C44.781 50.9355 44.979 49.9455 44.979 49.104C44.979 48.2625 44.517 47.223 43.56 47.223C42.537 47.223 42.24 48.1305 42.24 48.906C42.24 49.9455 42.7185 50.9355 43.659 50.9355Z" fill="#211E1F"/>
<path d="M41.3986 49.104C41.3986 47.883 42.3391 46.9425 43.5601 46.9425V46.9755C42.3721 46.992 41.4481 47.916 41.4481 49.1205C41.4481 50.358 42.3721 51.183 43.5931 51.183C44.8141 51.183 45.7546 50.3085 45.7546 48.9885C45.7546 47.7675 44.7811 47.0085 43.5601 47.0085V46.959C44.7976 46.959 45.8041 47.7345 45.8041 48.9885C45.8041 50.3415 44.8306 51.2325 43.5931 51.2325C42.3556 51.2325 41.3986 50.391 41.3986 49.1205V49.104ZM42.2071 48.906C42.2071 48.1305 42.5206 47.2065 43.5436 47.2065C44.5336 47.2065 44.9956 48.2625 44.9956 49.104C44.9956 49.9455 44.7976 50.9685 43.6426 50.9685V50.919C44.7481 50.919 44.9296 49.9455 44.9461 49.104C44.9461 48.2625 44.5006 47.256 43.5436 47.256C42.5536 47.256 42.2566 48.147 42.2566 48.906C42.2566 49.9455 42.7351 50.9025 43.6426 50.919V50.952C42.6856 50.9685 42.2071 49.962 42.2071 48.9225V48.906Z" fill="#211E1F"/>
<path d="M49.6981 49.962V47.784C49.6981 47.3055 49.3681 47.2395 49.1866 47.2395H49.0546V47.058C49.3186 47.058 49.5991 47.0745 49.8631 47.0745C50.0941 47.0745 50.3416 47.058 50.5726 47.058V47.2395H50.4901C50.2426 47.2395 49.9786 47.289 49.9786 47.982V50.622C49.9786 50.82 49.9786 51.0345 50.0116 51.1995H49.7971L46.8106 47.8665V50.259C46.8106 50.7705 46.9096 50.9355 47.3551 50.9355H47.4541V51.117C47.2066 51.117 46.9591 51.1005 46.7116 51.1005C46.4641 51.1005 46.1836 51.117 45.9196 51.117V50.9355H46.0021C46.3981 50.9355 46.5301 50.6715 46.5301 50.193V47.751C46.5301 47.421 46.2661 47.223 46.0021 47.223H45.9196V47.0415C46.1341 47.0415 46.3651 47.058 46.5796 47.058C46.7611 47.058 46.9261 47.0415 47.0911 47.0415L49.6651 49.9455L49.6981 49.962Z" fill="#211E1F"/>
<path d="M50.028 51.216H49.7805L46.8435 47.9325V50.259C46.8435 50.7705 46.926 50.9025 47.355 50.919H47.487V51.15H47.454C47.2065 51.15 46.959 51.1335 46.7115 51.1335C46.4475 51.1335 46.1835 51.15 45.9195 51.15H45.903V50.919H46.002C46.3815 50.919 46.497 50.6715 46.497 50.2095V47.7675C46.497 47.454 46.2495 47.2725 46.002 47.2725H45.903V47.0415H45.9195C46.134 47.0415 46.365 47.058 46.5795 47.058C46.7445 47.058 46.926 47.0415 47.1075 47.058L49.6485 49.929V47.8005C49.6485 47.3385 49.335 47.289 49.17 47.2725H49.0215V47.0415H49.0545C49.335 47.0415 49.599 47.058 49.863 47.058C50.094 47.058 50.3415 47.0415 50.5725 47.0415H50.6055V47.2725H50.49C50.259 47.2725 50.0115 47.3055 49.995 47.982V50.622C49.995 50.82 49.995 51.0345 50.028 51.1995V51.2325H50.0115L50.028 51.216ZM49.8135 51.1665H49.995C49.962 50.985 49.962 50.8035 49.962 50.6055V47.9655C49.962 47.2725 50.259 47.2065 50.5065 47.2065H50.5725V47.091C50.3415 47.091 50.1105 47.1075 49.8795 47.1075C49.6155 47.1075 49.3515 47.091 49.0875 47.091V47.2065H49.1865C49.368 47.2065 49.7145 47.289 49.7145 47.784V49.9785H49.698H49.6815L47.1075 47.0745C46.9425 47.0745 46.761 47.091 46.596 47.091C46.3815 47.091 46.167 47.0745 45.9525 47.0745V47.19H46.002C46.266 47.19 46.5465 47.4045 46.5465 47.7345V50.1765C46.5465 50.6385 46.4145 50.9355 46.002 50.9355H45.9525V51.051C46.2 51.051 46.464 51.0345 46.7115 51.0345C46.959 51.0345 47.19 51.051 47.4375 51.051V50.9355H47.355C46.893 50.9355 46.794 50.7375 46.794 50.226V47.7675L49.8135 51.1335V51.1665Z" fill="#211E1F"/>
<path d="M51.5295 50.2754C51.48 50.4734 51.3975 50.6219 51.3975 50.7209C51.3975 50.9024 51.645 50.9189 51.8265 50.9189H51.8925V51.1004C51.6615 51.1004 51.4305 51.0839 51.183 51.0839C50.9685 51.0839 50.7705 51.0839 50.556 51.1004V50.9189H50.589C50.82 50.9189 51.0015 50.7869 51.1005 50.5394L52.0245 47.8829C52.107 47.6684 52.206 47.3714 52.239 47.1569C52.4205 47.0909 52.6515 46.9754 52.767 46.9094C52.767 46.9094 52.8 46.9094 52.8165 46.9094C52.833 46.9094 52.8495 46.9094 52.8495 46.9259C52.866 46.9754 52.8825 47.0249 52.899 47.0744L53.9715 50.1104C54.0375 50.3084 54.1035 50.5229 54.186 50.7044C54.252 50.8694 54.384 50.9354 54.5655 50.9354H54.5985V51.1169C54.3345 51.1169 54.0705 51.1004 53.79 51.1004C53.5095 51.1004 53.2125 51.1004 52.9155 51.1169V50.9354H52.9815C53.1135 50.9354 53.3445 50.9189 53.3445 50.7704C53.3445 50.6879 53.295 50.5394 53.229 50.3579L52.998 49.6814H51.678L51.4965 50.2919L51.5295 50.2754ZM52.371 47.7014L51.8265 49.3349H52.9155L52.3875 47.7014H52.371Z" fill="#211E1F"/>
<path d="M54.6314 51.1335C54.3674 51.1335 54.1034 51.117 53.8394 51.117C53.5754 51.117 53.2619 51.117 52.9649 51.1335H52.9319V51.1005V50.9025H53.0144C53.1464 50.9025 53.3444 50.8695 53.3444 50.754C53.3444 50.688 53.2949 50.523 53.2289 50.3415L53.0144 49.6815H51.7274L51.5459 50.2755C51.4799 50.4735 51.4139 50.622 51.4139 50.721C51.4139 50.8695 51.6284 50.9025 51.8264 50.9025H51.9089V51.1335H51.8759C51.6449 51.1335 51.4139 51.1005 51.1829 51.1005C50.9684 51.1005 50.7704 51.1005 50.5559 51.117H50.5229V51.084V50.886H50.5889C50.8034 50.886 50.9849 50.754 51.0674 50.523L51.9914 47.8665C52.0574 47.652 52.1729 47.355 52.2224 47.124C52.4039 47.058 52.6349 46.9425 52.7504 46.8765C52.7504 46.8765 52.7834 46.8765 52.7999 46.8765C52.7999 46.8765 52.8494 46.8765 52.8659 46.9095C52.8824 46.959 52.8989 47.0085 52.9154 47.058L53.9879 50.094C54.0539 50.292 54.1199 50.5065 54.2024 50.688C54.2684 50.8365 54.3839 50.9025 54.5654 50.9025H54.6314V51.1335ZM52.9814 51.084C53.2619 51.084 53.5424 51.0675 53.8229 51.0675C54.1034 51.0675 54.3509 51.0675 54.5984 51.084V50.9685C54.4004 50.9685 54.2684 50.886 54.1859 50.721C54.1034 50.5395 54.0374 50.325 53.9714 50.127L52.8989 47.091C52.8989 47.091 52.8659 46.992 52.8494 46.959C52.8494 46.959 52.8329 46.959 52.8164 46.959C52.7009 47.025 52.4699 47.1405 52.3049 47.19C52.2719 47.4045 52.1564 47.7015 52.0904 47.916L51.1664 50.5725C51.0839 50.82 50.8694 50.9685 50.6384 50.9685V51.084C50.8364 51.084 51.0344 51.0675 51.2324 51.0675C51.4634 51.0675 51.6779 51.0675 51.9089 51.084V50.9685H51.8759C51.6944 50.9685 51.4304 50.952 51.4139 50.7375C51.4139 50.622 51.4799 50.4735 51.5459 50.2755L51.7439 49.6485H53.0969L53.3279 50.3415C53.3939 50.523 53.4434 50.688 53.4434 50.7705C53.4434 50.952 53.1959 50.9685 53.0639 50.9685H53.0309V51.084H52.9814ZM51.7934 49.3845L52.3544 47.7015H52.3874H52.4039L52.9484 49.3845H51.7934ZM51.8594 49.335H52.8659L52.3544 47.784L51.8429 49.335H51.8594Z" fill="#211E1F"/>
<path d="M56.0835 50.5395C56.0835 50.7705 56.2485 50.8365 56.43 50.8695C56.661 50.886 56.925 50.886 57.189 50.8695C57.4365 50.8365 57.6345 50.7045 57.75 50.556C57.849 50.424 57.8985 50.259 57.9315 50.1435H58.0965C58.0305 50.4735 57.948 50.8035 57.882 51.1335C57.3705 51.1335 56.859 51.117 56.3475 51.117C55.836 51.117 55.3245 51.1335 54.813 51.1335V50.952H54.8955C55.11 50.952 55.3245 50.919 55.3245 50.556V47.5695C55.3245 47.2725 55.0935 47.2395 54.8955 47.2395H54.813V47.058C55.1265 47.058 55.4235 47.0745 55.7205 47.0745C56.0175 47.0745 56.3145 47.058 56.595 47.058V47.2395H56.4465C56.232 47.2395 56.0505 47.2395 56.0505 47.553V50.5395H56.0835Z" fill="#211E1F"/>
<path d="M57.882 51.1335C57.3705 51.1335 56.859 51.117 56.3475 51.117C55.836 51.117 55.3245 51.1335 54.813 51.1335H54.7965V50.9025H54.8955C55.11 50.9025 55.308 50.886 55.308 50.5395V47.553C55.308 47.2725 55.11 47.256 54.8955 47.256H54.7965V47.025H54.813C55.1265 47.025 55.4235 47.0415 55.737 47.0415C56.0505 47.0415 56.3145 47.025 56.6115 47.025H56.628V47.256H56.463C56.232 47.256 56.1 47.256 56.1 47.5365V50.523C56.1 50.7375 56.2485 50.8035 56.43 50.82C56.529 50.82 56.6445 50.82 56.7435 50.82C56.892 50.82 57.0405 50.82 57.189 50.8035C57.42 50.7705 57.6345 50.6385 57.7335 50.5065C57.816 50.3745 57.882 50.226 57.915 50.094L57.9315 50.0775H58.1295V50.1105C58.0635 50.4405 57.981 50.7705 57.915 51.1005L57.8985 51.117L57.882 51.1335ZM57.8655 51.084C57.9315 50.7705 58.014 50.457 58.0635 50.1435H57.948C57.915 50.2755 57.8655 50.424 57.7665 50.556C57.651 50.7045 57.4365 50.853 57.189 50.886C57.0405 50.886 56.892 50.9025 56.7435 50.9025C56.628 50.9025 56.529 50.9025 56.4135 50.9025C56.232 50.886 56.034 50.8035 56.0505 50.556V47.5695C56.0505 47.2395 56.2485 47.223 56.463 47.223H56.5785V47.1075C56.298 47.1075 56.0175 47.124 55.7205 47.124C55.4235 47.124 55.1265 47.1075 54.8295 47.1075V47.223H54.879C55.0935 47.223 55.341 47.256 55.341 47.586V50.5725C55.341 50.952 55.0935 50.985 54.879 50.985H54.8295V51.1005C55.3245 51.1005 55.836 51.084 56.331 51.084C56.826 51.084 57.3375 51.1005 57.8325 51.1005L57.8655 51.084Z" fill="#211E1F"/>
<path d="M58.0305 46.8929C58.377 46.8929 58.641 47.1569 58.641 47.5034C58.641 47.8499 58.377 48.1139 58.0305 48.1139C57.684 48.1139 57.42 47.8499 57.42 47.5034C57.42 47.1569 57.684 46.8929 58.0305 46.8929ZM58.0305 47.9984C58.311 47.9984 58.509 47.7674 58.509 47.5034C58.509 47.2394 58.2945 47.0084 58.0305 47.0084C57.7665 47.0084 57.552 47.2394 57.552 47.5034C57.552 47.7674 57.7665 47.9984 58.0305 47.9984ZM57.7335 47.8169V47.7839C57.7335 47.7839 57.816 47.7839 57.816 47.7344V47.2889C57.816 47.2889 57.816 47.2064 57.7335 47.2064V47.1734H58.047C58.1625 47.1734 58.245 47.2229 58.245 47.3384C58.245 47.4374 58.179 47.5034 58.0965 47.5199L58.1955 47.6519C58.1955 47.6519 58.2945 47.7674 58.3275 47.8004L58.212 47.8169C58.1625 47.8169 58.113 47.7014 57.9975 47.5364H57.9315V47.7344C57.9315 47.7344 57.9315 47.7674 58.014 47.7839V47.8169H57.717H57.7335ZM57.9315 47.5034H57.9975C57.9975 47.5034 58.113 47.4374 58.113 47.3549C58.113 47.2724 58.0635 47.2229 57.9975 47.2229H57.9315V47.5034Z" fill="#211E1F"/>
<path d="M9.27296 38.478C9.27296 37.521 8.77796 37.587 8.29946 37.5705V37.29C8.71196 37.3065 9.14096 37.3065 9.55346 37.3065C9.99896 37.3065 10.6095 37.29 11.4015 37.29C14.157 37.29 15.6585 39.138 15.6585 41.019C15.6585 42.075 15.048 44.7315 11.2695 44.7315C10.725 44.7315 10.23 44.715 9.71846 44.715C9.20696 44.715 8.77796 44.715 8.28296 44.7315V44.451C8.92646 44.385 9.22346 44.3685 9.25646 43.6425V38.478H9.27296ZM10.3125 43.4775C10.3125 44.3025 10.9065 44.4015 11.418 44.4015C13.728 44.4015 14.4705 42.669 14.4705 41.0685C14.4705 39.072 13.1835 37.6365 11.1375 37.6365C10.692 37.6365 10.494 37.6695 10.3125 37.686V43.4775Z" fill="#211E1F"/>
<path d="M16.0215 44.4509H16.2195C16.5165 44.4509 16.731 44.4509 16.731 44.1044V41.2169C16.731 40.7549 16.566 40.6889 16.17 40.4744V40.3094C16.665 40.1609 17.2755 39.9629 17.3085 39.9299C17.391 39.8804 17.4405 39.8804 17.5065 39.8804C17.5725 39.8804 17.589 39.9464 17.589 40.0289V44.1209C17.589 44.4674 17.82 44.4674 18.117 44.4674H18.2985V44.7479C17.9355 44.7479 17.556 44.7314 17.1765 44.7314C16.797 44.7314 16.401 44.7314 16.0215 44.7479V44.4674V44.4509ZM17.16 38.2139C16.8795 38.2139 16.632 37.9664 16.632 37.6859C16.632 37.4054 16.8795 37.1744 17.16 37.1744C17.4405 37.1744 17.688 37.4054 17.688 37.6859C17.688 37.9664 17.457 38.2139 17.16 38.2139Z" fill="#211E1F"/>
<path d="M19.3215 41.283C19.3215 40.887 19.206 40.788 18.711 40.5735V40.3755C19.173 40.227 19.602 40.095 20.1135 39.864C20.1465 39.864 20.1795 39.8805 20.1795 39.963V40.656C20.79 40.227 21.318 39.864 22.0275 39.864C22.935 39.864 23.2485 40.524 23.2485 41.349V44.1045C23.2485 44.451 23.4795 44.451 23.7765 44.451H23.9745V44.7315C23.595 44.7315 23.232 44.715 22.8525 44.715C22.473 44.715 22.077 44.715 21.6975 44.7315V44.451H21.8955C22.1925 44.451 22.407 44.451 22.407 44.1045V41.349C22.407 40.7385 22.044 40.4415 21.4335 40.4415C21.087 40.4415 20.5425 40.722 20.196 40.953V44.1045C20.196 44.451 20.427 44.451 20.724 44.451H20.922V44.7315C20.5425 44.7315 20.1795 44.715 19.8 44.715C19.4205 44.715 19.0245 44.715 18.645 44.7315V44.451H18.843C19.14 44.451 19.3545 44.451 19.3545 44.1045V41.283H19.3215Z" fill="#211E1F"/>
<path d="M24.7665 41.7945C24.75 41.8935 24.75 42.042 24.7665 42.405C24.8325 43.4115 25.476 44.253 26.334 44.253C26.928 44.253 27.3735 43.9395 27.7695 43.5435L27.918 43.692C27.423 44.3355 26.8125 44.8965 25.9545 44.8965C24.255 44.8965 23.925 43.263 23.925 42.57C23.925 40.4745 25.3275 39.864 26.07 39.864C26.928 39.864 27.8686 40.4085 27.8686 41.5305C27.8686 41.5965 27.8686 41.6625 27.8686 41.7285L27.7695 41.7945H24.783H24.7665ZM26.6475 41.448C26.9115 41.448 26.9445 41.316 26.9445 41.184C26.9445 40.6395 26.6146 40.2105 26.0206 40.2105C25.377 40.2105 24.9315 40.689 24.7995 41.4645H26.6475V41.448Z" fill="#211E1F"/>
<path d="M28.116 44.451H28.3965C28.6935 44.451 28.908 44.451 28.908 44.1045V41.118C28.908 40.788 28.512 40.722 28.347 40.6395V40.4745C29.1225 40.1445 29.5515 39.864 29.6505 39.864C29.7165 39.864 29.7495 39.897 29.7495 39.996V40.953H29.766C30.03 40.5405 30.4755 39.8475 31.1355 39.8475C31.3995 39.8475 31.746 40.029 31.746 40.4085C31.746 40.689 31.548 40.953 31.251 40.953C30.921 40.953 30.921 40.689 30.5415 40.689C30.36 40.689 29.766 40.9365 29.766 41.58V44.088C29.766 44.4345 29.9805 44.4345 30.2775 44.4345H30.8715V44.715C30.2775 44.715 29.832 44.6985 29.3865 44.6985C28.941 44.6985 28.4955 44.6985 28.116 44.715V44.4345V44.451Z" fill="#211E1F"/>
<path d="M32.2245 43.2465C32.3565 43.956 32.7855 44.55 33.561 44.55C34.188 44.55 34.419 44.1705 34.419 43.791C34.419 42.537 32.0925 42.933 32.0925 41.217C32.0925 40.623 32.571 39.8475 33.7425 39.8475C34.089 39.8475 34.5345 39.9465 34.9635 40.161L35.046 41.25H34.7985C34.6995 40.5735 34.32 40.194 33.6435 40.194C33.2145 40.194 32.8185 40.4415 32.8185 40.9035C32.8185 42.1575 35.2935 41.7615 35.2935 43.4445C35.2935 44.154 34.7325 44.8965 33.462 44.8965C33.033 44.8965 32.538 44.748 32.1585 44.5335L32.043 43.3125L32.241 43.263L32.2245 43.2465Z" fill="#211E1F"/>
<path d="M44.8965 39.2205H44.6325C44.4345 37.9665 43.5435 37.4715 42.3555 37.4715C41.1675 37.4715 39.3525 38.2965 39.3525 40.854C39.3525 43.0155 40.887 44.55 42.5205 44.55C43.5765 44.55 44.451 43.824 44.6655 42.702L44.913 42.768L44.6655 44.319C44.22 44.5995 43.0155 44.88 42.306 44.88C39.8145 44.88 38.2305 43.263 38.2305 40.8705C38.2305 38.6925 40.1775 37.125 42.273 37.125C43.131 37.125 43.9725 37.4055 44.781 37.686L44.88 39.204L44.8965 39.2205Z" fill="#211E1F"/>
<path d="M45.2925 44.4509H45.4905C45.7875 44.4509 46.002 44.4509 46.002 44.1044V38.1644C46.002 37.4714 45.837 37.4549 45.441 37.3394V37.1744C45.87 37.0424 46.3155 36.8444 46.5465 36.7124C46.662 36.6464 46.7445 36.5969 46.7775 36.5969C46.8435 36.5969 46.86 36.6629 46.86 36.7454V44.1044C46.86 44.4509 47.091 44.4509 47.388 44.4509H47.5695V44.7314C47.2065 44.7314 46.8435 44.7149 46.4475 44.7149C46.0515 44.7149 45.6885 44.7149 45.2925 44.7314V44.4509Z" fill="#211E1F"/>
<path d="M52.1235 44.154C52.1235 44.352 52.239 44.352 52.4205 44.352C52.5525 44.352 52.701 44.352 52.8495 44.352V44.583C52.3875 44.6325 51.513 44.847 51.315 44.913L51.2655 44.88V44.022C50.622 44.55 50.1435 44.913 49.3845 44.913C48.807 44.913 48.213 44.5335 48.213 43.6425V40.92C48.213 40.6395 48.1635 40.3755 47.5695 40.326V40.128C47.949 40.128 48.807 40.0455 48.939 40.0455C49.0545 40.0455 49.0545 40.128 49.0545 40.359V43.1145C49.0545 43.428 49.0545 44.352 49.9785 44.352C50.3415 44.352 50.82 44.0715 51.2655 43.7085V40.8375C51.2655 40.623 50.754 40.5075 50.3745 40.4085V40.2105C51.3315 40.1445 51.9255 40.062 52.041 40.062C52.1235 40.062 52.1235 40.1445 52.1235 40.26V44.187V44.154Z" fill="#211E1F"/>
<path d="M54.252 40.6394C54.681 40.2764 55.2585 39.8639 55.836 39.8639C57.0735 39.8639 57.816 40.9364 57.816 42.1079C57.816 43.5104 56.793 44.8964 55.275 44.8964C54.483 44.8964 54.0705 44.6324 53.79 44.5169L53.4765 44.7644L53.2455 44.6489C53.3445 44.0219 53.394 43.3949 53.394 42.7514V38.1644C53.394 37.4714 53.229 37.4549 52.833 37.3394V37.1744C53.262 37.0424 53.7075 36.8444 53.9385 36.7124C54.054 36.6464 54.1365 36.5969 54.1695 36.5969C54.2355 36.5969 54.252 36.6629 54.252 36.7454V40.6394ZM54.252 43.5434C54.252 43.9559 54.6315 44.6324 55.341 44.6324C56.4795 44.6324 56.958 43.5104 56.958 42.5699C56.958 41.4149 56.0835 40.4579 55.2585 40.4579C54.8625 40.4579 54.5325 40.7219 54.252 40.9529V43.5434Z" fill="#211E1F"/>
<path d="M8.2665 50.9355H8.349C8.5635 50.9355 8.778 50.9025 8.778 50.6055V47.5695C8.778 47.2725 8.5635 47.2395 8.349 47.2395H8.2665V47.058C8.4975 47.058 8.844 47.0745 9.1245 47.0745C9.405 47.0745 9.768 47.058 10.032 47.058V47.2395H9.9495C9.735 47.2395 9.5205 47.2725 9.5205 47.5695V50.6055C9.5205 50.9025 9.735 50.9355 9.9495 50.9355H10.032V51.117C9.7515 51.117 9.405 51.1005 9.108 51.1005C8.811 51.1005 8.481 51.117 8.25 51.117V50.9355H8.2665Z" fill="#211E1F"/>
<path d="M10.0485 51.1335C9.76802 51.1335 9.42152 51.117 9.12452 51.117C8.82752 51.117 8.49752 51.1335 8.26652 51.1335H8.23352V50.9025H8.33252C8.54702 50.9025 8.72852 50.886 8.72852 50.6055V47.5695C8.72852 47.289 8.53052 47.2725 8.33252 47.256H8.23352V47.025H8.26652C8.49752 47.025 8.84402 47.0415 9.12452 47.0415C9.40502 47.0415 9.76802 47.025 10.032 47.025H10.065V47.256H9.96602C9.75152 47.256 9.57002 47.2725 9.57002 47.5695V50.6055C9.57002 50.886 9.76802 50.9025 9.96602 50.9025H10.065V51.1335H10.032H10.0485ZM10.0155 51.084V50.952H9.96602C9.75152 50.952 9.52052 50.919 9.50402 50.589V47.553C9.50402 47.2395 9.75152 47.19 9.96602 47.19H10.0155V47.0745C9.75152 47.0745 9.40502 47.091 9.12452 47.091C8.84402 47.091 8.51402 47.0745 8.29952 47.0745V47.19H8.34902C8.56352 47.19 8.81102 47.223 8.81102 47.553V50.589C8.81102 50.9025 8.56352 50.952 8.34902 50.952H8.29952V51.084C8.53052 51.084 8.84402 51.0675 9.12452 51.0675C9.40502 51.0675 9.73502 51.084 10.0155 51.084Z" fill="#211E1F"/>
<path d="M14.025 49.962V47.784C14.025 47.3055 13.695 47.2395 13.5135 47.2395H13.3815V47.058C13.662 47.058 13.926 47.0745 14.19 47.0745C14.421 47.0745 14.6685 47.058 14.8995 47.058V47.2395H14.817C14.5695 47.2395 14.3055 47.289 14.3055 47.982V50.622C14.3055 50.82 14.3055 51.0345 14.3385 51.1995H14.124L11.1375 47.8665V50.259C11.1375 50.7705 11.2365 50.9355 11.682 50.9355H11.781V51.117C11.5335 51.117 11.286 51.1005 11.0385 51.1005C10.791 51.1005 10.5105 51.117 10.2465 51.117V50.9355H10.329C10.725 50.9355 10.857 50.6715 10.857 50.193V47.751C10.857 47.421 10.593 47.223 10.329 47.223H10.2465V47.0415C10.461 47.0415 10.692 47.058 10.9065 47.058C11.088 47.058 11.253 47.0415 11.418 47.0415L13.992 49.9455L14.025 49.962Z" fill="#211E1F"/>
<path d="M14.355 51.216H14.124L11.187 47.9325V50.259C11.187 50.7705 11.2695 50.9025 11.715 50.919H11.847V51.15H11.814C11.5665 51.15 11.319 51.1335 11.0715 51.1335C10.8075 51.1335 10.5435 51.15 10.2795 51.15H10.2465V50.919H10.3455C10.725 50.919 10.8405 50.6715 10.8405 50.2095V47.7675C10.8405 47.454 10.593 47.2725 10.3455 47.2725H10.2465V47.0415H10.2795C10.494 47.0415 10.725 47.058 10.9395 47.058C11.1045 47.058 11.286 47.0415 11.4675 47.058L14.0085 49.929V47.8005C14.0085 47.3385 13.695 47.289 13.53 47.2725H13.3815V47.0415H13.4145C13.695 47.0415 13.959 47.058 14.223 47.058C14.454 47.058 14.7015 47.0415 14.9325 47.0415H14.9655V47.2725H14.85C14.619 47.2725 14.3715 47.3055 14.355 47.982V50.622C14.355 50.82 14.355 51.0345 14.388 51.1995V51.2325H14.3715L14.355 51.216ZM14.1405 51.1665H14.3385C14.3055 50.985 14.3055 50.8035 14.3055 50.6055V47.9655C14.3055 47.2725 14.6025 47.2065 14.85 47.2065H14.916V47.091C14.685 47.091 14.454 47.1075 14.223 47.1075C13.959 47.1075 13.695 47.091 13.431 47.091V47.2065H13.53C13.7115 47.2065 14.058 47.289 14.058 47.784V49.9785H14.0415H14.025L11.451 47.0745C11.286 47.0745 11.1045 47.091 10.9395 47.091C10.725 47.091 10.5105 47.0745 10.296 47.0745V47.19H10.3455C10.6095 47.19 10.89 47.4045 10.89 47.7345V50.1765C10.89 50.6385 10.758 50.9355 10.3455 50.9355H10.296V51.051C10.5435 51.051 10.8075 51.0345 11.055 51.0345C11.3025 51.0345 11.5335 51.051 11.781 51.051V50.9355H11.715C11.253 50.9355 11.1375 50.7375 11.1375 50.226V47.7675L14.1405 51.1335V51.1665Z" fill="#211E1F"/>
<path d="M15.8071 47.355C15.3781 47.355 15.3616 47.454 15.2626 47.883H15.0811C15.0976 47.718 15.1306 47.553 15.1471 47.388C15.1636 47.223 15.1801 47.058 15.1801 46.893H15.3121C15.3616 47.0745 15.5101 47.058 15.6586 47.058H18.6451C18.8101 47.058 18.9421 47.058 18.9586 46.8765H19.0906C19.0741 47.058 19.0411 47.2065 19.0246 47.3715C19.0246 47.52 19.0246 47.685 19.0246 47.8335L18.8431 47.8995C18.8431 47.685 18.8101 47.3385 18.4141 47.3385H17.4571V50.424C17.4571 50.8695 17.6551 50.919 17.9356 50.919H18.0511V51.1005C17.8201 51.1005 17.4241 51.084 17.1106 51.084C16.7641 51.084 16.3516 51.1005 16.1371 51.1005V50.919H16.2526C16.5661 50.919 16.7311 50.886 16.7311 50.4405V47.3385H15.7741L15.8071 47.355Z" fill="#211E1F"/>
<path d="M18.084 51.1334C17.853 51.1334 17.457 51.1169 17.1435 51.1169C16.797 51.1169 16.3845 51.1334 16.17 51.1334H16.1535V50.9024H16.2855C16.599 50.9024 16.731 50.9024 16.7475 50.4404V47.3714H15.8235V47.3219H16.797V50.4404C16.797 50.9024 16.6155 50.9519 16.2855 50.9519H16.203V51.0674C16.434 51.0674 16.83 51.0509 17.16 51.0509C17.457 51.0509 17.853 51.0674 18.084 51.0674V50.9519H18.0015C17.721 50.9519 17.49 50.8859 17.49 50.4239V47.3054H18.4635C18.8595 47.3054 18.909 47.6354 18.909 47.8499L19.041 47.8004C19.041 47.6519 19.041 47.5034 19.041 47.3384C19.0575 47.1899 19.074 47.0414 19.107 46.8929H19.0245C18.9915 47.0414 18.8265 47.0579 18.6945 47.0579H15.675C15.543 47.0579 15.3945 47.0579 15.345 46.8929H15.246C15.246 47.0579 15.246 47.2064 15.213 47.3714C15.1965 47.5364 15.1635 47.6849 15.147 47.8334H15.279C15.3615 47.4374 15.411 47.3054 15.84 47.3054V47.3549C15.411 47.3549 15.4275 47.4374 15.3285 47.8664L15.312 47.8829H15.114V47.8499C15.147 47.6849 15.1635 47.5199 15.18 47.3549C15.1965 47.1899 15.213 47.0414 15.213 46.8599V46.8269H15.3945C15.4275 46.9919 15.543 46.9919 15.6915 46.9919H18.711C18.876 46.9919 18.9915 46.9919 19.008 46.8434V46.8104H19.041L19.206 46.8434V46.8764C19.173 47.0249 19.1565 47.1899 19.14 47.3384C19.14 47.4869 19.14 47.6519 19.14 47.8004V47.8169L18.942 47.8994V47.8664C18.9255 47.6519 18.909 47.3384 18.5295 47.3384H17.6055V50.3909C17.6055 50.8364 17.787 50.8529 18.0675 50.8694H18.1995V51.1004H18.183L18.084 51.1334Z" fill="#211E1F"/>
<path d="M19.305 50.9355H19.3875C19.602 50.9355 19.8165 50.9025 19.8165 50.6055V47.5695C19.8165 47.2725 19.602 47.2395 19.3875 47.2395H19.305V47.058C19.6515 47.058 20.262 47.0745 20.7405 47.0745C21.219 47.0745 21.8295 47.058 22.2255 47.058C22.2255 47.3055 22.2255 47.685 22.2255 47.949L22.044 47.9985C22.011 47.619 21.945 47.322 21.3345 47.322H20.526V48.84H21.219C21.5655 48.84 21.648 48.642 21.681 48.3285H21.8625C21.8625 48.5595 21.846 48.774 21.846 49.005C21.846 49.236 21.846 49.4505 21.8625 49.665L21.681 49.698C21.648 49.3515 21.6315 49.1205 21.2355 49.1205H20.5425V50.4735C20.5425 50.853 20.8725 50.853 21.252 50.853C21.945 50.853 22.2585 50.8035 22.4235 50.1435L22.5885 50.1765C22.506 50.49 22.44 50.787 22.3905 51.1005C22.011 51.1005 21.351 51.084 20.823 51.084C20.295 51.084 19.6185 51.1005 19.272 51.1005V50.919L19.305 50.9355Z" fill="#211E1F"/>
<path d="M22.407 51.1335C22.0275 51.1335 21.3675 51.117 20.8395 51.117C20.3115 51.117 19.635 51.1335 19.305 51.1335H19.2885V50.9025H19.3875C19.602 50.9025 19.7835 50.886 19.7835 50.6055V47.5695C19.7835 47.289 19.5855 47.2725 19.3875 47.256H19.2885V47.025H19.305C19.6515 47.025 20.262 47.0415 20.7405 47.0415C21.219 47.0415 21.8295 47.025 22.2255 47.025H22.2585V47.058C22.2585 47.1405 22.2585 47.256 22.2585 47.355C22.2585 47.553 22.2585 47.7675 22.275 47.9325L22.2585 47.9655L22.0605 48.015V47.982C22.0275 47.6025 21.978 47.3385 21.384 47.322H20.6085V48.7905H21.2685C21.5985 48.7905 21.6645 48.609 21.6975 48.312L21.714 48.2955H21.912V48.3285C21.912 48.5595 21.8955 48.774 21.8955 49.005C21.8955 49.236 21.8955 49.4505 21.912 49.665L21.8955 49.698L21.6975 49.731V49.698C21.648 49.3515 21.648 49.1535 21.2685 49.1535H20.592V50.4735C20.592 50.82 20.889 50.82 21.2685 50.82C21.9615 50.82 22.242 50.787 22.4235 50.127L22.44 50.1105L22.6215 50.16C22.539 50.49 22.473 50.8035 22.4235 51.1005L22.407 51.117V51.1335ZM22.3905 51.084C22.44 50.787 22.506 50.49 22.572 50.2095L22.4565 50.1765C22.275 50.82 21.945 50.886 21.2685 50.886C20.9055 50.886 20.5425 50.886 20.5425 50.49V49.1205H21.2685C21.681 49.1205 21.714 49.368 21.747 49.698L21.879 49.665C21.879 49.4505 21.879 49.236 21.879 49.0215C21.879 48.807 21.879 48.5925 21.879 48.3615H21.747C21.714 48.6585 21.615 48.873 21.2685 48.873H20.559V47.3055H21.384C21.9945 47.3055 22.0935 47.619 22.11 47.982L22.242 47.949C22.242 47.784 22.2255 47.5695 22.2255 47.388C22.2255 47.289 22.2255 47.19 22.2255 47.1075C21.8295 47.1075 21.252 47.124 20.7735 47.124C20.295 47.124 19.7175 47.1075 19.3545 47.1075V47.223H19.404C19.6185 47.223 19.8495 47.256 19.866 47.586V50.622C19.866 50.9355 19.6185 50.985 19.404 50.985H19.3545V51.1005C19.6845 51.1005 20.361 51.084 20.8725 51.084C21.384 51.084 22.044 51.1005 22.407 51.1005L22.3905 51.084Z" fill="#211E1F"/>
<path d="M23.397 47.6685C23.397 47.2395 23.166 47.223 22.9845 47.223H22.8855V47.0415C23.067 47.0415 23.43 47.058 23.7765 47.058C24.123 47.058 24.4035 47.0415 24.717 47.0415C25.443 47.0415 26.103 47.2395 26.103 48.0645C26.103 48.5925 25.7565 48.906 25.2945 49.0875L26.2845 50.5725C26.4495 50.82 26.565 50.886 26.8455 50.919V51.1005C26.6475 51.1005 26.466 51.084 26.2845 51.084C26.103 51.084 25.9215 51.1005 25.74 51.1005C25.2945 50.5065 24.915 49.896 24.5355 49.2195H24.156V50.457C24.156 50.9025 24.3705 50.919 24.6345 50.919H24.7335V51.1005C24.4035 51.1005 24.0735 51.084 23.7435 51.084C23.463 51.084 23.199 51.1005 22.902 51.1005V50.919H23.001C23.2155 50.919 23.4135 50.82 23.4135 50.6055V47.652L23.397 47.6685ZM24.1395 49.0215H24.42C24.9975 49.0215 25.311 48.807 25.311 48.114C25.311 47.6025 24.981 47.2725 24.4695 47.2725C24.288 47.2725 24.222 47.289 24.1395 47.289V49.0215Z" fill="#211E1F"/>
<path d="M26.829 51.1335C26.631 51.1335 26.4495 51.117 26.2515 51.117C26.07 51.117 25.8885 51.1335 25.6905 51.117C25.245 50.5395 24.8655 49.9125 24.486 49.2525H24.1395V50.4735C24.1395 50.9025 24.321 50.9025 24.585 50.919H24.717V51.15H24.684C24.354 51.15 24.024 51.1335 23.694 51.1335C23.4135 51.1335 23.1495 51.15 22.8525 51.15H22.8195V50.919H22.9515C23.166 50.919 23.331 50.82 23.331 50.6385V47.685C23.331 47.2725 23.133 47.2725 22.9515 47.2725H22.8195V47.0415H22.8525C23.034 47.0415 23.397 47.058 23.7435 47.058C24.09 47.058 24.3705 47.0415 24.684 47.0415C25.41 47.0415 26.0865 47.2395 26.0865 48.081C26.0865 48.609 25.74 48.939 25.2945 49.1205L26.268 50.5725C26.433 50.82 26.532 50.8695 26.8125 50.9025H26.829V51.1335ZM24.123 49.203H24.519C24.8985 49.8795 25.278 50.5065 25.707 51.084C25.8885 51.084 26.07 51.0675 26.2515 51.0675C26.433 51.0675 26.6145 51.084 26.796 51.084V50.952C26.532 50.919 26.4 50.8365 26.235 50.589L25.2285 49.071H25.2615C25.707 48.873 26.0535 48.576 26.0535 48.0645C26.0535 47.256 25.4265 47.0745 24.7005 47.0745C24.387 47.0745 24.123 47.091 23.76 47.091C23.397 47.091 23.0835 47.0745 22.8855 47.0745V47.19H22.968C23.1495 47.19 23.397 47.223 23.397 47.652V50.6055C23.397 50.8365 23.1825 50.952 22.968 50.952H22.8855V51.0675C23.166 51.0675 23.43 51.051 23.694 51.051C24.024 51.051 24.3375 51.0675 24.6675 51.0675V50.952H24.585C24.321 50.952 24.09 50.919 24.09 50.457V49.1865H24.123V49.203ZM24.123 49.038H24.09V47.256H24.1065C24.1065 47.256 24.2715 47.2395 24.4365 47.2395C24.9645 47.2395 25.311 47.586 25.311 48.114C25.311 48.807 24.981 49.038 24.387 49.038H24.1065H24.123ZM24.4035 48.9885C24.981 48.9885 25.2615 48.7905 25.278 48.114C25.278 47.6025 24.9645 47.289 24.453 47.289C24.288 47.289 24.222 47.289 24.156 47.3055V48.9885H24.42H24.4035Z" fill="#211E1F"/>
<path d="M30.7725 49.962V47.784C30.7725 47.3055 30.4425 47.2395 30.261 47.2395H30.129V47.058C30.393 47.058 30.6735 47.0745 30.9375 47.0745C31.1685 47.0745 31.416 47.058 31.647 47.058V47.2395H31.5645C31.317 47.2395 31.053 47.289 31.053 47.982V50.622C31.053 50.82 31.053 51.0345 31.086 51.1995H30.8715L27.885 47.8665V50.259C27.885 50.7705 27.984 50.9355 28.4295 50.9355H28.5285V51.117C28.281 51.117 28.0335 51.1005 27.786 51.1005C27.522 51.1005 27.258 51.117 26.994 51.117V50.9355H27.0765C27.4725 50.9355 27.6045 50.6715 27.6045 50.193V47.751C27.6045 47.421 27.3405 47.223 27.0765 47.223H26.994V47.0415C27.2085 47.0415 27.4395 47.058 27.654 47.058C27.819 47.058 28.0005 47.0415 28.1655 47.0415L30.7395 49.9455L30.7725 49.962Z" fill="#211E1F"/>
<path d="M31.1025 51.216H30.8715L27.9345 47.9325V50.259C27.9345 50.7705 28.017 50.9025 28.4625 50.919H28.578V51.15H28.545C28.2975 51.15 28.05 51.1335 27.8025 51.1335C27.555 51.1335 27.2745 51.15 27.0105 51.15H26.9775V50.919H27.0765C27.456 50.919 27.5715 50.6715 27.5715 50.2095V47.7675C27.5715 47.454 27.324 47.2725 27.0765 47.2725H26.9775V47.0415H27.0105C27.225 47.0415 27.456 47.058 27.6705 47.058C27.8355 47.058 28.017 47.0415 28.1985 47.058L30.7395 49.929V47.8005C30.7395 47.3385 30.426 47.289 30.261 47.2725H30.1125V47.0415H30.1455C30.426 47.0415 30.69 47.058 30.954 47.058C31.185 47.058 31.4325 47.0415 31.6635 47.0415H31.6965V47.2725H31.581C31.35 47.2725 31.1025 47.3055 31.086 47.982V50.622C31.086 50.82 31.086 51.018 31.119 51.1995V51.2325H31.1025V51.216ZM30.888 51.1665H31.086C31.053 50.985 31.053 50.8035 31.053 50.6055V47.9655C31.053 47.2725 31.35 47.2065 31.5975 47.2065H31.6635V47.091C31.4325 47.091 31.2015 47.1075 30.9705 47.1075C30.7065 47.1075 30.4425 47.091 30.1785 47.091V47.2065H30.2775C30.459 47.2065 30.8055 47.289 30.8055 47.784V49.9785H30.789H30.7725L28.1985 47.0745C28.0335 47.0745 27.852 47.091 27.687 47.091C27.4725 47.091 27.258 47.0745 27.0435 47.0745V47.19H27.093C27.357 47.19 27.6375 47.4045 27.6375 47.7345V50.1765C27.6375 50.6385 27.5055 50.9355 27.093 50.9355H27.0435V51.051C27.291 51.051 27.555 51.0345 27.8025 51.0345C28.05 51.0345 28.281 51.051 28.5285 51.051V50.9355H28.4625C28.0005 50.9355 27.885 50.7375 27.885 50.226V47.7675L30.9045 51.1335L30.888 51.1665Z" fill="#211E1F"/>
<path d="M32.604 50.2754C32.538 50.4734 32.472 50.6219 32.472 50.7209C32.472 50.9024 32.7195 50.9189 32.901 50.9189H32.967V51.1004C32.736 51.1004 32.505 51.0839 32.2575 51.0839C32.043 51.0839 31.845 51.0839 31.6305 51.1004V50.9189H31.6635C31.8945 50.9189 32.076 50.7869 32.175 50.5394L33.099 47.8829C33.1815 47.6684 33.2805 47.3714 33.3135 47.1569C33.495 47.0909 33.726 46.9754 33.8415 46.9094C33.858 46.9094 33.8745 46.9094 33.891 46.9094C33.9075 46.9094 33.924 46.9094 33.9405 46.9259C33.957 46.9754 33.9735 47.0249 33.99 47.0744L35.0625 50.1104C35.1285 50.3084 35.1945 50.5229 35.277 50.7044C35.343 50.8694 35.475 50.9354 35.6565 50.9354H35.6895V51.1169C35.4255 51.1169 35.1615 51.1004 34.8975 51.1004C34.6335 51.1004 34.32 51.1004 34.023 51.1169V50.9354H34.089C34.221 50.9354 34.452 50.9189 34.452 50.7704C34.452 50.6879 34.4025 50.5394 34.3365 50.3579L34.1055 49.6814H32.7855L32.604 50.2919V50.2754ZM33.4455 47.7014L32.901 49.3349H33.99L33.462 47.7014H33.4455Z" fill="#211E1F"/>
<path d="M35.6896 51.1334C35.4256 51.1334 35.1616 51.1169 34.8976 51.1169C34.6336 51.1169 34.3201 51.1169 34.0231 51.1334H33.9901V51.1169V50.9189H34.0726C34.2046 50.9189 34.4026 50.8859 34.4026 50.7704C34.4026 50.7044 34.3531 50.5394 34.2871 50.3579L34.0726 49.6979H32.7856L32.6041 50.2919C32.5381 50.4899 32.4721 50.6384 32.4721 50.7374C32.4721 50.8859 32.6866 50.9189 32.8846 50.9189H32.9671V51.1499H32.9341C32.7031 51.1499 32.4721 51.1169 32.2411 51.1169C32.0266 51.1169 31.8286 51.1169 31.6141 51.1334H31.5811V51.1169V50.9189H31.6471C31.8616 50.9189 32.0431 50.8034 32.1256 50.5559L33.0496 47.8994C33.1321 47.6849 33.2311 47.3879 33.2806 47.1569C33.4621 47.0909 33.6931 46.9754 33.8086 46.9094C33.8086 46.9094 33.8416 46.9094 33.8581 46.9094C33.8581 46.9094 33.9076 46.9094 33.9241 46.9424C33.9241 46.9919 33.9571 47.0414 33.9736 47.0909L35.0461 50.1269C35.1121 50.3249 35.1781 50.5394 35.2606 50.7209C35.3266 50.8694 35.4421 50.9354 35.6236 50.9354H35.6896V51.1664H35.6566L35.6896 51.1334ZM34.0396 51.0839C34.3201 51.0839 34.6006 51.0674 34.8811 51.0674C35.1616 51.0674 35.4091 51.0674 35.6566 51.0839V50.9684C35.4586 50.9684 35.3266 50.8859 35.2441 50.7209C35.1616 50.5394 35.0956 50.3249 35.0296 50.1269L33.9571 47.0909C33.9571 47.0909 33.9241 46.9919 33.9076 46.9589C33.9076 46.9589 33.8911 46.9589 33.8746 46.9589C33.7591 47.0249 33.5281 47.1404 33.3631 47.1899C33.3301 47.4044 33.2311 47.7014 33.1486 47.9159L32.2246 50.5724C32.1421 50.8199 31.9276 50.9684 31.6966 50.9684V51.0839C31.8946 51.0839 32.0926 51.0674 32.2906 51.0674C32.5216 51.0674 32.7361 51.0674 32.9671 51.0839V50.9684H32.9341C32.7526 50.9684 32.4886 50.9519 32.4721 50.7374C32.4721 50.6219 32.5381 50.4734 32.6041 50.2754L32.8021 49.6484H34.1551L34.3861 50.3414C34.4521 50.5229 34.5016 50.6879 34.5016 50.7704C34.5016 50.9519 34.2541 50.9684 34.1221 50.9684H34.0891V51.0839H34.0396ZM32.8516 49.3844L33.4126 47.6849H33.4456H33.4621L34.0066 49.3844H32.8516ZM32.9176 49.3349H33.9406L33.4291 47.7839L32.9176 49.3349Z" fill="#211E1F"/>
<path d="M35.9535 47.355C35.5245 47.355 35.508 47.454 35.409 47.883H35.2275C35.244 47.718 35.277 47.553 35.2935 47.388C35.31 47.223 35.3265 47.058 35.3265 46.893H35.4585C35.508 47.0745 35.6565 47.058 35.805 47.058H38.7915C38.94 47.058 39.0885 47.058 39.105 46.8765H39.237C39.2205 47.058 39.1875 47.2065 39.171 47.3715C39.171 47.52 39.171 47.685 39.171 47.8335L38.9895 47.8995C38.9895 47.685 38.9565 47.3385 38.5605 47.3385H37.6035V50.424C37.6035 50.8695 37.8015 50.919 38.082 50.919H38.1975V51.1005C37.9665 51.1005 37.5705 51.084 37.257 51.084C36.9105 51.084 36.498 51.1005 36.2835 51.1005V50.919H36.399C36.7125 50.919 36.8775 50.886 36.8775 50.4405V47.3385H35.9205L35.9535 47.355Z" fill="#211E1F"/>
<path d="M38.2305 51.1334C37.9995 51.1334 37.6035 51.1169 37.29 51.1169C36.9435 51.1169 36.531 51.1334 36.3165 51.1334H36.2835V50.9024H36.4155C36.729 50.9024 36.861 50.9024 36.8775 50.4404V47.3714H35.9535V47.3219H36.927V50.4404C36.927 50.9024 36.7455 50.9519 36.4155 50.9519H36.333V51.0839C36.564 51.0839 36.96 51.0674 37.29 51.0674C37.587 51.0674 37.983 51.0839 38.214 51.0839V50.9519H38.1315C37.851 50.9519 37.62 50.8859 37.62 50.4239V47.3054H38.5935C38.9895 47.3054 39.039 47.6354 39.039 47.8499L39.171 47.8004C39.171 47.6519 39.171 47.5034 39.171 47.3384C39.171 47.1899 39.204 47.0414 39.237 46.8929H39.1545C39.1215 47.0414 38.9565 47.0579 38.8245 47.0579H35.805C35.673 47.0579 35.5245 47.0579 35.475 46.8929H35.376C35.376 47.0579 35.376 47.2064 35.343 47.3714C35.343 47.5364 35.2935 47.6849 35.277 47.8334H35.409C35.4915 47.4374 35.541 47.3054 35.97 47.3054V47.3549C35.541 47.3549 35.5575 47.4374 35.4585 47.8664L35.442 47.8829H35.244V47.8499C35.277 47.6849 35.2935 47.5199 35.31 47.3549C35.3265 47.1899 35.343 47.0249 35.343 46.8599V46.8269H35.5245C35.5575 46.9919 35.673 46.9919 35.8215 46.9919H35.8545H38.841C39.006 46.9919 39.1215 46.9919 39.1215 46.8269V46.7939H39.1545L39.3195 46.8269V46.8599C39.2865 47.0084 39.27 47.1734 39.2535 47.3219C39.2535 47.4704 39.2535 47.6354 39.2535 47.7839V47.8004L39.0555 47.8829V47.8499C39.0555 47.6354 39.0225 47.3219 38.643 47.3219H37.719V50.3744C37.719 50.8199 37.9005 50.8364 38.181 50.8529H38.313V51.0839H38.28L38.2305 51.1334Z" fill="#211E1F"/>
<path d="M39.4845 50.9355H39.567C39.7815 50.9355 39.996 50.9025 39.996 50.6055V47.5695C39.996 47.2725 39.7815 47.2395 39.567 47.2395H39.4845V47.058C39.7155 47.058 40.062 47.0745 40.3425 47.0745C40.623 47.0745 40.986 47.058 41.25 47.058V47.2395H41.1675C40.953 47.2395 40.7385 47.2725 40.7385 47.5695V50.6055C40.7385 50.9025 40.953 50.9355 41.1675 50.9355H41.25V51.117C40.9695 51.117 40.623 51.1005 40.326 51.1005C40.029 51.1005 39.699 51.117 39.468 51.117V50.9355H39.4845Z" fill="#211E1F"/>
<path d="M41.2501 51.1335C40.9696 51.1335 40.6231 51.117 40.3261 51.117C40.0291 51.117 39.6991 51.1335 39.4681 51.1335H39.4351V50.9025H39.5341C39.7486 50.9025 39.9301 50.886 39.9301 50.6055V47.5695C39.9301 47.289 39.7321 47.2725 39.5341 47.256H39.4351V47.025H39.4681C39.6991 47.025 40.0456 47.0415 40.3261 47.0415C40.6066 47.0415 40.9696 47.025 41.2336 47.025H41.2501V47.256H41.1511C40.9366 47.256 40.7551 47.2725 40.7386 47.5695V50.6055C40.7386 50.886 40.9366 50.9025 41.1511 50.9025H41.2501V51.1335ZM41.2171 51.084V50.9685H41.1676C40.9531 50.9685 40.7056 50.9355 40.7056 50.6055V47.5695C40.7056 47.256 40.9531 47.2065 41.1676 47.2065H41.2171V47.091C40.9531 47.091 40.6066 47.1075 40.3261 47.1075C40.0456 47.1075 39.7156 47.091 39.5011 47.091V47.2065H39.5506C39.7486 47.2065 39.9961 47.2395 40.0126 47.5695V50.6055C40.0126 50.919 39.7651 50.9685 39.5506 50.9685H39.5011V51.084C39.7321 51.084 40.0456 51.0675 40.3261 51.0675C40.6066 51.0675 40.9366 51.084 41.2171 51.084Z" fill="#211E1F"/>
<path d="M43.5765 46.9755C44.814 46.9755 45.804 47.7345 45.804 48.972C45.804 50.3085 44.847 51.1995 43.6095 51.1995C42.372 51.1995 41.448 50.358 41.448 49.1205C41.448 47.883 42.3885 46.9755 43.593 46.9755H43.5765ZM43.659 50.9355C44.781 50.9355 44.979 49.9455 44.979 49.104C44.979 48.2625 44.517 47.223 43.56 47.223C42.537 47.223 42.24 48.1305 42.24 48.906C42.24 49.9455 42.7185 50.9355 43.659 50.9355Z" fill="#211E1F"/>
<path d="M41.3986 49.104C41.3986 47.883 42.3391 46.9425 43.5601 46.9425V46.9755C42.3721 46.992 41.4481 47.916 41.4481 49.1205C41.4481 50.358 42.3721 51.183 43.5931 51.183C44.8141 51.183 45.7546 50.3085 45.7546 48.9885C45.7546 47.7675 44.7811 47.0085 43.5601 47.0085V46.959C44.7976 46.959 45.8041 47.7345 45.8041 48.9885C45.8041 50.3415 44.8306 51.2325 43.5931 51.2325C42.3556 51.2325 41.3986 50.391 41.3986 49.1205V49.104ZM42.2071 48.906C42.2071 48.1305 42.5206 47.2065 43.5436 47.2065C44.5336 47.2065 44.9956 48.2625 44.9956 49.104C44.9956 49.9455 44.7976 50.9685 43.6426 50.9685V50.919C44.7481 50.919 44.9296 49.9455 44.9461 49.104C44.9461 48.2625 44.5006 47.256 43.5436 47.256C42.5536 47.256 42.2566 48.147 42.2566 48.906C42.2566 49.9455 42.7351 50.9025 43.6426 50.919V50.952C42.6856 50.9685 42.2071 49.962 42.2071 48.9225V48.906Z" fill="#211E1F"/>
<path d="M49.6981 49.962V47.784C49.6981 47.3055 49.3681 47.2395 49.1866 47.2395H49.0546V47.058C49.3186 47.058 49.5991 47.0745 49.8631 47.0745C50.0941 47.0745 50.3416 47.058 50.5726 47.058V47.2395H50.4901C50.2426 47.2395 49.9786 47.289 49.9786 47.982V50.622C49.9786 50.82 49.9786 51.0345 50.0116 51.1995H49.7971L46.8106 47.8665V50.259C46.8106 50.7705 46.9096 50.9355 47.3551 50.9355H47.4541V51.117C47.2066 51.117 46.9591 51.1005 46.7116 51.1005C46.4641 51.1005 46.1836 51.117 45.9196 51.117V50.9355H46.0021C46.3981 50.9355 46.5301 50.6715 46.5301 50.193V47.751C46.5301 47.421 46.2661 47.223 46.0021 47.223H45.9196V47.0415C46.1341 47.0415 46.3651 47.058 46.5796 47.058C46.7611 47.058 46.9261 47.0415 47.0911 47.0415L49.6651 49.9455L49.6981 49.962Z" fill="#211E1F"/>
<path d="M50.028 51.216H49.7805L46.8435 47.9325V50.259C46.8435 50.7705 46.926 50.9025 47.355 50.919H47.487V51.15H47.454C47.2065 51.15 46.959 51.1335 46.7115 51.1335C46.4475 51.1335 46.1835 51.15 45.9195 51.15H45.903V50.919H46.002C46.3815 50.919 46.497 50.6715 46.497 50.2095V47.7675C46.497 47.454 46.2495 47.2725 46.002 47.2725H45.903V47.0415H45.9195C46.134 47.0415 46.365 47.058 46.5795 47.058C46.7445 47.058 46.926 47.0415 47.1075 47.058L49.6485 49.929V47.8005C49.6485 47.3385 49.335 47.289 49.17 47.2725H49.0215V47.0415H49.0545C49.335 47.0415 49.599 47.058 49.863 47.058C50.094 47.058 50.3415 47.0415 50.5725 47.0415H50.6055V47.2725H50.49C50.259 47.2725 50.0115 47.3055 49.995 47.982V50.622C49.995 50.82 49.995 51.0345 50.028 51.1995V51.2325H50.0115L50.028 51.216ZM49.8135 51.1665H49.995C49.962 50.985 49.962 50.8035 49.962 50.6055V47.9655C49.962 47.2725 50.259 47.2065 50.5065 47.2065H50.5725V47.091C50.3415 47.091 50.1105 47.1075 49.8795 47.1075C49.6155 47.1075 49.3515 47.091 49.0875 47.091V47.2065H49.1865C49.368 47.2065 49.7145 47.289 49.7145 47.784V49.9785H49.698H49.6815L47.1075 47.0745C46.9425 47.0745 46.761 47.091 46.596 47.091C46.3815 47.091 46.167 47.0745 45.9525 47.0745V47.19H46.002C46.266 47.19 46.5465 47.4045 46.5465 47.7345V50.1765C46.5465 50.6385 46.4145 50.9355 46.002 50.9355H45.9525V51.051C46.2 51.051 46.464 51.0345 46.7115 51.0345C46.959 51.0345 47.19 51.051 47.4375 51.051V50.9355H47.355C46.893 50.9355 46.794 50.7375 46.794 50.226V47.7675L49.8135 51.1335V51.1665Z" fill="#211E1F"/>
<path d="M51.5295 50.2754C51.48 50.4734 51.3975 50.6219 51.3975 50.7209C51.3975 50.9024 51.645 50.9189 51.8265 50.9189H51.8925V51.1004C51.6615 51.1004 51.4305 51.0839 51.183 51.0839C50.9685 51.0839 50.7705 51.0839 50.556 51.1004V50.9189H50.589C50.82 50.9189 51.0015 50.7869 51.1005 50.5394L52.0245 47.8829C52.107 47.6684 52.206 47.3714 52.239 47.1569C52.4205 47.0909 52.6515 46.9754 52.767 46.9094C52.767 46.9094 52.8 46.9094 52.8165 46.9094C52.833 46.9094 52.8495 46.9094 52.8495 46.9259C52.866 46.9754 52.8825 47.0249 52.899 47.0744L53.9715 50.1104C54.0375 50.3084 54.1035 50.5229 54.186 50.7044C54.252 50.8694 54.384 50.9354 54.5655 50.9354H54.5985V51.1169C54.3345 51.1169 54.0705 51.1004 53.79 51.1004C53.5095 51.1004 53.2125 51.1004 52.9155 51.1169V50.9354H52.9815C53.1135 50.9354 53.3445 50.9189 53.3445 50.7704C53.3445 50.6879 53.295 50.5394 53.229 50.3579L52.998 49.6814H51.678L51.4965 50.2919L51.5295 50.2754ZM52.371 47.7014L51.8265 49.3349H52.9155L52.3875 47.7014H52.371Z" fill="#211E1F"/>
<path d="M54.6314 51.1335C54.3674 51.1335 54.1034 51.117 53.8394 51.117C53.5754 51.117 53.2619 51.117 52.9649 51.1335H52.9319V51.1005V50.9025H53.0144C53.1464 50.9025 53.3444 50.8695 53.3444 50.754C53.3444 50.688 53.2949 50.523 53.2289 50.3415L53.0144 49.6815H51.7274L51.5459 50.2755C51.4799 50.4735 51.4139 50.622 51.4139 50.721C51.4139 50.8695 51.6284 50.9025 51.8264 50.9025H51.9089V51.1335H51.8759C51.6449 51.1335 51.4139 51.1005 51.1829 51.1005C50.9684 51.1005 50.7704 51.1005 50.5559 51.117H50.5229V51.084V50.886H50.5889C50.8034 50.886 50.9849 50.754 51.0674 50.523L51.9914 47.8665C52.0574 47.652 52.1729 47.355 52.2224 47.124C52.4039 47.058 52.6349 46.9425 52.7504 46.8765C52.7504 46.8765 52.7834 46.8765 52.7999 46.8765C52.7999 46.8765 52.8494 46.8765 52.8659 46.9095C52.8824 46.959 52.8989 47.0085 52.9154 47.058L53.9879 50.094C54.0539 50.292 54.1199 50.5065 54.2024 50.688C54.2684 50.8365 54.3839 50.9025 54.5654 50.9025H54.6314V51.1335ZM52.9814 51.084C53.2619 51.084 53.5424 51.0675 53.8229 51.0675C54.1034 51.0675 54.3509 51.0675 54.5984 51.084V50.9685C54.4004 50.9685 54.2684 50.886 54.1859 50.721C54.1034 50.5395 54.0374 50.325 53.9714 50.127L52.8989 47.091C52.8989 47.091 52.8659 46.992 52.8494 46.959C52.8494 46.959 52.8329 46.959 52.8164 46.959C52.7009 47.025 52.4699 47.1405 52.3049 47.19C52.2719 47.4045 52.1564 47.7015 52.0904 47.916L51.1664 50.5725C51.0839 50.82 50.8694 50.9685 50.6384 50.9685V51.084C50.8364 51.084 51.0344 51.0675 51.2324 51.0675C51.4634 51.0675 51.6779 51.0675 51.9089 51.084V50.9685H51.8759C51.6944 50.9685 51.4304 50.952 51.4139 50.7375C51.4139 50.622 51.4799 50.4735 51.5459 50.2755L51.7439 49.6485H53.0969L53.3279 50.3415C53.3939 50.523 53.4434 50.688 53.4434 50.7705C53.4434 50.952 53.1959 50.9685 53.0639 50.9685H53.0309V51.084H52.9814ZM51.7934 49.3845L52.3544 47.7015H52.3874H52.4039L52.9484 49.3845H51.7934ZM51.8594 49.335H52.8659L52.3544 47.784L51.8429 49.335H51.8594Z" fill="#211E1F"/>
<path d="M56.0835 50.5395C56.0835 50.7705 56.2485 50.8365 56.43 50.8695C56.661 50.886 56.925 50.886 57.189 50.8695C57.4365 50.8365 57.6345 50.7045 57.75 50.556C57.849 50.424 57.8985 50.259 57.9315 50.1435H58.0965C58.0305 50.4735 57.948 50.8035 57.882 51.1335C57.3705 51.1335 56.859 51.117 56.3475 51.117C55.836 51.117 55.3245 51.1335 54.813 51.1335V50.952H54.8955C55.11 50.952 55.3245 50.919 55.3245 50.556V47.5695C55.3245 47.2725 55.0935 47.2395 54.8955 47.2395H54.813V47.058C55.1265 47.058 55.4235 47.0745 55.7205 47.0745C56.0175 47.0745 56.3145 47.058 56.595 47.058V47.2395H56.4465C56.232 47.2395 56.0505 47.2395 56.0505 47.553V50.5395H56.0835Z" fill="#211E1F"/>
<path d="M57.882 51.1335C57.3705 51.1335 56.859 51.117 56.3475 51.117C55.836 51.117 55.3245 51.1335 54.813 51.1335H54.7965V50.9025H54.8955C55.11 50.9025 55.308 50.886 55.308 50.5395V47.553C55.308 47.2725 55.11 47.256 54.8955 47.256H54.7965V47.025H54.813C55.1265 47.025 55.4235 47.0415 55.737 47.0415C56.0505 47.0415 56.3145 47.025 56.6115 47.025H56.628V47.256H56.463C56.232 47.256 56.1 47.256 56.1 47.5365V50.523C56.1 50.7375 56.2485 50.8035 56.43 50.82C56.529 50.82 56.6445 50.82 56.7435 50.82C56.892 50.82 57.0405 50.82 57.189 50.8035C57.42 50.7705 57.6345 50.6385 57.7335 50.5065C57.816 50.3745 57.882 50.226 57.915 50.094L57.9315 50.0775H58.1295V50.1105C58.0635 50.4405 57.981 50.7705 57.915 51.1005L57.8985 51.117L57.882 51.1335ZM57.8655 51.084C57.9315 50.7705 58.014 50.457 58.0635 50.1435H57.948C57.915 50.2755 57.8655 50.424 57.7665 50.556C57.651 50.7045 57.4365 50.853 57.189 50.886C57.0405 50.886 56.892 50.9025 56.7435 50.9025C56.628 50.9025 56.529 50.9025 56.4135 50.9025C56.232 50.886 56.034 50.8035 56.0505 50.556V47.5695C56.0505 47.2395 56.2485 47.223 56.463 47.223H56.5785V47.1075C56.298 47.1075 56.0175 47.124 55.7205 47.124C55.4235 47.124 55.1265 47.1075 54.8295 47.1075V47.223H54.879C55.0935 47.223 55.341 47.256 55.341 47.586V50.5725C55.341 50.952 55.0935 50.985 54.879 50.985H54.8295V51.1005C55.3245 51.1005 55.836 51.084 56.331 51.084C56.826 51.084 57.3375 51.1005 57.8325 51.1005L57.8655 51.084Z" fill="#211E1F"/>
<path d="M58.0305 46.8929C58.377 46.8929 58.641 47.1569 58.641 47.5034C58.641 47.8499 58.377 48.1139 58.0305 48.1139C57.684 48.1139 57.42 47.8499 57.42 47.5034C57.42 47.1569 57.684 46.8929 58.0305 46.8929ZM58.0305 47.9984C58.311 47.9984 58.509 47.7674 58.509 47.5034C58.509 47.2394 58.2945 47.0084 58.0305 47.0084C57.7665 47.0084 57.552 47.2394 57.552 47.5034C57.552 47.7674 57.7665 47.9984 58.0305 47.9984ZM57.7335 47.8169V47.7839C57.7335 47.7839 57.816 47.7839 57.816 47.7344V47.2889C57.816 47.2889 57.816 47.2064 57.7335 47.2064V47.1734H58.047C58.1625 47.1734 58.245 47.2229 58.245 47.3384C58.245 47.4374 58.179 47.5034 58.0965 47.5199L58.1955 47.6519C58.1955 47.6519 58.2945 47.7674 58.3275 47.8004L58.212 47.8169C58.1625 47.8169 58.113 47.7014 57.9975 47.5364H57.9315V47.7344C57.9315 47.7344 57.9315 47.7674 58.014 47.7839V47.8169H57.717H57.7335ZM57.9315 47.5034H57.9975C57.9975 47.5034 58.113 47.4374 58.113 47.3549C58.113 47.2724 58.0635 47.2229 57.9975 47.2229H57.9315V47.5034Z" fill="#211E1F"/>
</g>
<defs>
<clipPath id="clip0_554_14274">
<rect width="50.391" height="36.366" fill="white" transform="translate(8.25 14.85)"/>
</clipPath>
</defs>
</svg>
