<svg width="66" height="66" viewBox="0 0 66 66" fill="none" xmlns="http://www.w3.org/2000/svg">
<rect x="0.5" y="0.5" width="65" height="65" rx="7.5" fill="white"/>
<rect x="0.5" y="0.5" width="65" height="65" rx="7.5" stroke="#E2E4ED"/>
<g clip-path="url(#clip0_554_13717)">
<path d="M7.4635 28.2948H4.94995V37.0851H7.4564C8.78417 37.0851 9.74983 36.7727 10.5948 36.0697C11.5959 35.239 12.1924 33.9893 12.1924 32.6971C12.1853 30.0983 10.2469 28.2948 7.4635 28.2948ZM9.46581 34.8982C8.92618 35.381 8.23034 35.594 7.12268 35.594H6.66115V29.7859H7.12268C8.23034 29.7859 8.90488 29.9847 9.46581 30.4959C10.0622 31.0214 10.4173 31.845 10.4173 32.6829C10.4173 33.5207 10.0622 34.3728 9.46581 34.8982Z" fill="#231F20"/>
<path d="M14.6846 28.2948H12.9734V37.0851H14.6846V28.2948Z" fill="#231F20"/>
<path d="M18.881 31.6675C17.8515 31.2841 17.5532 31.0356 17.5532 30.5599C17.5532 30.006 18.0929 29.5871 18.8313 29.5871C19.3425 29.5871 19.7686 29.8001 20.2159 30.2972L21.1105 29.1256C20.3721 28.4795 19.4917 28.1528 18.526 28.1528C16.971 28.1528 15.7852 29.2321 15.7852 30.6735C15.7852 31.8876 16.3391 32.5054 17.9509 33.0805C18.6183 33.3148 18.9662 33.4781 19.1366 33.5775C19.4774 33.7977 19.6479 34.1172 19.6479 34.4864C19.6479 35.1964 19.0798 35.729 18.313 35.729C17.4964 35.729 16.8361 35.3171 16.4385 34.5574L15.3308 35.6225C16.119 36.7798 17.0704 37.2982 18.3769 37.2982C20.1591 37.2982 21.4088 36.1124 21.4088 34.4154C21.4088 33.0166 20.8336 32.3847 18.881 31.6746V31.6675Z" fill="#231F20"/>
<path d="M21.9484 32.6971C21.9484 35.2817 23.9791 37.284 26.5849 37.284C27.3234 37.284 27.9553 37.142 28.7364 36.7728V34.7563C28.0476 35.445 27.4441 35.7219 26.663 35.7219C24.9376 35.7219 23.7093 34.4722 23.7093 32.69C23.7093 31.0001 24.9731 29.6724 26.5849 29.6724C27.4015 29.6724 28.0192 29.9635 28.7364 30.6593V28.6357C27.9837 28.2523 27.366 28.0961 26.6275 28.0961C24.0288 28.0961 21.9484 30.141 21.9484 32.6971Z" fill="#231F20"/>
<path d="M42.3336 34.1952L39.9905 28.2948H38.116L41.8437 37.3123H42.7667L46.5655 28.2948H44.7051L42.3336 34.1952Z" fill="#231F20"/>
<path d="M47.3394 37.0851H52.2031V35.594H49.0506V33.2225H52.0895V31.7314H49.0506V29.7859H52.2031V28.2948H47.3394V37.0851Z" fill="#231F20"/>
<path d="M58.9912 30.8864C58.9912 29.2392 57.8551 28.2948 55.8812 28.2948H53.3392V37.0851H55.0504V33.5562H55.2776L57.6492 37.0851H59.758L56.9888 33.3787C58.2811 33.116 58.9912 32.2355 58.9912 30.8864ZM55.5546 32.342H55.0504V29.6794H55.5759C56.6409 29.6794 57.2232 30.1267 57.2232 30.9859C57.2232 31.845 56.6409 32.342 55.5475 32.342H55.5546Z" fill="#231F20"/>
<path d="M60.3615 28.7563C60.3615 28.6001 60.255 28.5149 60.0704 28.5149H59.8219V29.2888H60.0065V28.9906L60.2266 29.2888H60.4538L60.1982 28.9693C60.3047 28.9409 60.3686 28.8628 60.3686 28.7563H60.3615ZM60.0349 28.8628H60.0065V28.6569H60.042C60.1343 28.6569 60.184 28.6924 60.184 28.7563C60.184 28.8202 60.1343 28.8628 60.042 28.8628H60.0349Z" fill="#231F20"/>
<path d="M60.0989 28.2239C59.7225 28.2239 59.4243 28.5221 59.4243 28.8984C59.4243 29.2747 59.7296 29.573 60.0989 29.573C60.4681 29.573 60.7663 29.2676 60.7663 28.8984C60.7663 28.5292 60.4681 28.2239 60.0989 28.2239ZM60.0989 29.4593C59.8006 29.4593 59.5592 29.2108 59.5592 28.9055C59.5592 28.6002 59.8006 28.3517 60.0989 28.3517C60.3971 28.3517 60.6314 28.6073 60.6314 28.9055C60.6314 29.2037 60.39 29.4593 60.0989 29.4593Z" fill="#231F20"/>
<path d="M38.6059 32.6829C38.6059 35.2532 36.5255 37.3408 33.948 37.3408C31.3706 37.3408 29.2902 35.2603 29.2902 32.6829C29.2902 30.1054 31.3777 28.025 33.948 28.025C36.5184 28.025 38.6059 30.1054 38.6059 32.6829Z" fill="url(#paint0_linear_554_13717)"/>
<path style="mix-blend-mode:multiply" opacity="0.65" d="M38.6059 32.6829C38.6059 35.2532 36.5255 37.3408 33.948 37.3408C31.3706 37.3408 29.2902 35.2603 29.2902 32.6829C29.2902 30.1054 31.3777 28.025 33.948 28.025C36.5184 28.025 38.6059 30.1054 38.6059 32.6829Z" fill="url(#paint1_linear_554_13717)"/>
<g style="mix-blend-mode:multiply" opacity="0.5">
<mask id="mask0_554_13717" style="mask-type:luminance" maskUnits="userSpaceOnUse" x="29" y="28" width="10" height="10">
<path d="M38.6059 32.6829C38.6059 35.2532 36.5184 37.3408 33.948 37.3408C31.3777 37.3408 29.2902 35.2603 29.2902 32.6829C29.2902 30.1054 31.3777 28.025 33.948 28.025C36.5184 28.025 38.6059 30.1054 38.6059 32.6829Z" fill="white"/>
</mask>
<g mask="url(#mask0_554_13717)">
<path d="M33.9693 27.954C36.5893 27.954 38.7195 30.077 38.7195 32.6971C38.7195 35.3171 36.5893 37.4472 33.9693 37.4472C31.3492 37.4472 29.2191 35.3242 29.2191 32.6971C29.2191 30.077 31.3421 27.9469 33.9693 27.9469V27.954Z" fill="#020000"/>
<path d="M33.9764 27.9611C36.5964 27.9611 38.7265 30.077 38.7265 32.697C38.7265 35.3171 36.5964 37.4543 33.9764 37.4543C31.3563 37.4543 29.2262 35.3313 29.2262 32.7112C29.2262 30.0912 31.3563 27.9611 33.9764 27.9611Z" fill="#030100"/>
<path d="M33.9764 27.9683C36.5964 27.9683 38.7336 30.0842 38.7336 32.7042C38.7336 35.3243 36.6035 37.4615 33.9764 37.4615C31.3492 37.4615 29.2262 35.3385 29.2333 32.7184C29.2333 30.0984 31.3634 27.9683 33.9764 27.9754V27.9683Z" fill="#050100"/>
<path d="M33.9834 27.9754C36.6035 27.9754 38.7407 30.0842 38.7407 32.7042C38.7407 35.3243 36.6035 37.4615 33.9834 37.4615C31.3634 37.4615 29.2333 35.3385 29.2404 32.7184C29.2404 30.0984 31.3705 27.9683 33.9834 27.9754Z" fill="#070200"/>
<path d="M33.9906 27.9895C36.6107 27.9895 38.7479 30.0912 38.7479 32.7113C38.7479 35.3313 36.6107 37.4757 33.9906 37.4757C31.3706 37.4757 29.2405 35.3526 29.2476 32.7326C29.2476 30.1125 31.3777 27.9824 33.9906 27.9895Z" fill="#080200"/>
<path d="M33.9977 27.9966C36.6178 27.9966 38.755 30.0983 38.755 32.7184C38.755 35.3384 36.6178 37.4828 33.9977 37.4828C31.3777 37.4828 29.2476 35.3597 29.2547 32.7397C29.2547 30.1196 31.3848 27.9895 33.9977 27.9966Z" fill="#0A0300"/>
<path d="M33.9977 28.0037C36.6178 28.0037 38.7621 30.0983 38.7621 32.7184C38.7621 35.3384 36.6178 37.4898 33.9977 37.4898C31.3777 37.4898 29.2476 35.3668 29.2547 32.7468C29.2547 30.1267 31.3848 27.9966 33.9977 28.0037Z" fill="#0C0300"/>
<path d="M34.0048 28.0108C36.6249 28.0108 38.7692 30.1054 38.7692 32.7184C38.7692 35.3313 36.6249 37.4898 34.0048 37.4898C31.3848 37.4898 29.2546 35.3668 29.2617 32.7468C29.2617 30.1267 31.3919 27.9966 34.0048 28.0037V28.0108Z" fill="#0E0400"/>
<path d="M34.0119 28.018C36.6319 28.0251 38.7763 30.1055 38.7763 32.7255C38.7763 35.3456 36.6248 37.5041 34.0119 37.5041C31.3989 37.5041 29.2617 35.3811 29.2688 32.761C29.2688 30.141 31.3989 28.0109 34.0119 28.018Z" fill="#0F0400"/>
<path d="M34.0119 28.0251C36.6319 28.0322 38.7763 30.1055 38.7763 32.7255C38.7763 35.3456 36.6248 37.5041 34.0119 37.5041C31.3989 37.5041 29.2617 35.3811 29.2688 32.761C29.2759 30.141 31.3989 28.0109 34.0119 28.018V28.0251Z" fill="#110500"/>
<path d="M34.019 28.0321C36.6391 28.0392 38.7905 30.1125 38.7905 32.7255C38.7905 35.3384 36.6391 37.5112 34.019 37.5112C31.399 37.5112 29.2688 35.3881 29.283 32.7752C29.2901 30.1551 31.4132 28.025 34.019 28.0392V28.0321Z" fill="#130500"/>
<path d="M34.0261 28.0392C36.639 28.0463 38.7976 30.1125 38.7976 32.7326C38.7976 35.3526 36.639 37.5182 34.0261 37.5182C31.4131 37.5182 29.2759 35.3952 29.2901 32.7823C29.2972 30.1622 31.4202 28.0321 34.0261 28.0463V28.0392Z" fill="#140600"/>
<path d="M34.0332 28.0463C36.6461 28.0534 38.8046 30.1126 38.8046 32.7326C38.8046 35.3527 36.6461 37.5183 34.0332 37.5183C31.4202 37.5183 29.283 35.3953 29.2972 32.7823C29.3043 30.1623 31.4344 28.0321 34.0332 28.0463Z" fill="#160600"/>
<path d="M34.0332 28.0534C36.6462 28.0676 38.8118 30.1196 38.8118 32.7326C38.8118 35.3455 36.6533 37.5254 34.0332 37.5254C31.4132 37.5254 29.2902 35.4023 29.2973 32.7894C29.3044 30.1693 31.4345 28.0392 34.0332 28.0534Z" fill="#180600"/>
<path d="M34.0403 28.0676C36.6533 28.0818 38.8189 30.1267 38.8189 32.7467C38.8189 35.3668 36.6533 37.5395 34.0403 37.5395C31.4274 37.5395 29.2972 35.4165 29.3043 32.8035C29.3185 30.1835 31.4416 28.0534 34.0403 28.0676Z" fill="#190700"/>
<path d="M34.0474 28.0747C36.6603 28.0889 38.826 30.1338 38.826 32.7467C38.826 35.3597 36.6603 37.5466 34.0474 37.5466C31.4344 37.5466 29.3043 35.4236 29.3114 32.8106C29.3256 30.1906 31.4486 28.0605 34.0474 28.0747Z" fill="#1B0700"/>
<path d="M34.0474 28.0818C36.6603 28.096 38.826 30.1338 38.826 32.7467C38.826 35.3597 36.6603 37.5466 34.0474 37.5466C31.4344 37.5466 29.3043 35.4307 29.3114 32.8106C29.3256 30.1906 31.4486 28.0605 34.0474 28.0747V28.0818Z" fill="#1D0800"/>
<path d="M34.0545 28.0889C36.6674 28.1031 38.8401 30.1339 38.8401 32.7539C38.8401 35.374 36.6674 37.5609 34.0545 37.5609C31.4415 37.5609 29.3114 35.445 29.3185 32.8249C29.3327 30.1978 31.4557 28.0747 34.0545 28.0889Z" fill="#1F0800"/>
<path d="M34.0616 28.0959C36.6745 28.1101 38.8473 30.1409 38.8473 32.7538C38.8473 35.3668 36.6745 37.5608 34.0616 37.5608C31.4486 37.5608 29.3185 35.4449 29.3327 32.8319C29.3469 30.2048 31.4699 28.0817 34.0616 28.103V28.0959Z" fill="#200900"/>
<path d="M34.0687 28.1031C36.6816 28.1174 38.8543 30.141 38.8543 32.7539C38.8543 35.3669 36.6816 37.568 34.0687 37.568C31.4557 37.568 29.3256 35.4521 29.3398 32.8391C29.354 30.212 31.477 28.0889 34.0687 28.1102V28.1031Z" fill="#220900"/>
<path d="M34.0687 28.1103C36.6816 28.1245 38.8543 30.1481 38.8543 32.7539C38.8543 35.3598 36.6745 37.568 34.0687 37.568C31.4628 37.568 29.3256 35.4521 29.3398 32.8391C29.354 30.212 31.477 28.089 34.0687 28.1103Z" fill="#240A00"/>
<path d="M34.0757 28.1173C36.6887 28.1386 38.8685 30.1481 38.8685 32.761C38.8685 35.374 36.6887 37.5751 34.0757 37.5751C31.4628 37.5751 29.3327 35.4592 29.3469 32.8462C29.3611 30.2191 31.4841 28.096 34.0757 28.1173Z" fill="#250A00"/>
<path d="M34.0829 28.1244C36.6959 28.1457 38.8757 30.148 38.8757 32.761C38.8757 35.3739 36.6959 37.5822 34.0829 37.5822C31.47 37.5822 29.3399 35.4663 29.3541 32.8533C29.3683 30.2261 31.4984 28.1031 34.0829 28.1244Z" fill="#270B00"/>
<path d="M34.0829 28.1316C36.6959 28.1529 38.8757 30.1552 38.8757 32.761C38.8757 35.3669 36.6888 37.5822 34.0829 37.5822C31.4771 37.5822 29.3399 35.4663 29.3541 32.8533C29.3683 30.2262 31.4984 28.1103 34.0829 28.1245V28.1316Z" fill="#290B00"/>
<path d="M34.09 28.1457C36.703 28.167 38.8899 30.1622 38.8899 32.7752C38.8899 35.3881 36.703 37.6034 34.09 37.6034C31.4771 37.6034 29.347 35.4875 29.3612 32.8746C29.3825 30.2474 31.5055 28.1315 34.09 28.1457Z" fill="#2A0C00"/>
<path d="M34.0971 28.1528C36.7101 28.1741 38.897 30.1622 38.897 32.7752C38.897 35.3881 36.7101 37.6034 34.0971 37.6034C31.4842 37.6034 29.354 35.4875 29.3682 32.8746C29.3895 30.2474 31.5126 28.1315 34.0971 28.1457V28.1528Z" fill="#2C0C00"/>
<path d="M34.1042 28.1599C36.71 28.1812 38.9041 30.1693 38.9041 32.7751C38.9041 35.381 36.71 37.6105 34.1042 37.6105C31.4983 37.6105 29.3611 35.4946 29.3753 32.8887C29.3966 30.2616 31.5196 28.1457 34.1042 28.1599Z" fill="#2E0D00"/>
<path d="M34.1043 28.167C36.7101 28.1883 38.9041 30.1693 38.9041 32.7823C38.9041 35.3952 36.7101 37.6176 34.1043 37.6176C31.4984 37.6176 29.3612 35.5017 29.3825 32.8959C29.4038 30.2687 31.5268 28.1528 34.1043 28.1741V28.167Z" fill="#300D00"/>
<path d="M34.1113 28.1741C36.7172 28.1954 38.9183 30.1764 38.9183 32.7822C38.9183 35.3881 36.7243 37.6247 34.1113 37.6247C31.4984 37.6247 29.3683 35.5088 29.3896 32.9029C29.4109 30.2758 31.5339 28.1599 34.1113 28.1812V28.1741Z" fill="#310D00"/>
<path d="M34.1184 28.1812C36.7243 28.2025 38.9254 30.1764 38.9254 32.7823C38.9254 35.3881 36.7243 37.6247 34.1184 37.6247C31.5126 37.6247 29.3753 35.5088 29.3966 32.903C29.4179 30.2758 31.541 28.1599 34.1184 28.1812Z" fill="#330E00"/>
<path d="M34.1184 28.1883C36.7243 28.2167 38.9254 30.1764 38.9254 32.7893C38.9254 35.4023 36.7243 37.6318 34.1184 37.6318C31.5126 37.6318 29.3753 35.5159 29.3966 32.91C29.4179 30.2829 31.541 28.167 34.1184 28.1883Z" fill="#350E00"/>
<path d="M34.1255 28.1955C36.7313 28.2239 38.9396 30.1836 38.9396 32.7894C38.9396 35.3953 36.7384 37.639 34.1255 37.639C31.5125 37.639 29.3824 35.5231 29.4037 32.9172C29.425 30.2901 31.548 28.1742 34.1255 28.1955Z" fill="#360F00"/>
<path d="M34.1326 28.2026C36.7384 28.231 38.9467 30.1836 38.9467 32.7894C38.9467 35.3953 36.7384 37.639 34.1326 37.639C31.5267 37.639 29.3895 35.5231 29.4108 32.9172C29.4321 30.2901 31.5551 28.1742 34.1326 28.1955V28.2026Z" fill="#380F00"/>
<path d="M34.1397 28.2167C36.7455 28.2451 38.9537 30.1977 38.9537 32.8036C38.9537 35.4094 36.7455 37.6603 34.1397 37.6603C31.5338 37.6603 29.3966 35.5443 29.4179 32.9385C29.4392 30.3113 31.5693 28.1954 34.1397 28.2167Z" fill="#3A1000"/>
<path d="M34.1397 28.2238C36.7455 28.2522 38.9537 30.1977 38.9537 32.8036C38.9537 35.4094 36.7455 37.6603 34.1397 37.6603C31.5338 37.6603 29.3966 35.5443 29.4179 32.9385C29.4463 30.3113 31.5693 28.1954 34.1397 28.2167V28.2238Z" fill="#3B1000"/>
<path d="M34.1468 28.231C36.7527 28.2594 38.968 30.1978 38.968 32.8036C38.968 35.4095 36.7527 37.6674 34.1468 37.6674C31.541 37.6674 29.4038 35.5515 29.4322 32.9527C29.4606 30.3256 31.5836 28.2097 34.1468 28.2381V28.231Z" fill="#3D1100"/>
<path d="M34.1539 28.238C36.7598 28.2664 38.9751 30.2049 38.9751 32.8107C38.9751 35.4166 36.7598 37.6745 34.1539 37.6745C31.5481 37.6745 29.4108 35.5657 29.4392 32.9598C29.4676 30.3327 31.5907 28.2167 34.1539 28.2451V28.238Z" fill="#3F1100"/>
<path d="M34.1539 28.2452C36.7598 28.2736 38.9751 30.2049 38.9751 32.8107C38.9751 35.4166 36.7598 37.6745 34.1539 37.6745C31.5481 37.6745 29.4108 35.5657 29.4392 32.9598C29.4676 30.3327 31.5907 28.2168 34.1539 28.2452Z" fill="#411200"/>
<path d="M34.161 28.2522C36.7668 28.2806 38.9822 30.2048 38.9822 32.8107C38.9822 35.4166 36.7597 37.6816 34.161 37.6816C31.5622 37.6816 29.4179 35.5728 29.4463 32.9669C29.4747 30.3398 31.5977 28.2238 34.161 28.2522Z" fill="#421200"/>
<path d="M34.1681 28.2593C36.7739 28.2948 38.9964 30.2119 38.9964 32.8178C38.9964 35.4236 36.7739 37.6887 34.1681 37.6887C31.5622 37.6887 29.425 35.5798 29.4534 32.974C29.4818 30.3468 31.6048 28.2309 34.1681 28.2593Z" fill="#441300"/>
<path d="M34.1752 28.2664C36.781 28.3019 39.0034 30.2119 39.0034 32.8178C39.0034 35.4236 36.781 37.6957 34.1752 37.6957C31.5693 37.6957 29.4321 35.5869 29.4605 32.9811C29.4889 30.3539 31.6119 28.238 34.1752 28.2664Z" fill="#461300"/>
<path d="M34.1752 28.2735C36.7739 28.309 39.0034 30.219 39.0034 32.8178C39.0034 35.4165 36.7739 37.6957 34.1752 37.6957C31.5764 37.6957 29.4321 35.5869 29.4605 32.9811C29.4889 30.3539 31.6119 28.238 34.1752 28.2664V28.2735Z" fill="#471300"/>
<path d="M34.1824 28.2807C36.7811 28.3162 39.0177 30.2191 39.0177 32.8249C39.0177 35.4308 36.7882 37.71 34.1824 37.71C31.5765 37.71 29.4393 35.6012 29.4677 32.9954C29.4961 30.3682 31.6191 28.2523 34.1824 28.2807Z" fill="#491400"/>
<path d="M34.1894 28.2948C36.7882 28.3303 39.0248 30.2261 39.0248 32.832C39.0248 35.4378 36.7953 37.717 34.1894 37.717C31.5836 37.717 29.4464 35.6082 29.4748 33.0095C29.5103 30.3823 31.6262 28.2664 34.1894 28.3019V28.2948Z" fill="#4B1400"/>
<path d="M34.1895 28.3019C36.7882 28.3374 39.0248 30.2332 39.0248 32.8319C39.0248 35.4307 36.7882 37.7241 34.1895 37.7241C31.5907 37.7241 29.4464 35.6153 29.4819 33.0166C29.5174 30.3894 31.6404 28.2735 34.1895 28.309V28.3019Z" fill="#4C1500"/>
<path d="M34.1965 28.309C36.7953 28.3445 39.0319 30.2332 39.0319 32.832C39.0319 35.4307 36.7953 37.7242 34.1965 37.7242C31.5978 37.7242 29.4535 35.6154 29.489 33.0166C29.5245 30.3895 31.6475 28.2735 34.1965 28.309Z" fill="#4E1500"/>
<path d="M34.2036 28.3161C36.8024 28.3516 39.0461 30.2403 39.0461 32.8391C39.0461 35.4378 36.8095 37.7313 34.2036 37.7313C31.5978 37.7313 29.4605 35.6224 29.496 33.0237C29.5315 30.3965 31.6546 28.2806 34.2036 28.3161Z" fill="#501600"/>
<path d="M34.2107 28.3232C36.8094 28.3587 39.0532 30.2403 39.0532 32.8391C39.0532 35.4378 36.8094 37.7383 34.2107 37.7383C31.6119 37.7383 29.4676 35.6295 29.5031 33.0308C29.5386 30.4036 31.6616 28.2877 34.2107 28.3232Z" fill="#521600"/>
<path d="M34.2107 28.3303C36.8094 28.3729 39.0532 30.2403 39.0532 32.8391C39.0532 35.4378 36.8094 37.7383 34.2107 37.7383C31.6119 37.7383 29.4676 35.6295 29.5031 33.0308C29.5386 30.4036 31.6616 28.2877 34.2107 28.3232V28.3303Z" fill="#531700"/>
<path d="M34.2178 28.3375C36.8165 28.3801 39.0603 30.2475 39.0603 32.8462C39.0603 35.445 36.8165 37.7526 34.2178 37.7526C31.619 37.7526 29.4747 35.6438 29.5102 33.045C29.5457 30.4179 31.6687 28.302 34.2178 28.3375Z" fill="#551700"/>
<path d="M34.2249 28.3446C36.8236 28.3872 39.0744 30.2475 39.0744 32.8462C39.0744 35.445 36.8236 37.7526 34.2249 37.7526C31.6261 37.7526 29.4818 35.6438 29.5173 33.045C29.5528 30.4179 31.6758 28.302 34.2249 28.3375V28.3446Z" fill="#571800"/>
<path d="M34.2249 28.3517C36.8236 28.3943 39.0744 30.2475 39.0744 32.8462C39.0744 35.445 36.8236 37.7597 34.2249 37.7597C31.6261 37.7597 29.4818 35.6509 29.5173 33.0521C29.5528 30.425 31.6758 28.3091 34.2249 28.3446V28.3517Z" fill="#581800"/>
<path d="M34.232 28.3588C36.8307 28.4014 39.0816 30.2546 39.0816 32.8533C39.0816 35.4521 36.8307 37.7668 34.232 37.7668C31.6332 37.7668 29.4889 35.658 29.5315 33.0663C29.567 30.4392 31.69 28.3233 34.232 28.3659V28.3588Z" fill="#5A1900"/>
<path d="M34.2391 28.3729C36.8378 28.4155 39.0957 30.2616 39.0957 32.8604C39.0957 35.4591 36.8378 37.781 34.2391 37.781C31.6403 37.781 29.496 35.6721 29.5386 33.0805C29.5812 30.4533 31.6971 28.3374 34.2391 28.38V28.3729Z" fill="#5C1900"/>
<path d="M34.2391 28.38C36.8378 28.4226 39.0957 30.2687 39.0957 32.8604C39.0957 35.452 36.8378 37.781 34.2391 37.781C31.6403 37.781 29.496 35.6721 29.5386 33.0805C29.5812 30.4533 31.7042 28.3374 34.2391 28.38Z" fill="#5E1A00"/>
<path d="M34.2463 28.3871C36.845 28.4297 39.1029 30.2687 39.1029 32.8675C39.1029 35.4662 36.845 37.7881 34.2463 37.7881C31.6475 37.7881 29.5032 35.6863 29.5458 33.0876C29.5884 30.4604 31.7114 28.3445 34.2463 28.3871Z" fill="#5F1A00"/>
<path d="M34.2533 28.3942C36.845 28.4368 39.11 30.2687 39.11 32.8674C39.11 35.4662 36.845 37.7951 34.2533 37.7951C31.6617 37.7951 29.5103 35.6934 29.5529 33.0947C29.5955 30.4675 31.7185 28.3516 34.2533 28.3942Z" fill="#611A00"/>
<path d="M34.2604 28.4013C36.8521 28.451 39.1242 30.2758 39.1242 32.8674C39.1242 35.4591 36.8592 37.7951 34.2604 37.7951C31.6617 37.7951 29.5173 35.6934 29.56 33.0947C29.6026 30.4675 31.7256 28.3516 34.2604 28.3942V28.4013Z" fill="#631B00"/>
<path d="M34.2604 28.4085C36.8521 28.4582 39.1242 30.2759 39.1242 32.8746C39.1242 35.4734 36.8521 37.8094 34.2604 37.8094C31.6688 37.8094 29.5173 35.7077 29.5599 33.1089C29.6026 30.4818 31.7256 28.3659 34.2604 28.4085Z" fill="#641B00"/>
<path d="M34.2675 28.4156C36.8591 28.4653 39.1313 30.283 39.1313 32.8746C39.1313 35.4663 36.8591 37.8094 34.2675 37.8094C31.6759 37.8094 29.5244 35.7077 29.567 33.1089C29.6096 30.4818 31.7327 28.3659 34.2675 28.4085V28.4156Z" fill="#661C00"/>
<path d="M34.2747 28.4226C36.8663 28.4723 39.1384 30.2829 39.1384 32.8746C39.1384 35.4662 36.8663 37.8165 34.2747 37.8165C31.683 37.8165 29.5316 35.7147 29.5813 33.1231C29.6239 30.4959 31.7469 28.38 34.2747 28.4297V28.4226Z" fill="#681C00"/>
<path d="M34.2747 28.4297C36.8663 28.4794 39.1455 30.2829 39.1455 32.8816C39.1455 35.4804 36.8663 37.8235 34.2747 37.8235C31.683 37.8235 29.5316 35.7218 29.5813 33.1302C29.6239 30.503 31.7469 28.3871 34.2747 28.4368V28.4297Z" fill="#691D00"/>
<path d="M34.2817 28.444C36.8734 28.4937 39.1526 30.2972 39.1526 32.8888C39.1526 35.4805 36.8734 37.8378 34.2817 37.8378C31.6901 37.8378 29.5387 35.7361 29.5884 33.1444C29.631 30.5173 31.754 28.4014 34.2817 28.4511V28.444Z" fill="#6B1D00"/>
<path d="M34.2888 28.4511C36.8805 28.5008 39.1597 30.2972 39.1597 32.8888C39.1597 35.4805 36.8805 37.8378 34.2888 37.8378C31.6972 37.8378 29.5457 35.7361 29.5954 33.1444C29.6452 30.5173 31.7611 28.4014 34.2888 28.4511Z" fill="#6D1E00"/>
<path d="M34.2959 28.4581C36.8875 28.5078 39.1739 30.2971 39.1739 32.8959C39.1739 35.4946 36.8875 37.8449 34.2959 37.8449C31.7043 37.8449 29.5528 35.7432 29.6025 33.1515C29.6522 30.5244 31.7682 28.4084 34.2959 28.4581Z" fill="#6F1E00"/>
<path d="M34.2959 28.4652C36.8875 28.522 39.1739 30.3042 39.1739 32.8959C39.1739 35.4875 36.8875 37.852 34.2959 37.852C31.7043 37.852 29.5528 35.7502 29.6025 33.1586C29.6522 30.5314 31.7753 28.4155 34.2959 28.4652Z" fill="#701F00"/>
<path d="M34.303 28.4723C36.8947 28.5291 39.181 30.3042 39.181 32.8959C39.181 35.4875 36.8947 37.852 34.303 37.852C31.7114 37.852 29.567 35.7502 29.6096 33.1586C29.6593 30.5314 31.7824 28.4155 34.303 28.4652V28.4723Z" fill="#721F00"/>
<path d="M34.3101 28.4794C36.9017 28.5362 39.1881 30.3113 39.1881 32.9029C39.1881 35.4946 36.8946 37.8661 34.3101 37.8661C31.7255 37.8661 29.5741 35.7644 29.6167 33.1727C29.6664 30.5456 31.7894 28.4297 34.3101 28.4794Z" fill="#742000"/>
<path d="M34.3101 28.4866C36.9017 28.5434 39.1952 30.3114 39.1952 32.903C39.1952 35.4947 36.9017 37.8662 34.3101 37.8662C31.7184 37.8662 29.5741 35.7645 29.6167 33.1729C29.6664 30.5457 31.7894 28.4298 34.3101 28.4866Z" fill="#752000"/>
<path d="M34.3172 28.4937C36.9089 28.5505 39.2023 30.3114 39.2023 32.903C39.2023 35.4947 36.9089 37.8733 34.3172 37.8733C31.7256 37.8733 29.5813 35.7716 29.631 33.187C29.6807 30.5599 31.8037 28.4439 34.3172 28.5008V28.4937Z" fill="#772000"/>
<path d="M34.3243 28.5008C36.916 28.5576 39.2094 30.3185 39.2094 32.903C39.2094 35.4876 36.9089 37.8733 34.3243 37.8733C31.7398 37.8733 29.5883 35.7716 29.6381 33.187C29.6878 30.5599 31.8108 28.4439 34.3243 28.5008Z" fill="#792100"/>
<path d="M34.3314 28.5078C36.916 28.5646 39.2236 30.3184 39.2236 32.9101C39.2236 35.5017 36.9231 37.8804 34.3314 37.8804C31.7398 37.8804 29.5954 35.7787 29.6451 33.1941C29.6948 30.567 31.8179 28.451 34.3314 28.5078Z" fill="#7A2100"/>
<path d="M34.3314 28.522C36.916 28.5788 39.2236 30.3326 39.2236 32.9171C39.2236 35.5017 36.9231 37.8945 34.3314 37.8945C31.7398 37.8945 29.5954 35.7928 29.6451 33.2083C29.7019 30.5811 31.8179 28.4652 34.3314 28.522Z" fill="#7C2200"/>
<path d="M34.3385 28.5291C36.923 28.5859 39.2307 30.3326 39.2307 32.9171C39.2307 35.5017 36.923 37.8945 34.3385 37.8945C31.7539 37.8945 29.6025 35.7928 29.6522 33.2083C29.709 30.5811 31.8249 28.4652 34.3385 28.522V28.5291Z" fill="#7E2200"/>
<path d="M34.3456 28.5363C36.9301 28.6002 39.2377 30.3327 39.2377 32.9243C39.2377 35.516 36.9301 37.9088 34.3456 37.9088C31.761 37.9088 29.6096 35.8142 29.6593 33.2225C29.7161 30.5954 31.832 28.4795 34.3456 28.5363Z" fill="#802300"/>
<path d="M34.3456 28.5434C36.9301 28.6073 39.2448 30.3398 39.2448 32.9243C39.2448 35.5089 36.9372 37.9088 34.3456 37.9088C31.7539 37.9088 29.6096 35.8142 29.6593 33.2225C29.7161 30.5954 31.832 28.4795 34.3456 28.5363V28.5434Z" fill="#812300"/>
<path d="M34.3528 28.5505C36.9373 28.6144 39.252 30.3398 39.252 32.9243C39.252 35.5089 36.9373 37.9159 34.3528 37.9159C31.7682 37.9159 29.6168 35.8213 29.6665 33.2296C29.7233 30.6025 31.8463 28.4866 34.3528 28.5434V28.5505Z" fill="#832400"/>
<path d="M34.3598 28.5575C36.9444 28.6214 39.2591 30.3468 39.2591 32.9313C39.2591 35.5159 36.9444 37.9229 34.3598 37.9229C31.7753 37.9229 29.6239 35.8283 29.6807 33.2438C29.7375 30.6166 31.8605 28.5007 34.3598 28.5646V28.5575Z" fill="#852400"/>
<path d="M34.3669 28.5646C36.9515 28.6285 39.2662 30.3468 39.2662 32.9313C39.2662 35.5159 36.9515 37.93 34.3669 37.93C31.7824 37.93 29.6309 35.8354 29.6877 33.2508C29.7445 30.6237 31.8676 28.5078 34.3669 28.5717V28.5646Z" fill="#862500"/>
<path d="M34.3669 28.5717C36.9515 28.6356 39.2733 30.3468 39.2733 32.9314C39.2733 35.5159 36.9515 37.9301 34.3669 37.9301C31.7824 37.9301 29.6309 35.8354 29.6877 33.2509C29.7445 30.6237 31.8676 28.5078 34.3669 28.5717Z" fill="#882500"/>
<path d="M34.374 28.5788C36.9585 28.6427 39.2804 30.3539 39.2804 32.9385C39.2804 35.523 36.9585 37.9371 34.374 37.9371C31.7894 37.9371 29.638 35.8425 29.6948 33.258C29.7516 30.6308 31.8747 28.5149 34.374 28.5788Z" fill="#8A2600"/>
<path d="M34.3811 28.5859C36.9656 28.6498 39.2875 30.3539 39.2875 32.9384C39.2875 35.523 36.9656 37.9442 34.3811 37.9442C31.7965 37.9442 29.6451 35.8496 29.7019 33.2651C29.7587 30.6379 31.8817 28.522 34.3811 28.5859Z" fill="#8B2600"/>
<path d="M34.3811 28.6002C36.9656 28.6641 39.2946 30.3611 39.2946 32.9456C39.2946 35.5302 36.9656 37.9514 34.3811 37.9514C31.7965 37.9514 29.6451 35.8568 29.7019 33.2723C29.7658 30.6451 31.8817 28.5292 34.3811 28.5931V28.6002Z" fill="#8D2600"/>
<path d="M34.3882 28.6072C36.9727 28.6782 39.3016 30.3681 39.3016 32.9527C39.3016 35.5372 36.9727 37.9656 34.3882 37.9656C31.8036 37.9656 29.6522 35.871 29.709 33.2864C29.7729 30.6593 31.8888 28.5433 34.3882 28.6072Z" fill="#8F2700"/>
<path d="M34.3954 28.6143C36.9799 28.6853 39.3088 30.3681 39.3088 32.9527C39.3088 35.5372 36.9799 37.9656 34.3954 37.9656C31.8108 37.9656 29.6594 35.871 29.7162 33.2864C29.7801 30.6593 31.896 28.5433 34.3954 28.6072V28.6143Z" fill="#912700"/>
<path d="M34.4025 28.6215C36.9799 28.6925 39.3159 30.3753 39.3159 32.9527C39.3159 35.5302 36.9799 37.9727 34.4025 37.9727C31.825 37.9727 29.6665 35.8781 29.7304 33.3006C29.7943 30.6735 31.9102 28.5576 34.4025 28.6286V28.6215Z" fill="#922800"/>
<path d="M34.4025 28.6285C36.9799 28.6995 39.323 30.3752 39.323 32.9598C39.323 35.5443 36.987 37.9798 34.4025 37.9798C31.8179 37.9798 29.6665 35.8852 29.7304 33.3077C29.7943 30.6806 31.9173 28.5646 34.4025 28.6356V28.6285Z" fill="#942800"/>
<path d="M34.4095 28.6356C36.987 28.7066 39.3301 30.3752 39.3301 32.9598C39.3301 35.5443 36.9941 37.9869 34.4095 37.9869C31.825 37.9869 29.6736 35.8922 29.7375 33.3148C29.8014 30.6876 31.9244 28.5717 34.4095 28.6427V28.6356Z" fill="#962900"/>
<path d="M34.4166 28.6427C36.9941 28.7137 39.3372 30.3823 39.3372 32.9598C39.3372 35.5372 36.9941 37.9869 34.4166 37.9869C31.8392 37.9869 29.6806 35.8922 29.7445 33.3148C29.8085 30.6876 31.9315 28.5717 34.4166 28.6427Z" fill="#972900"/>
<path d="M34.4166 28.6498C36.9941 28.7208 39.3372 30.3823 39.3372 32.9669C39.3372 35.5514 36.9941 37.9939 34.4166 37.9939C31.8392 37.9939 29.6806 35.8993 29.7445 33.3219C29.8085 30.6947 31.9315 28.5788 34.4166 28.6498Z" fill="#992A00"/>
<path d="M34.4237 28.6569C37.0012 28.7279 39.3514 30.3894 39.3514 32.9668C39.3514 35.5443 37.0083 38.001 34.4237 38.001C31.8392 38.001 29.6877 35.9064 29.7516 33.329C29.8155 30.7018 31.9386 28.5859 34.4237 28.6569Z" fill="#9B2A00"/>
<path d="M34.4308 28.6712C37.0082 28.7422 39.3585 30.3966 39.3585 32.974C39.3585 35.5515 37.0082 38.0082 34.4308 38.0082C31.8533 38.0082 29.6948 35.9136 29.7587 33.3362C29.8226 30.709 31.9456 28.5931 34.4308 28.6641V28.6712Z" fill="#9C2B00"/>
<path d="M34.4379 28.6782C37.0153 28.7564 39.3655 30.3965 39.3655 32.9811C39.3655 35.5656 37.0153 38.0224 34.4379 38.0224C31.8604 38.0224 29.7019 35.9278 29.7658 33.3503C29.8368 30.7232 31.9527 28.6072 34.4379 28.6782Z" fill="#9E2B00"/>
<path d="M34.4379 28.6854C37.0153 28.7635 39.3726 30.4037 39.3726 32.9811C39.3726 35.5585 37.0224 38.0224 34.4379 38.0224C31.8533 38.0224 29.7019 35.9278 29.7658 33.3503C29.8368 30.7232 31.9527 28.6072 34.4379 28.6782V28.6854Z" fill="#A02C00"/>
<path d="M34.445 28.6924C37.0224 28.7705 39.3798 30.4036 39.3798 32.981C39.3798 35.5585 37.0224 38.0294 34.445 38.0294C31.8675 38.0294 29.709 35.9419 29.78 33.3645C29.851 30.7373 31.9669 28.6214 34.445 28.6995V28.6924Z" fill="#A22C00"/>
<path d="M34.4521 28.6995C37.0295 28.7776 39.3869 30.4036 39.3869 32.981C39.3869 35.5585 37.0295 38.0294 34.4521 38.0294C31.8746 38.0294 29.7161 35.9419 29.7871 33.3645C29.8581 30.7373 31.974 28.6214 34.4521 28.6995Z" fill="#A32D00"/>
<path d="M34.4521 28.7067C37.0295 28.7848 39.3869 30.4108 39.3869 32.9882C39.3869 35.5657 37.0295 38.0437 34.4521 38.0437C31.8746 38.0437 29.7161 35.9562 29.7871 33.3787C29.8581 30.7516 31.974 28.6357 34.4521 28.7138V28.7067Z" fill="#A52D00"/>
<path d="M34.4593 28.7138C37.0367 28.7919 39.4012 30.4108 39.4012 32.9882C39.4012 35.5657 37.0367 38.0437 34.4593 38.0437C31.8818 38.0437 29.7233 35.9562 29.7943 33.3787C29.8653 30.7516 31.9883 28.6357 34.4593 28.7138Z" fill="#A72D00"/>
<path d="M34.4664 28.7209C37.0438 28.799 39.4082 30.4179 39.4082 32.9882C39.4082 35.5586 37.0438 38.0437 34.4664 38.0437C31.8889 38.0437 29.7304 35.9562 29.8014 33.3787C29.8724 30.7516 31.9954 28.6357 34.4664 28.7138V28.7209Z" fill="#A82E00"/>
<path d="M34.4734 28.7279C37.0509 28.806 39.4153 30.4178 39.4153 32.9953C39.4153 35.5727 37.0509 38.0579 34.4734 38.0579C31.896 38.0579 29.7375 35.9703 29.8085 33.3929C29.8795 30.7657 32.0025 28.6498 34.4734 28.7279Z" fill="#AA2E00"/>
<path d="M34.4734 28.735C37.0438 28.8131 39.4153 30.4178 39.4153 32.9953C39.4153 35.5727 37.0438 38.0579 34.4734 38.0579C31.9031 38.0579 29.7375 35.9703 29.8085 33.3929C29.8795 30.7657 32.0025 28.6498 34.4734 28.7279V28.735Z" fill="#AC2F00"/>
<path d="M34.4805 28.7492C37.0509 28.8344 39.4295 30.432 39.4295 33.0023C39.4295 35.5727 37.058 38.072 34.4805 38.072C31.9031 38.072 29.7445 35.9845 29.8155 33.4071C29.8866 30.7799 32.0096 28.664 34.4805 28.7421V28.7492Z" fill="#AD2F00"/>
<path d="M34.4876 28.7563C37.0579 28.8416 39.4365 30.432 39.4365 33.0095C39.4365 35.5869 37.065 38.0792 34.4876 38.0792C31.9101 38.0792 29.7516 35.9917 29.8297 33.4213C29.9078 30.7942 32.0237 28.6782 34.4876 28.7634V28.7563Z" fill="#AF3000"/>
<path d="M34.4877 28.7634C37.058 28.8486 39.4367 30.4391 39.4367 33.0095C39.4367 35.5798 37.058 38.0863 34.4877 38.0863C31.9173 38.0863 29.7517 35.9987 29.8298 33.4284C29.9079 30.8012 32.0238 28.6853 34.4877 28.7705V28.7634Z" fill="#B13000"/>
<path d="M34.4948 28.7706C37.0651 28.8558 39.4508 30.4391 39.4508 33.0095C39.4508 35.5798 37.0722 38.0863 34.4948 38.0863C31.9173 38.0863 29.7588 35.9988 29.8369 33.4284C29.915 30.8013 32.0309 28.6853 34.4948 28.7706Z" fill="#B33100"/>
<path d="M34.5018 28.7776C37.0722 28.8628 39.4579 30.4391 39.4579 33.0166C39.4579 35.594 37.0793 38.0934 34.5018 38.0934C31.9244 38.0934 29.7659 36.0059 29.844 33.4355C29.9221 30.8084 32.038 28.6924 34.5018 28.7776Z" fill="#B43100"/>
<path d="M34.5089 28.7847C37.0793 28.8699 39.465 30.4462 39.465 33.0166C39.465 35.5869 37.0793 38.1005 34.5089 38.1005C31.9386 38.1005 29.7729 36.0129 29.851 33.4426C29.9292 30.8154 32.0451 28.6995 34.5089 28.7847Z" fill="#B63200"/>
<path d="M34.5089 28.7918C37.0793 28.877 39.465 30.4462 39.465 33.0166C39.465 35.5869 37.0793 38.1005 34.5089 38.1005C31.9386 38.1005 29.7729 36.0129 29.851 33.4426C29.9292 30.8154 32.0451 28.6995 34.5089 28.7847V28.7918Z" fill="#B83200"/>
<path d="M34.516 28.799C37.0863 28.8842 39.4792 30.4463 39.4792 33.0237C39.4792 35.6012 37.0863 38.1147 34.516 38.1147C31.9456 38.1147 29.78 36.0272 29.8581 33.4569C29.9362 30.8226 32.0593 28.7138 34.516 28.799Z" fill="#B93300"/>
<path d="M39.4863 33.0237C39.4863 35.5941 37.0934 38.1147 34.5231 38.1147C31.9527 38.1147 29.7871 36.0272 29.8652 33.4569C29.9433 30.8226 32.0663 28.7138 34.5231 28.799C37.0934 28.8913 39.4863 30.4463 39.4863 33.0166V33.0237Z" fill="#BB3300"/>
<path opacity="0.99" d="M34.5231 28.8131C37.0934 28.8983 39.4863 30.4604 39.4863 33.0379C39.4863 35.6153 37.1005 38.1289 34.5231 38.1289C31.9456 38.1289 29.7871 36.0414 29.8652 33.471C29.9433 30.8439 32.0663 28.735 34.5231 28.8131Z" fill="#BC3502"/>
<path opacity="0.98" d="M34.5302 28.8202C37.1005 28.9054 39.4863 30.4746 39.4863 33.045C39.4863 35.6153 37.1005 38.1289 34.5302 38.1289C31.9598 38.1289 29.8013 36.0414 29.8723 33.471C29.9504 30.8439 32.0663 28.735 34.5302 28.8131V28.8202Z" fill="#BC3705"/>
<path opacity="0.97" d="M34.5302 28.8273C37.1005 28.9125 39.4863 30.4888 39.4863 33.0591C39.4863 35.6295 37.1005 38.143 34.5302 38.143C31.9598 38.143 29.8013 36.0555 29.8723 33.4852C29.9504 30.858 32.0663 28.7492 34.5302 28.8273Z" fill="#BD3907"/>
<path opacity="0.96" d="M34.5374 28.8344C37.1077 28.9196 39.4864 30.4959 39.4864 33.0662C39.4864 35.6366 37.1077 38.143 34.5374 38.143C31.967 38.143 29.8085 36.0555 29.8795 33.4852C29.9576 30.858 32.0735 28.7492 34.5374 28.8273V28.8344Z" fill="#BD3A09"/>
<path opacity="0.95" d="M34.5445 28.8416C37.1148 28.9268 39.4934 30.5102 39.4934 33.0805C39.4934 35.6509 37.1148 38.1502 34.5445 38.1502C31.9741 38.1502 29.8156 36.0627 29.8866 33.4924C29.9647 30.8652 32.0806 28.7564 34.5445 28.8345V28.8416Z" fill="#BE3C0C"/>
<path opacity="0.95" d="M34.5445 28.8416C37.1148 28.9268 39.4935 30.5102 39.4935 33.0805C39.4935 35.6509 37.1219 38.1502 34.5445 38.1502C31.967 38.1502 29.8156 36.0627 29.8866 33.4924C29.9647 30.8652 32.0806 28.7564 34.5445 28.8345V28.8416Z" fill="#BF3E0E"/>
<path opacity="0.94" d="M34.5515 28.8487C37.1219 28.9339 39.4934 30.5244 39.4934 33.0947C39.4934 35.6651 37.1219 38.1573 34.5515 38.1573C31.9812 38.1573 29.8227 36.0698 29.8937 33.4994C29.9718 30.8723 32.0877 28.7635 34.5515 28.8416V28.8487Z" fill="#BF4010"/>
<path opacity="0.93" d="M34.5515 28.8558C37.1219 28.941 39.4934 30.5315 39.4934 33.1018C39.4934 35.6722 37.1219 38.1644 34.5515 38.1644C31.9812 38.1644 29.8227 36.0769 29.8937 33.5065C29.9647 30.8794 32.0806 28.7706 34.5515 28.8487V28.8558Z" fill="#C04213"/>
<path opacity="0.92" d="M34.5586 28.8628C37.129 28.9409 39.4934 30.5456 39.4934 33.116C39.4934 35.6863 37.129 38.1715 34.5586 38.1715C31.9883 38.1715 29.8297 36.084 29.9008 33.5136C29.9718 30.8865 32.0877 28.7776 34.5586 28.8557V28.8628Z" fill="#C14415"/>
<path opacity="0.91" d="M34.5586 28.8699C37.129 28.948 39.4934 30.5527 39.4934 33.1302C39.4934 35.7076 37.129 38.1857 34.5586 38.1857C31.9883 38.1857 29.8297 36.0981 29.9008 33.5278C29.9718 30.9006 32.0877 28.7989 34.5586 28.8699Z" fill="#C14617"/>
<path opacity="0.9" d="M34.5657 28.877C37.136 28.9551 39.5005 30.5669 39.5005 33.1373C39.5005 35.7076 37.136 38.1857 34.5657 38.1857C31.9954 38.1857 29.8368 36.0981 29.9078 33.5278C29.9788 30.9006 32.0948 28.7989 34.5657 28.8699V28.877Z" fill="#C24719"/>
<path opacity="0.89" d="M34.5657 28.8771C37.1361 28.9552 39.4934 30.5741 39.4934 33.1445C39.4934 35.7148 37.1361 38.1929 34.5657 38.1929C31.9954 38.1929 29.844 36.1053 29.9079 33.535C29.9789 30.9078 32.0948 28.8061 34.5657 28.8771Z" fill="#C2491C"/>
<path opacity="0.88" d="M34.5728 28.8842C37.1432 28.9623 39.5005 30.5812 39.5005 33.1516C39.5005 35.7219 37.1432 38.1929 34.5728 38.1929C32.0025 38.1929 29.8511 36.1053 29.915 33.535C29.986 30.9078 32.1019 28.8061 34.5728 28.8771V28.8842Z" fill="#C34B1E"/>
<path opacity="0.87" d="M34.5799 28.8913C37.1503 28.9694 39.5005 30.5954 39.5005 33.1657C39.5005 35.7361 37.1503 38.1999 34.5799 38.1999C32.0096 38.1999 29.8581 36.1124 29.922 33.5421C29.993 30.922 32.109 28.8132 34.5799 28.8842V28.8913Z" fill="#C44D20"/>
<path opacity="0.86" d="M34.5799 28.8984C37.1503 28.9765 39.5005 30.6025 39.5005 33.1728C39.5005 35.7432 37.1503 38.207 34.5799 38.207C32.0096 38.207 29.8581 36.1195 29.922 33.5491C29.993 30.9291 32.1019 28.8203 34.5799 28.8913V28.8984Z" fill="#C44F23"/>
<path opacity="0.85" d="M34.587 28.9054C37.1573 28.9836 39.5076 30.6166 39.5076 33.187C39.5076 35.7573 37.1573 38.2141 34.587 38.2141C32.0166 38.2141 29.8652 36.1266 29.9291 33.5562C30.0001 30.9362 32.1089 28.8273 34.587 28.8983V28.9054Z" fill="#C55125"/>
<path opacity="0.85" d="M34.587 28.9125C37.1573 28.9906 39.5005 30.6237 39.5005 33.1941C39.5005 35.7644 37.1573 38.2212 34.587 38.2212C32.0166 38.2212 29.8652 36.1336 29.9291 33.5633C30.0001 30.9432 32.1089 28.8344 34.587 28.9054V28.9125Z" fill="#C65327"/>
<path opacity="0.84" d="M34.5941 28.9196C37.1644 28.9906 39.5076 30.6379 39.5076 33.2083C39.5076 35.7786 37.1644 38.2282 34.5941 38.2282C32.0237 38.2282 29.8723 36.1407 29.9362 33.5704C30.0001 30.9503 32.116 28.8415 34.5941 28.9125V28.9196Z" fill="#C6542A"/>
<path opacity="0.83" d="M34.5941 28.9196C37.1644 28.9906 39.5005 30.6379 39.5005 33.2154C39.5005 35.7928 37.1644 38.2354 34.5941 38.2354C32.0237 38.2354 29.8723 36.1479 29.9362 33.5775C30.0001 30.9575 32.116 28.8557 34.5941 28.9196Z" fill="#C7562C"/>
<path opacity="0.82" d="M34.6013 28.9267C37.1716 28.9977 39.5077 30.6521 39.5077 33.2225C39.5077 35.7928 37.1716 38.2354 34.6013 38.2354C32.0309 38.2354 29.8795 36.1479 29.9434 33.5775C30.0073 30.9575 32.1232 28.8557 34.6013 28.9196V28.9267Z" fill="#C7582E"/>
<path opacity="0.81" d="M34.6013 28.9338C37.1716 29.0048 39.5077 30.6663 39.5077 33.2367C39.5077 35.807 37.1716 38.2425 34.6013 38.2425C32.0309 38.2425 29.8795 36.1549 29.9434 33.5846C30.0073 30.9645 32.1232 28.8628 34.6013 28.9267V28.9338Z" fill="#C85A31"/>
<path opacity="0.8" d="M34.6083 28.941C37.1787 29.012 39.5076 30.6735 39.5076 33.2439C39.5076 35.8142 37.1787 38.2497 34.6083 38.2497C32.038 38.2497 29.8936 36.1621 29.9504 33.5918C30.0143 30.9717 32.1232 28.87 34.6083 28.9339V28.941Z" fill="#C95C33"/>
<path opacity="0.79" d="M34.6154 28.9481C37.1857 29.0191 39.5147 30.6877 39.5147 33.258C39.5147 35.8284 37.1857 38.2567 34.6154 38.2567C32.045 38.2567 29.9007 36.1692 29.9575 33.5989C30.0214 30.9788 32.1302 28.8771 34.6154 28.941V28.9481Z" fill="#C95E35"/>
<path opacity="0.78" d="M34.6154 28.9552C37.1857 29.0262 39.5076 30.6948 39.5076 33.2651C39.5076 35.8355 37.1857 38.2638 34.6154 38.2638C32.045 38.2638 29.9007 36.1763 29.9575 33.6059C30.0214 30.9859 32.1302 28.8842 34.6154 28.9481V28.9552Z" fill="#CA6038"/>
<path opacity="0.77" d="M34.6225 28.9552C37.1928 29.0262 39.5147 30.7019 39.5147 33.2722C39.5147 35.8426 37.1928 38.2638 34.6225 38.2638C32.0521 38.2638 29.9078 36.1763 29.9646 33.6059C30.0285 30.9859 32.1373 28.8842 34.6225 28.9481V28.9552Z" fill="#CA613A"/>
<path opacity="0.76" d="M34.6225 28.9622C37.1928 29.0332 39.5147 30.7089 39.5147 33.2864C39.5147 35.8638 37.1928 38.278 34.6225 38.278C32.0521 38.278 29.9078 36.1905 29.9646 33.6201C30.0285 31.0001 32.1373 28.8983 34.6225 28.9622Z" fill="#CB633C"/>
<path opacity="0.75" d="M34.6297 28.9693C37.2 29.0332 39.5148 30.7231 39.5148 33.2935C39.5148 35.8638 37.2 38.278 34.6297 38.278C32.0593 38.278 29.915 36.1904 29.9718 33.6201C30.0357 31.0071 32.1445 28.8983 34.6297 28.9622V28.9693Z" fill="#CC653F"/>
<path opacity="0.75" d="M34.6297 28.9765C37.2 29.0404 39.5148 30.7374 39.5148 33.3078C39.5148 35.8781 37.2 38.2923 34.6297 38.2923C32.0593 38.2923 29.915 36.2047 29.9718 33.6344C30.0286 31.0214 32.1445 28.9126 34.6297 28.9765Z" fill="#CC6741"/>
<path opacity="0.74" d="M34.6368 28.9836C37.2071 29.0475 39.5218 30.7445 39.5218 33.3148C39.5218 35.8852 37.2142 38.2922 34.6368 38.2922C32.0593 38.2922 29.9221 36.2047 29.9789 33.6343C30.0357 31.0214 32.1445 28.9197 34.6368 28.9765V28.9836Z" fill="#CD6943"/>
<path opacity="0.73" d="M34.6438 28.9906C37.2142 29.0546 39.5218 30.7586 39.5218 33.329C39.5218 35.8993 37.2142 38.2993 34.6438 38.2993C32.0735 38.2993 29.9292 36.2118 29.986 33.6414C30.0428 31.0285 32.1516 28.9267 34.6438 28.9835V28.9906Z" fill="#CE6B46"/>
<path opacity="0.72" d="M34.6438 28.9906C37.2142 29.0546 39.5218 30.7586 39.5218 33.329C39.5218 35.8993 37.2142 38.2993 34.6438 38.2993C32.0735 38.2993 29.9292 36.2118 29.986 33.6414C30.0428 31.0285 32.1516 28.9267 34.6438 28.9835V28.9906Z" fill="#CE6C48"/>
<path opacity="0.71" d="M34.6509 28.9977C37.2213 29.0616 39.5218 30.7728 39.5218 33.3432C39.5218 35.9135 37.2213 38.3064 34.6509 38.3064C32.0806 38.3064 29.9433 36.2188 29.993 33.6485C30.0498 31.0355 32.1587 28.9338 34.6509 28.9906V28.9977Z" fill="#CF6E4A"/>
<path opacity="0.7" d="M34.6509 29.0048C37.2213 29.0687 39.5218 30.7799 39.5218 33.3503C39.5218 35.9206 37.2213 38.3134 34.6509 38.3134C32.0806 38.3134 29.9433 36.2259 29.993 33.6556C30.0498 31.0426 32.1587 28.9409 34.6509 28.9977V29.0048Z" fill="#CF704C"/>
<path opacity="0.69" d="M34.658 29.012C37.2283 29.0759 39.5289 30.7942 39.5289 33.3646C39.5289 35.9349 37.2354 38.3206 34.658 38.3206C32.0805 38.3206 29.9504 36.2331 30.0001 33.6628C30.0569 31.0498 32.1657 28.9481 34.658 29.0049V29.012Z" fill="#D0724F"/>
<path opacity="0.68" d="M34.658 29.0191C37.2283 29.083 39.5218 30.8013 39.5218 33.3787C39.5218 35.9562 37.2283 38.3348 34.658 38.3348C32.0876 38.3348 29.9504 36.2473 30.0001 33.6769C30.0569 31.064 32.1657 28.9623 34.658 29.0191Z" fill="#D17451"/>
<path opacity="0.67" d="M34.6652 29.0262C37.2355 29.083 39.529 30.8155 39.529 33.3858C39.529 35.9562 37.2355 38.3348 34.6652 38.3348C32.0948 38.3348 29.9576 36.2473 30.0073 33.6769C30.0641 31.064 32.1658 28.9623 34.6652 29.0191V29.0262Z" fill="#D17653"/>
<path opacity="0.66" d="M34.6652 29.0261C37.2355 29.083 39.5219 30.8226 39.5219 33.3929C39.5219 35.9633 37.2355 38.3419 34.6652 38.3419C32.0948 38.3419 29.9576 36.2544 30.0073 33.684C30.0641 31.0711 32.1658 28.9693 34.6652 29.0261Z" fill="#D27856"/>
<path opacity="0.65" d="M34.6723 29.0332C37.2426 29.09 39.5289 30.8296 39.5289 33.4C39.5289 35.9703 37.2426 38.3419 34.6723 38.3419C32.1019 38.3419 29.9647 36.2544 30.0144 33.684C30.0641 31.0711 32.1729 28.9764 34.6723 29.0261V29.0332Z" fill="#D27958"/>
<path opacity="0.65" d="M34.6793 29.0403C37.2497 29.0971 39.536 30.8438 39.536 33.4142C39.536 35.9845 37.2568 38.349 34.6793 38.349C32.1019 38.349 29.9718 36.2614 30.0215 33.6911C30.0712 31.0781 32.18 28.9835 34.6793 29.0332V29.0403Z" fill="#D37B5A"/>
<path opacity="0.64" d="M34.6793 29.0475C37.2497 29.1043 39.5289 30.851 39.5289 33.4214C39.5289 35.9917 37.2497 38.3562 34.6793 38.3562C32.109 38.3562 29.9718 36.2686 30.0215 33.6983C30.0712 31.0924 32.18 28.9907 34.6793 29.0404V29.0475Z" fill="#D47D5D"/>
<path opacity="0.63" d="M34.6864 29.0546C37.2568 29.1114 39.536 30.8652 39.536 33.4355C39.536 36.0059 37.2568 38.3632 34.6864 38.3632C32.1161 38.3632 29.9789 36.2757 30.0286 33.7054C30.0783 31.0995 32.1871 28.9978 34.6864 29.0475V29.0546Z" fill="#D47F5F"/>
<path opacity="0.62" d="M34.6865 29.0617C37.2568 29.1185 39.5289 30.8723 39.5289 33.4426C39.5289 36.013 37.2568 38.3703 34.6865 38.3703C32.1161 38.3703 29.986 36.2828 30.0286 33.7124C30.0783 31.1066 32.18 29.0049 34.6865 29.0546V29.0617Z" fill="#D58161"/>
<path opacity="0.61" d="M34.6935 29.0617C37.2639 29.1185 39.536 30.8794 39.536 33.4497C39.536 36.0201 37.2639 38.3703 34.6935 38.3703C32.1232 38.3703 29.9931 36.2828 30.0357 33.7124C30.0854 31.1066 32.1871 29.0049 34.6935 29.0546V29.0617Z" fill="#D68364"/>
<path opacity="0.6" d="M34.6935 29.0687C37.2639 29.1255 39.536 30.8935 39.536 33.4639C39.536 36.0342 37.2639 38.3845 34.6935 38.3845C32.1232 38.3845 29.9931 36.297 30.0357 33.7266C30.0854 31.1208 32.1871 29.019 34.6935 29.0687Z" fill="#D68566"/>
<path opacity="0.59" d="M34.7006 29.0758C37.271 29.1255 39.536 30.9006 39.536 33.471C39.536 36.0413 37.271 38.3845 34.7006 38.3845C32.1303 38.3845 30.0001 36.297 30.0427 33.7266C30.0924 31.1208 32.1942 29.019 34.7006 29.0687V29.0758Z" fill="#D78668"/>
<path opacity="0.58" d="M34.7006 29.0829C37.271 29.1326 39.536 30.9148 39.536 33.4852C39.536 36.0555 37.271 38.3916 34.7006 38.3916C32.1303 38.3916 30.0001 36.304 30.0427 33.7337C30.0924 31.1278 32.1942 29.0261 34.7006 29.0758V29.0829Z" fill="#D7886B"/>
<path opacity="0.57" d="M34.7077 29.09C37.278 29.1397 39.536 30.9219 39.536 33.4923C39.536 36.0626 37.278 38.3987 34.7077 38.3987C32.1373 38.3987 30.0072 36.3111 30.0498 33.7408C30.0924 31.1349 32.2012 29.0403 34.7077 29.0829V29.09Z" fill="#D88A6D"/>
<path opacity="0.56" d="M34.7149 29.0972C37.2852 29.1469 39.5432 30.9362 39.5432 33.5066C39.5432 36.0769 37.2852 38.4059 34.7149 38.4059C32.1445 38.4059 30.0144 36.3183 30.057 33.748C30.0996 31.1421 32.2084 29.0475 34.7149 29.0901V29.0972Z" fill="#D98C6F"/>
<path opacity="0.55" d="M34.7149 29.1043C37.2852 29.154 39.5432 30.9433 39.5432 33.5137C39.5432 36.084 37.2852 38.4129 34.7149 38.4129C32.1445 38.4129 30.0144 36.3254 30.057 33.7551C30.0996 31.1492 32.2013 29.0546 34.7149 29.0972V29.1043Z" fill="#D98E72"/>
<path opacity="0.55" d="M34.722 29.1043C37.2923 29.154 39.5432 30.9504 39.5432 33.5208C39.5432 36.0911 37.2923 38.4129 34.722 38.4129C32.1516 38.4129 30.0215 36.3254 30.0641 33.7551C30.1067 31.1492 32.2084 29.0546 34.722 29.0972V29.1043Z" fill="#DA9074"/>
<path opacity="0.54" d="M34.722 29.1114C37.2923 29.1611 39.5432 30.9575 39.5432 33.5349C39.5432 36.1124 37.2923 38.4271 34.722 38.4271C32.1516 38.4271 30.0215 36.3396 30.0641 33.7692C30.1067 31.1634 32.2084 29.0688 34.722 29.1114Z" fill="#DB9276"/>
<path opacity="0.53" d="M34.729 29.1185C37.2993 29.1682 39.5431 30.9717 39.5431 33.542C39.5431 36.1124 37.2993 38.4271 34.729 38.4271C32.1586 38.4271 30.0356 36.3396 30.0711 33.7692C30.1137 31.1634 32.2154 29.0688 34.729 29.1114V29.1185Z" fill="#DB9379"/>
<path opacity="0.52" d="M34.729 29.1255C37.2993 29.1681 39.5431 30.9858 39.5431 33.5562C39.5431 36.1265 37.2993 38.4413 34.729 38.4413C32.1586 38.4413 30.0356 36.3537 30.0711 33.7834C30.1137 31.1846 32.2154 29.0829 34.729 29.1255Z" fill="#DC957B"/>
<path opacity="0.51" d="M34.7362 29.1326C37.3065 29.1752 39.5503 30.9929 39.5503 33.5633C39.5503 36.1336 37.3065 38.4413 34.7362 38.4413C32.1658 38.4413 30.0428 36.3537 30.0783 33.7834C30.1209 31.1846 32.2226 29.0829 34.7362 29.1255V29.1326Z" fill="#DC977D"/>
<path opacity="0.5" d="M34.7433 29.1398C37.3136 29.1824 39.5502 31.0072 39.5502 33.5776C39.5502 36.1479 37.3136 38.4485 34.7433 38.4485C32.1729 38.4485 30.0499 36.3609 30.0854 33.7906C30.128 31.1918 32.2297 29.0901 34.7433 29.1327V29.1398Z" fill="#DD9980"/>
<path opacity="0.49" d="M34.7433 29.1397C37.3136 29.1823 39.5502 31.0072 39.5502 33.5775C39.5502 36.1479 37.3136 38.4484 34.7433 38.4484C32.1729 38.4484 30.0499 36.3609 30.0854 33.7905C30.128 31.1918 32.2226 29.0971 34.7433 29.1326V29.1397Z" fill="#DE9B82"/>
<path opacity="0.48" d="M34.7503 29.1468C37.3207 29.1894 39.5502 31.0213 39.5502 33.5917C39.5502 36.162 37.3207 38.4555 34.7503 38.4555C32.18 38.4555 30.057 36.3679 30.0925 33.7976C30.128 31.1988 32.2297 29.1042 34.7503 29.1397V29.1468Z" fill="#DE9D84"/>
<path opacity="0.47" d="M34.7503 29.154C37.3207 29.1966 39.5502 31.0285 39.5502 33.5989C39.5502 36.1692 37.3207 38.4627 34.7503 38.4627C32.18 38.4627 30.057 36.3751 30.0925 33.8048C30.128 31.206 32.2297 29.1114 34.7503 29.1469V29.154Z" fill="#DF9F86"/>
<path opacity="0.46" d="M34.7574 29.1611C37.3278 29.2037 39.5573 31.0427 39.5573 33.6131C39.5573 36.1834 37.3278 38.4697 34.7574 38.4697C32.1871 38.4697 30.0641 36.3822 30.0996 33.8119C30.1351 31.2131 32.2368 29.1185 34.7574 29.154V29.1611Z" fill="#DFA089"/>
<path opacity="0.45" d="M34.7574 29.1682C37.3278 29.2108 39.5502 31.0498 39.5502 33.6272C39.5502 36.2047 37.3278 38.4839 34.7574 38.4839C32.1871 38.4839 30.0641 36.3964 30.0996 33.826C30.1351 31.2273 32.2368 29.1327 34.7574 29.1682Z" fill="#E0A28B"/>
<path opacity="0.45" d="M34.7645 29.1753C37.3349 29.2179 39.5573 31.064 39.5573 33.6343C39.5573 36.2047 37.3349 38.4839 34.7645 38.4839C32.1942 38.4839 30.0711 36.3964 30.1066 33.826C30.1421 31.2273 32.2439 29.1327 34.7645 29.1682V29.1753Z" fill="#E1A48D"/>
<path opacity="0.44" d="M34.7645 29.1752C37.3348 29.2108 39.5573 31.0711 39.5573 33.6414C39.5573 36.2118 37.3419 38.491 34.7645 38.491C32.187 38.491 30.0782 36.4035 30.1066 33.8331C30.1421 31.2344 32.2438 29.1397 34.7645 29.1752Z" fill="#E1A690"/>
<path opacity="0.43" d="M34.7717 29.1823C37.342 29.2179 39.5574 31.0782 39.5574 33.6485C39.5574 36.2189 37.342 38.491 34.7717 38.491C32.2013 38.491 30.0854 36.4035 30.1138 33.8331C30.1493 31.2344 32.2439 29.1397 34.7717 29.1752V29.1823Z" fill="#E2A892"/>
<path opacity="0.42" d="M34.7788 29.1894C37.3491 29.2249 39.5644 31.0923 39.5644 33.6627C39.5644 36.233 37.3491 38.4981 34.7788 38.4981C32.2084 38.4981 30.0925 36.4105 30.1209 33.8402C30.1564 31.2414 32.251 29.1468 34.7788 29.1823V29.1894Z" fill="#E3AA94"/>
<path opacity="0.41" d="M34.7788 29.1966C37.3491 29.2321 39.5573 31.0995 39.5573 33.6699C39.5573 36.2402 37.3491 38.5052 34.7788 38.5052C32.2084 38.5052 30.0925 36.4177 30.1209 33.8474C30.1564 31.2486 32.251 29.1611 34.7788 29.1895V29.1966Z" fill="#E3AC97"/>
<path opacity="0.4" d="M34.7858 29.2037C37.3562 29.2392 39.5644 31.1137 39.5644 33.684C39.5644 36.2544 37.3562 38.5123 34.7858 38.5123C32.2155 38.5123 30.0996 36.4248 30.128 33.8544C30.1635 31.2628 32.2581 29.1682 34.7858 29.1966V29.2037Z" fill="#E4AD99"/>
<path opacity="0.39" d="M34.7858 29.2108C37.3562 29.2463 39.5644 31.1208 39.5644 33.6911C39.5644 36.2615 37.3633 38.5194 34.7858 38.5194C32.2084 38.5194 30.0996 36.4319 30.128 33.8615C30.1564 31.2699 32.2581 29.1753 34.7858 29.2037V29.2108Z" fill="#E4AF9B"/>
<path opacity="0.38" d="M34.7929 29.2108C37.3633 29.2463 39.5644 31.1279 39.5644 33.6982C39.5644 36.2686 37.3633 38.5194 34.7929 38.5194C32.2226 38.5194 30.1066 36.4319 30.135 33.8615C30.1634 31.2699 32.2652 29.1753 34.7929 29.2037V29.2108Z" fill="#E5B19E"/>
<path opacity="0.37" d="M34.7929 29.2178C37.3633 29.2533 39.5644 31.142 39.5644 33.7124C39.5644 36.2827 37.3633 38.5336 34.7929 38.5336C32.2226 38.5336 30.1066 36.446 30.135 33.8757C30.1634 31.284 32.2652 29.1894 34.7929 29.2178Z" fill="#E6B3A0"/>
<path opacity="0.36" d="M34.8 29.2249C37.3703 29.2604 39.5644 31.1491 39.5644 33.7195C39.5644 36.2898 37.3703 38.5336 34.8 38.5336C32.2297 38.5336 30.1137 36.446 30.1421 33.8757C30.1705 31.284 32.2652 29.1894 34.8 29.2178V29.2249Z" fill="#E6B5A2"/>
<path opacity="0.35" d="M34.8 29.2321C37.3703 29.2605 39.5644 31.1634 39.5644 33.7338C39.5644 36.3041 37.3703 38.5408 34.8 38.5408C32.2297 38.5408 30.1137 36.4532 30.1421 33.8829C30.1705 31.2912 32.2652 29.1966 34.8 29.225V29.2321Z" fill="#E7B7A5"/>
<path opacity="0.35" d="M34.8072 29.2392C37.3775 29.2676 39.5716 31.1705 39.5716 33.7409C39.5716 36.3112 37.3846 38.5478 34.8072 38.5478C32.2297 38.5478 30.128 36.4603 30.1493 33.89C30.1777 31.2983 32.2724 29.2037 34.8072 29.2321V29.2392Z" fill="#E8B9A7"/>
<path opacity="0.34" d="M34.8143 29.2463C37.3846 29.2747 39.5716 31.1847 39.5716 33.755C39.5716 36.3254 37.3846 38.5549 34.8143 38.5549C32.2439 38.5549 30.1351 36.4674 30.1564 33.897C30.1848 31.3054 32.2794 29.2108 34.8143 29.2392V29.2463Z" fill="#E8BAA9"/>
<path opacity="0.33" d="M34.8143 29.2463C37.3846 29.2747 39.5716 31.1847 39.5716 33.755C39.5716 36.3254 37.3846 38.5549 34.8143 38.5549C32.2439 38.5549 30.1351 36.4674 30.1564 33.897C30.1848 31.3054 32.2794 29.2108 34.8143 29.2392V29.2463Z" fill="#E9BCAC"/>
<path opacity="0.32" d="M34.8214 29.2534C37.3917 29.2818 39.5715 31.1989 39.5715 33.7692C39.5715 36.3396 37.3917 38.562 34.8214 38.562C32.251 38.562 30.1422 36.4745 30.1635 33.9041C30.1919 31.3125 32.2865 29.225 34.8214 29.2463V29.2534Z" fill="#E9BEAE"/>
<path opacity="0.31" d="M34.8214 29.2604C37.3917 29.2888 39.5715 31.2059 39.5715 33.7834C39.5715 36.3608 37.3917 38.5762 34.8214 38.5762C32.251 38.5762 30.1422 36.4886 30.1635 33.9183C30.1848 31.3266 32.2865 29.2391 34.8214 29.2604Z" fill="#EAC0B0"/>
<path opacity="0.3" d="M34.8284 29.2675C37.3988 29.2959 39.5786 31.2201 39.5786 33.7905C39.5786 36.3608 37.4059 38.5762 34.8284 38.5762C32.251 38.5762 30.1493 36.4886 30.1706 33.9183C30.1919 31.3266 32.2865 29.2391 34.8284 29.2604V29.2675Z" fill="#EBC2B3"/>
<path opacity="0.29" d="M34.8284 29.2747C37.3988 29.3031 39.5715 31.2344 39.5715 33.8048C39.5715 36.3751 37.3988 38.5904 34.8284 38.5904C32.2581 38.5904 30.1493 36.5029 30.1706 33.9326C30.1919 31.3409 32.2865 29.2534 34.8284 29.2747Z" fill="#EBC4B5"/>
<path opacity="0.28" d="M34.8355 29.2818C37.4059 29.3102 39.5786 31.2415 39.5786 33.8119C39.5786 36.3822 37.4059 38.5904 34.8355 38.5904C32.2652 38.5904 30.1563 36.5029 30.1777 33.9326C30.199 31.348 32.2936 29.2534 34.8355 29.2747V29.2818Z" fill="#ECC6B7"/>
<path opacity="0.27" d="M34.8355 29.2889C37.4059 29.3102 39.5715 31.2557 39.5715 33.826C39.5715 36.3964 37.4059 38.5975 34.8355 38.5975C32.2652 38.5975 30.1563 36.51 30.1777 33.9396C30.199 31.3551 32.2936 29.2605 34.8355 29.2818V29.2889Z" fill="#ECC7B9"/>
<path opacity="0.26" d="M34.8426 29.2889C37.4129 29.3102 39.5786 31.2557 39.5786 33.826C39.5786 36.3964 37.4129 38.5975 34.8426 38.5975C32.2722 38.5975 30.1634 36.51 30.1847 33.9396C30.206 31.3551 32.3007 29.2605 34.8426 29.2818V29.2889Z" fill="#EDC9BC"/>
<path opacity="0.25" d="M34.8497 29.296C37.4201 29.3173 39.5857 31.2699 39.5857 33.8402C39.5857 36.4106 37.4201 38.6046 34.8497 38.6046C32.2794 38.6046 30.1776 36.5171 30.1918 33.9467C30.2131 31.3622 32.3078 29.2676 34.8497 29.2889V29.296Z" fill="#EECBBE"/>
<path opacity="0.25" d="M34.8497 29.303C37.4201 29.3243 39.5786 31.277 39.5786 33.8473C39.5786 36.4176 37.4201 38.6117 34.8497 38.6117C32.2794 38.6117 30.1776 36.5242 30.1918 33.9538C30.2131 31.3693 32.3007 29.2746 34.8497 29.2959V29.303Z" fill="#EECDC0"/>
<path opacity="0.24" d="M34.8568 29.3102C37.4271 29.3315 39.5857 31.2912 39.5857 33.8615C39.5857 36.4319 37.4271 38.6188 34.8568 38.6188C32.2864 38.6188 30.1847 36.5313 30.1989 33.9609C30.2202 31.3764 32.3077 29.2888 34.8568 29.3031V29.3102Z" fill="#EFCFC3"/>
<path opacity="0.23" d="M34.8568 29.3173C37.4271 29.3386 39.5786 31.3054 39.5786 33.8758C39.5786 36.4461 37.4271 38.6331 34.8568 38.6331C32.2864 38.6331 30.1847 36.5456 30.1989 33.9752C30.2202 31.3907 32.3077 29.3031 34.8568 29.3173Z" fill="#F0D1C5"/>
<path opacity="0.22" d="M34.864 29.3244C37.4343 29.3457 39.5858 31.3125 39.5858 33.8829C39.5858 36.4532 37.4343 38.6331 34.864 38.6331C32.2936 38.6331 30.1919 36.5456 30.2061 33.9752C30.2203 31.3907 32.3149 29.3031 34.864 29.3173V29.3244Z" fill="#F0D2C7"/>
<path opacity="0.21" d="M34.864 29.3244C37.4343 29.3457 39.5858 31.3196 39.5858 33.89C39.5858 36.4603 37.4343 38.6402 34.864 38.6402C32.2936 38.6402 30.1919 36.5526 30.2061 33.9823C30.2203 31.3977 32.3149 29.3102 34.864 29.3244Z" fill="#F1D4CA"/>
<path opacity="0.2" d="M34.8711 29.3315C37.4414 29.3528 39.5857 31.3267 39.5857 33.8971C39.5857 36.4674 37.4414 38.6402 34.8711 38.6402C32.3007 38.6402 30.199 36.5526 30.2132 33.9823C30.2274 31.3977 32.322 29.3102 34.8711 29.3244V29.3315Z" fill="#F1D6CC"/>
<path opacity="0.19" d="M34.8782 29.3386C37.4485 29.3528 39.5928 31.3409 39.5928 33.9113C39.5928 36.4816 37.4485 38.6472 34.8782 38.6472C32.3078 38.6472 30.2061 36.5597 30.2203 33.9894C30.2345 31.4048 32.3291 29.3173 34.8782 29.3315V29.3386Z" fill="#F2D8CE"/>
<path opacity="0.18" d="M34.8782 29.3457C37.4485 29.3599 39.5857 31.348 39.5857 33.9183C39.5857 36.4887 37.4485 38.6543 34.8782 38.6543C32.3078 38.6543 30.2061 36.5668 30.2203 33.9964C30.2345 31.4119 32.322 29.3244 34.8782 29.3386V29.3457Z" fill="#F3DAD1"/>
<path opacity="0.17" d="M34.8852 29.3528C37.4556 29.367 39.5928 31.3622 39.5928 33.9325C39.5928 36.5029 37.4556 38.6614 34.8852 38.6614C32.3149 38.6614 30.2132 36.5739 30.2274 34.0035C30.2416 31.419 32.3291 29.3315 34.8852 29.3457V29.3528Z" fill="#F3DCD3"/>
<path opacity="0.16" d="M34.8852 29.3599C37.4555 29.3741 39.5928 31.3694 39.5928 33.9468C39.5928 36.5242 37.4555 38.6757 34.8852 38.6757C32.3148 38.6757 30.2202 36.5882 30.2273 34.0178C30.2415 31.4404 32.329 29.3457 34.8852 29.3599Z" fill="#F4DED5"/>
<path opacity="0.15" d="M34.8924 29.3599C37.4627 29.3741 39.5929 31.3764 39.5929 33.9468C39.5929 36.5171 37.4627 38.6685 34.8924 38.6685C32.322 38.6685 30.2274 36.581 30.2345 34.0107C30.2487 31.4332 32.3362 29.3457 34.8924 29.3528V29.3599Z" fill="#F4DFD8"/>
<path opacity="0.15" d="M34.8924 29.367C37.4627 29.3812 39.5929 31.3906 39.5929 33.9609C39.5929 36.5313 37.4627 38.6827 34.8924 38.6827C32.322 38.6827 30.2274 36.5952 30.2345 34.0248C30.2487 31.4474 32.3362 29.3599 34.8924 29.367Z" fill="#F5E1DA"/>
<path opacity="0.14" d="M34.8995 29.3741C37.4698 29.3883 39.5999 31.3977 39.5999 33.968C39.5999 36.5384 37.4769 38.6827 34.8995 38.6827C32.322 38.6827 30.2345 36.5952 30.2416 34.0248C30.2558 31.4474 32.3433 29.3599 34.8995 29.367V29.3741Z" fill="#F6E3DC"/>
<path opacity="0.13" d="M34.8995 29.3811C37.4698 29.3953 39.5928 31.4119 39.5928 33.9822C39.5928 36.5526 37.4698 38.6898 34.8995 38.6898C32.3291 38.6898 30.2345 36.6023 30.2416 34.0319C30.2487 31.4545 32.3433 29.3669 34.8995 29.374V29.3811Z" fill="#F6E5DF"/>
<path opacity="0.12" d="M34.9065 29.3882C37.4769 29.3953 39.5999 31.4189 39.5999 33.9893C39.5999 36.5596 37.4769 38.6969 34.9065 38.6969C32.3362 38.6969 30.2416 36.6093 30.2487 34.039C30.2558 31.4615 32.3433 29.374 34.9065 29.3811V29.3882Z" fill="#F7E7E1"/>
<path opacity="0.11" d="M34.9136 29.3954C37.484 29.4025 39.5999 31.4332 39.5999 34.0036C39.5999 36.5739 37.484 38.7041 34.9136 38.7041C32.3433 38.7041 30.2487 36.6165 30.2558 34.0462C30.2629 31.4687 32.3504 29.3812 34.9136 29.3883V29.3954Z" fill="#F8E9E3"/>
<path opacity="0.1" d="M34.9136 29.3954C37.484 29.4025 39.5999 31.4332 39.5999 34.0036C39.5999 36.5739 37.484 38.7041 34.9136 38.7041C32.3433 38.7041 30.2487 36.6165 30.2558 34.0462C30.2629 31.4687 32.3504 29.3812 34.9136 29.3883V29.3954Z" fill="#F8EBE6"/>
<path opacity="0.09" d="M34.9207 29.4025C37.4911 29.4096 39.607 31.4474 39.607 34.0178C39.607 36.5881 37.4982 38.7111 34.9207 38.7111C32.3433 38.7111 30.2557 36.6236 30.2628 34.0533C30.2699 31.4758 32.3575 29.3883 34.9207 29.3954V29.4025Z" fill="#F9ECE8"/>
<path opacity="0.08" d="M34.9207 29.4096C37.491 29.4167 39.5999 31.4545 39.5999 34.0319C39.5999 36.6094 37.491 38.7253 34.9207 38.7253C32.3503 38.7253 30.2628 36.6378 30.2628 34.0674C30.2628 31.49 32.3574 29.4025 34.9207 29.4096Z" fill="#F9EEEA"/>
<path opacity="0.07" d="M34.9279 29.4166C37.4982 29.4166 39.6071 31.4687 39.6071 34.039C39.6071 36.6094 37.4982 38.7253 34.9279 38.7253C32.3575 38.7253 30.27 36.6378 30.27 34.0674C30.27 31.49 32.3646 29.4095 34.9279 29.4095V29.4166Z" fill="#FAF0EC"/>
<path opacity="0.06" d="M34.9279 29.4238C37.4982 29.4238 39.6 31.4829 39.6 34.0533C39.6 36.6236 37.4982 38.7396 34.9279 38.7396C32.3575 38.7396 30.27 36.652 30.27 34.0817C30.27 31.5042 32.3646 29.4238 34.9279 29.4238Z" fill="#FBF2EF"/>
<path opacity="0.05" d="M34.935 29.4309C37.5053 29.4309 39.607 31.49 39.607 34.0604C39.607 36.6307 37.5053 38.7396 34.935 38.7396C32.3646 38.7396 30.2771 36.652 30.2771 34.0817C30.2771 31.5042 32.3646 29.4238 34.935 29.4238V29.4309Z" fill="#FBF4F1"/>
<path opacity="0.05" d="M34.935 29.438C37.5053 29.438 39.607 31.5042 39.607 34.0746C39.607 36.6449 37.5124 38.7466 34.935 38.7466C32.3575 38.7466 30.2771 36.6591 30.2771 34.0888C30.2771 31.5184 32.3646 29.4309 34.935 29.4309V29.438Z" fill="#FCF6F3"/>
<path opacity="0.04" d="M34.942 29.438C37.5124 29.438 39.607 31.5042 39.607 34.0746C39.607 36.6449 37.5124 38.7466 34.942 38.7466C32.3717 38.7466 30.2842 36.6591 30.2842 34.0888C30.2842 31.5184 32.3717 29.4309 34.942 29.4309V29.438Z" fill="#FDF8F6"/>
<path opacity="0.03" d="M34.9491 29.4451C37.5195 29.4451 39.6141 31.5184 39.6141 34.0888C39.6141 36.6591 37.5195 38.7537 34.9491 38.7537C32.3788 38.7537 30.2913 36.6662 30.2913 34.0959C30.2913 31.5255 32.3788 29.438 34.9491 29.438V29.4451Z" fill="#FDF9F8"/>
<path opacity="0.02" d="M34.9491 29.4522C37.5195 29.4522 39.607 31.5255 39.607 34.0958C39.607 36.6662 37.5195 38.7608 34.9491 38.7608C32.3788 38.7608 30.2913 36.6733 30.2913 34.1029C30.2913 31.5326 32.3788 29.4451 34.9491 29.4451V29.4522Z" fill="#FEFBFA"/>
</g>
</g>
</g>
<defs>
<linearGradient id="paint0_linear_554_13717" x1="36.3338" y1="36.4106" x2="33.1102" y2="31.3622" gradientUnits="userSpaceOnUse">
<stop stop-color="#FF9200"/>
<stop offset="0.21" stop-color="#FF8D00"/>
<stop offset="0.45" stop-color="#FF7F00"/>
<stop offset="0.62" stop-color="#FF7100"/>
<stop offset="0.82" stop-color="#FF5E00"/>
<stop offset="1" stop-color="#FF5200"/>
</linearGradient>
<linearGradient id="paint1_linear_554_13717" x1="35.8225" y1="36.3396" x2="31.115" y2="27.1375" gradientUnits="userSpaceOnUse">
<stop stop-color="#FF7100" stop-opacity="0"/>
<stop offset="0.03" stop-color="#FF6D00" stop-opacity="0.03"/>
<stop offset="0.21" stop-color="#FF5900" stop-opacity="0.25"/>
<stop offset="0.39" stop-color="#FF4800" stop-opacity="0.42"/>
<stop offset="0.56" stop-color="#FF3B00" stop-opacity="0.56"/>
<stop offset="0.72" stop-color="#FF3200" stop-opacity="0.66"/>
<stop offset="0.86" stop-color="#FF2C00" stop-opacity="0.72"/>
<stop offset="0.98" stop-color="#FF2B00" stop-opacity="0.74"/>
</linearGradient>
<clipPath id="clip0_554_13717">
<rect width="55.6875" height="12.375" fill="white" transform="translate(4.94995 26.4)"/>
</clipPath>
</defs>
</svg>
