<svg width="66" height="66" viewBox="0 0 66 66" fill="none" xmlns="http://www.w3.org/2000/svg">
<rect x="0.5" y="0.5" width="65" height="65" rx="7.5" fill="white"/>
<rect x="0.5" y="0.5" width="65" height="65" rx="7.5" stroke="#E2E4ED"/>
<path d="M59.4 45.2297C59.4 49.6297 55.7208 53.2126 51.2024 53.2126H6.59998V21.5954C6.59998 17.1954 10.2792 13.6125 14.7975 13.6125H59.4V45.2297Z" fill="white"/>
<path d="M44.8768 37.1211H48.2656C48.3624 37.1211 48.5883 37.0897 48.6851 37.0897C49.3306 36.964 49.8793 36.3983 49.8793 35.6126C49.8793 34.8583 49.3306 34.2926 48.6851 34.1354C48.5883 34.104 48.3947 34.104 48.2656 34.104H44.8768V37.1211Z" fill="url(#paint0_linear_554_12026)"/>
<path d="M47.8782 16.2839C44.6508 16.2839 42.0043 18.8296 42.0043 22.0039V27.9439H50.2987C50.4923 27.9439 50.7183 27.9439 50.8796 27.9754C52.7515 28.0696 54.1393 29.0125 54.1393 30.6468C54.1393 31.9354 53.2033 33.0354 51.4606 33.2554V33.3182C53.3647 33.4439 54.817 34.4811 54.817 36.0839C54.817 37.8125 53.2033 38.9439 51.0733 38.9439H41.972V50.5725H50.5892C53.8165 50.5725 56.463 48.0268 56.463 44.8525V16.2839H47.8782Z" fill="url(#paint1_linear_554_12026)"/>
<path d="M49.4597 31.0238C49.4597 30.2696 48.9111 29.7667 48.2656 29.6724C48.201 29.6724 48.0397 29.641 47.9428 29.641H44.8768V32.4067H47.9428C48.0397 32.4067 48.2333 32.4067 48.2656 32.3753C48.9111 32.281 49.4597 31.7781 49.4597 31.0238Z" fill="url(#paint2_linear_554_12026)"/>
<path d="M15.4108 16.2839C12.1834 16.2839 9.53691 18.8297 9.53691 22.0039V36.1154C11.1829 36.9011 12.8934 37.4039 14.6039 37.4039C16.6372 37.4039 17.7345 36.2096 17.7345 34.5754V27.9125H22.7692V34.5439C22.7692 37.1211 21.1232 39.2268 15.5398 39.2268C12.1511 39.2268 9.50464 38.5039 9.50464 38.5039V50.5411H18.1218C21.3491 50.5411 23.9956 47.9954 23.9956 44.8211V16.2839H15.4108Z" fill="url(#paint3_linear_554_12026)"/>
<path d="M31.6446 16.2839C28.4172 16.2839 25.7708 18.8297 25.7708 22.0039V29.4839C27.2553 28.2582 29.8373 27.4725 34.0006 27.6611C36.2275 27.7554 38.6157 28.3525 38.6157 28.3525V30.7725C37.4216 30.1754 36.0016 29.6411 34.162 29.5154C30.9991 29.2954 29.095 30.8039 29.095 33.4439C29.095 36.1154 30.9991 37.6239 34.162 37.3725C36.0016 37.2468 37.4216 36.6811 38.6157 36.1154V38.5354C38.6157 38.5354 36.2598 39.1325 34.0006 39.2268C29.8373 39.4154 27.2553 38.6297 25.7708 37.4039V50.6039H34.3879C37.6153 50.6039 40.2617 48.0582 40.2617 44.8839V16.2839H31.6446Z" fill="url(#paint4_linear_554_12026)"/>
<defs>
<linearGradient id="paint0_linear_554_12026" x1="41.9991" y1="35.6163" x2="56.5021" y2="35.6163" gradientUnits="userSpaceOnUse">
<stop stop-color="#007940"/>
<stop offset="0.2285" stop-color="#00873F"/>
<stop offset="0.7433" stop-color="#40A737"/>
<stop offset="1" stop-color="#5CB531"/>
</linearGradient>
<linearGradient id="paint1_linear_554_12026" x1="41.9985" y1="33.4145" x2="56.5026" y2="33.4145" gradientUnits="userSpaceOnUse">
<stop stop-color="#007940"/>
<stop offset="0.2285" stop-color="#00873F"/>
<stop offset="0.7433" stop-color="#40A737"/>
<stop offset="1" stop-color="#5CB531"/>
</linearGradient>
<linearGradient id="paint2_linear_554_12026" x1="41.9987" y1="31.0199" x2="56.5023" y2="31.0199" gradientUnits="userSpaceOnUse">
<stop stop-color="#007940"/>
<stop offset="0.2285" stop-color="#00873F"/>
<stop offset="0.7433" stop-color="#40A737"/>
<stop offset="1" stop-color="#5CB531"/>
</linearGradient>
<linearGradient id="paint3_linear_554_12026" x1="9.53008" y1="33.4145" x2="24.2576" y2="33.4145" gradientUnits="userSpaceOnUse">
<stop stop-color="#1F286F"/>
<stop offset="0.4751" stop-color="#004E94"/>
<stop offset="0.8261" stop-color="#0066B1"/>
<stop offset="1" stop-color="#006FBC"/>
</linearGradient>
<linearGradient id="paint4_linear_554_12026" x1="25.6873" y1="33.4145" x2="39.9912" y2="33.4145" gradientUnits="userSpaceOnUse">
<stop stop-color="#6C2C2F"/>
<stop offset="0.1735" stop-color="#882730"/>
<stop offset="0.5731" stop-color="#BE1833"/>
<stop offset="0.8585" stop-color="#DC0436"/>
<stop offset="1" stop-color="#E60039"/>
</linearGradient>
</defs>
</svg>
