<svg width="66" height="66" viewBox="0 0 66 66" fill="none" xmlns="http://www.w3.org/2000/svg">
<rect width="66" height="66" rx="8" fill="#715F5F"/>
<path d="M25.1324 28.1696C25.8906 29.7976 26.7932 31.3895 27.9846 32.728C28.4179 31.9321 28.7428 31.1 29.1039 30.268C30.5119 26.5778 31.2701 22.6706 31.7756 18.7996C32.1366 15.8692 32.3894 12.8664 32.3532 9.93604C28.9955 10.0084 25.5656 10.8767 22.5329 12.3961C22.4606 12.4323 22.3523 12.5047 22.2801 12.577C22.2079 13.1559 22.2801 13.7709 22.244 14.3497C22.3523 19.0528 23.1827 23.8283 25.1324 28.1696Z" fill="#FFD505"/>
<path d="M36.1083 27.9889C36.6137 29.5807 37.1914 31.2087 37.9857 32.692C38.8522 31.6791 39.5743 30.5575 40.2242 29.3999C42.1377 25.8183 43.1486 21.7663 43.5458 17.7144C43.6902 16.0141 43.7985 14.2775 43.7263 12.5772C42.9681 12.1069 42.1016 11.7813 41.3073 11.4195C38.8522 10.4789 36.2527 9.97238 33.6171 9.90002C33.581 11.3471 33.6532 12.7942 33.7615 14.2052C34.0864 18.8721 34.7363 23.5029 36.1083 27.9889Z" fill="#FFD505"/>
<path d="M16.6841 30.2683C18.4171 27.6996 19.4641 24.7331 20.1501 21.7303C20.7639 18.9446 21.0888 16.0866 21.0888 13.2285C20.9083 13.3009 20.7278 13.4094 20.5834 13.5179C17.6589 15.3992 15.1316 17.9316 13.2903 20.9344C10.5825 25.3119 9.42712 30.7024 10.077 35.8035C12.7848 34.6819 15.0594 32.656 16.6841 30.2683Z" fill="#FFD505"/>
<path d="M53.4023 22.2006C51.7776 19.0893 49.3947 16.3398 46.5424 14.2777C46.0009 13.9159 45.4954 13.5179 44.9177 13.2285C44.9177 15.5077 45.1343 17.8231 45.5315 20.1023C46.1453 23.5392 47.2284 26.9761 49.1058 29.9065C50.7305 32.4751 53.0773 34.6458 55.9296 35.8035C56.5072 31.1727 55.6046 26.3249 53.4023 22.2006Z" fill="#FFD505"/>
<path d="M26.0713 36.9249C25.9268 36.6354 25.638 36.4184 25.4214 36.1651C24.4466 35.0436 23.6523 33.7774 22.9663 32.475C22.4247 31.4258 22.0276 30.3043 21.6665 29.219C21.4499 29.5446 21.3416 29.9064 21.2333 30.2682C20.5834 32.1132 19.6447 33.8859 18.4532 35.4416C16.6119 37.8293 14.1568 39.8553 11.3046 40.9044C11.3407 41.1215 11.4129 41.3386 11.4851 41.5194C12.2072 43.3283 13.1459 45.0649 14.3012 46.6205C14.7706 47.1994 15.2038 47.8506 15.7454 48.357C16.1065 48.2485 16.3953 48.0314 16.7202 47.8506C20.1862 45.6075 22.9302 42.3515 25.0242 38.8423C25.4214 38.2273 25.8185 37.6122 26.0713 36.9249Z" fill="#FFD505"/>
<path d="M33.292 30.4128C33.1837 30.0149 33.2198 29.5807 32.9671 29.2551C32.7144 29.5807 32.7505 30.051 32.6421 30.4128C31.8839 34.32 30.7286 38.191 29.1761 41.845C27.407 45.9693 25.0963 49.9488 21.8469 53.0963C21.7025 53.2772 22.0274 53.3495 22.1358 53.4219C25.3852 55.1222 29.0678 56.0629 32.7505 56.099C36.6858 56.1352 40.6934 55.1584 44.1233 53.2048C40.8739 49.985 38.4549 45.9693 36.6858 41.7726C35.2417 38.1187 34.0502 34.32 33.292 30.4128Z" fill="#FFD505"/>
<path d="M44.7371 30.2319C44.6288 29.9063 44.5566 29.5445 44.34 29.2551C44.1234 29.6169 44.015 30.051 43.8706 30.449C43.0041 32.8005 41.7044 34.9712 40.0075 36.8163C39.8269 36.961 39.9714 37.1419 40.0436 37.2866C40.8018 38.7337 41.6683 40.1085 42.607 41.4109C44.4483 43.9071 46.6507 46.1863 49.2863 47.9229C49.5751 48.1038 49.864 48.3208 50.1889 48.3932C50.4416 48.2123 50.6222 47.9229 50.8027 47.7058C52.0302 46.2225 53.0411 44.5945 53.8715 42.858C54.1604 42.243 54.4492 41.5918 54.6297 40.9406C53.0773 40.3617 51.6692 39.5296 50.4055 38.4805C47.806 36.3098 45.8564 33.4156 44.7371 30.2319Z" fill="#FFD505"/>
</svg>
