<svg width="66" height="66" viewBox="0 0 66 66" fill="none" xmlns="http://www.w3.org/2000/svg">
<rect x="0.5" y="0.5" width="65" height="65" rx="7.5" fill="white"/>
<rect x="0.5" y="0.5" width="65" height="65" rx="7.5" stroke="#E2E4ED"/>
<g clip-path="url(#clip0_554_3310)">
<path d="M15.1634 28.083H13.8764C13.6784 28.083 13.5134 28.248 13.5134 28.446V36.432C13.5134 36.63 13.6784 36.795 13.8764 36.795H15.1634C15.3614 36.795 15.5264 36.63 15.5264 36.432V28.446C15.5264 28.248 15.3614 28.083 15.1634 28.083Z" fill="black"/>
<path d="M12.0615 34.7985H8.59648V28.446C8.59648 28.248 8.43148 28.083 8.23348 28.083H6.96298C6.76498 28.083 6.59998 28.248 6.59998 28.446V36.432C6.59998 36.63 6.76498 36.795 6.96298 36.795H12.0615C12.2595 36.795 12.4245 36.63 12.4245 36.432V35.145C12.4245 34.947 12.2595 34.782 12.0615 34.782" fill="black"/>
<path d="M31.1519 30.0795C31.3499 30.0795 31.5149 29.9145 31.5149 29.7165V28.4295C31.5149 28.2315 31.3499 28.0665 31.1519 28.0665H26.0534C25.8554 28.0665 25.6904 28.2315 25.6904 28.4295V36.4155C25.6904 36.6135 25.8554 36.7785 26.0534 36.7785H31.1519C31.3499 36.7785 31.5149 36.6135 31.5149 36.4155V35.1285C31.5149 34.9305 31.3499 34.7655 31.1519 34.7655H27.6869V33.4125H31.1519C31.3499 33.4125 31.5149 33.2475 31.5149 33.0495V31.7625C31.5149 31.5645 31.3499 31.3995 31.1519 31.3995H27.6869V30.0465H31.1519V30.0795Z" fill="black"/>
<path d="M23.9744 28.083H22.6874C22.4894 28.083 22.3244 28.248 22.3244 28.446V33.066L18.9584 28.2645C18.8594 28.1325 18.7274 28.083 18.5624 28.083C18.5459 28.083 18.5294 28.083 18.4964 28.083H17.2094C17.0114 28.083 16.8464 28.248 16.8464 28.446V36.432C16.8464 36.63 17.0114 36.795 17.2094 36.795H18.4964C18.6944 36.795 18.8594 36.63 18.8594 36.432V31.5975L22.3574 36.6135C22.3574 36.6135 22.3904 36.6465 22.3904 36.663C22.4564 36.729 22.5389 36.7785 22.6379 36.795H23.9414C24.1394 36.795 24.3044 36.63 24.3044 36.432V28.446C24.3044 28.248 24.1394 28.083 23.9414 28.083" fill="black"/>
<path d="M58.4925 40.128H35.7555C35.2605 40.128 34.8645 39.732 34.8645 39.237V25.641C34.8645 25.146 35.2605 24.75 35.7555 24.75H58.4925C58.9875 24.75 59.3835 25.146 59.3835 25.641V39.237C59.3835 39.732 58.9875 40.128 58.4925 40.128Z" fill="#00C737"/>
<path d="M42.075 30.756C42.075 30.2445 41.712 29.8485 41.217 29.8485H40.1445V31.68H41.217C41.712 31.68 42.075 31.284 42.075 30.7725M43.7085 30.7725C43.7085 32.1255 42.6195 33.2145 41.217 33.2145H40.1445V35.211C40.1445 35.343 40.0455 35.4585 39.897 35.4585H38.742C38.61 35.4585 38.4945 35.3595 38.4945 35.211V28.545C38.4945 28.413 38.5935 28.2975 38.742 28.2975H41.2005C42.603 28.2975 43.692 29.3865 43.692 30.7395" fill="white"/>
<path d="M48.2129 32.8845C48.2129 32.1255 47.7014 31.647 47.0084 31.647C46.3154 31.647 45.8039 32.1255 45.8039 32.8845C45.8039 33.6435 46.3154 34.122 47.0084 34.122C47.7014 34.122 48.2129 33.6435 48.2129 32.8845ZM49.7309 30.4755V35.31C49.7309 35.31 49.6814 35.442 49.5989 35.442H48.3284C48.3284 35.442 48.1964 35.3925 48.1964 35.31V34.9635C47.8664 35.343 47.3549 35.5905 46.6784 35.5905C45.3419 35.5905 44.2529 34.419 44.2529 32.901C44.2529 31.383 45.3584 30.2115 46.6784 30.2115C47.3549 30.2115 47.8499 30.4425 48.1964 30.8385V30.492C48.1964 30.492 48.2459 30.36 48.3284 30.36H49.5989C49.5989 30.36 49.7309 30.4095 49.7309 30.492" fill="white"/>
<path d="M54.813 30.4755L53.6415 33.429L52.437 30.4755C52.437 30.4755 52.3215 30.3435 52.239 30.3435H50.9355C50.853 30.3435 50.787 30.4425 50.82 30.525L52.833 35.442L52.0905 37.29C52.0575 37.3725 52.1235 37.455 52.206 37.455H53.5095C53.592 37.455 53.6745 37.4055 53.7075 37.323L56.4135 30.5085C56.4465 30.426 56.3805 30.3435 56.298 30.3435H54.9945C54.912 30.3435 54.8295 30.393 54.7965 30.4755" fill="white"/>
</g>
<defs>
<clipPath id="clip0_554_3310">
<rect width="52.7835" height="15.378" fill="white" transform="translate(6.59998 24.75)"/>
</clipPath>
</defs>
</svg>
