<svg width="66" height="66" viewBox="0 0 66 66" fill="none" xmlns="http://www.w3.org/2000/svg">
<rect x="0.5" y="0.5" width="65" height="65" rx="7.5" fill="white"/>
<rect x="0.5" y="0.5" width="65" height="65" rx="7.5" stroke="#E2E4ED"/>
<path fill-rule="evenodd" clip-rule="evenodd" d="M33 44.8922C30.3786 47.1541 26.9781 48.5196 23.2624 48.5196C14.9713 48.5196 8.25012 41.7211 8.25012 33.3348C8.25012 24.9485 14.9713 18.15 23.2624 18.15C26.9781 18.15 30.3786 19.5155 33 21.7774C35.6214 19.5155 39.0219 18.15 42.7376 18.15C51.0286 18.15 57.7499 24.9485 57.7499 33.3348C57.7499 41.7211 51.0286 48.5196 42.7376 48.5196C39.0219 48.5196 35.6214 47.1541 33 44.8922Z" fill="#ED0006"/>
<path fill-rule="evenodd" clip-rule="evenodd" d="M33.0001 44.8921C36.2279 42.107 38.2747 37.9627 38.2747 33.3348C38.2747 28.707 36.2279 24.5627 33.0001 21.7775C35.6216 19.5155 39.0221 18.15 42.7378 18.15C51.0289 18.15 57.7501 24.9485 57.7501 33.3348C57.7501 41.7211 51.0289 48.5196 42.7378 48.5196C39.0221 48.5196 35.6216 47.1541 33.0001 44.8921Z" fill="#F9A000"/>
<path fill-rule="evenodd" clip-rule="evenodd" d="M33.0004 44.892C36.2282 42.1068 38.2749 37.9625 38.2749 33.3347C38.2749 28.7068 36.2282 24.5625 33.0004 21.7773C29.7726 24.5625 27.7258 28.7068 27.7258 33.3347C27.7258 37.9625 29.7726 42.1068 33.0004 44.892Z" fill="#FF5E00"/>
</svg>
