<svg width="66" height="66" viewBox="0 0 66 66" fill="none" xmlns="http://www.w3.org/2000/svg">
<g clip-path="url(#clip0_554_1920)">
<g clip-path="url(#clip1_554_1920)">
<path d="M65.7001 0H0.800049V66H65.7001V0Z" fill="#173463"/>
<path fill-rule="evenodd" clip-rule="evenodd" d="M21.6146 11.7012C16.188 11.7012 11.7891 16.1747 11.7891 21.6932V40.8884C11.7891 46.4069 16.188 50.8805 21.6146 50.8805H39.5849H41.1363H62.1308C62.7162 50.8805 63.0001 50.1524 62.5738 49.7444L50.9618 38.6302V21.6932C50.9618 16.1747 46.5628 11.7012 41.1363 11.7012H21.6146Z" fill="white"/>
<path fill-rule="evenodd" clip-rule="evenodd" d="M28.7252 17.6176C28.7252 17.1093 28.32 16.6973 27.8202 16.6973H20.9682C18.6834 16.6973 16.8312 18.5809 16.8312 20.9044V27.7411C16.8312 28.2494 17.2363 28.6614 17.7362 28.6614H22.2611C22.7609 28.6614 23.166 28.2494 23.166 27.7411V25.3746C23.166 24.1401 24.15 23.1395 25.3638 23.1395H27.8202C28.32 23.1395 28.7252 22.7275 28.7252 22.2192V17.6176ZM17.7362 33.9204C17.2363 33.9204 16.8312 34.3324 16.8312 34.8407V41.6773C16.8312 44.0009 18.6834 45.8845 20.9682 45.8845H27.8202C28.32 45.8845 28.7252 45.4725 28.7252 44.9642V40.3626C28.7252 39.8543 28.32 39.4423 27.8202 39.4423H25.3638C24.15 39.4423 23.166 38.4416 23.166 37.2072V34.8407C23.166 34.3324 22.7609 33.9204 22.2611 33.9204H17.7362ZM33.8965 44.9642C33.8965 45.4725 34.3017 45.8845 34.8015 45.8845H41.7828C44.0676 45.8845 45.9198 44.0009 45.9198 41.6773V34.8407C45.9198 34.3324 45.5147 33.9204 45.0148 33.9204H40.3607C39.8609 33.9204 39.4557 34.3324 39.4557 34.8407V37.2072C39.4557 38.4416 38.4717 39.4423 37.2579 39.4423H34.8015C34.3017 39.4423 33.8965 39.8543 33.8965 40.3626V44.9642ZM45.0148 28.6614C45.5147 28.6614 45.9198 28.2494 45.9198 27.7411V20.9044C45.9198 18.5809 44.0676 16.6973 41.7828 16.6973H34.8015C34.3017 16.6973 33.8965 17.1093 33.8965 17.6176V22.2192C33.8965 22.7275 34.3017 23.1395 34.8015 23.1395H37.2579C38.4717 23.1395 39.4557 24.1401 39.4557 25.3746V27.7411C39.4557 28.2494 39.8609 28.6614 40.3607 28.6614H45.0148Z" fill="#173463"/>
<path d="M48.6347 31.2909H31.3108V48.9084H48.6347V31.2909Z" fill="white"/>
<path d="M34.8015 39.4422C34.3017 39.4422 33.8965 39.8543 33.8965 40.3626V44.9642C33.8965 45.4724 34.3017 45.8845 34.8015 45.8845H50.8325L39.4556 34.2509V37.2072C39.4556 38.4416 38.4717 39.4422 37.2578 39.4422H34.8015Z" fill="#4EA497"/>
</g>
</g>
<defs>
<clipPath id="clip0_554_1920">
<rect x="0.800049" width="64.9" height="66" rx="8" fill="white"/>
</clipPath>
<clipPath id="clip1_554_1920">
<rect width="64.9" height="66" fill="white" transform="translate(0.800049)"/>
</clipPath>
</defs>
</svg>
