<svg width="66" height="66" viewBox="0 0 66 66" fill="none" xmlns="http://www.w3.org/2000/svg">
<g clip-path="url(#clip0_554_1912)">
<path d="M66 0H0V66H66V0Z" fill="#4B2885"/>
<path d="M33 11.0679L23.3712 19.5589C22.968 19.9147 22.681 20.3839 22.5505 20.9062L19.3968 33.4663C19.1558 34.4247 19.6278 35.4204 20.5217 35.8408L26.4201 38.6171H31.9397V33.6026C31.9397 33.6026 27.3914 36.3832 24.7371 33.9727C21.8087 31.3112 24.0972 20.1716 33 15.157V11.0679Z" fill="url(#paint0_linear_554_1912)"/>
<path d="M33 11.0679L42.6288 19.5589C43.032 19.9147 43.319 20.3839 43.4495 20.9062L46.6032 33.4663C46.8442 34.4247 46.3722 35.4204 45.4783 35.8408L39.5799 38.6171H34.0603V33.6026C34.0603 33.6026 38.6086 36.3832 41.2629 33.9727C44.1913 31.3141 41.9028 20.173 33 15.1584V11.0679V11.0679Z" fill="url(#paint1_linear_554_1912)"/>
<path d="M25.8004 45.9217L26.3111 44.2961C26.3111 44.2961 25.4058 43.5414 22.9423 43.5414C20.4788 43.5414 19.3338 44.9489 19.2463 46.1312C19.1616 47.2589 19.3539 48.731 21.9867 49.6349C24.5765 50.523 24.9452 51.0596 24.7028 51.9736C24.5191 52.6652 22.9179 53.7255 19.8001 51.8143L19.0454 53.4242C19.0454 53.4242 21.8361 55.1344 24.6769 54.2032C27.5178 53.2735 26.9023 50.8344 26.4747 50.0926C26.0314 49.3221 24.4258 48.3709 23.0169 47.9046C21.8131 47.5071 20.8862 46.6262 21.5749 45.6792C21.9107 45.2186 23.08 45.1096 23.796 45.2344C24.8678 45.4209 25.8004 45.9217 25.8004 45.9217Z" fill="white"/>
<path d="M36.4694 46.1053L37.2485 44.5471C37.2485 44.5471 34.6659 42.7866 31.277 44.0062C27.9583 45.1999 27.0903 49.7267 29.0774 52.3165C31.0646 54.9062 34.5339 54.8804 37.2485 53.4485L36.4938 51.8387C36.4938 51.8387 34.5583 53.272 32.2957 52.4671C30.033 51.6622 29.8321 48.6205 30.6614 47.0365C31.4922 45.4525 33.8051 44.6978 36.4694 46.1053Z" fill="white"/>
<path d="M44.5745 48.5702C44.5745 48.5702 46.3178 48.1183 46.3178 46.0895C46.3178 43.5586 42.7638 43.659 42.7638 43.659H40.9531H40.2486H38.9243V54.3022H40.6174H40.9531H43.6347C44.959 54.3022 46.9534 53.6652 46.9534 51.3523C46.9534 49.0394 44.5745 48.5702 44.5745 48.5702ZM40.8369 45.2502H42.8484C43.8542 45.2502 44.2904 46.0206 44.2904 46.6247C44.2904 47.3449 43.5859 47.9992 42.6648 47.9992H40.8383V45.2502H40.8369ZM42.9647 52.7598H40.8354V49.6535H43.1784C44.3507 49.6535 44.8586 50.5244 44.8586 51.2074C44.8586 52.0209 44.0393 52.7598 42.9647 52.7598Z" fill="white"/>
<path d="M51.2749 52.4284V54.1042C51.2749 54.2706 51.4098 54.4055 51.5762 54.4055C51.7426 54.4055 51.8775 54.2706 51.8775 54.1042V52.4284L51.5762 52.1271L51.2749 52.4284Z" fill="white"/>
<path d="M51.876 50.9735V49.2991C51.876 49.1327 51.7412 48.9978 51.5747 48.9978C51.4083 48.9978 51.2734 49.1327 51.2734 49.2991V50.9749L51.5747 51.2762L51.876 50.9735Z" fill="white"/>
<path d="M53.9779 51.3997H52.302L52.0007 51.701L52.302 52.0023H53.9779C54.1443 52.0023 54.2792 51.8674 54.2792 51.701C54.2792 51.5345 54.1443 51.3997 53.9779 51.3997Z" fill="white"/>
<path d="M50.8487 51.3997H49.1729C49.0065 51.3997 48.8716 51.5345 48.8716 51.701C48.8716 51.8674 49.0065 52.0023 49.1729 52.0023H50.8473L51.1486 51.701L50.8487 51.3997Z" fill="white"/>
<path d="M50.8488 52.0022L49.6637 53.1873C49.546 53.305 49.546 53.4958 49.6637 53.6135C49.7225 53.6723 49.8 53.701 49.876 53.701C49.9535 53.701 50.0295 53.6723 50.0884 53.6135L51.2735 52.4283V52.0022H50.8488Z" fill="#FBAE17"/>
<path d="M52.3021 51.3996L53.4872 50.2144C53.6049 50.0968 53.6049 49.906 53.4872 49.7883C53.3696 49.6707 53.1788 49.6707 53.0611 49.7883L51.876 50.9734V51.3996H52.3021Z" fill="#FBAE17"/>
<path d="M52.3021 51.3996H51.8759V50.9735L51.5761 51.2748L51.2748 50.9735V51.3996H50.8486L51.1499 51.7009L50.8486 52.0023H51.2748V52.4284L51.5761 52.1271L51.8759 52.4284V52.0023H52.3021L52.0008 51.7009L52.3021 51.3996Z" fill="#B31E8D"/>
<path d="M51.8759 52.4283L53.0611 53.6135C53.1199 53.6723 53.1974 53.701 53.2734 53.701C53.3509 53.701 53.4269 53.6723 53.4858 53.6135C53.6034 53.4958 53.6034 53.305 53.4858 53.1873L52.3006 52.0022H51.8745V52.4283H51.8759Z" fill="#FBAE17"/>
<path d="M51.2749 50.9734L50.0898 49.7883C49.9722 49.6707 49.7813 49.6707 49.6637 49.7883C49.546 49.906 49.546 50.0968 49.6637 50.2144L50.8488 51.3996H51.2749V50.9734Z" fill="#FBAE17"/>
</g>
<defs>
<linearGradient id="paint0_linear_554_1912" x1="24.8697" y1="39.48" x2="31.2308" y2="12.0669" gradientUnits="userSpaceOnUse">
<stop stop-color="#FCAF17"/>
<stop offset="1" stop-color="#E29618"/>
</linearGradient>
<linearGradient id="paint1_linear_554_1912" x1="32.561" y1="13.9461" x2="41.9511" y2="37.8758" gradientUnits="userSpaceOnUse">
<stop stop-color="#FFD300"/>
<stop offset="1" stop-color="#E39F15"/>
</linearGradient>
<clipPath id="clip0_554_1912">
<rect width="66" height="66" rx="8" fill="white"/>
</clipPath>
</defs>
</svg>
