<svg width="66" height="66" viewBox="0 0 66 66" fill="none" xmlns="http://www.w3.org/2000/svg">
<rect width="66" height="66" rx="8" fill="#FF3912"/>
<g clip-path="url(#clip0_554_3302)">
<path d="M57.7499 32.1522C57.7148 32.21 57.6779 32.2669 57.6454 32.3256C55.4024 36.3466 53.1594 40.3686 50.9173 44.3906C50.8892 44.4419 50.8663 44.4969 50.8409 44.55H49.4532C49.4392 44.5379 49.426 44.5229 49.4111 44.5127C49.2108 44.3869 49.1784 44.2574 49.296 44.0412C49.4708 43.7215 49.6473 43.4019 49.823 43.0823C50.6318 41.609 51.4389 40.1357 52.2513 38.6652C52.3049 38.5673 52.2952 38.4993 52.2425 38.408C51.0674 36.3746 49.8959 34.3403 48.7234 32.306C48.7015 32.2678 48.6804 32.2287 48.6584 32.1905C48.5548 32.0087 48.6751 31.7776 48.885 31.7739C49.0361 31.7711 49.1871 31.7739 49.3382 31.7739C49.6728 31.7739 50.0074 31.7739 50.3482 31.7739C51.3265 33.455 52.3031 35.1333 53.2973 36.8415C53.7891 35.9767 54.2581 35.1352 54.7297 34.2956C55.2004 33.4587 55.6703 32.6219 56.1472 31.7739H56.285C56.653 31.7739 57.021 31.7804 57.389 31.7711C57.5427 31.7674 57.6648 31.8075 57.7517 31.9444V32.1541L57.7499 32.1522Z" fill="white"/>
<path d="M17.1298 40.3085C14.7516 40.3085 12.3724 40.3066 9.99418 40.3094C9.57789 40.3094 9.20113 40.1939 8.87794 39.9143C8.48888 39.577 8.27547 39.1408 8.25439 38.6041C8.25176 38.5444 8.25176 38.4839 8.25176 38.4242C8.25176 34.3221 8.25263 30.22 8.25 26.1178C8.25 25.7488 8.30884 25.4003 8.49678 25.0862C8.81119 24.5597 9.267 24.2811 9.85278 24.2336C10.1303 24.2112 10.4061 24.1795 10.6827 24.1534C10.9313 24.1301 11.1807 24.1087 11.4292 24.0854C11.7155 24.0584 12.0018 24.0304 12.2881 24.0034C12.5367 23.9801 12.7861 23.9587 13.0346 23.9354C13.3209 23.9083 13.6072 23.8804 13.8935 23.8534C14.1377 23.8301 14.3818 23.8086 14.626 23.7853C14.9167 23.7583 15.2074 23.7294 15.499 23.7015C15.7431 23.6782 15.9873 23.6577 16.2314 23.6344C16.5221 23.6074 16.8128 23.5785 17.1044 23.5514C17.3582 23.5281 17.6111 23.5067 17.8649 23.4834C18.1416 23.4573 18.4182 23.4294 18.6957 23.4033C18.9495 23.379 19.2025 23.3576 19.4563 23.3334C19.7382 23.3073 20.0192 23.2784 20.3011 23.2523C20.5594 23.2281 20.8176 23.2066 21.0758 23.1824C21.3524 23.1563 21.629 23.1218 21.9066 23.1051C22.0506 23.0957 22.2025 23.0911 22.3404 23.1265C22.6434 23.2057 22.8533 23.5011 22.8577 23.8329C22.8638 24.2681 22.8621 24.7032 22.8595 25.1384C22.8577 25.3649 22.7251 25.5019 22.5152 25.5065C22.473 25.5075 22.43 25.5065 22.3878 25.5065C18.4516 25.5065 14.5153 25.5065 10.58 25.5065C10.5325 25.5065 10.4851 25.5065 10.4386 25.5065C10.1935 25.513 10.0442 25.7069 10.0759 25.9669C10.1277 26.3983 10.4649 26.6574 10.7591 26.6723C10.8346 26.676 10.9102 26.6807 10.9848 26.6807C15.3927 26.6807 19.8006 26.6807 24.2093 26.6807C24.4166 26.6807 24.6229 26.6872 24.8249 26.7515C25.5187 26.9705 26.0088 27.6424 26.029 28.4093C26.029 28.4289 26.029 28.4494 26.029 28.469C26.029 31.8163 26.0299 35.1627 26.0281 38.51C26.0281 39.0132 25.8586 39.4484 25.5161 39.8016C25.1973 40.1296 24.8126 40.3038 24.3691 40.3038C21.9575 40.3076 19.5459 40.3057 17.1342 40.3057L17.1298 40.3085ZM17.2756 38.4065C17.5663 38.4205 17.85 38.3776 18.1319 38.3124C18.4516 38.2379 18.7581 38.1251 19.0374 37.9425C19.7119 37.5017 20.0913 36.8633 20.1852 36.0284C20.2774 35.2102 20.0131 34.5448 19.4238 34.0211C19.2578 33.8739 19.0786 33.7415 18.8942 33.6223C18.3848 33.2933 17.8316 33.0641 17.2677 32.8637C16.9322 32.7454 16.5985 32.6242 16.285 32.4472C16.0637 32.3214 15.8546 32.176 15.6808 31.9812C15.2574 31.5069 15.2179 30.8648 15.5789 30.3355C15.7642 30.0643 16.0136 29.8817 16.3043 29.7578C16.7004 29.5891 17.1096 29.5788 17.5277 29.632C18.1135 29.7065 18.6536 29.9087 19.1533 30.2386C19.1937 30.2647 19.2315 30.2954 19.2736 30.3169C19.3597 30.3616 19.4176 30.3514 19.4703 30.2684C19.5722 30.1063 19.6715 29.9413 19.7645 29.7736C19.8164 29.6804 19.7979 29.6049 19.7171 29.536C19.6732 29.4987 19.624 29.467 19.5757 29.4363C18.9495 29.0355 18.2733 28.7951 17.5435 28.7168C17.1316 28.6721 16.7241 28.6786 16.3219 28.7839C15.6772 28.9517 15.1354 29.29 14.7498 29.877C14.208 30.7027 14.2615 31.7902 14.8816 32.5441C15.1608 32.8833 15.4928 33.1591 15.8863 33.3306C16.4 33.5542 16.9199 33.7602 17.4407 33.9652C17.7191 34.0752 17.9975 34.1823 18.2566 34.3379C18.542 34.5103 18.8011 34.7154 18.9996 34.9986C19.4045 35.5783 19.3456 36.3387 18.8565 36.84C18.7124 36.9873 18.5491 37.1038 18.3673 37.1923C17.8324 37.4504 17.273 37.5194 16.696 37.4206C16.1207 37.3218 15.5903 37.0944 15.1046 36.7524C14.9676 36.6555 14.8368 36.5474 14.7024 36.4459C14.5733 36.3489 14.5127 36.3592 14.4205 36.498C14.3177 36.6537 14.2159 36.8102 14.1166 36.9686C14.0464 37.0814 14.0534 37.1224 14.1491 37.2128C14.1842 37.2463 14.222 37.2762 14.2589 37.3078C15.1398 38.0571 16.1576 38.3842 17.273 38.4084L17.2756 38.4065Z" fill="white"/>
<path d="M31.9184 35.4278C31.9184 35.5154 31.9184 35.5797 31.9184 35.644C31.9184 36.9998 31.9184 38.3548 31.9184 39.7107C31.9184 39.7657 31.9202 39.8206 31.9158 39.8756C31.8974 40.1021 31.7296 40.2773 31.5162 40.2838C31.2756 40.2903 31.0349 40.2894 30.7943 40.2838C30.5897 40.2791 30.4368 40.1403 30.3973 39.9278C30.3842 39.8598 30.3798 39.789 30.3798 39.7191C30.3798 35.5675 30.3798 31.416 30.3798 27.2645C30.3798 27.2049 30.3824 27.1443 30.3938 27.0856C30.4325 26.8843 30.5457 26.7576 30.739 26.7184C30.7943 26.7072 30.8514 26.7016 30.9076 26.7016C32.2047 26.7007 33.5028 26.6923 34.7999 26.7035C36.7092 26.7203 38.204 28.0147 38.7397 29.6818C39.3448 31.5623 38.6483 33.6348 37.0552 34.7177C36.5397 35.0681 35.9776 35.2889 35.3734 35.3793C35.1784 35.4082 34.9791 35.4157 34.7815 35.4166C33.8945 35.4203 33.0074 35.4184 32.1204 35.4184C32.0607 35.4184 32.001 35.424 31.9193 35.4278H31.9184ZM31.9281 33.7215C31.9983 33.7215 32.0537 33.7215 32.109 33.7215C33.0197 33.7215 33.9305 33.7196 34.8403 33.7224C35.0687 33.7224 35.2909 33.6898 35.5104 33.6283C36.8251 33.2602 37.6357 31.8158 37.3231 30.4171C37.0789 29.324 36.1515 28.352 34.8456 28.3352C33.9208 28.3231 32.996 28.3324 32.0712 28.3334C32.0256 28.3334 31.9808 28.3408 31.9272 28.3455V33.7215H31.9281Z" fill="white"/>
<path d="M45.82 33.0413C45.8253 32.9621 45.8314 32.9146 45.8314 32.867C45.8323 32.6872 45.8306 32.5064 45.8323 32.3266C45.835 32.0451 45.986 31.855 46.2504 31.841C46.5419 31.8252 46.8353 31.8383 47.1277 31.8392C47.14 31.8392 47.1532 31.8513 47.1725 31.8606V40.2075C47.1339 40.2131 47.0987 40.2214 47.0627 40.2224C46.7984 40.2233 46.534 40.2149 46.2697 40.2252C46.0203 40.2345 45.8209 39.995 45.8306 39.762C45.8385 39.5775 45.8323 39.3921 45.8306 39.2066C45.8306 39.1591 45.8244 39.1106 45.8191 39.0305C45.7401 39.0948 45.6795 39.1386 45.6251 39.188C45.2623 39.5151 44.8575 39.7667 44.4131 39.9465C43.8264 40.1842 43.2161 40.2727 42.5943 40.214C40.7227 40.0379 39.2657 38.6018 38.9663 36.7726C38.6835 35.0402 39.2631 33.6489 40.5972 32.6164C41.1232 32.2091 41.7222 31.9743 42.3703 31.8867C43.5796 31.7227 44.6572 32.047 45.6031 32.8633C45.6672 32.9183 45.7331 32.9705 45.82 33.0432V33.0413ZM42.928 38.668C43.0272 38.668 43.1274 38.6801 43.2248 38.6661C43.8501 38.5767 44.3806 38.2897 44.8144 37.8032C45.7691 36.7316 45.7155 35.0942 44.6968 34.112C43.7158 33.1662 42.1789 33.1531 41.197 34.0878C40.5559 34.6982 40.2678 35.4679 40.3934 36.3756C40.5831 37.7548 41.7582 38.6969 42.9271 38.6689L42.928 38.668Z" fill="white"/>
</g>
<defs>
<clipPath id="clip0_554_3302">
<rect width="49.5" height="21.45" fill="white" transform="translate(8.25 23.1)"/>
</clipPath>
</defs>
</svg>
