<svg width="66" height="66" viewBox="0 0 66 66" fill="none" xmlns="http://www.w3.org/2000/svg">
<rect width="66" height="66" rx="8" fill="url(#paint0_linear_554_1915)"/>
<g clip-path="url(#clip0_554_1915)">
<path d="M18.0714 40.079C15.2429 40.079 12.9643 37.918 12.9643 35.2354V30.5782H17.875V26.1072H12.9643V21.45H8.25V35.2354C8.25 40.377 12.65 44.5499 18.0714 44.5499C21.0571 44.5499 23.7286 43.2832 25.5357 41.2712C24.0821 39.6319 23.1786 37.5454 23.1786 35.2354C23.1786 37.8808 20.8607 40.079 18.0714 40.079Z" fill="#0F50EC"/>
<path d="M38.1072 35.2354C38.1072 37.918 35.8286 40.079 33 40.079C30.1714 40.079 27.8929 37.918 27.8929 35.2354V30.5782H32.8036V26.1072H27.8929V21.45H23.1786V35.2354C23.1786 37.5454 24.0822 39.6691 25.5357 41.2712C27.3429 43.2832 30.0143 44.5499 33 44.5499C35.9857 44.5499 38.6572 43.2832 40.4643 41.2712C38.9714 39.6319 38.1072 37.5454 38.1072 35.2354Z" fill="#F48A31"/>
<path d="M47.9286 25.9209C46.0429 25.9209 44.3143 26.4053 42.8215 27.2622V21.45H38.1072V35.2354C38.1072 37.5454 39.0107 39.6691 40.4643 41.2712C42.2715 43.2832 44.9429 44.5499 47.9286 44.5499C53.35 44.5499 57.75 40.377 57.75 35.2354C57.75 30.0938 53.35 25.9209 47.9286 25.9209ZM47.9286 40.079C45.1 40.079 42.8215 37.918 42.8215 35.2354C42.8215 32.5529 45.1 30.3919 47.9286 30.3919C50.7572 30.3919 53.0357 32.5529 53.0357 35.2354C53.0357 37.918 50.7179 40.079 47.9286 40.079Z" fill="#022D61"/>
</g>
<defs>
<linearGradient id="paint0_linear_554_1915" x1="2.475" y1="66" x2="66" y2="2.475" gradientUnits="userSpaceOnUse">
<stop stop-color="#CDCDCD"/>
<stop offset="0.625" stop-color="white"/>
</linearGradient>
<clipPath id="clip0_554_1915">
<rect width="49.5" height="23.1" fill="white" transform="translate(8.25 21.45)"/>
</clipPath>
</defs>
</svg>
