<svg width="66" height="66" viewBox="0 0 66 66" fill="none" xmlns="http://www.w3.org/2000/svg">
<rect x="0.5" y="0.5" width="65" height="65" rx="7.5" fill="white"/>
<rect x="0.5" y="0.5" width="65" height="65" rx="7.5" stroke="#E2E4ED"/>
<path d="M17.9441 18.1506H30.2992C32.0238 18.1506 33.0965 19.499 32.6941 21.1587L26.942 44.8468C26.5361 46.5008 24.8093 47.8503 23.0835 47.8503H10.7296C9.0074 47.8503 7.93231 46.5008 8.33464 44.8468L14.0892 21.1587C14.4915 19.499 16.2174 18.1506 17.9441 18.1506Z" fill="#E21836"/>
<path d="M29.2709 18.1501H43.4788C45.2032 18.1501 44.4256 19.4985 44.02 21.1582L38.2687 44.8463C37.8652 46.5003 37.9911 47.8498 36.2631 47.8498H22.0552C20.3272 47.8498 19.2578 46.5003 19.6638 44.8463L25.4147 21.1582C25.8231 19.4985 27.5453 18.1501 29.2709 18.1501Z" fill="#00447C"/>
<path d="M42.9153 18.1501H55.2703C56.9974 18.1501 58.0701 19.4985 57.6644 21.1582L51.9132 44.8463C51.5072 46.5003 49.7793 47.8498 48.0525 47.8498H35.7032C33.9753 47.8498 32.9035 46.5003 33.3082 44.8463L39.0604 21.1582C39.4627 19.4985 41.1874 18.1501 42.9153 18.1501Z" fill="#007B84"/>
<path d="M21.1706 25.7415C19.9 25.754 19.5248 25.7415 19.405 25.7144C19.3589 25.9244 18.5015 29.7179 18.4991 29.721C18.3145 30.4885 18.1802 31.0356 17.724 31.3889C17.465 31.5942 17.1626 31.6933 16.8121 31.6933C16.2487 31.6933 15.9204 31.425 15.8653 30.916L15.8548 30.7413C15.8548 30.7413 16.0264 29.7132 16.0264 29.7075C16.0264 29.7075 16.9263 26.2505 17.0874 25.7935C17.0958 25.7675 17.0982 25.754 17.1003 25.7415C15.3489 25.7563 15.0384 25.7415 15.017 25.7144C15.0053 25.7516 14.9619 25.966 14.9619 25.966L14.0431 29.8623L13.9642 30.1927L13.8115 31.2736C13.8115 31.5942 13.8772 31.8559 14.0079 32.0772C14.4265 32.7788 15.6205 32.884 16.296 32.884C17.1663 32.884 17.9827 32.7066 18.5344 32.3828C19.492 31.84 19.7425 30.9917 19.966 30.2378L20.0696 29.851C20.0696 29.851 20.9965 26.2606 21.154 25.7935C21.16 25.7675 21.1624 25.754 21.1706 25.7415ZM24.3244 28.638C24.1009 28.638 23.6926 28.6899 23.3258 28.8624C23.1927 28.928 23.0668 29.0036 22.934 29.079L23.0538 28.664L22.9882 28.5941C22.2103 28.7451 22.0363 28.7653 21.3177 28.8624L21.2575 28.9008C21.1741 29.5643 21.1 30.0631 20.7907 31.3673C20.673 31.848 20.5507 32.3332 20.4282 32.8127L20.4613 32.8737C21.1976 32.8364 21.421 32.8364 22.061 32.8465L22.1128 32.7925C22.1941 32.393 22.2046 32.2994 22.3847 31.4904C22.4693 31.1068 22.6458 30.2639 22.7328 29.9638C22.8927 29.8927 23.0505 29.8228 23.2011 29.8228C23.5598 29.8228 23.5161 30.1229 23.5022 30.2425C23.4869 30.4433 23.3562 31.099 23.2222 31.6619L23.1327 32.0253C23.0704 32.2937 23.002 32.5545 22.9397 32.8205L22.9668 32.8737C23.6926 32.8364 23.9139 32.8364 24.5337 32.8465L24.6065 32.7925C24.7186 32.1686 24.7514 32.0016 24.9501 31.0932L25.0501 30.6758C25.2444 29.8589 25.3419 29.4447 25.195 29.1073C25.0396 28.7292 24.6668 28.638 24.3244 28.638ZM27.8475 29.4932C27.4617 29.5643 27.2157 29.6116 26.9712 29.6423C26.7287 29.6795 26.4924 29.7133 26.1195 29.763L26.09 29.7887L26.0629 29.8092C26.0241 30.0755 25.997 30.3058 25.9455 30.5764C25.9018 30.8563 25.8347 31.1743 25.7253 31.6313C25.6407 31.9811 25.5971 32.103 25.5489 32.226C25.5019 32.3491 25.4501 32.4687 25.3549 32.8127L25.3772 32.8445L25.3959 32.8736C25.7443 32.8578 25.9723 32.8465 26.2066 32.8445C26.4406 32.8364 26.683 32.8445 27.0582 32.8465L27.091 32.8208L27.1263 32.7925C27.1805 32.4822 27.1886 32.3988 27.2217 32.2474C27.2545 32.0851 27.3112 31.8603 27.45 31.2601C27.5156 30.9782 27.5888 30.6971 27.6569 30.4095C27.7276 30.1229 27.8017 29.8407 27.8722 29.5588L27.8617 29.5247L27.8475 29.4932ZM27.8557 28.3401C27.5052 28.1416 26.89 28.2046 26.4759 28.4787C26.063 28.7473 26.016 29.1286 26.3654 29.3297C26.7099 29.5226 27.3275 29.4651 27.738 29.1887C28.1499 28.9143 28.2014 28.5365 27.8557 28.3401ZM29.9756 32.9358C30.6848 32.9358 31.4118 32.7484 31.9589 32.192C32.3799 31.7409 32.573 31.0696 32.6398 30.7931C32.8576 29.8769 32.688 29.4491 32.4751 29.1886C32.1517 28.7914 31.5801 28.664 30.9872 28.664C30.6306 28.664 29.7814 28.6978 29.118 29.2845C28.6416 29.7076 28.4214 30.2819 28.2886 30.8324C28.1546 31.3934 28.0004 32.4032 28.9686 32.779C29.2673 32.902 29.698 32.9358 29.9756 32.9358ZM29.9202 30.8743C30.0837 30.1805 30.2768 29.5982 30.7694 29.5982C31.1555 29.5982 31.1835 30.0314 31.0119 30.7276C30.9811 30.8821 30.8402 31.4566 30.6496 31.7013C30.5165 31.8818 30.359 31.9913 30.1849 31.9913C30.1331 31.9913 29.825 31.9913 29.8202 31.5525C29.8178 31.3359 29.8639 31.1146 29.9202 30.8743ZM34.4127 32.8466L34.4681 32.7926C34.5467 32.3931 34.5596 32.2992 34.7337 31.4904C34.8207 31.1069 35.0008 30.264 35.0854 29.9639C35.2456 29.8925 35.4007 29.8226 35.5561 29.8226C35.9124 29.8226 35.869 30.1227 35.8548 30.2423C35.8419 30.4434 35.7112 31.0988 35.5748 31.6617L35.4902 32.0251C35.4254 32.2937 35.3549 32.5543 35.2926 32.8206L35.3197 32.8738C36.0479 32.8365 36.2608 32.8365 36.8842 32.8466L36.9594 32.7926C37.0688 32.1684 37.0983 32.0014 37.303 31.0933L37.4006 30.6756C37.5958 29.8587 37.6945 29.4448 37.55 29.1074C37.3901 28.7293 37.0149 28.638 36.6773 28.638C36.4535 28.638 36.0431 28.6897 35.6784 28.8625C35.548 28.928 35.4173 29.0034 35.289 29.0791L35.4007 28.664L35.3408 28.5938C34.5632 28.7452 34.3856 28.7654 33.6679 28.8625L33.6128 28.9009C33.5258 29.5644 33.455 30.0629 33.1458 31.3674C33.028 31.848 32.9057 32.3333 32.7835 32.8128L32.8163 32.8738C33.5538 32.8365 33.7739 32.8365 34.4127 32.8466ZM39.7626 32.8736C39.8084 32.6593 40.0803 31.3889 40.0828 31.3889C40.0828 31.3889 40.3143 30.4568 40.3285 30.423C40.3285 30.423 40.4014 30.3259 40.4742 30.2875H40.5814C41.593 30.2875 42.7352 30.2875 43.6305 29.6558C44.2397 29.2225 44.6562 28.5827 44.842 27.8051C44.8902 27.6145 44.9257 27.3878 44.9257 27.161C44.9257 26.8632 44.8634 26.5686 44.6833 26.3384C44.2268 25.7257 43.3176 25.7144 42.2682 25.7098C42.2648 25.7098 41.7508 25.7144 41.7508 25.7144C40.4074 25.7303 39.8686 25.7257 39.6473 25.6997C39.6286 25.7936 39.5934 25.9605 39.5934 25.9605C39.5934 25.9605 39.1122 28.0998 39.1122 28.1032C39.1122 28.1032 37.9606 32.6515 37.9064 32.8658C39.0793 32.8522 39.5603 32.8522 39.7626 32.8736ZM40.6543 29.0735C40.6543 29.0735 41.166 26.9386 41.1636 26.9467L41.1801 26.8372L41.1873 26.7537L41.3918 26.7739C41.3918 26.7739 42.447 26.8609 42.4717 26.8632C42.8882 27.0177 43.0599 27.4161 42.94 27.936C42.8307 28.4112 42.5094 28.8106 42.0965 29.0036C41.7565 29.1671 41.34 29.1807 40.9109 29.1807H40.6332L40.6543 29.0735ZM43.8399 30.9138C43.7047 31.4667 43.5493 32.4765 44.5127 32.8364C44.8199 32.9618 45.0951 32.9991 45.3749 32.9855C45.6703 32.9702 45.944 32.8281 46.1976 32.6236C46.1747 32.7076 46.1518 32.7917 46.1289 32.876L46.1726 32.93C46.8655 32.902 47.0805 32.902 47.8313 32.9075L47.8994 32.8578C48.009 32.2397 48.1123 31.6394 48.3971 30.4569C48.536 29.8904 48.6745 29.3295 48.8169 28.7654L48.7947 28.7033C48.0195 28.841 47.8123 28.8705 47.0667 28.9719L47.0101 29.0161C47.0026 29.0736 46.9947 29.1287 46.9875 29.1839C46.8716 29.0042 46.7035 28.8509 46.4442 28.7553C46.1127 28.6302 45.3339 28.7914 44.6645 29.376C44.1941 29.7934 43.9682 30.3653 43.8399 30.9138ZM45.4679 30.9476C45.6339 30.2662 45.8245 29.6897 46.3184 29.6897C46.6306 29.6897 46.7951 29.9661 46.7616 30.4375C46.7351 30.5551 46.7065 30.679 46.6725 30.8191C46.6231 31.0216 46.5695 31.2223 46.5174 31.4234C46.4644 31.5609 46.4027 31.6906 46.3349 31.7769C46.2078 31.9497 45.9055 32.0568 45.7314 32.0568C45.682 32.0568 45.3773 32.0568 45.3667 31.6259C45.3643 31.4112 45.4104 31.1903 45.4679 30.9476ZM53.9694 28.6977L53.9094 28.6322C53.1424 28.7812 53.0036 28.8049 52.2989 28.8962L52.2471 28.9459C52.2447 28.954 52.2426 28.9664 52.239 28.9776L52.2366 28.9664C51.712 30.1273 51.7273 29.8768 51.3003 30.7908C51.2979 30.7492 51.2979 30.7232 51.2955 30.679L51.1886 28.6977L51.1214 28.6322C50.318 28.7812 50.299 28.8049 49.557 28.8962L49.4992 28.9459C49.4911 28.9696 49.4911 28.9956 49.4862 29.0239L49.4911 29.034C49.5838 29.4886 49.5615 29.3872 49.6546 30.1047C49.6979 30.4569 49.7558 30.811 49.7991 31.1588C49.8723 31.7408 49.9133 32.0273 50.0027 32.9156C49.5016 33.7087 49.3829 34.0089 48.9005 34.705L48.9038 34.7119L48.5641 35.2272C48.5253 35.2815 48.4901 35.3188 48.4407 35.3347C48.3865 35.3604 48.316 35.365 48.2181 35.365H48.0299L47.7501 36.2576L48.7099 36.2734C49.2733 36.2711 49.6275 36.0184 49.8181 35.6787L50.4216 34.6868H50.4119L50.4755 34.6169C50.8814 33.7786 53.9694 28.6977 53.9694 28.6977ZM43.8399 40.42H43.4328L44.9397 35.6393H45.4396L45.5983 35.1468L45.6136 35.6944C45.595 36.033 45.8726 36.3331 46.602 36.2834H47.4455L47.7358 35.3628H47.4184C47.2359 35.3628 47.1513 35.3186 47.1618 35.2239L47.1465 34.6667H45.5844V34.6696C45.0794 34.6797 43.5713 34.7161 43.2659 34.7941C42.8964 34.8854 42.507 35.154 42.507 35.154L42.66 34.6609H41.1989L40.8944 35.6393L39.3673 40.4931H39.071L38.7804 41.407H41.6907L41.5931 41.7118H43.0271L43.1223 41.407H43.5246L43.8399 40.42ZM42.6459 36.6107C42.4119 36.6728 41.9764 36.8611 41.9764 36.8611L42.3637 35.6393H43.5246L43.2446 36.5295C43.2446 36.5295 42.8859 36.5497 42.6459 36.6107ZM42.6682 38.3562C42.6682 38.3562 42.3035 38.4001 42.0635 38.4521C41.8271 38.5209 41.3838 38.7375 41.3838 38.7375L41.7837 37.466H42.9506L42.6682 38.3562ZM42.0177 40.4313H40.8532L41.1907 39.3582H42.3517L42.0177 40.4313ZM44.8221 37.466H46.5007L46.2595 38.2152H44.5586L44.3033 39.0344H45.7915L44.6646 40.5564C44.5857 40.6682 44.515 40.7077 44.4364 40.7392C44.3575 40.7776 44.2539 40.8227 44.134 40.8227H43.7211L43.4375 41.7199H44.5174C45.0787 41.7199 45.4103 41.4749 45.6551 41.1534L46.4278 40.139L46.5937 41.169C46.629 41.362 46.7735 41.4749 46.8714 41.5188C46.9795 41.5708 47.0912 41.6601 47.249 41.6734C47.4183 41.6803 47.5405 41.6858 47.6219 41.6858H48.1525L48.4711 40.6817H48.2618C48.1416 40.6817 47.9347 40.6624 47.8995 40.6263C47.8643 40.5824 47.8643 40.5148 47.8453 40.412L47.677 39.3796H46.9876L47.29 39.0344H48.9875L49.2486 38.2152H47.677L47.9218 37.466H49.4886L49.7792 36.5419H45.1079L44.8221 37.466ZM30.6448 40.6399L31.0366 39.3898H32.6468L32.941 38.46H31.3293L31.5754 37.6905H33.1503L33.4421 36.7901H29.5014L29.2156 37.6905H30.1109L29.8721 38.46H28.9744L28.6768 39.4057H29.5718L29.0497 41.0596C28.9792 41.2786 29.0828 41.3621 29.1484 41.4638C29.2156 41.5628 29.2837 41.6284 29.4366 41.6657C29.5944 41.6995 29.7025 41.7197 29.8495 41.7197H31.6648L31.9882 40.6896L31.1836 40.7956C31.0282 40.7956 30.5978 40.7777 30.6448 40.6399ZM30.8295 34.6553L30.4215 35.3627C30.3341 35.5172 30.2555 35.6131 30.1848 35.6573C30.1224 35.6946 29.999 35.7102 29.8201 35.7102H29.6072L29.3226 36.6152H30.0297C30.3697 36.6152 30.6308 36.4956 30.7554 36.4358C30.8894 36.367 30.9247 36.4063 31.0283 36.3104L31.2671 36.112H33.4751L33.7681 35.1697H32.1518L32.434 34.6553H30.8295ZM34.0892 40.6581C34.0516 40.6061 34.0787 40.5146 34.1362 40.3239L34.7397 38.408H36.8865C37.1994 38.4036 37.4253 38.4002 37.5722 38.3901C37.73 38.3742 37.9017 38.3202 38.0887 38.2231C38.2817 38.1214 38.3805 38.0143 38.4639 37.8912C38.557 37.7685 38.7063 37.4998 38.8346 37.0856L39.5932 34.661L37.3654 34.6734C37.3654 34.6734 36.6793 34.7705 36.3773 34.8776C36.0725 34.9972 35.6371 35.3311 35.6371 35.3311L35.8383 34.6665H34.462L32.5353 40.7956C32.467 41.0336 32.4212 41.2064 32.4106 41.3101C32.407 41.4218 32.5576 41.5325 32.6552 41.6159C32.7705 41.6994 32.941 41.6858 33.1045 41.6994C33.2764 41.7118 33.521 41.7196 33.8585 41.7196H34.9162L35.2408 40.6682L34.294 40.754C34.1928 40.754 34.1196 40.702 34.0892 40.6581ZM35.1291 37.1139H37.384L37.2407 37.5449C37.2205 37.555 37.1723 37.5235 36.9428 37.5495H34.9902L35.1291 37.1139ZM35.5808 35.6685H37.8547L37.6912 36.1876C37.6912 36.1876 36.6194 36.1775 36.4478 36.2078C35.6925 36.3332 35.2513 36.7202 35.2513 36.7202L35.5808 35.6685ZM37.2912 38.9881C37.2725 39.0525 37.243 39.0918 37.2017 39.1212C37.1559 39.1495 37.0819 39.1596 36.9713 39.1596H36.65L36.669 38.6348H35.3325L35.2783 41.2007C35.2762 41.3858 35.2949 41.493 35.4361 41.5788C35.5773 41.6859 36.0125 41.6995 36.5982 41.6995H37.4357L37.738 40.7391L37.009 40.7775L36.7666 40.7911C36.7334 40.7775 36.7018 40.7651 36.6666 40.7313C36.6359 40.7021 36.5841 40.72 36.5925 40.5349L36.5982 39.8771L37.3628 39.8468C37.7757 39.8468 37.9522 39.718 38.1027 39.5952C38.2464 39.4777 38.2934 39.3425 38.3476 39.1596L38.4759 38.5773H37.4252L37.2912 38.9881Z" fill="#FEFEFE"/>
</svg>
