<svg width="66" height="66" viewBox="0 0 66 66" fill="none" xmlns="http://www.w3.org/2000/svg">
<rect x="0.5" y="0.5" width="65" height="65" rx="7.5" fill="white"/>
<rect x="0.5" y="0.5" width="65" height="65" rx="7.5" stroke="#E2E4ED"/>
<path d="M29.4797 41.1047H25.2026L27.8778 25.041H32.1547L29.4797 41.1047Z" fill="#1434CB"/>
<path d="M44.9835 25.4339C44.1398 25.1089 42.8018 24.75 41.1472 24.75C36.9235 24.75 33.9491 26.9373 33.9309 30.0644C33.8958 32.3717 36.0604 33.6531 37.6794 34.4224C39.3341 35.2085 39.8966 35.7216 39.8966 36.4223C39.8798 37.4985 38.5595 37.9945 37.3281 37.9945C35.6205 37.9945 34.7055 37.7388 33.315 37.1401L32.7518 36.8834L32.1533 40.4894C33.1565 40.9332 35.0046 41.327 36.9235 41.3443C41.4113 41.3443 44.333 39.1908 44.3677 35.8584C44.3847 34.0297 43.2417 32.6285 40.7775 31.4836C39.2815 30.7486 38.3654 30.253 38.3654 29.5009C38.3829 28.8173 39.1403 28.117 40.8289 28.117C42.2194 28.0827 43.241 28.4073 44.0149 28.7321L44.4018 28.9027L44.9835 25.4339Z" fill="#1434CB"/>
<path d="M50.6699 35.4139C51.0221 34.4911 52.3775 30.9194 52.3775 30.9194C52.3597 30.9537 52.729 29.9795 52.9402 29.3815L53.2391 30.7657C53.2391 30.7657 54.0491 34.6108 54.225 35.4139C53.5565 35.4139 51.5147 35.4139 50.6699 35.4139ZM55.9494 25.041H52.6411C51.6209 25.041 50.8458 25.3313 50.4056 26.3738L44.0525 41.1045H48.5403C48.5403 41.1045 49.2792 39.1218 49.438 38.6948C49.9303 38.6948 54.2961 38.6948 54.9294 38.6948C55.0522 39.2588 55.4398 41.1045 55.4398 41.1045H59.4L55.9494 25.041V25.041Z" fill="#1434CB"/>
<path d="M21.6301 25.041L17.4414 35.9949L16.9837 33.7733C16.2093 31.2099 13.7806 28.4248 11.0703 27.04L14.907 41.0877H19.4299L26.1528 25.041H21.6301V25.041Z" fill="#1434CB"/>
<path d="M13.5519 25.041H6.6705L6.6001 25.3656C11.9681 26.6988 15.5232 29.9124 16.9838 33.775L15.4878 26.3915C15.2416 25.3654 14.4847 25.0749 13.5519 25.041Z" fill="#1434CB"/>
</svg>
