<svg width="66" height="66" viewBox="0 0 66 66" fill="none" xmlns="http://www.w3.org/2000/svg">
<rect x="0.5" y="0.5" width="65" height="65" rx="7.5" fill="white"/>
<rect x="0.5" y="0.5" width="65" height="65" rx="7.5" stroke="#E2E4ED"/>
<g clip-path="url(#clip0_554_3294)">
<path d="M28.4435 28.4049C28.3003 28.4736 28.1396 28.5136 27.9682 28.5136C27.5717 28.5136 27.2274 28.3059 27.0468 27.9983L26.9777 27.854L24.0926 21.8217C24.0614 21.7559 24.042 21.6818 24.042 21.6096C24.042 21.3317 24.2784 21.1065 24.5705 21.1065C24.6892 21.1065 24.7982 21.144 24.8867 21.2064L28.2916 23.5162C28.5402 23.6712 28.8375 23.7624 29.1573 23.7624C29.3481 23.7624 29.5297 23.7283 29.6991 23.6698L45.7101 16.8799C42.8393 13.6565 38.1129 11.55 32.7638 11.55C24.0113 11.55 16.9165 17.1836 16.9165 24.1339C16.9165 27.9252 19.051 31.3386 22.392 33.6455C22.6601 33.8278 22.8356 34.1276 22.8356 34.4655C22.8356 34.5771 22.8105 34.6795 22.7798 34.7862C22.5127 35.7349 22.086 37.2535 22.0661 37.3247C22.0328 37.4436 21.9806 37.5679 21.9806 37.6927C21.9806 37.9706 22.217 38.1958 22.5091 38.1958C22.6237 38.1958 22.7174 38.1554 22.8141 38.1022L26.2834 36.1937C26.5444 36.0503 26.8207 35.9611 27.1251 35.9611C27.2868 35.9611 27.4433 35.985 27.5907 36.0279C29.2095 36.4715 30.9557 36.7177 32.7638 36.7177C41.5162 36.7177 48.612 31.0837 48.612 24.1339C48.612 22.0289 47.9577 20.0462 46.807 18.3024L28.5597 28.341L28.4441 28.4049H28.4435Z" fill="#00CC00"/>
<path d="M14.848 49.2845L14.6945 49.8036C14.5661 50.237 14.4525 50.6197 14.3548 50.998C14.2299 50.4403 14.057 49.8173 13.9015 49.2674L12.8711 45.5653L12.8531 45.4995H12.1778L11.0256 49.2913C10.8194 49.9323 10.6362 50.5115 10.5078 51.018C10.4091 50.6178 10.2904 50.1712 10.1661 49.7022L9.04866 45.5653L9.03024 45.4995H8.25L10.1221 52.2548L10.14 52.3211H10.8046L12.0084 48.4508C12.2182 47.7908 12.3768 47.2725 12.4914 46.8192C12.5937 47.2974 12.7365 47.8234 12.9145 48.446L13.9552 52.2553L13.9731 52.3211H14.6479L16.7574 45.6131L16.7937 45.4995H16.0104L14.847 49.284L14.848 49.2845Z" fill="#494949"/>
<path d="M19.2501 47.2828C17.8492 47.2828 16.9078 48.3519 16.9078 49.9436C16.9078 51.4242 17.882 52.4191 19.3319 52.4191C20.2437 52.4191 20.7609 52.1964 20.9415 52.1013L21.0526 52.0423L20.7241 51.5007L20.6468 51.5348C20.3905 51.6479 20.0411 51.7639 19.3939 51.7639C18.3322 51.7639 17.7024 51.0985 17.6594 49.9363H21.25L21.2736 49.8354C21.2966 49.734 21.2966 49.6599 21.2966 49.5253C21.2966 49.343 21.27 48.7049 20.9241 48.1511C20.565 47.5753 20.0022 47.2833 19.2506 47.2833M17.7004 49.3094C17.8902 48.2934 18.5901 47.9298 19.1892 47.9298C19.5699 47.9298 19.8753 48.0389 20.0984 48.2549C20.4273 48.5728 20.5015 49.0344 20.5148 49.3094H17.7009H17.7004Z" fill="#494949"/>
<path d="M27.0791 51.4914H27.0786C26.6913 51.6616 26.1484 51.7635 25.6256 51.7635C23.8855 51.7635 22.8469 50.7153 22.8469 48.9603C22.8469 47.2053 23.9162 46.0495 25.7074 46.0495C26.2027 46.0495 26.6739 46.1387 27.0341 46.3001L27.1113 46.3347L27.4613 45.756L27.3569 45.7014C27.2188 45.6288 26.6908 45.3933 25.6972 45.3933C23.5253 45.3933 22.0667 46.8227 22.0667 48.9501C22.0667 51.5105 23.8957 52.4196 25.4623 52.4196C26.3449 52.4196 27.0331 52.2417 27.383 52.075L27.4971 52.0204L27.1564 51.4583L27.0791 51.4924V51.4914Z" fill="#494949"/>
<path d="M30.617 47.2824C30.2338 47.2824 29.8665 47.3828 29.5584 47.5719C29.3809 47.669 29.2157 47.803 29.075 47.9629V45.3928H28.3152V52.3217H29.075V49.3396C29.075 49.1607 29.0831 49.0452 29.1287 48.9145C29.3415 48.3456 29.8992 47.9478 30.4845 47.9478C31.5415 47.9478 31.6991 48.8745 31.6991 49.4269V52.3212H32.4589V49.3786C32.4589 47.3833 30.9245 47.2824 30.617 47.2824Z" fill="#494949"/>
<path d="M39.2421 46.3395H38.4813V47.4349H37.6534V48.0262H38.4813V50.8498C38.4813 51.4119 38.5918 51.8053 38.8164 52.0486C39.02 52.2972 39.3469 52.4288 39.7609 52.4288C40.0484 52.4288 40.297 52.3859 40.4996 52.3011L40.6219 52.2499L40.3027 51.7234L40.2367 51.7371C40.1216 51.7605 39.9824 51.7722 39.8222 51.7722C39.415 51.7722 39.241 51.5221 39.241 50.9366V48.0257H40.6414V47.4344H39.241V46.339L39.2421 46.3395Z" fill="#494949"/>
<path d="M45.6082 45.4518C45.1043 45.4518 44.5972 45.4952 44.102 45.58L43.991 45.599V52.3221H44.7512V49.5502C44.9559 49.5863 45.1831 49.5946 45.4553 49.5946C46.3665 49.5946 47.1206 49.3196 47.579 48.8224C47.9254 48.4601 48.0942 48.0014 48.0942 47.4208C48.0942 46.8402 47.8962 46.3775 47.5217 46.0436C47.1058 45.657 46.4442 45.4523 45.6082 45.4523M44.7512 46.1548C44.9001 46.1309 45.1795 46.0987 45.5878 46.0987C46.6975 46.0987 47.334 46.5984 47.334 47.4705C47.334 48.4104 46.6637 48.9496 45.4957 48.9496C45.269 48.9496 44.9835 48.9418 44.7512 48.8848V46.1552V46.1548Z" fill="#494949"/>
<path d="M56.463 47.3895L55.2346 50.5008C55.1363 50.745 55.0494 50.9883 54.9757 51.1954C54.8984 50.9688 54.8125 50.7367 54.7291 50.5285L53.4408 47.4705L53.4075 47.3895H52.5956L54.4891 51.8999C54.5403 52.0227 54.5413 52.0554 54.5413 52.0554C54.5413 52.0876 54.5147 52.1534 54.4902 52.2114C54.2456 52.7637 53.9263 53.1342 53.7028 53.3473C53.3947 53.6295 53.0622 53.7748 52.8908 53.8357L52.7527 53.884L53.3257 54.4495C53.4551 54.4027 53.6567 54.2613 54.0379 53.9552C54.6912 53.4121 55.1046 52.5863 55.7309 51.0526L57.2258 47.5104L57.2785 47.389H56.463V47.3895Z" fill="#494949"/>
<path d="M37.0574 51.0829V49.2523C37.0574 47.9634 36.424 47.2828 35.2257 47.2828C34.6967 47.2828 34.1293 47.4398 33.7113 47.7026L33.6325 47.7474L33.9625 48.291L34.0454 48.2383C34.3529 48.039 34.754 47.9283 35.1746 47.9283H35.192C35.5296 47.9283 35.7926 48.0151 35.9727 48.1852C36.1907 48.3909 36.2966 48.7137 36.2971 49.1709C35.1234 49.1748 34.2761 49.4142 33.7778 49.8846C33.4621 50.1825 33.302 50.5627 33.302 51.0142C33.302 51.6952 33.7952 52.4284 34.8783 52.4284C35.6335 52.4284 36.1165 52.0803 36.3697 51.8258L36.4224 52.3216H37.152L37.127 52.1729C37.0661 51.8127 37.0579 51.4359 37.0579 51.0829M34.358 50.2761C34.689 49.9704 35.3096 49.8159 36.204 49.8159H36.2966L36.2981 50.6939C36.2981 50.7553 36.2909 50.8465 36.2541 50.9347C36.1073 51.3452 35.6826 51.7829 34.93 51.7829C34.5391 51.7829 34.0833 51.5611 34.0833 50.9376C34.0833 50.668 34.1759 50.4457 34.3585 50.2761" fill="#494949"/>
<path d="M52.0307 51.0829V49.2523C52.0307 47.9634 51.3973 47.2823 50.1991 47.2823C49.6997 47.2823 49.1559 47.4267 48.7435 47.668L48.6673 47.7138L48.9937 48.252L49.075 48.2032C49.3743 48.0263 49.7555 47.9278 50.1484 47.9278H50.1664C50.503 47.9278 50.766 48.0146 50.9466 48.1847C51.164 48.3904 51.2699 48.7132 51.2705 49.1709C50.0978 49.1748 49.25 49.4147 48.7517 49.8846C48.436 50.183 48.2759 50.5627 48.2759 51.0147C48.2759 51.6952 48.7691 52.4289 49.8512 52.4289C50.6069 52.4289 51.0904 52.0813 51.3431 51.8263L51.3953 52.3221H52.1259L52.1008 52.1734C52.0389 51.8117 52.0307 51.4358 52.0307 51.0829ZM51.271 50.6934C51.271 50.7553 51.2633 50.8474 51.2275 50.9342C51.0801 51.3442 50.6555 51.7825 49.9034 51.7825C49.5125 51.7825 49.0561 51.5606 49.0561 50.9366C49.0561 50.6671 49.1487 50.4448 49.3319 50.2751C49.6624 49.9694 50.2835 49.8149 51.1768 49.8149H51.2705L51.271 50.6929V50.6934Z" fill="#494949"/>
</g>
<defs>
<clipPath id="clip0_554_3294">
<rect width="49.0286" height="42.9" fill="white" transform="translate(8.25 11.55)"/>
</clipPath>
</defs>
</svg>
